%TF.GenerationSoftware,KiCad,Pcbnew,9.0.4*%
%TF.CreationDate,2025-12-11T09:15:43+01:00*%
%TF.ProjectId,Drone_PCB,44726f6e-655f-4504-9342-2e6b69636164,rev?*%
%TF.SameCoordinates,Original*%
%TF.FileFunction,Paste,Top*%
%TF.FilePolarity,Positive*%
%FSLAX46Y46*%
G04 Gerber Fmt 4.6, Leading zero omitted, Abs format (unit mm)*
G04 Created by KiCad (PCBNEW 9.0.4) date 2025-12-11 09:15:43*
%MOMM*%
%LPD*%
G01*
G04 APERTURE LIST*
G04 Aperture macros list*
%AMRoundRect*
0 Rectangle with rounded corners*
0 $1 Rounding radius*
0 $2 $3 $4 $5 $6 $7 $8 $9 X,Y pos of 4 corners*
0 Add a 4 corners polygon primitive as box body*
4,1,4,$2,$3,$4,$5,$6,$7,$8,$9,$2,$3,0*
0 Add four circle primitives for the rounded corners*
1,1,$1+$1,$2,$3*
1,1,$1+$1,$4,$5*
1,1,$1+$1,$6,$7*
1,1,$1+$1,$8,$9*
0 Add four rect primitives between the rounded corners*
20,1,$1+$1,$2,$3,$4,$5,0*
20,1,$1+$1,$4,$5,$6,$7,0*
20,1,$1+$1,$6,$7,$8,$9,0*
20,1,$1+$1,$8,$9,$2,$3,0*%
G04 Aperture macros list end*
%ADD10RoundRect,0.250000X-0.650000X1.000000X-0.650000X-1.000000X0.650000X-1.000000X0.650000X1.000000X0*%
%ADD11RoundRect,0.140000X0.170000X-0.140000X0.170000X0.140000X-0.170000X0.140000X-0.170000X-0.140000X0*%
%ADD12RoundRect,0.140000X0.140000X0.170000X-0.140000X0.170000X-0.140000X-0.170000X0.140000X-0.170000X0*%
%ADD13RoundRect,0.135000X0.135000X0.185000X-0.135000X0.185000X-0.135000X-0.185000X0.135000X-0.185000X0*%
%ADD14RoundRect,0.135000X-0.185000X0.135000X-0.185000X-0.135000X0.185000X-0.135000X0.185000X0.135000X0*%
%ADD15RoundRect,0.150000X-0.150000X0.587500X-0.150000X-0.587500X0.150000X-0.587500X0.150000X0.587500X0*%
%ADD16RoundRect,0.225000X0.250000X-0.225000X0.250000X0.225000X-0.250000X0.225000X-0.250000X-0.225000X0*%
%ADD17RoundRect,0.150000X0.587500X0.150000X-0.587500X0.150000X-0.587500X-0.150000X0.587500X-0.150000X0*%
%ADD18RoundRect,0.250000X-0.255000X-0.440000X0.255000X-0.440000X0.255000X0.440000X-0.255000X0.440000X0*%
%ADD19RoundRect,0.150000X-0.825000X-0.150000X0.825000X-0.150000X0.825000X0.150000X-0.825000X0.150000X0*%
%ADD20RoundRect,0.150000X-0.512500X-0.150000X0.512500X-0.150000X0.512500X0.150000X-0.512500X0.150000X0*%
%ADD21RoundRect,0.135000X0.185000X-0.135000X0.185000X0.135000X-0.185000X0.135000X-0.185000X-0.135000X0*%
%ADD22RoundRect,0.218750X0.218750X0.256250X-0.218750X0.256250X-0.218750X-0.256250X0.218750X-0.256250X0*%
%ADD23RoundRect,0.075000X-0.700000X-0.075000X0.700000X-0.075000X0.700000X0.075000X-0.700000X0.075000X0*%
%ADD24RoundRect,0.075000X-0.075000X-0.700000X0.075000X-0.700000X0.075000X0.700000X-0.075000X0.700000X0*%
%ADD25RoundRect,0.140000X-0.170000X0.140000X-0.170000X-0.140000X0.170000X-0.140000X0.170000X0.140000X0*%
%ADD26RoundRect,0.150000X0.150000X-0.587500X0.150000X0.587500X-0.150000X0.587500X-0.150000X-0.587500X0*%
%ADD27RoundRect,0.250000X0.650000X-1.000000X0.650000X1.000000X-0.650000X1.000000X-0.650000X-1.000000X0*%
%ADD28RoundRect,0.150000X0.512500X0.150000X-0.512500X0.150000X-0.512500X-0.150000X0.512500X-0.150000X0*%
%ADD29RoundRect,0.140000X-0.140000X-0.170000X0.140000X-0.170000X0.140000X0.170000X-0.140000X0.170000X0*%
%ADD30R,0.450000X1.300000*%
%ADD31RoundRect,0.135000X-0.135000X-0.185000X0.135000X-0.185000X0.135000X0.185000X-0.135000X0.185000X0*%
%ADD32RoundRect,0.250000X-0.350000X0.450000X-0.350000X-0.450000X0.350000X-0.450000X0.350000X0.450000X0*%
%ADD33RoundRect,0.218750X-0.218750X-0.256250X0.218750X-0.256250X0.218750X0.256250X-0.218750X0.256250X0*%
%ADD34RoundRect,0.150000X-0.587500X-0.150000X0.587500X-0.150000X0.587500X0.150000X-0.587500X0.150000X0*%
%ADD35RoundRect,0.218750X-0.256250X0.218750X-0.256250X-0.218750X0.256250X-0.218750X0.256250X0.218750X0*%
G04 APERTURE END LIST*
D10*
%TO.C,D5*%
X101750000Y-94150000D03*
X101750000Y-98150000D03*
%TD*%
D11*
%TO.C,C10*%
X103900000Y-77380000D03*
X103900000Y-76420000D03*
%TD*%
D12*
%TO.C,C4*%
X71730000Y-96975000D03*
X70770000Y-96975000D03*
%TD*%
D13*
%TO.C,R11*%
X84247500Y-89775000D03*
X83227500Y-89775000D03*
%TD*%
D14*
%TO.C,R10*%
X100700000Y-56890000D03*
X100700000Y-57910000D03*
%TD*%
D15*
%TO.C,Q1*%
X59950000Y-67375000D03*
X58050000Y-67375000D03*
X59000000Y-69250000D03*
%TD*%
D12*
%TO.C,C9*%
X66219000Y-97150000D03*
X65259000Y-97150000D03*
%TD*%
%TO.C,C3*%
X78225000Y-96975000D03*
X77265000Y-96975000D03*
%TD*%
D16*
%TO.C,C6*%
X68500000Y-83300000D03*
X68500000Y-81750000D03*
%TD*%
D11*
%TO.C,C11*%
X66525000Y-86885000D03*
X66525000Y-85925000D03*
%TD*%
D17*
%TO.C,Q6*%
X53375000Y-87800000D03*
X53375000Y-85900000D03*
X51500000Y-86850000D03*
%TD*%
D10*
%TO.C,D4*%
X43250000Y-94250000D03*
X43250000Y-98250000D03*
%TD*%
D18*
%TO.C,U3*%
X83425000Y-66090000D03*
X83425000Y-67740000D03*
X84625000Y-66090000D03*
X84625000Y-67740000D03*
D19*
X81550000Y-65010000D03*
X81550000Y-66280000D03*
X81550000Y-67550000D03*
X81550000Y-68820000D03*
X86500000Y-68820000D03*
X86500000Y-67550000D03*
X86500000Y-66280000D03*
X86500000Y-65010000D03*
%TD*%
D14*
%TO.C,R4*%
X44625000Y-63490000D03*
X44625000Y-64510000D03*
%TD*%
%TO.C,R2*%
X64975000Y-56505000D03*
X64975000Y-57525000D03*
%TD*%
D20*
%TO.C,U4*%
X66750000Y-65350000D03*
X66750000Y-66300000D03*
X66750000Y-67250000D03*
X69025000Y-67250000D03*
X69025000Y-66300000D03*
X69025000Y-65350000D03*
%TD*%
D21*
%TO.C,R9*%
X86700000Y-59200000D03*
X86700000Y-58180000D03*
%TD*%
D22*
%TO.C,D1*%
X64975000Y-55000000D03*
X63400000Y-55000000D03*
%TD*%
D23*
%TO.C,U1*%
X68571000Y-85780000D03*
X68571000Y-86280000D03*
X68571000Y-86780000D03*
X68571000Y-87280000D03*
X68571000Y-87780000D03*
X68571000Y-88280000D03*
X68571000Y-88780000D03*
X68571000Y-89280000D03*
X68571000Y-89780000D03*
X68571000Y-90280000D03*
X68571000Y-90780000D03*
X68571000Y-91280000D03*
X68571000Y-91780000D03*
X68571000Y-92280000D03*
X68571000Y-92780000D03*
X68571000Y-93280000D03*
D24*
X70496000Y-95205000D03*
X70996000Y-95205000D03*
X71496000Y-95205000D03*
X71996000Y-95205000D03*
X72496000Y-95205000D03*
X72996000Y-95205000D03*
X73496000Y-95205000D03*
X73996000Y-95205000D03*
X74496000Y-95205000D03*
X74996000Y-95205000D03*
X75496000Y-95205000D03*
X75996000Y-95205000D03*
X76496000Y-95205000D03*
X76996000Y-95205000D03*
X77496000Y-95205000D03*
X77996000Y-95205000D03*
D23*
X79921000Y-93280000D03*
X79921000Y-92780000D03*
X79921000Y-92280000D03*
X79921000Y-91780000D03*
X79921000Y-91280000D03*
X79921000Y-90780000D03*
X79921000Y-90280000D03*
X79921000Y-89780000D03*
X79921000Y-89280000D03*
X79921000Y-88780000D03*
X79921000Y-88280000D03*
X79921000Y-87780000D03*
X79921000Y-87280000D03*
X79921000Y-86780000D03*
X79921000Y-86280000D03*
X79921000Y-85780000D03*
D24*
X77996000Y-83855000D03*
X77496000Y-83855000D03*
X76996000Y-83855000D03*
X76496000Y-83855000D03*
X75996000Y-83855000D03*
X75496000Y-83855000D03*
X74996000Y-83855000D03*
X74496000Y-83855000D03*
X73996000Y-83855000D03*
X73496000Y-83855000D03*
X72996000Y-83855000D03*
X72496000Y-83855000D03*
X71996000Y-83855000D03*
X71496000Y-83855000D03*
X70996000Y-83855000D03*
X70496000Y-83855000D03*
%TD*%
D12*
%TO.C,C5*%
X65325000Y-83275000D03*
X64365000Y-83275000D03*
%TD*%
D25*
%TO.C,C12*%
X66525000Y-88290000D03*
X66525000Y-89250000D03*
%TD*%
D17*
%TO.C,Q4*%
X53375000Y-96385000D03*
X53375000Y-94485000D03*
X51500000Y-95435000D03*
%TD*%
D26*
%TO.C,Q2*%
X58050000Y-73375000D03*
X59950000Y-73375000D03*
X59000000Y-71500000D03*
%TD*%
D27*
%TO.C,D7*%
X101750000Y-87950000D03*
X101750000Y-83950000D03*
%TD*%
D28*
%TO.C,U2*%
X55887500Y-60775000D03*
X55887500Y-59825000D03*
X55887500Y-58875000D03*
X53612500Y-58875000D03*
X53612500Y-60775000D03*
%TD*%
D12*
%TO.C,C7*%
X66955000Y-92225000D03*
X65995000Y-92225000D03*
%TD*%
D29*
%TO.C,C15*%
X77915000Y-60425000D03*
X78875000Y-60425000D03*
%TD*%
D22*
%TO.C,D8*%
X87237500Y-89775000D03*
X85662500Y-89775000D03*
%TD*%
D14*
%TO.C,R8*%
X83475000Y-58180000D03*
X83475000Y-59200000D03*
%TD*%
D30*
%TO.C,J9*%
X78855000Y-58100000D03*
X78205000Y-58100000D03*
X77555000Y-58100000D03*
X76905000Y-58100000D03*
X76255000Y-58100000D03*
%TD*%
D21*
%TO.C,R6*%
X71575000Y-66300000D03*
X71575000Y-65280000D03*
%TD*%
D12*
%TO.C,C8*%
X66230000Y-95880000D03*
X65270000Y-95880000D03*
%TD*%
D31*
%TO.C,R7*%
X67980000Y-63750000D03*
X69000000Y-63750000D03*
%TD*%
D32*
%TO.C,Y1*%
X63350000Y-86475000D03*
X63350000Y-88675000D03*
X65050000Y-88675000D03*
X65050000Y-86475000D03*
%TD*%
D33*
%TO.C,D2*%
X83487500Y-55200000D03*
X85062500Y-55200000D03*
%TD*%
D25*
%TO.C,C2*%
X81825000Y-85540000D03*
X81825000Y-86500000D03*
%TD*%
D31*
%TO.C,R1*%
X69875000Y-78975000D03*
X70895000Y-78975000D03*
%TD*%
D34*
%TO.C,Q3*%
X91625000Y-94410000D03*
X91625000Y-96310000D03*
X93500000Y-95360000D03*
%TD*%
D29*
%TO.C,C1*%
X70290000Y-81850000D03*
X71250000Y-81850000D03*
%TD*%
D34*
%TO.C,Q5*%
X91625000Y-85900000D03*
X91625000Y-87800000D03*
X93500000Y-86850000D03*
%TD*%
D33*
%TO.C,D3*%
X86700000Y-55194000D03*
X88275000Y-55194000D03*
%TD*%
D35*
%TO.C,FB1*%
X68150000Y-95762500D03*
X68150000Y-97337500D03*
%TD*%
D11*
%TO.C,C17*%
X74250000Y-62580000D03*
X74250000Y-61620000D03*
%TD*%
D25*
%TO.C,C14*%
X53575000Y-64470000D03*
X53575000Y-65430000D03*
%TD*%
D27*
%TO.C,D6*%
X43250000Y-87950000D03*
X43250000Y-83950000D03*
%TD*%
D14*
%TO.C,R3*%
X50300000Y-60790000D03*
X50300000Y-61810000D03*
%TD*%
D25*
%TO.C,C16*%
X73500000Y-66270000D03*
X73500000Y-67230000D03*
%TD*%
D14*
%TO.C,R5*%
X79325000Y-66390000D03*
X79325000Y-67410000D03*
%TD*%
D11*
%TO.C,C13*%
X57525000Y-60780000D03*
X57525000Y-59820000D03*
%TD*%
M02*
