%TF.GenerationSoftware,KiCad,Pcbnew,9.0.4*%
%TF.CreationDate,2025-11-28T16:57:24+01:00*%
%TF.ProjectId,Drone_PCB,44726f6e-655f-4504-9342-2e6b69636164,rev?*%
%TF.SameCoordinates,Original*%
%TF.FileFunction,Legend,Top*%
%TF.FilePolarity,Positive*%
%FSLAX46Y46*%
G04 Gerber Fmt 4.6, Leading zero omitted, Abs format (unit mm)*
G04 Created by KiCad (PCBNEW 9.0.4) date 2025-11-28 16:57:24*
%MOMM*%
%LPD*%
G01*
G04 APERTURE LIST*
%ADD10C,0.200000*%
%ADD11C,0.150000*%
%ADD12C,0.120000*%
G04 APERTURE END LIST*
D10*
X40306028Y-96130326D02*
X38806028Y-96130326D01*
X38806028Y-96130326D02*
X39877457Y-95796993D01*
X39877457Y-95796993D02*
X38806028Y-95463660D01*
X38806028Y-95463660D02*
X40306028Y-95463660D01*
X40448885Y-95225565D02*
X40448885Y-94463660D01*
X40306028Y-93749374D02*
X40306028Y-94225564D01*
X40306028Y-94225564D02*
X38806028Y-94225564D01*
X39520314Y-93082707D02*
X39591742Y-92939850D01*
X39591742Y-92939850D02*
X39663171Y-92892231D01*
X39663171Y-92892231D02*
X39806028Y-92844612D01*
X39806028Y-92844612D02*
X40020314Y-92844612D01*
X40020314Y-92844612D02*
X40163171Y-92892231D01*
X40163171Y-92892231D02*
X40234600Y-92939850D01*
X40234600Y-92939850D02*
X40306028Y-93035088D01*
X40306028Y-93035088D02*
X40306028Y-93416040D01*
X40306028Y-93416040D02*
X38806028Y-93416040D01*
X38806028Y-93416040D02*
X38806028Y-93082707D01*
X38806028Y-93082707D02*
X38877457Y-92987469D01*
X38877457Y-92987469D02*
X38948885Y-92939850D01*
X38948885Y-92939850D02*
X39091742Y-92892231D01*
X39091742Y-92892231D02*
X39234600Y-92892231D01*
X39234600Y-92892231D02*
X39377457Y-92939850D01*
X39377457Y-92939850D02*
X39448885Y-92987469D01*
X39448885Y-92987469D02*
X39520314Y-93082707D01*
X39520314Y-93082707D02*
X39520314Y-93416040D01*
X40306028Y-89130326D02*
X38806028Y-89130326D01*
X38806028Y-89130326D02*
X39877457Y-88796993D01*
X39877457Y-88796993D02*
X38806028Y-88463660D01*
X38806028Y-88463660D02*
X40306028Y-88463660D01*
X40448885Y-88225565D02*
X40448885Y-87463660D01*
X40306028Y-86749374D02*
X40306028Y-87225564D01*
X40306028Y-87225564D02*
X38806028Y-87225564D01*
X39520314Y-86082707D02*
X39520314Y-86416040D01*
X40306028Y-86416040D02*
X38806028Y-86416040D01*
X38806028Y-86416040D02*
X38806028Y-85939850D01*
X104693971Y-92869673D02*
X106193971Y-92869673D01*
X106193971Y-92869673D02*
X105122542Y-93203006D01*
X105122542Y-93203006D02*
X106193971Y-93536339D01*
X106193971Y-93536339D02*
X104693971Y-93536339D01*
X104551114Y-93774435D02*
X104551114Y-94536339D01*
X104693971Y-95345863D02*
X105408257Y-95012530D01*
X104693971Y-94774435D02*
X106193971Y-94774435D01*
X106193971Y-94774435D02*
X106193971Y-95155387D01*
X106193971Y-95155387D02*
X106122542Y-95250625D01*
X106122542Y-95250625D02*
X106051114Y-95298244D01*
X106051114Y-95298244D02*
X105908257Y-95345863D01*
X105908257Y-95345863D02*
X105693971Y-95345863D01*
X105693971Y-95345863D02*
X105551114Y-95298244D01*
X105551114Y-95298244D02*
X105479685Y-95250625D01*
X105479685Y-95250625D02*
X105408257Y-95155387D01*
X105408257Y-95155387D02*
X105408257Y-94774435D01*
X105479685Y-96107768D02*
X105408257Y-96250625D01*
X105408257Y-96250625D02*
X105336828Y-96298244D01*
X105336828Y-96298244D02*
X105193971Y-96345863D01*
X105193971Y-96345863D02*
X104979685Y-96345863D01*
X104979685Y-96345863D02*
X104836828Y-96298244D01*
X104836828Y-96298244D02*
X104765400Y-96250625D01*
X104765400Y-96250625D02*
X104693971Y-96155387D01*
X104693971Y-96155387D02*
X104693971Y-95774435D01*
X104693971Y-95774435D02*
X106193971Y-95774435D01*
X106193971Y-95774435D02*
X106193971Y-96107768D01*
X106193971Y-96107768D02*
X106122542Y-96203006D01*
X106122542Y-96203006D02*
X106051114Y-96250625D01*
X106051114Y-96250625D02*
X105908257Y-96298244D01*
X105908257Y-96298244D02*
X105765400Y-96298244D01*
X105765400Y-96298244D02*
X105622542Y-96250625D01*
X105622542Y-96250625D02*
X105551114Y-96203006D01*
X105551114Y-96203006D02*
X105479685Y-96107768D01*
X105479685Y-96107768D02*
X105479685Y-95774435D01*
X104693971Y-85869673D02*
X106193971Y-85869673D01*
X106193971Y-85869673D02*
X105122542Y-86203006D01*
X105122542Y-86203006D02*
X106193971Y-86536339D01*
X106193971Y-86536339D02*
X104693971Y-86536339D01*
X104551114Y-86774435D02*
X104551114Y-87536339D01*
X104693971Y-88345863D02*
X105408257Y-88012530D01*
X104693971Y-87774435D02*
X106193971Y-87774435D01*
X106193971Y-87774435D02*
X106193971Y-88155387D01*
X106193971Y-88155387D02*
X106122542Y-88250625D01*
X106122542Y-88250625D02*
X106051114Y-88298244D01*
X106051114Y-88298244D02*
X105908257Y-88345863D01*
X105908257Y-88345863D02*
X105693971Y-88345863D01*
X105693971Y-88345863D02*
X105551114Y-88298244D01*
X105551114Y-88298244D02*
X105479685Y-88250625D01*
X105479685Y-88250625D02*
X105408257Y-88155387D01*
X105408257Y-88155387D02*
X105408257Y-87774435D01*
X105479685Y-89107768D02*
X105479685Y-88774435D01*
X104693971Y-88774435D02*
X106193971Y-88774435D01*
X106193971Y-88774435D02*
X106193971Y-89250625D01*
X92479685Y-75703006D02*
X92408257Y-75845863D01*
X92408257Y-75845863D02*
X92336828Y-75893482D01*
X92336828Y-75893482D02*
X92193971Y-75941101D01*
X92193971Y-75941101D02*
X91979685Y-75941101D01*
X91979685Y-75941101D02*
X91836828Y-75893482D01*
X91836828Y-75893482D02*
X91765400Y-75845863D01*
X91765400Y-75845863D02*
X91693971Y-75750625D01*
X91693971Y-75750625D02*
X91693971Y-75369673D01*
X91693971Y-75369673D02*
X93193971Y-75369673D01*
X93193971Y-75369673D02*
X93193971Y-75703006D01*
X93193971Y-75703006D02*
X93122542Y-75798244D01*
X93122542Y-75798244D02*
X93051114Y-75845863D01*
X93051114Y-75845863D02*
X92908257Y-75893482D01*
X92908257Y-75893482D02*
X92765400Y-75893482D01*
X92765400Y-75893482D02*
X92622542Y-75845863D01*
X92622542Y-75845863D02*
X92551114Y-75798244D01*
X92551114Y-75798244D02*
X92479685Y-75703006D01*
X92479685Y-75703006D02*
X92479685Y-75369673D01*
X92122542Y-76322054D02*
X92122542Y-76798244D01*
X91693971Y-76226816D02*
X93193971Y-76560149D01*
X93193971Y-76560149D02*
X91693971Y-76893482D01*
X93193971Y-77083959D02*
X93193971Y-77655387D01*
X91693971Y-77369673D02*
X93193971Y-77369673D01*
X93193971Y-77845864D02*
X93193971Y-78417292D01*
X91693971Y-78131578D02*
X93193971Y-78131578D01*
X92479685Y-78750626D02*
X92479685Y-79083959D01*
X91693971Y-79226816D02*
X91693971Y-78750626D01*
X91693971Y-78750626D02*
X93193971Y-78750626D01*
X93193971Y-78750626D02*
X93193971Y-79226816D01*
X91693971Y-80226816D02*
X92408257Y-79893483D01*
X91693971Y-79655388D02*
X93193971Y-79655388D01*
X93193971Y-79655388D02*
X93193971Y-80036340D01*
X93193971Y-80036340D02*
X93122542Y-80131578D01*
X93122542Y-80131578D02*
X93051114Y-80179197D01*
X93051114Y-80179197D02*
X92908257Y-80226816D01*
X92908257Y-80226816D02*
X92693971Y-80226816D01*
X92693971Y-80226816D02*
X92551114Y-80179197D01*
X92551114Y-80179197D02*
X92479685Y-80131578D01*
X92479685Y-80131578D02*
X92408257Y-80036340D01*
X92408257Y-80036340D02*
X92408257Y-79655388D01*
X92408257Y-80845864D02*
X91693971Y-80845864D01*
X93193971Y-80512531D02*
X92408257Y-80845864D01*
X92408257Y-80845864D02*
X93193971Y-81179197D01*
X45393482Y-77377457D02*
X45298244Y-77306028D01*
X45298244Y-77306028D02*
X45155387Y-77306028D01*
X45155387Y-77306028D02*
X45012530Y-77377457D01*
X45012530Y-77377457D02*
X44917292Y-77520314D01*
X44917292Y-77520314D02*
X44869673Y-77663171D01*
X44869673Y-77663171D02*
X44822054Y-77948885D01*
X44822054Y-77948885D02*
X44822054Y-78163171D01*
X44822054Y-78163171D02*
X44869673Y-78448885D01*
X44869673Y-78448885D02*
X44917292Y-78591742D01*
X44917292Y-78591742D02*
X45012530Y-78734600D01*
X45012530Y-78734600D02*
X45155387Y-78806028D01*
X45155387Y-78806028D02*
X45250625Y-78806028D01*
X45250625Y-78806028D02*
X45393482Y-78734600D01*
X45393482Y-78734600D02*
X45441101Y-78663171D01*
X45441101Y-78663171D02*
X45441101Y-78163171D01*
X45441101Y-78163171D02*
X45250625Y-78163171D01*
X46060149Y-78091742D02*
X46060149Y-78806028D01*
X45726816Y-77306028D02*
X46060149Y-78091742D01*
X46060149Y-78091742D02*
X46393482Y-77306028D01*
X46726816Y-78234600D02*
X47488721Y-78234600D01*
X48441101Y-77306028D02*
X47964911Y-77306028D01*
X47964911Y-77306028D02*
X47917292Y-78020314D01*
X47917292Y-78020314D02*
X47964911Y-77948885D01*
X47964911Y-77948885D02*
X48060149Y-77877457D01*
X48060149Y-77877457D02*
X48298244Y-77877457D01*
X48298244Y-77877457D02*
X48393482Y-77948885D01*
X48393482Y-77948885D02*
X48441101Y-78020314D01*
X48441101Y-78020314D02*
X48488720Y-78163171D01*
X48488720Y-78163171D02*
X48488720Y-78520314D01*
X48488720Y-78520314D02*
X48441101Y-78663171D01*
X48441101Y-78663171D02*
X48393482Y-78734600D01*
X48393482Y-78734600D02*
X48298244Y-78806028D01*
X48298244Y-78806028D02*
X48060149Y-78806028D01*
X48060149Y-78806028D02*
X47964911Y-78734600D01*
X47964911Y-78734600D02*
X47917292Y-78663171D01*
X48869673Y-77448885D02*
X48917292Y-77377457D01*
X48917292Y-77377457D02*
X49012530Y-77306028D01*
X49012530Y-77306028D02*
X49250625Y-77306028D01*
X49250625Y-77306028D02*
X49345863Y-77377457D01*
X49345863Y-77377457D02*
X49393482Y-77448885D01*
X49393482Y-77448885D02*
X49441101Y-77591742D01*
X49441101Y-77591742D02*
X49441101Y-77734600D01*
X49441101Y-77734600D02*
X49393482Y-77948885D01*
X49393482Y-77948885D02*
X48822054Y-78806028D01*
X48822054Y-78806028D02*
X49441101Y-78806028D01*
X50393482Y-78806028D02*
X49822054Y-78806028D01*
X50107768Y-78806028D02*
X50107768Y-77306028D01*
X50107768Y-77306028D02*
X50012530Y-77520314D01*
X50012530Y-77520314D02*
X49917292Y-77663171D01*
X49917292Y-77663171D02*
X49822054Y-77734600D01*
X94869673Y-70520314D02*
X95203006Y-70520314D01*
X95345863Y-71306028D02*
X94869673Y-71306028D01*
X94869673Y-71306028D02*
X94869673Y-69806028D01*
X94869673Y-69806028D02*
X95345863Y-69806028D01*
X95726816Y-71234600D02*
X95869673Y-71306028D01*
X95869673Y-71306028D02*
X96107768Y-71306028D01*
X96107768Y-71306028D02*
X96203006Y-71234600D01*
X96203006Y-71234600D02*
X96250625Y-71163171D01*
X96250625Y-71163171D02*
X96298244Y-71020314D01*
X96298244Y-71020314D02*
X96298244Y-70877457D01*
X96298244Y-70877457D02*
X96250625Y-70734600D01*
X96250625Y-70734600D02*
X96203006Y-70663171D01*
X96203006Y-70663171D02*
X96107768Y-70591742D01*
X96107768Y-70591742D02*
X95917292Y-70520314D01*
X95917292Y-70520314D02*
X95822054Y-70448885D01*
X95822054Y-70448885D02*
X95774435Y-70377457D01*
X95774435Y-70377457D02*
X95726816Y-70234600D01*
X95726816Y-70234600D02*
X95726816Y-70091742D01*
X95726816Y-70091742D02*
X95774435Y-69948885D01*
X95774435Y-69948885D02*
X95822054Y-69877457D01*
X95822054Y-69877457D02*
X95917292Y-69806028D01*
X95917292Y-69806028D02*
X96155387Y-69806028D01*
X96155387Y-69806028D02*
X96298244Y-69877457D01*
X96726816Y-71306028D02*
X96726816Y-69806028D01*
X96726816Y-69806028D02*
X97107768Y-69806028D01*
X97107768Y-69806028D02*
X97203006Y-69877457D01*
X97203006Y-69877457D02*
X97250625Y-69948885D01*
X97250625Y-69948885D02*
X97298244Y-70091742D01*
X97298244Y-70091742D02*
X97298244Y-70306028D01*
X97298244Y-70306028D02*
X97250625Y-70448885D01*
X97250625Y-70448885D02*
X97203006Y-70520314D01*
X97203006Y-70520314D02*
X97107768Y-70591742D01*
X97107768Y-70591742D02*
X96726816Y-70591742D01*
X97726816Y-70734600D02*
X98488721Y-70734600D01*
X99155387Y-69806028D02*
X99250625Y-69806028D01*
X99250625Y-69806028D02*
X99345863Y-69877457D01*
X99345863Y-69877457D02*
X99393482Y-69948885D01*
X99393482Y-69948885D02*
X99441101Y-70091742D01*
X99441101Y-70091742D02*
X99488720Y-70377457D01*
X99488720Y-70377457D02*
X99488720Y-70734600D01*
X99488720Y-70734600D02*
X99441101Y-71020314D01*
X99441101Y-71020314D02*
X99393482Y-71163171D01*
X99393482Y-71163171D02*
X99345863Y-71234600D01*
X99345863Y-71234600D02*
X99250625Y-71306028D01*
X99250625Y-71306028D02*
X99155387Y-71306028D01*
X99155387Y-71306028D02*
X99060149Y-71234600D01*
X99060149Y-71234600D02*
X99012530Y-71163171D01*
X99012530Y-71163171D02*
X98964911Y-71020314D01*
X98964911Y-71020314D02*
X98917292Y-70734600D01*
X98917292Y-70734600D02*
X98917292Y-70377457D01*
X98917292Y-70377457D02*
X98964911Y-70091742D01*
X98964911Y-70091742D02*
X99012530Y-69948885D01*
X99012530Y-69948885D02*
X99060149Y-69877457D01*
X99060149Y-69877457D02*
X99155387Y-69806028D01*
X100393482Y-69806028D02*
X99917292Y-69806028D01*
X99917292Y-69806028D02*
X99869673Y-70520314D01*
X99869673Y-70520314D02*
X99917292Y-70448885D01*
X99917292Y-70448885D02*
X100012530Y-70377457D01*
X100012530Y-70377457D02*
X100250625Y-70377457D01*
X100250625Y-70377457D02*
X100345863Y-70448885D01*
X100345863Y-70448885D02*
X100393482Y-70520314D01*
X100393482Y-70520314D02*
X100441101Y-70663171D01*
X100441101Y-70663171D02*
X100441101Y-71020314D01*
X100441101Y-71020314D02*
X100393482Y-71163171D01*
X100393482Y-71163171D02*
X100345863Y-71234600D01*
X100345863Y-71234600D02*
X100250625Y-71306028D01*
X100250625Y-71306028D02*
X100012530Y-71306028D01*
X100012530Y-71306028D02*
X99917292Y-71234600D01*
X99917292Y-71234600D02*
X99869673Y-71163171D01*
X78322054Y-76777100D02*
X78464911Y-76836623D01*
X78464911Y-76836623D02*
X78703006Y-76836623D01*
X78703006Y-76836623D02*
X78798244Y-76777100D01*
X78798244Y-76777100D02*
X78845863Y-76717576D01*
X78845863Y-76717576D02*
X78893482Y-76598528D01*
X78893482Y-76598528D02*
X78893482Y-76479480D01*
X78893482Y-76479480D02*
X78845863Y-76360433D01*
X78845863Y-76360433D02*
X78798244Y-76300909D01*
X78798244Y-76300909D02*
X78703006Y-76241385D01*
X78703006Y-76241385D02*
X78512530Y-76181861D01*
X78512530Y-76181861D02*
X78417292Y-76122338D01*
X78417292Y-76122338D02*
X78369673Y-76062814D01*
X78369673Y-76062814D02*
X78322054Y-75943766D01*
X78322054Y-75943766D02*
X78322054Y-75824719D01*
X78322054Y-75824719D02*
X78369673Y-75705671D01*
X78369673Y-75705671D02*
X78417292Y-75646147D01*
X78417292Y-75646147D02*
X78512530Y-75586623D01*
X78512530Y-75586623D02*
X78750625Y-75586623D01*
X78750625Y-75586623D02*
X78893482Y-75646147D01*
X79226816Y-75586623D02*
X79464911Y-76836623D01*
X79464911Y-76836623D02*
X79655387Y-75943766D01*
X79655387Y-75943766D02*
X79845863Y-76836623D01*
X79845863Y-76836623D02*
X80083959Y-75586623D01*
X80464911Y-76836623D02*
X80464911Y-75586623D01*
X80464911Y-75586623D02*
X80703006Y-75586623D01*
X80703006Y-75586623D02*
X80845863Y-75646147D01*
X80845863Y-75646147D02*
X80941101Y-75765195D01*
X80941101Y-75765195D02*
X80988720Y-75884242D01*
X80988720Y-75884242D02*
X81036339Y-76122338D01*
X81036339Y-76122338D02*
X81036339Y-76300909D01*
X81036339Y-76300909D02*
X80988720Y-76539004D01*
X80988720Y-76539004D02*
X80941101Y-76658052D01*
X80941101Y-76658052D02*
X80845863Y-76777100D01*
X80845863Y-76777100D02*
X80703006Y-76836623D01*
X80703006Y-76836623D02*
X80464911Y-76836623D01*
D11*
X89662095Y-63792819D02*
X89662095Y-64602342D01*
X89662095Y-64602342D02*
X89709714Y-64697580D01*
X89709714Y-64697580D02*
X89757333Y-64745200D01*
X89757333Y-64745200D02*
X89852571Y-64792819D01*
X89852571Y-64792819D02*
X90043047Y-64792819D01*
X90043047Y-64792819D02*
X90138285Y-64745200D01*
X90138285Y-64745200D02*
X90185904Y-64697580D01*
X90185904Y-64697580D02*
X90233523Y-64602342D01*
X90233523Y-64602342D02*
X90233523Y-63792819D01*
X90614476Y-63792819D02*
X91233523Y-63792819D01*
X91233523Y-63792819D02*
X90900190Y-64173771D01*
X90900190Y-64173771D02*
X91043047Y-64173771D01*
X91043047Y-64173771D02*
X91138285Y-64221390D01*
X91138285Y-64221390D02*
X91185904Y-64269009D01*
X91185904Y-64269009D02*
X91233523Y-64364247D01*
X91233523Y-64364247D02*
X91233523Y-64602342D01*
X91233523Y-64602342D02*
X91185904Y-64697580D01*
X91185904Y-64697580D02*
X91138285Y-64745200D01*
X91138285Y-64745200D02*
X91043047Y-64792819D01*
X91043047Y-64792819D02*
X90757333Y-64792819D01*
X90757333Y-64792819D02*
X90662095Y-64745200D01*
X90662095Y-64745200D02*
X90614476Y-64697580D01*
X83818405Y-57426819D02*
X83818405Y-56426819D01*
X83818405Y-56426819D02*
X84056500Y-56426819D01*
X84056500Y-56426819D02*
X84199357Y-56474438D01*
X84199357Y-56474438D02*
X84294595Y-56569676D01*
X84294595Y-56569676D02*
X84342214Y-56664914D01*
X84342214Y-56664914D02*
X84389833Y-56855390D01*
X84389833Y-56855390D02*
X84389833Y-56998247D01*
X84389833Y-56998247D02*
X84342214Y-57188723D01*
X84342214Y-57188723D02*
X84294595Y-57283961D01*
X84294595Y-57283961D02*
X84199357Y-57379200D01*
X84199357Y-57379200D02*
X84056500Y-57426819D01*
X84056500Y-57426819D02*
X83818405Y-57426819D01*
X84723167Y-56426819D02*
X85342214Y-56426819D01*
X85342214Y-56426819D02*
X85008881Y-56807771D01*
X85008881Y-56807771D02*
X85151738Y-56807771D01*
X85151738Y-56807771D02*
X85246976Y-56855390D01*
X85246976Y-56855390D02*
X85294595Y-56903009D01*
X85294595Y-56903009D02*
X85342214Y-56998247D01*
X85342214Y-56998247D02*
X85342214Y-57236342D01*
X85342214Y-57236342D02*
X85294595Y-57331580D01*
X85294595Y-57331580D02*
X85246976Y-57379200D01*
X85246976Y-57379200D02*
X85151738Y-57426819D01*
X85151738Y-57426819D02*
X84866024Y-57426819D01*
X84866024Y-57426819D02*
X84770786Y-57379200D01*
X84770786Y-57379200D02*
X84723167Y-57331580D01*
X91527333Y-62252819D02*
X91194000Y-61776628D01*
X90955905Y-62252819D02*
X90955905Y-61252819D01*
X90955905Y-61252819D02*
X91336857Y-61252819D01*
X91336857Y-61252819D02*
X91432095Y-61300438D01*
X91432095Y-61300438D02*
X91479714Y-61348057D01*
X91479714Y-61348057D02*
X91527333Y-61443295D01*
X91527333Y-61443295D02*
X91527333Y-61586152D01*
X91527333Y-61586152D02*
X91479714Y-61681390D01*
X91479714Y-61681390D02*
X91432095Y-61729009D01*
X91432095Y-61729009D02*
X91336857Y-61776628D01*
X91336857Y-61776628D02*
X90955905Y-61776628D01*
X92432095Y-61252819D02*
X91955905Y-61252819D01*
X91955905Y-61252819D02*
X91908286Y-61729009D01*
X91908286Y-61729009D02*
X91955905Y-61681390D01*
X91955905Y-61681390D02*
X92051143Y-61633771D01*
X92051143Y-61633771D02*
X92289238Y-61633771D01*
X92289238Y-61633771D02*
X92384476Y-61681390D01*
X92384476Y-61681390D02*
X92432095Y-61729009D01*
X92432095Y-61729009D02*
X92479714Y-61824247D01*
X92479714Y-61824247D02*
X92479714Y-62062342D01*
X92479714Y-62062342D02*
X92432095Y-62157580D01*
X92432095Y-62157580D02*
X92384476Y-62205200D01*
X92384476Y-62205200D02*
X92289238Y-62252819D01*
X92289238Y-62252819D02*
X92051143Y-62252819D01*
X92051143Y-62252819D02*
X91955905Y-62205200D01*
X91955905Y-62205200D02*
X91908286Y-62157580D01*
X82161142Y-69859580D02*
X82113523Y-69907200D01*
X82113523Y-69907200D02*
X81970666Y-69954819D01*
X81970666Y-69954819D02*
X81875428Y-69954819D01*
X81875428Y-69954819D02*
X81732571Y-69907200D01*
X81732571Y-69907200D02*
X81637333Y-69811961D01*
X81637333Y-69811961D02*
X81589714Y-69716723D01*
X81589714Y-69716723D02*
X81542095Y-69526247D01*
X81542095Y-69526247D02*
X81542095Y-69383390D01*
X81542095Y-69383390D02*
X81589714Y-69192914D01*
X81589714Y-69192914D02*
X81637333Y-69097676D01*
X81637333Y-69097676D02*
X81732571Y-69002438D01*
X81732571Y-69002438D02*
X81875428Y-68954819D01*
X81875428Y-68954819D02*
X81970666Y-68954819D01*
X81970666Y-68954819D02*
X82113523Y-69002438D01*
X82113523Y-69002438D02*
X82161142Y-69050057D01*
X83113523Y-69954819D02*
X82542095Y-69954819D01*
X82827809Y-69954819D02*
X82827809Y-68954819D01*
X82827809Y-68954819D02*
X82732571Y-69097676D01*
X82732571Y-69097676D02*
X82637333Y-69192914D01*
X82637333Y-69192914D02*
X82542095Y-69240533D01*
X83446857Y-68954819D02*
X84113523Y-68954819D01*
X84113523Y-68954819D02*
X83684952Y-69954819D01*
X67238666Y-97825009D02*
X66905333Y-97825009D01*
X66905333Y-98348819D02*
X66905333Y-97348819D01*
X66905333Y-97348819D02*
X67381523Y-97348819D01*
X68095809Y-97825009D02*
X68238666Y-97872628D01*
X68238666Y-97872628D02*
X68286285Y-97920247D01*
X68286285Y-97920247D02*
X68333904Y-98015485D01*
X68333904Y-98015485D02*
X68333904Y-98158342D01*
X68333904Y-98158342D02*
X68286285Y-98253580D01*
X68286285Y-98253580D02*
X68238666Y-98301200D01*
X68238666Y-98301200D02*
X68143428Y-98348819D01*
X68143428Y-98348819D02*
X67762476Y-98348819D01*
X67762476Y-98348819D02*
X67762476Y-97348819D01*
X67762476Y-97348819D02*
X68095809Y-97348819D01*
X68095809Y-97348819D02*
X68191047Y-97396438D01*
X68191047Y-97396438D02*
X68238666Y-97444057D01*
X68238666Y-97444057D02*
X68286285Y-97539295D01*
X68286285Y-97539295D02*
X68286285Y-97634533D01*
X68286285Y-97634533D02*
X68238666Y-97729771D01*
X68238666Y-97729771D02*
X68191047Y-97777390D01*
X68191047Y-97777390D02*
X68095809Y-97825009D01*
X68095809Y-97825009D02*
X67762476Y-97825009D01*
X69286285Y-98348819D02*
X68714857Y-98348819D01*
X69000571Y-98348819D02*
X69000571Y-97348819D01*
X69000571Y-97348819D02*
X68905333Y-97491676D01*
X68905333Y-97491676D02*
X68810095Y-97586914D01*
X68810095Y-97586914D02*
X68714857Y-97634533D01*
X47189666Y-53556819D02*
X47189666Y-54271104D01*
X47189666Y-54271104D02*
X47142047Y-54413961D01*
X47142047Y-54413961D02*
X47046809Y-54509200D01*
X47046809Y-54509200D02*
X46903952Y-54556819D01*
X46903952Y-54556819D02*
X46808714Y-54556819D01*
X47618238Y-53652057D02*
X47665857Y-53604438D01*
X47665857Y-53604438D02*
X47761095Y-53556819D01*
X47761095Y-53556819D02*
X47999190Y-53556819D01*
X47999190Y-53556819D02*
X48094428Y-53604438D01*
X48094428Y-53604438D02*
X48142047Y-53652057D01*
X48142047Y-53652057D02*
X48189666Y-53747295D01*
X48189666Y-53747295D02*
X48189666Y-53842533D01*
X48189666Y-53842533D02*
X48142047Y-53985390D01*
X48142047Y-53985390D02*
X47570619Y-54556819D01*
X47570619Y-54556819D02*
X48189666Y-54556819D01*
X92467261Y-92300057D02*
X92372023Y-92252438D01*
X92372023Y-92252438D02*
X92276785Y-92157200D01*
X92276785Y-92157200D02*
X92133928Y-92014342D01*
X92133928Y-92014342D02*
X92038690Y-91966723D01*
X92038690Y-91966723D02*
X91943452Y-91966723D01*
X91991071Y-92204819D02*
X91895833Y-92157200D01*
X91895833Y-92157200D02*
X91800595Y-92061961D01*
X91800595Y-92061961D02*
X91752976Y-91871485D01*
X91752976Y-91871485D02*
X91752976Y-91538152D01*
X91752976Y-91538152D02*
X91800595Y-91347676D01*
X91800595Y-91347676D02*
X91895833Y-91252438D01*
X91895833Y-91252438D02*
X91991071Y-91204819D01*
X91991071Y-91204819D02*
X92181547Y-91204819D01*
X92181547Y-91204819D02*
X92276785Y-91252438D01*
X92276785Y-91252438D02*
X92372023Y-91347676D01*
X92372023Y-91347676D02*
X92419642Y-91538152D01*
X92419642Y-91538152D02*
X92419642Y-91871485D01*
X92419642Y-91871485D02*
X92372023Y-92061961D01*
X92372023Y-92061961D02*
X92276785Y-92157200D01*
X92276785Y-92157200D02*
X92181547Y-92204819D01*
X92181547Y-92204819D02*
X91991071Y-92204819D01*
X92752976Y-91204819D02*
X93372023Y-91204819D01*
X93372023Y-91204819D02*
X93038690Y-91585771D01*
X93038690Y-91585771D02*
X93181547Y-91585771D01*
X93181547Y-91585771D02*
X93276785Y-91633390D01*
X93276785Y-91633390D02*
X93324404Y-91681009D01*
X93324404Y-91681009D02*
X93372023Y-91776247D01*
X93372023Y-91776247D02*
X93372023Y-92014342D01*
X93372023Y-92014342D02*
X93324404Y-92109580D01*
X93324404Y-92109580D02*
X93276785Y-92157200D01*
X93276785Y-92157200D02*
X93181547Y-92204819D01*
X93181547Y-92204819D02*
X92895833Y-92204819D01*
X92895833Y-92204819D02*
X92800595Y-92157200D01*
X92800595Y-92157200D02*
X92752976Y-92109580D01*
X88391666Y-81434819D02*
X88391666Y-82149104D01*
X88391666Y-82149104D02*
X88344047Y-82291961D01*
X88344047Y-82291961D02*
X88248809Y-82387200D01*
X88248809Y-82387200D02*
X88105952Y-82434819D01*
X88105952Y-82434819D02*
X88010714Y-82434819D01*
X89010714Y-81863390D02*
X88915476Y-81815771D01*
X88915476Y-81815771D02*
X88867857Y-81768152D01*
X88867857Y-81768152D02*
X88820238Y-81672914D01*
X88820238Y-81672914D02*
X88820238Y-81625295D01*
X88820238Y-81625295D02*
X88867857Y-81530057D01*
X88867857Y-81530057D02*
X88915476Y-81482438D01*
X88915476Y-81482438D02*
X89010714Y-81434819D01*
X89010714Y-81434819D02*
X89201190Y-81434819D01*
X89201190Y-81434819D02*
X89296428Y-81482438D01*
X89296428Y-81482438D02*
X89344047Y-81530057D01*
X89344047Y-81530057D02*
X89391666Y-81625295D01*
X89391666Y-81625295D02*
X89391666Y-81672914D01*
X89391666Y-81672914D02*
X89344047Y-81768152D01*
X89344047Y-81768152D02*
X89296428Y-81815771D01*
X89296428Y-81815771D02*
X89201190Y-81863390D01*
X89201190Y-81863390D02*
X89010714Y-81863390D01*
X89010714Y-81863390D02*
X88915476Y-81911009D01*
X88915476Y-81911009D02*
X88867857Y-81958628D01*
X88867857Y-81958628D02*
X88820238Y-82053866D01*
X88820238Y-82053866D02*
X88820238Y-82244342D01*
X88820238Y-82244342D02*
X88867857Y-82339580D01*
X88867857Y-82339580D02*
X88915476Y-82387200D01*
X88915476Y-82387200D02*
X89010714Y-82434819D01*
X89010714Y-82434819D02*
X89201190Y-82434819D01*
X89201190Y-82434819D02*
X89296428Y-82387200D01*
X89296428Y-82387200D02*
X89344047Y-82339580D01*
X89344047Y-82339580D02*
X89391666Y-82244342D01*
X89391666Y-82244342D02*
X89391666Y-82053866D01*
X89391666Y-82053866D02*
X89344047Y-81958628D01*
X89344047Y-81958628D02*
X89296428Y-81911009D01*
X89296428Y-81911009D02*
X89201190Y-81863390D01*
X81621333Y-84283580D02*
X81573714Y-84331200D01*
X81573714Y-84331200D02*
X81430857Y-84378819D01*
X81430857Y-84378819D02*
X81335619Y-84378819D01*
X81335619Y-84378819D02*
X81192762Y-84331200D01*
X81192762Y-84331200D02*
X81097524Y-84235961D01*
X81097524Y-84235961D02*
X81049905Y-84140723D01*
X81049905Y-84140723D02*
X81002286Y-83950247D01*
X81002286Y-83950247D02*
X81002286Y-83807390D01*
X81002286Y-83807390D02*
X81049905Y-83616914D01*
X81049905Y-83616914D02*
X81097524Y-83521676D01*
X81097524Y-83521676D02*
X81192762Y-83426438D01*
X81192762Y-83426438D02*
X81335619Y-83378819D01*
X81335619Y-83378819D02*
X81430857Y-83378819D01*
X81430857Y-83378819D02*
X81573714Y-83426438D01*
X81573714Y-83426438D02*
X81621333Y-83474057D01*
X82002286Y-83474057D02*
X82049905Y-83426438D01*
X82049905Y-83426438D02*
X82145143Y-83378819D01*
X82145143Y-83378819D02*
X82383238Y-83378819D01*
X82383238Y-83378819D02*
X82478476Y-83426438D01*
X82478476Y-83426438D02*
X82526095Y-83474057D01*
X82526095Y-83474057D02*
X82573714Y-83569295D01*
X82573714Y-83569295D02*
X82573714Y-83664533D01*
X82573714Y-83664533D02*
X82526095Y-83807390D01*
X82526095Y-83807390D02*
X81954667Y-84378819D01*
X81954667Y-84378819D02*
X82573714Y-84378819D01*
X81893580Y-66444857D02*
X81941200Y-66492476D01*
X81941200Y-66492476D02*
X81988819Y-66635333D01*
X81988819Y-66635333D02*
X81988819Y-66730571D01*
X81988819Y-66730571D02*
X81941200Y-66873428D01*
X81941200Y-66873428D02*
X81845961Y-66968666D01*
X81845961Y-66968666D02*
X81750723Y-67016285D01*
X81750723Y-67016285D02*
X81560247Y-67063904D01*
X81560247Y-67063904D02*
X81417390Y-67063904D01*
X81417390Y-67063904D02*
X81226914Y-67016285D01*
X81226914Y-67016285D02*
X81131676Y-66968666D01*
X81131676Y-66968666D02*
X81036438Y-66873428D01*
X81036438Y-66873428D02*
X80988819Y-66730571D01*
X80988819Y-66730571D02*
X80988819Y-66635333D01*
X80988819Y-66635333D02*
X81036438Y-66492476D01*
X81036438Y-66492476D02*
X81084057Y-66444857D01*
X81988819Y-65492476D02*
X81988819Y-66063904D01*
X81988819Y-65778190D02*
X80988819Y-65778190D01*
X80988819Y-65778190D02*
X81131676Y-65873428D01*
X81131676Y-65873428D02*
X81226914Y-65968666D01*
X81226914Y-65968666D02*
X81274533Y-66063904D01*
X80988819Y-64635333D02*
X80988819Y-64825809D01*
X80988819Y-64825809D02*
X81036438Y-64921047D01*
X81036438Y-64921047D02*
X81084057Y-64968666D01*
X81084057Y-64968666D02*
X81226914Y-65063904D01*
X81226914Y-65063904D02*
X81417390Y-65111523D01*
X81417390Y-65111523D02*
X81798342Y-65111523D01*
X81798342Y-65111523D02*
X81893580Y-65063904D01*
X81893580Y-65063904D02*
X81941200Y-65016285D01*
X81941200Y-65016285D02*
X81988819Y-64921047D01*
X81988819Y-64921047D02*
X81988819Y-64730571D01*
X81988819Y-64730571D02*
X81941200Y-64635333D01*
X81941200Y-64635333D02*
X81893580Y-64587714D01*
X81893580Y-64587714D02*
X81798342Y-64540095D01*
X81798342Y-64540095D02*
X81560247Y-64540095D01*
X81560247Y-64540095D02*
X81465009Y-64587714D01*
X81465009Y-64587714D02*
X81417390Y-64635333D01*
X81417390Y-64635333D02*
X81369771Y-64730571D01*
X81369771Y-64730571D02*
X81369771Y-64921047D01*
X81369771Y-64921047D02*
X81417390Y-65016285D01*
X81417390Y-65016285D02*
X81465009Y-65063904D01*
X81465009Y-65063904D02*
X81560247Y-65111523D01*
X47166666Y-88974819D02*
X47166666Y-89689104D01*
X47166666Y-89689104D02*
X47119047Y-89831961D01*
X47119047Y-89831961D02*
X47023809Y-89927200D01*
X47023809Y-89927200D02*
X46880952Y-89974819D01*
X46880952Y-89974819D02*
X46785714Y-89974819D01*
X48071428Y-88974819D02*
X47880952Y-88974819D01*
X47880952Y-88974819D02*
X47785714Y-89022438D01*
X47785714Y-89022438D02*
X47738095Y-89070057D01*
X47738095Y-89070057D02*
X47642857Y-89212914D01*
X47642857Y-89212914D02*
X47595238Y-89403390D01*
X47595238Y-89403390D02*
X47595238Y-89784342D01*
X47595238Y-89784342D02*
X47642857Y-89879580D01*
X47642857Y-89879580D02*
X47690476Y-89927200D01*
X47690476Y-89927200D02*
X47785714Y-89974819D01*
X47785714Y-89974819D02*
X47976190Y-89974819D01*
X47976190Y-89974819D02*
X48071428Y-89927200D01*
X48071428Y-89927200D02*
X48119047Y-89879580D01*
X48119047Y-89879580D02*
X48166666Y-89784342D01*
X48166666Y-89784342D02*
X48166666Y-89546247D01*
X48166666Y-89546247D02*
X48119047Y-89451009D01*
X48119047Y-89451009D02*
X48071428Y-89403390D01*
X48071428Y-89403390D02*
X47976190Y-89355771D01*
X47976190Y-89355771D02*
X47785714Y-89355771D01*
X47785714Y-89355771D02*
X47690476Y-89403390D01*
X47690476Y-89403390D02*
X47642857Y-89451009D01*
X47642857Y-89451009D02*
X47595238Y-89546247D01*
X92467261Y-90050057D02*
X92372023Y-90002438D01*
X92372023Y-90002438D02*
X92276785Y-89907200D01*
X92276785Y-89907200D02*
X92133928Y-89764342D01*
X92133928Y-89764342D02*
X92038690Y-89716723D01*
X92038690Y-89716723D02*
X91943452Y-89716723D01*
X91991071Y-89954819D02*
X91895833Y-89907200D01*
X91895833Y-89907200D02*
X91800595Y-89811961D01*
X91800595Y-89811961D02*
X91752976Y-89621485D01*
X91752976Y-89621485D02*
X91752976Y-89288152D01*
X91752976Y-89288152D02*
X91800595Y-89097676D01*
X91800595Y-89097676D02*
X91895833Y-89002438D01*
X91895833Y-89002438D02*
X91991071Y-88954819D01*
X91991071Y-88954819D02*
X92181547Y-88954819D01*
X92181547Y-88954819D02*
X92276785Y-89002438D01*
X92276785Y-89002438D02*
X92372023Y-89097676D01*
X92372023Y-89097676D02*
X92419642Y-89288152D01*
X92419642Y-89288152D02*
X92419642Y-89621485D01*
X92419642Y-89621485D02*
X92372023Y-89811961D01*
X92372023Y-89811961D02*
X92276785Y-89907200D01*
X92276785Y-89907200D02*
X92181547Y-89954819D01*
X92181547Y-89954819D02*
X91991071Y-89954819D01*
X93324404Y-88954819D02*
X92848214Y-88954819D01*
X92848214Y-88954819D02*
X92800595Y-89431009D01*
X92800595Y-89431009D02*
X92848214Y-89383390D01*
X92848214Y-89383390D02*
X92943452Y-89335771D01*
X92943452Y-89335771D02*
X93181547Y-89335771D01*
X93181547Y-89335771D02*
X93276785Y-89383390D01*
X93276785Y-89383390D02*
X93324404Y-89431009D01*
X93324404Y-89431009D02*
X93372023Y-89526247D01*
X93372023Y-89526247D02*
X93372023Y-89764342D01*
X93372023Y-89764342D02*
X93324404Y-89859580D01*
X93324404Y-89859580D02*
X93276785Y-89907200D01*
X93276785Y-89907200D02*
X93181547Y-89954819D01*
X93181547Y-89954819D02*
X92943452Y-89954819D01*
X92943452Y-89954819D02*
X92848214Y-89907200D01*
X92848214Y-89907200D02*
X92800595Y-89859580D01*
X93591142Y-56080819D02*
X93257809Y-55604628D01*
X93019714Y-56080819D02*
X93019714Y-55080819D01*
X93019714Y-55080819D02*
X93400666Y-55080819D01*
X93400666Y-55080819D02*
X93495904Y-55128438D01*
X93495904Y-55128438D02*
X93543523Y-55176057D01*
X93543523Y-55176057D02*
X93591142Y-55271295D01*
X93591142Y-55271295D02*
X93591142Y-55414152D01*
X93591142Y-55414152D02*
X93543523Y-55509390D01*
X93543523Y-55509390D02*
X93495904Y-55557009D01*
X93495904Y-55557009D02*
X93400666Y-55604628D01*
X93400666Y-55604628D02*
X93019714Y-55604628D01*
X94543523Y-56080819D02*
X93972095Y-56080819D01*
X94257809Y-56080819D02*
X94257809Y-55080819D01*
X94257809Y-55080819D02*
X94162571Y-55223676D01*
X94162571Y-55223676D02*
X94067333Y-55318914D01*
X94067333Y-55318914D02*
X93972095Y-55366533D01*
X95162571Y-55080819D02*
X95257809Y-55080819D01*
X95257809Y-55080819D02*
X95353047Y-55128438D01*
X95353047Y-55128438D02*
X95400666Y-55176057D01*
X95400666Y-55176057D02*
X95448285Y-55271295D01*
X95448285Y-55271295D02*
X95495904Y-55461771D01*
X95495904Y-55461771D02*
X95495904Y-55699866D01*
X95495904Y-55699866D02*
X95448285Y-55890342D01*
X95448285Y-55890342D02*
X95400666Y-55985580D01*
X95400666Y-55985580D02*
X95353047Y-56033200D01*
X95353047Y-56033200D02*
X95257809Y-56080819D01*
X95257809Y-56080819D02*
X95162571Y-56080819D01*
X95162571Y-56080819D02*
X95067333Y-56033200D01*
X95067333Y-56033200D02*
X95019714Y-55985580D01*
X95019714Y-55985580D02*
X94972095Y-55890342D01*
X94972095Y-55890342D02*
X94924476Y-55699866D01*
X94924476Y-55699866D02*
X94924476Y-55461771D01*
X94924476Y-55461771D02*
X94972095Y-55271295D01*
X94972095Y-55271295D02*
X95019714Y-55176057D01*
X95019714Y-55176057D02*
X95067333Y-55128438D01*
X95067333Y-55128438D02*
X95162571Y-55080819D01*
X70473333Y-81091580D02*
X70425714Y-81139200D01*
X70425714Y-81139200D02*
X70282857Y-81186819D01*
X70282857Y-81186819D02*
X70187619Y-81186819D01*
X70187619Y-81186819D02*
X70044762Y-81139200D01*
X70044762Y-81139200D02*
X69949524Y-81043961D01*
X69949524Y-81043961D02*
X69901905Y-80948723D01*
X69901905Y-80948723D02*
X69854286Y-80758247D01*
X69854286Y-80758247D02*
X69854286Y-80615390D01*
X69854286Y-80615390D02*
X69901905Y-80424914D01*
X69901905Y-80424914D02*
X69949524Y-80329676D01*
X69949524Y-80329676D02*
X70044762Y-80234438D01*
X70044762Y-80234438D02*
X70187619Y-80186819D01*
X70187619Y-80186819D02*
X70282857Y-80186819D01*
X70282857Y-80186819D02*
X70425714Y-80234438D01*
X70425714Y-80234438D02*
X70473333Y-80282057D01*
X71425714Y-81186819D02*
X70854286Y-81186819D01*
X71140000Y-81186819D02*
X71140000Y-80186819D01*
X71140000Y-80186819D02*
X71044762Y-80329676D01*
X71044762Y-80329676D02*
X70949524Y-80424914D01*
X70949524Y-80424914D02*
X70854286Y-80472533D01*
X72258819Y-79581333D02*
X72973104Y-79581333D01*
X72973104Y-79581333D02*
X73115961Y-79628952D01*
X73115961Y-79628952D02*
X73211200Y-79724190D01*
X73211200Y-79724190D02*
X73258819Y-79867047D01*
X73258819Y-79867047D02*
X73258819Y-79962285D01*
X73258819Y-78581333D02*
X73258819Y-79152761D01*
X73258819Y-78867047D02*
X72258819Y-78867047D01*
X72258819Y-78867047D02*
X72401676Y-78962285D01*
X72401676Y-78962285D02*
X72496914Y-79057523D01*
X72496914Y-79057523D02*
X72544533Y-79152761D01*
X83857142Y-84454819D02*
X83523809Y-83978628D01*
X83285714Y-84454819D02*
X83285714Y-83454819D01*
X83285714Y-83454819D02*
X83666666Y-83454819D01*
X83666666Y-83454819D02*
X83761904Y-83502438D01*
X83761904Y-83502438D02*
X83809523Y-83550057D01*
X83809523Y-83550057D02*
X83857142Y-83645295D01*
X83857142Y-83645295D02*
X83857142Y-83788152D01*
X83857142Y-83788152D02*
X83809523Y-83883390D01*
X83809523Y-83883390D02*
X83761904Y-83931009D01*
X83761904Y-83931009D02*
X83666666Y-83978628D01*
X83666666Y-83978628D02*
X83285714Y-83978628D01*
X84809523Y-84454819D02*
X84238095Y-84454819D01*
X84523809Y-84454819D02*
X84523809Y-83454819D01*
X84523809Y-83454819D02*
X84428571Y-83597676D01*
X84428571Y-83597676D02*
X84333333Y-83692914D01*
X84333333Y-83692914D02*
X84238095Y-83740533D01*
X85761904Y-84454819D02*
X85190476Y-84454819D01*
X85476190Y-84454819D02*
X85476190Y-83454819D01*
X85476190Y-83454819D02*
X85380952Y-83597676D01*
X85380952Y-83597676D02*
X85285714Y-83692914D01*
X85285714Y-83692914D02*
X85190476Y-83740533D01*
X70443333Y-78636819D02*
X70110000Y-78160628D01*
X69871905Y-78636819D02*
X69871905Y-77636819D01*
X69871905Y-77636819D02*
X70252857Y-77636819D01*
X70252857Y-77636819D02*
X70348095Y-77684438D01*
X70348095Y-77684438D02*
X70395714Y-77732057D01*
X70395714Y-77732057D02*
X70443333Y-77827295D01*
X70443333Y-77827295D02*
X70443333Y-77970152D01*
X70443333Y-77970152D02*
X70395714Y-78065390D01*
X70395714Y-78065390D02*
X70348095Y-78113009D01*
X70348095Y-78113009D02*
X70252857Y-78160628D01*
X70252857Y-78160628D02*
X69871905Y-78160628D01*
X71395714Y-78636819D02*
X70824286Y-78636819D01*
X71110000Y-78636819D02*
X71110000Y-77636819D01*
X71110000Y-77636819D02*
X71014762Y-77779676D01*
X71014762Y-77779676D02*
X70919524Y-77874914D01*
X70919524Y-77874914D02*
X70824286Y-77922533D01*
X63587333Y-95459580D02*
X63539714Y-95507200D01*
X63539714Y-95507200D02*
X63396857Y-95554819D01*
X63396857Y-95554819D02*
X63301619Y-95554819D01*
X63301619Y-95554819D02*
X63158762Y-95507200D01*
X63158762Y-95507200D02*
X63063524Y-95411961D01*
X63063524Y-95411961D02*
X63015905Y-95316723D01*
X63015905Y-95316723D02*
X62968286Y-95126247D01*
X62968286Y-95126247D02*
X62968286Y-94983390D01*
X62968286Y-94983390D02*
X63015905Y-94792914D01*
X63015905Y-94792914D02*
X63063524Y-94697676D01*
X63063524Y-94697676D02*
X63158762Y-94602438D01*
X63158762Y-94602438D02*
X63301619Y-94554819D01*
X63301619Y-94554819D02*
X63396857Y-94554819D01*
X63396857Y-94554819D02*
X63539714Y-94602438D01*
X63539714Y-94602438D02*
X63587333Y-94650057D01*
X64158762Y-94983390D02*
X64063524Y-94935771D01*
X64063524Y-94935771D02*
X64015905Y-94888152D01*
X64015905Y-94888152D02*
X63968286Y-94792914D01*
X63968286Y-94792914D02*
X63968286Y-94745295D01*
X63968286Y-94745295D02*
X64015905Y-94650057D01*
X64015905Y-94650057D02*
X64063524Y-94602438D01*
X64063524Y-94602438D02*
X64158762Y-94554819D01*
X64158762Y-94554819D02*
X64349238Y-94554819D01*
X64349238Y-94554819D02*
X64444476Y-94602438D01*
X64444476Y-94602438D02*
X64492095Y-94650057D01*
X64492095Y-94650057D02*
X64539714Y-94745295D01*
X64539714Y-94745295D02*
X64539714Y-94792914D01*
X64539714Y-94792914D02*
X64492095Y-94888152D01*
X64492095Y-94888152D02*
X64444476Y-94935771D01*
X64444476Y-94935771D02*
X64349238Y-94983390D01*
X64349238Y-94983390D02*
X64158762Y-94983390D01*
X64158762Y-94983390D02*
X64063524Y-95031009D01*
X64063524Y-95031009D02*
X64015905Y-95078628D01*
X64015905Y-95078628D02*
X63968286Y-95173866D01*
X63968286Y-95173866D02*
X63968286Y-95364342D01*
X63968286Y-95364342D02*
X64015905Y-95459580D01*
X64015905Y-95459580D02*
X64063524Y-95507200D01*
X64063524Y-95507200D02*
X64158762Y-95554819D01*
X64158762Y-95554819D02*
X64349238Y-95554819D01*
X64349238Y-95554819D02*
X64444476Y-95507200D01*
X64444476Y-95507200D02*
X64492095Y-95459580D01*
X64492095Y-95459580D02*
X64539714Y-95364342D01*
X64539714Y-95364342D02*
X64539714Y-95173866D01*
X64539714Y-95173866D02*
X64492095Y-95078628D01*
X64492095Y-95078628D02*
X64444476Y-95031009D01*
X64444476Y-95031009D02*
X64349238Y-94983390D01*
X97191666Y-91144819D02*
X97191666Y-91859104D01*
X97191666Y-91859104D02*
X97144047Y-92001961D01*
X97144047Y-92001961D02*
X97048809Y-92097200D01*
X97048809Y-92097200D02*
X96905952Y-92144819D01*
X96905952Y-92144819D02*
X96810714Y-92144819D01*
X98144047Y-91144819D02*
X97667857Y-91144819D01*
X97667857Y-91144819D02*
X97620238Y-91621009D01*
X97620238Y-91621009D02*
X97667857Y-91573390D01*
X97667857Y-91573390D02*
X97763095Y-91525771D01*
X97763095Y-91525771D02*
X98001190Y-91525771D01*
X98001190Y-91525771D02*
X98096428Y-91573390D01*
X98096428Y-91573390D02*
X98144047Y-91621009D01*
X98144047Y-91621009D02*
X98191666Y-91716247D01*
X98191666Y-91716247D02*
X98191666Y-91954342D01*
X98191666Y-91954342D02*
X98144047Y-92049580D01*
X98144047Y-92049580D02*
X98096428Y-92097200D01*
X98096428Y-92097200D02*
X98001190Y-92144819D01*
X98001190Y-92144819D02*
X97763095Y-92144819D01*
X97763095Y-92144819D02*
X97667857Y-92097200D01*
X97667857Y-92097200D02*
X97620238Y-92049580D01*
X101011905Y-90804819D02*
X101011905Y-89804819D01*
X101011905Y-89804819D02*
X101250000Y-89804819D01*
X101250000Y-89804819D02*
X101392857Y-89852438D01*
X101392857Y-89852438D02*
X101488095Y-89947676D01*
X101488095Y-89947676D02*
X101535714Y-90042914D01*
X101535714Y-90042914D02*
X101583333Y-90233390D01*
X101583333Y-90233390D02*
X101583333Y-90376247D01*
X101583333Y-90376247D02*
X101535714Y-90566723D01*
X101535714Y-90566723D02*
X101488095Y-90661961D01*
X101488095Y-90661961D02*
X101392857Y-90757200D01*
X101392857Y-90757200D02*
X101250000Y-90804819D01*
X101250000Y-90804819D02*
X101011905Y-90804819D01*
X101916667Y-89804819D02*
X102583333Y-89804819D01*
X102583333Y-89804819D02*
X102154762Y-90804819D01*
X76583333Y-62218819D02*
X76250000Y-61742628D01*
X76011905Y-62218819D02*
X76011905Y-61218819D01*
X76011905Y-61218819D02*
X76392857Y-61218819D01*
X76392857Y-61218819D02*
X76488095Y-61266438D01*
X76488095Y-61266438D02*
X76535714Y-61314057D01*
X76535714Y-61314057D02*
X76583333Y-61409295D01*
X76583333Y-61409295D02*
X76583333Y-61552152D01*
X76583333Y-61552152D02*
X76535714Y-61647390D01*
X76535714Y-61647390D02*
X76488095Y-61695009D01*
X76488095Y-61695009D02*
X76392857Y-61742628D01*
X76392857Y-61742628D02*
X76011905Y-61742628D01*
X76916667Y-61218819D02*
X77583333Y-61218819D01*
X77583333Y-61218819D02*
X77154762Y-62218819D01*
X79357142Y-60363580D02*
X79309523Y-60411200D01*
X79309523Y-60411200D02*
X79166666Y-60458819D01*
X79166666Y-60458819D02*
X79071428Y-60458819D01*
X79071428Y-60458819D02*
X78928571Y-60411200D01*
X78928571Y-60411200D02*
X78833333Y-60315961D01*
X78833333Y-60315961D02*
X78785714Y-60220723D01*
X78785714Y-60220723D02*
X78738095Y-60030247D01*
X78738095Y-60030247D02*
X78738095Y-59887390D01*
X78738095Y-59887390D02*
X78785714Y-59696914D01*
X78785714Y-59696914D02*
X78833333Y-59601676D01*
X78833333Y-59601676D02*
X78928571Y-59506438D01*
X78928571Y-59506438D02*
X79071428Y-59458819D01*
X79071428Y-59458819D02*
X79166666Y-59458819D01*
X79166666Y-59458819D02*
X79309523Y-59506438D01*
X79309523Y-59506438D02*
X79357142Y-59554057D01*
X80309523Y-60458819D02*
X79738095Y-60458819D01*
X80023809Y-60458819D02*
X80023809Y-59458819D01*
X80023809Y-59458819D02*
X79928571Y-59601676D01*
X79928571Y-59601676D02*
X79833333Y-59696914D01*
X79833333Y-59696914D02*
X79738095Y-59744533D01*
X81214285Y-59458819D02*
X80738095Y-59458819D01*
X80738095Y-59458819D02*
X80690476Y-59935009D01*
X80690476Y-59935009D02*
X80738095Y-59887390D01*
X80738095Y-59887390D02*
X80833333Y-59839771D01*
X80833333Y-59839771D02*
X81071428Y-59839771D01*
X81071428Y-59839771D02*
X81166666Y-59887390D01*
X81166666Y-59887390D02*
X81214285Y-59935009D01*
X81214285Y-59935009D02*
X81261904Y-60030247D01*
X81261904Y-60030247D02*
X81261904Y-60268342D01*
X81261904Y-60268342D02*
X81214285Y-60363580D01*
X81214285Y-60363580D02*
X81166666Y-60411200D01*
X81166666Y-60411200D02*
X81071428Y-60458819D01*
X81071428Y-60458819D02*
X80833333Y-60458819D01*
X80833333Y-60458819D02*
X80738095Y-60411200D01*
X80738095Y-60411200D02*
X80690476Y-60363580D01*
X79607142Y-97859580D02*
X79559523Y-97907200D01*
X79559523Y-97907200D02*
X79416666Y-97954819D01*
X79416666Y-97954819D02*
X79321428Y-97954819D01*
X79321428Y-97954819D02*
X79178571Y-97907200D01*
X79178571Y-97907200D02*
X79083333Y-97811961D01*
X79083333Y-97811961D02*
X79035714Y-97716723D01*
X79035714Y-97716723D02*
X78988095Y-97526247D01*
X78988095Y-97526247D02*
X78988095Y-97383390D01*
X78988095Y-97383390D02*
X79035714Y-97192914D01*
X79035714Y-97192914D02*
X79083333Y-97097676D01*
X79083333Y-97097676D02*
X79178571Y-97002438D01*
X79178571Y-97002438D02*
X79321428Y-96954819D01*
X79321428Y-96954819D02*
X79416666Y-96954819D01*
X79416666Y-96954819D02*
X79559523Y-97002438D01*
X79559523Y-97002438D02*
X79607142Y-97050057D01*
X80559523Y-97954819D02*
X79988095Y-97954819D01*
X80273809Y-97954819D02*
X80273809Y-96954819D01*
X80273809Y-96954819D02*
X80178571Y-97097676D01*
X80178571Y-97097676D02*
X80083333Y-97192914D01*
X80083333Y-97192914D02*
X79988095Y-97240533D01*
X81178571Y-96954819D02*
X81273809Y-96954819D01*
X81273809Y-96954819D02*
X81369047Y-97002438D01*
X81369047Y-97002438D02*
X81416666Y-97050057D01*
X81416666Y-97050057D02*
X81464285Y-97145295D01*
X81464285Y-97145295D02*
X81511904Y-97335771D01*
X81511904Y-97335771D02*
X81511904Y-97573866D01*
X81511904Y-97573866D02*
X81464285Y-97764342D01*
X81464285Y-97764342D02*
X81416666Y-97859580D01*
X81416666Y-97859580D02*
X81369047Y-97907200D01*
X81369047Y-97907200D02*
X81273809Y-97954819D01*
X81273809Y-97954819D02*
X81178571Y-97954819D01*
X81178571Y-97954819D02*
X81083333Y-97907200D01*
X81083333Y-97907200D02*
X81035714Y-97859580D01*
X81035714Y-97859580D02*
X80988095Y-97764342D01*
X80988095Y-97764342D02*
X80940476Y-97573866D01*
X80940476Y-97573866D02*
X80940476Y-97335771D01*
X80940476Y-97335771D02*
X80988095Y-97145295D01*
X80988095Y-97145295D02*
X81035714Y-97050057D01*
X81035714Y-97050057D02*
X81083333Y-97002438D01*
X81083333Y-97002438D02*
X81178571Y-96954819D01*
X47166666Y-91144819D02*
X47166666Y-91859104D01*
X47166666Y-91859104D02*
X47119047Y-92001961D01*
X47119047Y-92001961D02*
X47023809Y-92097200D01*
X47023809Y-92097200D02*
X46880952Y-92144819D01*
X46880952Y-92144819D02*
X46785714Y-92144819D01*
X48071428Y-91478152D02*
X48071428Y-92144819D01*
X47833333Y-91097200D02*
X47595238Y-91811485D01*
X47595238Y-91811485D02*
X48214285Y-91811485D01*
X53988095Y-61804819D02*
X53988095Y-62614342D01*
X53988095Y-62614342D02*
X54035714Y-62709580D01*
X54035714Y-62709580D02*
X54083333Y-62757200D01*
X54083333Y-62757200D02*
X54178571Y-62804819D01*
X54178571Y-62804819D02*
X54369047Y-62804819D01*
X54369047Y-62804819D02*
X54464285Y-62757200D01*
X54464285Y-62757200D02*
X54511904Y-62709580D01*
X54511904Y-62709580D02*
X54559523Y-62614342D01*
X54559523Y-62614342D02*
X54559523Y-61804819D01*
X54988095Y-61900057D02*
X55035714Y-61852438D01*
X55035714Y-61852438D02*
X55130952Y-61804819D01*
X55130952Y-61804819D02*
X55369047Y-61804819D01*
X55369047Y-61804819D02*
X55464285Y-61852438D01*
X55464285Y-61852438D02*
X55511904Y-61900057D01*
X55511904Y-61900057D02*
X55559523Y-61995295D01*
X55559523Y-61995295D02*
X55559523Y-62090533D01*
X55559523Y-62090533D02*
X55511904Y-62233390D01*
X55511904Y-62233390D02*
X54940476Y-62804819D01*
X54940476Y-62804819D02*
X55559523Y-62804819D01*
X70981333Y-99015580D02*
X70933714Y-99063200D01*
X70933714Y-99063200D02*
X70790857Y-99110819D01*
X70790857Y-99110819D02*
X70695619Y-99110819D01*
X70695619Y-99110819D02*
X70552762Y-99063200D01*
X70552762Y-99063200D02*
X70457524Y-98967961D01*
X70457524Y-98967961D02*
X70409905Y-98872723D01*
X70409905Y-98872723D02*
X70362286Y-98682247D01*
X70362286Y-98682247D02*
X70362286Y-98539390D01*
X70362286Y-98539390D02*
X70409905Y-98348914D01*
X70409905Y-98348914D02*
X70457524Y-98253676D01*
X70457524Y-98253676D02*
X70552762Y-98158438D01*
X70552762Y-98158438D02*
X70695619Y-98110819D01*
X70695619Y-98110819D02*
X70790857Y-98110819D01*
X70790857Y-98110819D02*
X70933714Y-98158438D01*
X70933714Y-98158438D02*
X70981333Y-98206057D01*
X71838476Y-98444152D02*
X71838476Y-99110819D01*
X71600381Y-98063200D02*
X71362286Y-98777485D01*
X71362286Y-98777485D02*
X71981333Y-98777485D01*
X87425405Y-57426819D02*
X87425405Y-56426819D01*
X87425405Y-56426819D02*
X87663500Y-56426819D01*
X87663500Y-56426819D02*
X87806357Y-56474438D01*
X87806357Y-56474438D02*
X87901595Y-56569676D01*
X87901595Y-56569676D02*
X87949214Y-56664914D01*
X87949214Y-56664914D02*
X87996833Y-56855390D01*
X87996833Y-56855390D02*
X87996833Y-56998247D01*
X87996833Y-56998247D02*
X87949214Y-57188723D01*
X87949214Y-57188723D02*
X87901595Y-57283961D01*
X87901595Y-57283961D02*
X87806357Y-57379200D01*
X87806357Y-57379200D02*
X87663500Y-57426819D01*
X87663500Y-57426819D02*
X87425405Y-57426819D01*
X88377786Y-56522057D02*
X88425405Y-56474438D01*
X88425405Y-56474438D02*
X88520643Y-56426819D01*
X88520643Y-56426819D02*
X88758738Y-56426819D01*
X88758738Y-56426819D02*
X88853976Y-56474438D01*
X88853976Y-56474438D02*
X88901595Y-56522057D01*
X88901595Y-56522057D02*
X88949214Y-56617295D01*
X88949214Y-56617295D02*
X88949214Y-56712533D01*
X88949214Y-56712533D02*
X88901595Y-56855390D01*
X88901595Y-56855390D02*
X88330167Y-57426819D01*
X88330167Y-57426819D02*
X88949214Y-57426819D01*
X50379333Y-66390819D02*
X50046000Y-65914628D01*
X49807905Y-66390819D02*
X49807905Y-65390819D01*
X49807905Y-65390819D02*
X50188857Y-65390819D01*
X50188857Y-65390819D02*
X50284095Y-65438438D01*
X50284095Y-65438438D02*
X50331714Y-65486057D01*
X50331714Y-65486057D02*
X50379333Y-65581295D01*
X50379333Y-65581295D02*
X50379333Y-65724152D01*
X50379333Y-65724152D02*
X50331714Y-65819390D01*
X50331714Y-65819390D02*
X50284095Y-65867009D01*
X50284095Y-65867009D02*
X50188857Y-65914628D01*
X50188857Y-65914628D02*
X49807905Y-65914628D01*
X50712667Y-65390819D02*
X51331714Y-65390819D01*
X51331714Y-65390819D02*
X50998381Y-65771771D01*
X50998381Y-65771771D02*
X51141238Y-65771771D01*
X51141238Y-65771771D02*
X51236476Y-65819390D01*
X51236476Y-65819390D02*
X51284095Y-65867009D01*
X51284095Y-65867009D02*
X51331714Y-65962247D01*
X51331714Y-65962247D02*
X51331714Y-66200342D01*
X51331714Y-66200342D02*
X51284095Y-66295580D01*
X51284095Y-66295580D02*
X51236476Y-66343200D01*
X51236476Y-66343200D02*
X51141238Y-66390819D01*
X51141238Y-66390819D02*
X50855524Y-66390819D01*
X50855524Y-66390819D02*
X50760286Y-66343200D01*
X50760286Y-66343200D02*
X50712667Y-66295580D01*
X87971333Y-60220819D02*
X87638000Y-59744628D01*
X87399905Y-60220819D02*
X87399905Y-59220819D01*
X87399905Y-59220819D02*
X87780857Y-59220819D01*
X87780857Y-59220819D02*
X87876095Y-59268438D01*
X87876095Y-59268438D02*
X87923714Y-59316057D01*
X87923714Y-59316057D02*
X87971333Y-59411295D01*
X87971333Y-59411295D02*
X87971333Y-59554152D01*
X87971333Y-59554152D02*
X87923714Y-59649390D01*
X87923714Y-59649390D02*
X87876095Y-59697009D01*
X87876095Y-59697009D02*
X87780857Y-59744628D01*
X87780857Y-59744628D02*
X87399905Y-59744628D01*
X88542762Y-59649390D02*
X88447524Y-59601771D01*
X88447524Y-59601771D02*
X88399905Y-59554152D01*
X88399905Y-59554152D02*
X88352286Y-59458914D01*
X88352286Y-59458914D02*
X88352286Y-59411295D01*
X88352286Y-59411295D02*
X88399905Y-59316057D01*
X88399905Y-59316057D02*
X88447524Y-59268438D01*
X88447524Y-59268438D02*
X88542762Y-59220819D01*
X88542762Y-59220819D02*
X88733238Y-59220819D01*
X88733238Y-59220819D02*
X88828476Y-59268438D01*
X88828476Y-59268438D02*
X88876095Y-59316057D01*
X88876095Y-59316057D02*
X88923714Y-59411295D01*
X88923714Y-59411295D02*
X88923714Y-59458914D01*
X88923714Y-59458914D02*
X88876095Y-59554152D01*
X88876095Y-59554152D02*
X88828476Y-59601771D01*
X88828476Y-59601771D02*
X88733238Y-59649390D01*
X88733238Y-59649390D02*
X88542762Y-59649390D01*
X88542762Y-59649390D02*
X88447524Y-59697009D01*
X88447524Y-59697009D02*
X88399905Y-59744628D01*
X88399905Y-59744628D02*
X88352286Y-59839866D01*
X88352286Y-59839866D02*
X88352286Y-60030342D01*
X88352286Y-60030342D02*
X88399905Y-60125580D01*
X88399905Y-60125580D02*
X88447524Y-60173200D01*
X88447524Y-60173200D02*
X88542762Y-60220819D01*
X88542762Y-60220819D02*
X88733238Y-60220819D01*
X88733238Y-60220819D02*
X88828476Y-60173200D01*
X88828476Y-60173200D02*
X88876095Y-60125580D01*
X88876095Y-60125580D02*
X88923714Y-60030342D01*
X88923714Y-60030342D02*
X88923714Y-59839866D01*
X88923714Y-59839866D02*
X88876095Y-59744628D01*
X88876095Y-59744628D02*
X88828476Y-59697009D01*
X88828476Y-59697009D02*
X88733238Y-59649390D01*
X84638667Y-99301200D02*
X84781524Y-99348819D01*
X84781524Y-99348819D02*
X85019619Y-99348819D01*
X85019619Y-99348819D02*
X85114857Y-99301200D01*
X85114857Y-99301200D02*
X85162476Y-99253580D01*
X85162476Y-99253580D02*
X85210095Y-99158342D01*
X85210095Y-99158342D02*
X85210095Y-99063104D01*
X85210095Y-99063104D02*
X85162476Y-98967866D01*
X85162476Y-98967866D02*
X85114857Y-98920247D01*
X85114857Y-98920247D02*
X85019619Y-98872628D01*
X85019619Y-98872628D02*
X84829143Y-98825009D01*
X84829143Y-98825009D02*
X84733905Y-98777390D01*
X84733905Y-98777390D02*
X84686286Y-98729771D01*
X84686286Y-98729771D02*
X84638667Y-98634533D01*
X84638667Y-98634533D02*
X84638667Y-98539295D01*
X84638667Y-98539295D02*
X84686286Y-98444057D01*
X84686286Y-98444057D02*
X84733905Y-98396438D01*
X84733905Y-98396438D02*
X84829143Y-98348819D01*
X84829143Y-98348819D02*
X85067238Y-98348819D01*
X85067238Y-98348819D02*
X85210095Y-98396438D01*
X85543429Y-98348819D02*
X85781524Y-99348819D01*
X85781524Y-99348819D02*
X85972000Y-98634533D01*
X85972000Y-98634533D02*
X86162476Y-99348819D01*
X86162476Y-99348819D02*
X86400572Y-98348819D01*
X87305333Y-99348819D02*
X86733905Y-99348819D01*
X87019619Y-99348819D02*
X87019619Y-98348819D01*
X87019619Y-98348819D02*
X86924381Y-98491676D01*
X86924381Y-98491676D02*
X86829143Y-98586914D01*
X86829143Y-98586914D02*
X86733905Y-98634533D01*
X97227666Y-53556819D02*
X97227666Y-54271104D01*
X97227666Y-54271104D02*
X97180047Y-54413961D01*
X97180047Y-54413961D02*
X97084809Y-54509200D01*
X97084809Y-54509200D02*
X96941952Y-54556819D01*
X96941952Y-54556819D02*
X96846714Y-54556819D01*
X97608619Y-53556819D02*
X98227666Y-53556819D01*
X98227666Y-53556819D02*
X97894333Y-53937771D01*
X97894333Y-53937771D02*
X98037190Y-53937771D01*
X98037190Y-53937771D02*
X98132428Y-53985390D01*
X98132428Y-53985390D02*
X98180047Y-54033009D01*
X98180047Y-54033009D02*
X98227666Y-54128247D01*
X98227666Y-54128247D02*
X98227666Y-54366342D01*
X98227666Y-54366342D02*
X98180047Y-54461580D01*
X98180047Y-54461580D02*
X98132428Y-54509200D01*
X98132428Y-54509200D02*
X98037190Y-54556819D01*
X98037190Y-54556819D02*
X97751476Y-54556819D01*
X97751476Y-54556819D02*
X97656238Y-54509200D01*
X97656238Y-54509200D02*
X97608619Y-54461580D01*
X79589333Y-67524819D02*
X79256000Y-67048628D01*
X79017905Y-67524819D02*
X79017905Y-66524819D01*
X79017905Y-66524819D02*
X79398857Y-66524819D01*
X79398857Y-66524819D02*
X79494095Y-66572438D01*
X79494095Y-66572438D02*
X79541714Y-66620057D01*
X79541714Y-66620057D02*
X79589333Y-66715295D01*
X79589333Y-66715295D02*
X79589333Y-66858152D01*
X79589333Y-66858152D02*
X79541714Y-66953390D01*
X79541714Y-66953390D02*
X79494095Y-67001009D01*
X79494095Y-67001009D02*
X79398857Y-67048628D01*
X79398857Y-67048628D02*
X79017905Y-67048628D01*
X80446476Y-66524819D02*
X80256000Y-66524819D01*
X80256000Y-66524819D02*
X80160762Y-66572438D01*
X80160762Y-66572438D02*
X80113143Y-66620057D01*
X80113143Y-66620057D02*
X80017905Y-66762914D01*
X80017905Y-66762914D02*
X79970286Y-66953390D01*
X79970286Y-66953390D02*
X79970286Y-67334342D01*
X79970286Y-67334342D02*
X80017905Y-67429580D01*
X80017905Y-67429580D02*
X80065524Y-67477200D01*
X80065524Y-67477200D02*
X80160762Y-67524819D01*
X80160762Y-67524819D02*
X80351238Y-67524819D01*
X80351238Y-67524819D02*
X80446476Y-67477200D01*
X80446476Y-67477200D02*
X80494095Y-67429580D01*
X80494095Y-67429580D02*
X80541714Y-67334342D01*
X80541714Y-67334342D02*
X80541714Y-67096247D01*
X80541714Y-67096247D02*
X80494095Y-67001009D01*
X80494095Y-67001009D02*
X80446476Y-66953390D01*
X80446476Y-66953390D02*
X80351238Y-66905771D01*
X80351238Y-66905771D02*
X80160762Y-66905771D01*
X80160762Y-66905771D02*
X80065524Y-66953390D01*
X80065524Y-66953390D02*
X80017905Y-67001009D01*
X80017905Y-67001009D02*
X79970286Y-67096247D01*
X65609580Y-90416666D02*
X65657200Y-90464285D01*
X65657200Y-90464285D02*
X65704819Y-90607142D01*
X65704819Y-90607142D02*
X65704819Y-90702380D01*
X65704819Y-90702380D02*
X65657200Y-90845237D01*
X65657200Y-90845237D02*
X65561961Y-90940475D01*
X65561961Y-90940475D02*
X65466723Y-90988094D01*
X65466723Y-90988094D02*
X65276247Y-91035713D01*
X65276247Y-91035713D02*
X65133390Y-91035713D01*
X65133390Y-91035713D02*
X64942914Y-90988094D01*
X64942914Y-90988094D02*
X64847676Y-90940475D01*
X64847676Y-90940475D02*
X64752438Y-90845237D01*
X64752438Y-90845237D02*
X64704819Y-90702380D01*
X64704819Y-90702380D02*
X64704819Y-90607142D01*
X64704819Y-90607142D02*
X64752438Y-90464285D01*
X64752438Y-90464285D02*
X64800057Y-90416666D01*
X64704819Y-90083332D02*
X64704819Y-89416666D01*
X64704819Y-89416666D02*
X65704819Y-89845237D01*
X55589809Y-89208628D02*
X55589809Y-89684819D01*
X55256476Y-88684819D02*
X55589809Y-89208628D01*
X55589809Y-89208628D02*
X55923142Y-88684819D01*
X56780285Y-89684819D02*
X56208857Y-89684819D01*
X56494571Y-89684819D02*
X56494571Y-88684819D01*
X56494571Y-88684819D02*
X56399333Y-88827676D01*
X56399333Y-88827676D02*
X56304095Y-88922914D01*
X56304095Y-88922914D02*
X56208857Y-88970533D01*
X58857142Y-63189580D02*
X58809523Y-63237200D01*
X58809523Y-63237200D02*
X58666666Y-63284819D01*
X58666666Y-63284819D02*
X58571428Y-63284819D01*
X58571428Y-63284819D02*
X58428571Y-63237200D01*
X58428571Y-63237200D02*
X58333333Y-63141961D01*
X58333333Y-63141961D02*
X58285714Y-63046723D01*
X58285714Y-63046723D02*
X58238095Y-62856247D01*
X58238095Y-62856247D02*
X58238095Y-62713390D01*
X58238095Y-62713390D02*
X58285714Y-62522914D01*
X58285714Y-62522914D02*
X58333333Y-62427676D01*
X58333333Y-62427676D02*
X58428571Y-62332438D01*
X58428571Y-62332438D02*
X58571428Y-62284819D01*
X58571428Y-62284819D02*
X58666666Y-62284819D01*
X58666666Y-62284819D02*
X58809523Y-62332438D01*
X58809523Y-62332438D02*
X58857142Y-62380057D01*
X59809523Y-63284819D02*
X59238095Y-63284819D01*
X59523809Y-63284819D02*
X59523809Y-62284819D01*
X59523809Y-62284819D02*
X59428571Y-62427676D01*
X59428571Y-62427676D02*
X59333333Y-62522914D01*
X59333333Y-62522914D02*
X59238095Y-62570533D01*
X60666666Y-62618152D02*
X60666666Y-63284819D01*
X60428571Y-62237200D02*
X60190476Y-62951485D01*
X60190476Y-62951485D02*
X60809523Y-62951485D01*
X42511905Y-92304819D02*
X42511905Y-91304819D01*
X42511905Y-91304819D02*
X42750000Y-91304819D01*
X42750000Y-91304819D02*
X42892857Y-91352438D01*
X42892857Y-91352438D02*
X42988095Y-91447676D01*
X42988095Y-91447676D02*
X43035714Y-91542914D01*
X43035714Y-91542914D02*
X43083333Y-91733390D01*
X43083333Y-91733390D02*
X43083333Y-91876247D01*
X43083333Y-91876247D02*
X43035714Y-92066723D01*
X43035714Y-92066723D02*
X42988095Y-92161961D01*
X42988095Y-92161961D02*
X42892857Y-92257200D01*
X42892857Y-92257200D02*
X42750000Y-92304819D01*
X42750000Y-92304819D02*
X42511905Y-92304819D01*
X43940476Y-91638152D02*
X43940476Y-92304819D01*
X43702381Y-91257200D02*
X43464286Y-91971485D01*
X43464286Y-91971485D02*
X44083333Y-91971485D01*
X52342261Y-90050057D02*
X52247023Y-90002438D01*
X52247023Y-90002438D02*
X52151785Y-89907200D01*
X52151785Y-89907200D02*
X52008928Y-89764342D01*
X52008928Y-89764342D02*
X51913690Y-89716723D01*
X51913690Y-89716723D02*
X51818452Y-89716723D01*
X51866071Y-89954819D02*
X51770833Y-89907200D01*
X51770833Y-89907200D02*
X51675595Y-89811961D01*
X51675595Y-89811961D02*
X51627976Y-89621485D01*
X51627976Y-89621485D02*
X51627976Y-89288152D01*
X51627976Y-89288152D02*
X51675595Y-89097676D01*
X51675595Y-89097676D02*
X51770833Y-89002438D01*
X51770833Y-89002438D02*
X51866071Y-88954819D01*
X51866071Y-88954819D02*
X52056547Y-88954819D01*
X52056547Y-88954819D02*
X52151785Y-89002438D01*
X52151785Y-89002438D02*
X52247023Y-89097676D01*
X52247023Y-89097676D02*
X52294642Y-89288152D01*
X52294642Y-89288152D02*
X52294642Y-89621485D01*
X52294642Y-89621485D02*
X52247023Y-89811961D01*
X52247023Y-89811961D02*
X52151785Y-89907200D01*
X52151785Y-89907200D02*
X52056547Y-89954819D01*
X52056547Y-89954819D02*
X51866071Y-89954819D01*
X53151785Y-88954819D02*
X52961309Y-88954819D01*
X52961309Y-88954819D02*
X52866071Y-89002438D01*
X52866071Y-89002438D02*
X52818452Y-89050057D01*
X52818452Y-89050057D02*
X52723214Y-89192914D01*
X52723214Y-89192914D02*
X52675595Y-89383390D01*
X52675595Y-89383390D02*
X52675595Y-89764342D01*
X52675595Y-89764342D02*
X52723214Y-89859580D01*
X52723214Y-89859580D02*
X52770833Y-89907200D01*
X52770833Y-89907200D02*
X52866071Y-89954819D01*
X52866071Y-89954819D02*
X53056547Y-89954819D01*
X53056547Y-89954819D02*
X53151785Y-89907200D01*
X53151785Y-89907200D02*
X53199404Y-89859580D01*
X53199404Y-89859580D02*
X53247023Y-89764342D01*
X53247023Y-89764342D02*
X53247023Y-89526247D01*
X53247023Y-89526247D02*
X53199404Y-89431009D01*
X53199404Y-89431009D02*
X53151785Y-89383390D01*
X53151785Y-89383390D02*
X53056547Y-89335771D01*
X53056547Y-89335771D02*
X52866071Y-89335771D01*
X52866071Y-89335771D02*
X52770833Y-89383390D01*
X52770833Y-89383390D02*
X52723214Y-89431009D01*
X52723214Y-89431009D02*
X52675595Y-89526247D01*
X66859580Y-82666666D02*
X66907200Y-82714285D01*
X66907200Y-82714285D02*
X66954819Y-82857142D01*
X66954819Y-82857142D02*
X66954819Y-82952380D01*
X66954819Y-82952380D02*
X66907200Y-83095237D01*
X66907200Y-83095237D02*
X66811961Y-83190475D01*
X66811961Y-83190475D02*
X66716723Y-83238094D01*
X66716723Y-83238094D02*
X66526247Y-83285713D01*
X66526247Y-83285713D02*
X66383390Y-83285713D01*
X66383390Y-83285713D02*
X66192914Y-83238094D01*
X66192914Y-83238094D02*
X66097676Y-83190475D01*
X66097676Y-83190475D02*
X66002438Y-83095237D01*
X66002438Y-83095237D02*
X65954819Y-82952380D01*
X65954819Y-82952380D02*
X65954819Y-82857142D01*
X65954819Y-82857142D02*
X66002438Y-82714285D01*
X66002438Y-82714285D02*
X66050057Y-82666666D01*
X65954819Y-81809523D02*
X65954819Y-81999999D01*
X65954819Y-81999999D02*
X66002438Y-82095237D01*
X66002438Y-82095237D02*
X66050057Y-82142856D01*
X66050057Y-82142856D02*
X66192914Y-82238094D01*
X66192914Y-82238094D02*
X66383390Y-82285713D01*
X66383390Y-82285713D02*
X66764342Y-82285713D01*
X66764342Y-82285713D02*
X66859580Y-82238094D01*
X66859580Y-82238094D02*
X66907200Y-82190475D01*
X66907200Y-82190475D02*
X66954819Y-82095237D01*
X66954819Y-82095237D02*
X66954819Y-81904761D01*
X66954819Y-81904761D02*
X66907200Y-81809523D01*
X66907200Y-81809523D02*
X66859580Y-81761904D01*
X66859580Y-81761904D02*
X66764342Y-81714285D01*
X66764342Y-81714285D02*
X66526247Y-81714285D01*
X66526247Y-81714285D02*
X66431009Y-81761904D01*
X66431009Y-81761904D02*
X66383390Y-81809523D01*
X66383390Y-81809523D02*
X66335771Y-81904761D01*
X66335771Y-81904761D02*
X66335771Y-82095237D01*
X66335771Y-82095237D02*
X66383390Y-82190475D01*
X66383390Y-82190475D02*
X66431009Y-82238094D01*
X66431009Y-82238094D02*
X66526247Y-82285713D01*
X97191666Y-88974819D02*
X97191666Y-89689104D01*
X97191666Y-89689104D02*
X97144047Y-89831961D01*
X97144047Y-89831961D02*
X97048809Y-89927200D01*
X97048809Y-89927200D02*
X96905952Y-89974819D01*
X96905952Y-89974819D02*
X96810714Y-89974819D01*
X97572619Y-88974819D02*
X98239285Y-88974819D01*
X98239285Y-88974819D02*
X97810714Y-89974819D01*
X77353333Y-98761580D02*
X77305714Y-98809200D01*
X77305714Y-98809200D02*
X77162857Y-98856819D01*
X77162857Y-98856819D02*
X77067619Y-98856819D01*
X77067619Y-98856819D02*
X76924762Y-98809200D01*
X76924762Y-98809200D02*
X76829524Y-98713961D01*
X76829524Y-98713961D02*
X76781905Y-98618723D01*
X76781905Y-98618723D02*
X76734286Y-98428247D01*
X76734286Y-98428247D02*
X76734286Y-98285390D01*
X76734286Y-98285390D02*
X76781905Y-98094914D01*
X76781905Y-98094914D02*
X76829524Y-97999676D01*
X76829524Y-97999676D02*
X76924762Y-97904438D01*
X76924762Y-97904438D02*
X77067619Y-97856819D01*
X77067619Y-97856819D02*
X77162857Y-97856819D01*
X77162857Y-97856819D02*
X77305714Y-97904438D01*
X77305714Y-97904438D02*
X77353333Y-97952057D01*
X77686667Y-97856819D02*
X78305714Y-97856819D01*
X78305714Y-97856819D02*
X77972381Y-98237771D01*
X77972381Y-98237771D02*
X78115238Y-98237771D01*
X78115238Y-98237771D02*
X78210476Y-98285390D01*
X78210476Y-98285390D02*
X78258095Y-98333009D01*
X78258095Y-98333009D02*
X78305714Y-98428247D01*
X78305714Y-98428247D02*
X78305714Y-98666342D01*
X78305714Y-98666342D02*
X78258095Y-98761580D01*
X78258095Y-98761580D02*
X78210476Y-98809200D01*
X78210476Y-98809200D02*
X78115238Y-98856819D01*
X78115238Y-98856819D02*
X77829524Y-98856819D01*
X77829524Y-98856819D02*
X77734286Y-98809200D01*
X77734286Y-98809200D02*
X77686667Y-98761580D01*
X63587333Y-96729580D02*
X63539714Y-96777200D01*
X63539714Y-96777200D02*
X63396857Y-96824819D01*
X63396857Y-96824819D02*
X63301619Y-96824819D01*
X63301619Y-96824819D02*
X63158762Y-96777200D01*
X63158762Y-96777200D02*
X63063524Y-96681961D01*
X63063524Y-96681961D02*
X63015905Y-96586723D01*
X63015905Y-96586723D02*
X62968286Y-96396247D01*
X62968286Y-96396247D02*
X62968286Y-96253390D01*
X62968286Y-96253390D02*
X63015905Y-96062914D01*
X63015905Y-96062914D02*
X63063524Y-95967676D01*
X63063524Y-95967676D02*
X63158762Y-95872438D01*
X63158762Y-95872438D02*
X63301619Y-95824819D01*
X63301619Y-95824819D02*
X63396857Y-95824819D01*
X63396857Y-95824819D02*
X63539714Y-95872438D01*
X63539714Y-95872438D02*
X63587333Y-95920057D01*
X64063524Y-96824819D02*
X64254000Y-96824819D01*
X64254000Y-96824819D02*
X64349238Y-96777200D01*
X64349238Y-96777200D02*
X64396857Y-96729580D01*
X64396857Y-96729580D02*
X64492095Y-96586723D01*
X64492095Y-96586723D02*
X64539714Y-96396247D01*
X64539714Y-96396247D02*
X64539714Y-96015295D01*
X64539714Y-96015295D02*
X64492095Y-95920057D01*
X64492095Y-95920057D02*
X64444476Y-95872438D01*
X64444476Y-95872438D02*
X64349238Y-95824819D01*
X64349238Y-95824819D02*
X64158762Y-95824819D01*
X64158762Y-95824819D02*
X64063524Y-95872438D01*
X64063524Y-95872438D02*
X64015905Y-95920057D01*
X64015905Y-95920057D02*
X63968286Y-96015295D01*
X63968286Y-96015295D02*
X63968286Y-96253390D01*
X63968286Y-96253390D02*
X64015905Y-96348628D01*
X64015905Y-96348628D02*
X64063524Y-96396247D01*
X64063524Y-96396247D02*
X64158762Y-96443866D01*
X64158762Y-96443866D02*
X64349238Y-96443866D01*
X64349238Y-96443866D02*
X64444476Y-96396247D01*
X64444476Y-96396247D02*
X64492095Y-96348628D01*
X64492095Y-96348628D02*
X64539714Y-96253390D01*
X42511905Y-90854819D02*
X42511905Y-89854819D01*
X42511905Y-89854819D02*
X42750000Y-89854819D01*
X42750000Y-89854819D02*
X42892857Y-89902438D01*
X42892857Y-89902438D02*
X42988095Y-89997676D01*
X42988095Y-89997676D02*
X43035714Y-90092914D01*
X43035714Y-90092914D02*
X43083333Y-90283390D01*
X43083333Y-90283390D02*
X43083333Y-90426247D01*
X43083333Y-90426247D02*
X43035714Y-90616723D01*
X43035714Y-90616723D02*
X42988095Y-90711961D01*
X42988095Y-90711961D02*
X42892857Y-90807200D01*
X42892857Y-90807200D02*
X42750000Y-90854819D01*
X42750000Y-90854819D02*
X42511905Y-90854819D01*
X43940476Y-89854819D02*
X43750000Y-89854819D01*
X43750000Y-89854819D02*
X43654762Y-89902438D01*
X43654762Y-89902438D02*
X43607143Y-89950057D01*
X43607143Y-89950057D02*
X43511905Y-90092914D01*
X43511905Y-90092914D02*
X43464286Y-90283390D01*
X43464286Y-90283390D02*
X43464286Y-90664342D01*
X43464286Y-90664342D02*
X43511905Y-90759580D01*
X43511905Y-90759580D02*
X43559524Y-90807200D01*
X43559524Y-90807200D02*
X43654762Y-90854819D01*
X43654762Y-90854819D02*
X43845238Y-90854819D01*
X43845238Y-90854819D02*
X43940476Y-90807200D01*
X43940476Y-90807200D02*
X43988095Y-90759580D01*
X43988095Y-90759580D02*
X44035714Y-90664342D01*
X44035714Y-90664342D02*
X44035714Y-90426247D01*
X44035714Y-90426247D02*
X43988095Y-90331009D01*
X43988095Y-90331009D02*
X43940476Y-90283390D01*
X43940476Y-90283390D02*
X43845238Y-90235771D01*
X43845238Y-90235771D02*
X43654762Y-90235771D01*
X43654762Y-90235771D02*
X43559524Y-90283390D01*
X43559524Y-90283390D02*
X43511905Y-90331009D01*
X43511905Y-90331009D02*
X43464286Y-90426247D01*
X73484095Y-81584819D02*
X73484095Y-82394342D01*
X73484095Y-82394342D02*
X73531714Y-82489580D01*
X73531714Y-82489580D02*
X73579333Y-82537200D01*
X73579333Y-82537200D02*
X73674571Y-82584819D01*
X73674571Y-82584819D02*
X73865047Y-82584819D01*
X73865047Y-82584819D02*
X73960285Y-82537200D01*
X73960285Y-82537200D02*
X74007904Y-82489580D01*
X74007904Y-82489580D02*
X74055523Y-82394342D01*
X74055523Y-82394342D02*
X74055523Y-81584819D01*
X75055523Y-82584819D02*
X74484095Y-82584819D01*
X74769809Y-82584819D02*
X74769809Y-81584819D01*
X74769809Y-81584819D02*
X74674571Y-81727676D01*
X74674571Y-81727676D02*
X74579333Y-81822914D01*
X74579333Y-81822914D02*
X74484095Y-81870533D01*
X63449405Y-57304819D02*
X63449405Y-56304819D01*
X63449405Y-56304819D02*
X63687500Y-56304819D01*
X63687500Y-56304819D02*
X63830357Y-56352438D01*
X63830357Y-56352438D02*
X63925595Y-56447676D01*
X63925595Y-56447676D02*
X63973214Y-56542914D01*
X63973214Y-56542914D02*
X64020833Y-56733390D01*
X64020833Y-56733390D02*
X64020833Y-56876247D01*
X64020833Y-56876247D02*
X63973214Y-57066723D01*
X63973214Y-57066723D02*
X63925595Y-57161961D01*
X63925595Y-57161961D02*
X63830357Y-57257200D01*
X63830357Y-57257200D02*
X63687500Y-57304819D01*
X63687500Y-57304819D02*
X63449405Y-57304819D01*
X64973214Y-57304819D02*
X64401786Y-57304819D01*
X64687500Y-57304819D02*
X64687500Y-56304819D01*
X64687500Y-56304819D02*
X64592262Y-56447676D01*
X64592262Y-56447676D02*
X64497024Y-56542914D01*
X64497024Y-56542914D02*
X64401786Y-56590533D01*
X101011905Y-92204819D02*
X101011905Y-91204819D01*
X101011905Y-91204819D02*
X101250000Y-91204819D01*
X101250000Y-91204819D02*
X101392857Y-91252438D01*
X101392857Y-91252438D02*
X101488095Y-91347676D01*
X101488095Y-91347676D02*
X101535714Y-91442914D01*
X101535714Y-91442914D02*
X101583333Y-91633390D01*
X101583333Y-91633390D02*
X101583333Y-91776247D01*
X101583333Y-91776247D02*
X101535714Y-91966723D01*
X101535714Y-91966723D02*
X101488095Y-92061961D01*
X101488095Y-92061961D02*
X101392857Y-92157200D01*
X101392857Y-92157200D02*
X101250000Y-92204819D01*
X101250000Y-92204819D02*
X101011905Y-92204819D01*
X102488095Y-91204819D02*
X102011905Y-91204819D01*
X102011905Y-91204819D02*
X101964286Y-91681009D01*
X101964286Y-91681009D02*
X102011905Y-91633390D01*
X102011905Y-91633390D02*
X102107143Y-91585771D01*
X102107143Y-91585771D02*
X102345238Y-91585771D01*
X102345238Y-91585771D02*
X102440476Y-91633390D01*
X102440476Y-91633390D02*
X102488095Y-91681009D01*
X102488095Y-91681009D02*
X102535714Y-91776247D01*
X102535714Y-91776247D02*
X102535714Y-92014342D01*
X102535714Y-92014342D02*
X102488095Y-92109580D01*
X102488095Y-92109580D02*
X102440476Y-92157200D01*
X102440476Y-92157200D02*
X102345238Y-92204819D01*
X102345238Y-92204819D02*
X102107143Y-92204819D01*
X102107143Y-92204819D02*
X102011905Y-92157200D01*
X102011905Y-92157200D02*
X101964286Y-92109580D01*
X84415333Y-60220819D02*
X84082000Y-59744628D01*
X83843905Y-60220819D02*
X83843905Y-59220819D01*
X83843905Y-59220819D02*
X84224857Y-59220819D01*
X84224857Y-59220819D02*
X84320095Y-59268438D01*
X84320095Y-59268438D02*
X84367714Y-59316057D01*
X84367714Y-59316057D02*
X84415333Y-59411295D01*
X84415333Y-59411295D02*
X84415333Y-59554152D01*
X84415333Y-59554152D02*
X84367714Y-59649390D01*
X84367714Y-59649390D02*
X84320095Y-59697009D01*
X84320095Y-59697009D02*
X84224857Y-59744628D01*
X84224857Y-59744628D02*
X83843905Y-59744628D01*
X84891524Y-60220819D02*
X85082000Y-60220819D01*
X85082000Y-60220819D02*
X85177238Y-60173200D01*
X85177238Y-60173200D02*
X85224857Y-60125580D01*
X85224857Y-60125580D02*
X85320095Y-59982723D01*
X85320095Y-59982723D02*
X85367714Y-59792247D01*
X85367714Y-59792247D02*
X85367714Y-59411295D01*
X85367714Y-59411295D02*
X85320095Y-59316057D01*
X85320095Y-59316057D02*
X85272476Y-59268438D01*
X85272476Y-59268438D02*
X85177238Y-59220819D01*
X85177238Y-59220819D02*
X84986762Y-59220819D01*
X84986762Y-59220819D02*
X84891524Y-59268438D01*
X84891524Y-59268438D02*
X84843905Y-59316057D01*
X84843905Y-59316057D02*
X84796286Y-59411295D01*
X84796286Y-59411295D02*
X84796286Y-59649390D01*
X84796286Y-59649390D02*
X84843905Y-59744628D01*
X84843905Y-59744628D02*
X84891524Y-59792247D01*
X84891524Y-59792247D02*
X84986762Y-59839866D01*
X84986762Y-59839866D02*
X85177238Y-59839866D01*
X85177238Y-59839866D02*
X85272476Y-59792247D01*
X85272476Y-59792247D02*
X85320095Y-59744628D01*
X85320095Y-59744628D02*
X85367714Y-59649390D01*
X58857142Y-60959580D02*
X58809523Y-61007200D01*
X58809523Y-61007200D02*
X58666666Y-61054819D01*
X58666666Y-61054819D02*
X58571428Y-61054819D01*
X58571428Y-61054819D02*
X58428571Y-61007200D01*
X58428571Y-61007200D02*
X58333333Y-60911961D01*
X58333333Y-60911961D02*
X58285714Y-60816723D01*
X58285714Y-60816723D02*
X58238095Y-60626247D01*
X58238095Y-60626247D02*
X58238095Y-60483390D01*
X58238095Y-60483390D02*
X58285714Y-60292914D01*
X58285714Y-60292914D02*
X58333333Y-60197676D01*
X58333333Y-60197676D02*
X58428571Y-60102438D01*
X58428571Y-60102438D02*
X58571428Y-60054819D01*
X58571428Y-60054819D02*
X58666666Y-60054819D01*
X58666666Y-60054819D02*
X58809523Y-60102438D01*
X58809523Y-60102438D02*
X58857142Y-60150057D01*
X59809523Y-61054819D02*
X59238095Y-61054819D01*
X59523809Y-61054819D02*
X59523809Y-60054819D01*
X59523809Y-60054819D02*
X59428571Y-60197676D01*
X59428571Y-60197676D02*
X59333333Y-60292914D01*
X59333333Y-60292914D02*
X59238095Y-60340533D01*
X60142857Y-60054819D02*
X60761904Y-60054819D01*
X60761904Y-60054819D02*
X60428571Y-60435771D01*
X60428571Y-60435771D02*
X60571428Y-60435771D01*
X60571428Y-60435771D02*
X60666666Y-60483390D01*
X60666666Y-60483390D02*
X60714285Y-60531009D01*
X60714285Y-60531009D02*
X60761904Y-60626247D01*
X60761904Y-60626247D02*
X60761904Y-60864342D01*
X60761904Y-60864342D02*
X60714285Y-60959580D01*
X60714285Y-60959580D02*
X60666666Y-61007200D01*
X60666666Y-61007200D02*
X60571428Y-61054819D01*
X60571428Y-61054819D02*
X60285714Y-61054819D01*
X60285714Y-61054819D02*
X60190476Y-61007200D01*
X60190476Y-61007200D02*
X60142857Y-60959580D01*
X77470095Y-63208819D02*
X77470095Y-64018342D01*
X77470095Y-64018342D02*
X77517714Y-64113580D01*
X77517714Y-64113580D02*
X77565333Y-64161200D01*
X77565333Y-64161200D02*
X77660571Y-64208819D01*
X77660571Y-64208819D02*
X77851047Y-64208819D01*
X77851047Y-64208819D02*
X77946285Y-64161200D01*
X77946285Y-64161200D02*
X77993904Y-64113580D01*
X77993904Y-64113580D02*
X78041523Y-64018342D01*
X78041523Y-64018342D02*
X78041523Y-63208819D01*
X78946285Y-63542152D02*
X78946285Y-64208819D01*
X78708190Y-63161200D02*
X78470095Y-63875485D01*
X78470095Y-63875485D02*
X79089142Y-63875485D01*
X50379333Y-60036819D02*
X50046000Y-59560628D01*
X49807905Y-60036819D02*
X49807905Y-59036819D01*
X49807905Y-59036819D02*
X50188857Y-59036819D01*
X50188857Y-59036819D02*
X50284095Y-59084438D01*
X50284095Y-59084438D02*
X50331714Y-59132057D01*
X50331714Y-59132057D02*
X50379333Y-59227295D01*
X50379333Y-59227295D02*
X50379333Y-59370152D01*
X50379333Y-59370152D02*
X50331714Y-59465390D01*
X50331714Y-59465390D02*
X50284095Y-59513009D01*
X50284095Y-59513009D02*
X50188857Y-59560628D01*
X50188857Y-59560628D02*
X49807905Y-59560628D01*
X51236476Y-59370152D02*
X51236476Y-60036819D01*
X50998381Y-58989200D02*
X50760286Y-59703485D01*
X50760286Y-59703485D02*
X51379333Y-59703485D01*
X57416667Y-58956700D02*
X57559524Y-59004319D01*
X57559524Y-59004319D02*
X57797619Y-59004319D01*
X57797619Y-59004319D02*
X57892857Y-58956700D01*
X57892857Y-58956700D02*
X57940476Y-58909080D01*
X57940476Y-58909080D02*
X57988095Y-58813842D01*
X57988095Y-58813842D02*
X57988095Y-58718604D01*
X57988095Y-58718604D02*
X57940476Y-58623366D01*
X57940476Y-58623366D02*
X57892857Y-58575747D01*
X57892857Y-58575747D02*
X57797619Y-58528128D01*
X57797619Y-58528128D02*
X57607143Y-58480509D01*
X57607143Y-58480509D02*
X57511905Y-58432890D01*
X57511905Y-58432890D02*
X57464286Y-58385271D01*
X57464286Y-58385271D02*
X57416667Y-58290033D01*
X57416667Y-58290033D02*
X57416667Y-58194795D01*
X57416667Y-58194795D02*
X57464286Y-58099557D01*
X57464286Y-58099557D02*
X57511905Y-58051938D01*
X57511905Y-58051938D02*
X57607143Y-58004319D01*
X57607143Y-58004319D02*
X57845238Y-58004319D01*
X57845238Y-58004319D02*
X57988095Y-58051938D01*
X58321429Y-58004319D02*
X58559524Y-59004319D01*
X58559524Y-59004319D02*
X58750000Y-58290033D01*
X58750000Y-58290033D02*
X58940476Y-59004319D01*
X58940476Y-59004319D02*
X59178572Y-58004319D01*
X59511905Y-58099557D02*
X59559524Y-58051938D01*
X59559524Y-58051938D02*
X59654762Y-58004319D01*
X59654762Y-58004319D02*
X59892857Y-58004319D01*
X59892857Y-58004319D02*
X59988095Y-58051938D01*
X59988095Y-58051938D02*
X60035714Y-58099557D01*
X60035714Y-58099557D02*
X60083333Y-58194795D01*
X60083333Y-58194795D02*
X60083333Y-58290033D01*
X60083333Y-58290033D02*
X60035714Y-58432890D01*
X60035714Y-58432890D02*
X59464286Y-59004319D01*
X59464286Y-59004319D02*
X60083333Y-59004319D01*
X63859580Y-93428857D02*
X63907200Y-93476476D01*
X63907200Y-93476476D02*
X63954819Y-93619333D01*
X63954819Y-93619333D02*
X63954819Y-93714571D01*
X63954819Y-93714571D02*
X63907200Y-93857428D01*
X63907200Y-93857428D02*
X63811961Y-93952666D01*
X63811961Y-93952666D02*
X63716723Y-94000285D01*
X63716723Y-94000285D02*
X63526247Y-94047904D01*
X63526247Y-94047904D02*
X63383390Y-94047904D01*
X63383390Y-94047904D02*
X63192914Y-94000285D01*
X63192914Y-94000285D02*
X63097676Y-93952666D01*
X63097676Y-93952666D02*
X63002438Y-93857428D01*
X63002438Y-93857428D02*
X62954819Y-93714571D01*
X62954819Y-93714571D02*
X62954819Y-93619333D01*
X62954819Y-93619333D02*
X63002438Y-93476476D01*
X63002438Y-93476476D02*
X63050057Y-93428857D01*
X63954819Y-92476476D02*
X63954819Y-93047904D01*
X63954819Y-92762190D02*
X62954819Y-92762190D01*
X62954819Y-92762190D02*
X63097676Y-92857428D01*
X63097676Y-92857428D02*
X63192914Y-92952666D01*
X63192914Y-92952666D02*
X63240533Y-93047904D01*
X63050057Y-92095523D02*
X63002438Y-92047904D01*
X63002438Y-92047904D02*
X62954819Y-91952666D01*
X62954819Y-91952666D02*
X62954819Y-91714571D01*
X62954819Y-91714571D02*
X63002438Y-91619333D01*
X63002438Y-91619333D02*
X63050057Y-91571714D01*
X63050057Y-91571714D02*
X63145295Y-91524095D01*
X63145295Y-91524095D02*
X63240533Y-91524095D01*
X63240533Y-91524095D02*
X63383390Y-91571714D01*
X63383390Y-91571714D02*
X63954819Y-92143142D01*
X63954819Y-92143142D02*
X63954819Y-91524095D01*
X52467261Y-92300057D02*
X52372023Y-92252438D01*
X52372023Y-92252438D02*
X52276785Y-92157200D01*
X52276785Y-92157200D02*
X52133928Y-92014342D01*
X52133928Y-92014342D02*
X52038690Y-91966723D01*
X52038690Y-91966723D02*
X51943452Y-91966723D01*
X51991071Y-92204819D02*
X51895833Y-92157200D01*
X51895833Y-92157200D02*
X51800595Y-92061961D01*
X51800595Y-92061961D02*
X51752976Y-91871485D01*
X51752976Y-91871485D02*
X51752976Y-91538152D01*
X51752976Y-91538152D02*
X51800595Y-91347676D01*
X51800595Y-91347676D02*
X51895833Y-91252438D01*
X51895833Y-91252438D02*
X51991071Y-91204819D01*
X51991071Y-91204819D02*
X52181547Y-91204819D01*
X52181547Y-91204819D02*
X52276785Y-91252438D01*
X52276785Y-91252438D02*
X52372023Y-91347676D01*
X52372023Y-91347676D02*
X52419642Y-91538152D01*
X52419642Y-91538152D02*
X52419642Y-91871485D01*
X52419642Y-91871485D02*
X52372023Y-92061961D01*
X52372023Y-92061961D02*
X52276785Y-92157200D01*
X52276785Y-92157200D02*
X52181547Y-92204819D01*
X52181547Y-92204819D02*
X51991071Y-92204819D01*
X53276785Y-91538152D02*
X53276785Y-92204819D01*
X53038690Y-91157200D02*
X52800595Y-91871485D01*
X52800595Y-91871485D02*
X53419642Y-91871485D01*
X74342666Y-59590819D02*
X74342666Y-60305104D01*
X74342666Y-60305104D02*
X74295047Y-60447961D01*
X74295047Y-60447961D02*
X74199809Y-60543200D01*
X74199809Y-60543200D02*
X74056952Y-60590819D01*
X74056952Y-60590819D02*
X73961714Y-60590819D01*
X74866476Y-60590819D02*
X75056952Y-60590819D01*
X75056952Y-60590819D02*
X75152190Y-60543200D01*
X75152190Y-60543200D02*
X75199809Y-60495580D01*
X75199809Y-60495580D02*
X75295047Y-60352723D01*
X75295047Y-60352723D02*
X75342666Y-60162247D01*
X75342666Y-60162247D02*
X75342666Y-59781295D01*
X75342666Y-59781295D02*
X75295047Y-59686057D01*
X75295047Y-59686057D02*
X75247428Y-59638438D01*
X75247428Y-59638438D02*
X75152190Y-59590819D01*
X75152190Y-59590819D02*
X74961714Y-59590819D01*
X74961714Y-59590819D02*
X74866476Y-59638438D01*
X74866476Y-59638438D02*
X74818857Y-59686057D01*
X74818857Y-59686057D02*
X74771238Y-59781295D01*
X74771238Y-59781295D02*
X74771238Y-60019390D01*
X74771238Y-60019390D02*
X74818857Y-60114628D01*
X74818857Y-60114628D02*
X74866476Y-60162247D01*
X74866476Y-60162247D02*
X74961714Y-60209866D01*
X74961714Y-60209866D02*
X75152190Y-60209866D01*
X75152190Y-60209866D02*
X75247428Y-60162247D01*
X75247428Y-60162247D02*
X75295047Y-60114628D01*
X75295047Y-60114628D02*
X75342666Y-60019390D01*
X87299405Y-87704819D02*
X87299405Y-86704819D01*
X87299405Y-86704819D02*
X87537500Y-86704819D01*
X87537500Y-86704819D02*
X87680357Y-86752438D01*
X87680357Y-86752438D02*
X87775595Y-86847676D01*
X87775595Y-86847676D02*
X87823214Y-86942914D01*
X87823214Y-86942914D02*
X87870833Y-87133390D01*
X87870833Y-87133390D02*
X87870833Y-87276247D01*
X87870833Y-87276247D02*
X87823214Y-87466723D01*
X87823214Y-87466723D02*
X87775595Y-87561961D01*
X87775595Y-87561961D02*
X87680357Y-87657200D01*
X87680357Y-87657200D02*
X87537500Y-87704819D01*
X87537500Y-87704819D02*
X87299405Y-87704819D01*
X88442262Y-87133390D02*
X88347024Y-87085771D01*
X88347024Y-87085771D02*
X88299405Y-87038152D01*
X88299405Y-87038152D02*
X88251786Y-86942914D01*
X88251786Y-86942914D02*
X88251786Y-86895295D01*
X88251786Y-86895295D02*
X88299405Y-86800057D01*
X88299405Y-86800057D02*
X88347024Y-86752438D01*
X88347024Y-86752438D02*
X88442262Y-86704819D01*
X88442262Y-86704819D02*
X88632738Y-86704819D01*
X88632738Y-86704819D02*
X88727976Y-86752438D01*
X88727976Y-86752438D02*
X88775595Y-86800057D01*
X88775595Y-86800057D02*
X88823214Y-86895295D01*
X88823214Y-86895295D02*
X88823214Y-86942914D01*
X88823214Y-86942914D02*
X88775595Y-87038152D01*
X88775595Y-87038152D02*
X88727976Y-87085771D01*
X88727976Y-87085771D02*
X88632738Y-87133390D01*
X88632738Y-87133390D02*
X88442262Y-87133390D01*
X88442262Y-87133390D02*
X88347024Y-87181009D01*
X88347024Y-87181009D02*
X88299405Y-87228628D01*
X88299405Y-87228628D02*
X88251786Y-87323866D01*
X88251786Y-87323866D02*
X88251786Y-87514342D01*
X88251786Y-87514342D02*
X88299405Y-87609580D01*
X88299405Y-87609580D02*
X88347024Y-87657200D01*
X88347024Y-87657200D02*
X88442262Y-87704819D01*
X88442262Y-87704819D02*
X88632738Y-87704819D01*
X88632738Y-87704819D02*
X88727976Y-87657200D01*
X88727976Y-87657200D02*
X88775595Y-87609580D01*
X88775595Y-87609580D02*
X88823214Y-87514342D01*
X88823214Y-87514342D02*
X88823214Y-87323866D01*
X88823214Y-87323866D02*
X88775595Y-87228628D01*
X88775595Y-87228628D02*
X88727976Y-87181009D01*
X88727976Y-87181009D02*
X88632738Y-87133390D01*
X70904761Y-67491557D02*
X70809523Y-67443938D01*
X70809523Y-67443938D02*
X70714285Y-67348700D01*
X70714285Y-67348700D02*
X70571428Y-67205842D01*
X70571428Y-67205842D02*
X70476190Y-67158223D01*
X70476190Y-67158223D02*
X70380952Y-67158223D01*
X70428571Y-67396319D02*
X70333333Y-67348700D01*
X70333333Y-67348700D02*
X70238095Y-67253461D01*
X70238095Y-67253461D02*
X70190476Y-67062985D01*
X70190476Y-67062985D02*
X70190476Y-66729652D01*
X70190476Y-66729652D02*
X70238095Y-66539176D01*
X70238095Y-66539176D02*
X70333333Y-66443938D01*
X70333333Y-66443938D02*
X70428571Y-66396319D01*
X70428571Y-66396319D02*
X70619047Y-66396319D01*
X70619047Y-66396319D02*
X70714285Y-66443938D01*
X70714285Y-66443938D02*
X70809523Y-66539176D01*
X70809523Y-66539176D02*
X70857142Y-66729652D01*
X70857142Y-66729652D02*
X70857142Y-67062985D01*
X70857142Y-67062985D02*
X70809523Y-67253461D01*
X70809523Y-67253461D02*
X70714285Y-67348700D01*
X70714285Y-67348700D02*
X70619047Y-67396319D01*
X70619047Y-67396319D02*
X70428571Y-67396319D01*
X71238095Y-66491557D02*
X71285714Y-66443938D01*
X71285714Y-66443938D02*
X71380952Y-66396319D01*
X71380952Y-66396319D02*
X71619047Y-66396319D01*
X71619047Y-66396319D02*
X71714285Y-66443938D01*
X71714285Y-66443938D02*
X71761904Y-66491557D01*
X71761904Y-66491557D02*
X71809523Y-66586795D01*
X71809523Y-66586795D02*
X71809523Y-66682033D01*
X71809523Y-66682033D02*
X71761904Y-66824890D01*
X71761904Y-66824890D02*
X71190476Y-67396319D01*
X71190476Y-67396319D02*
X71809523Y-67396319D01*
X70904761Y-63366557D02*
X70809523Y-63318938D01*
X70809523Y-63318938D02*
X70714285Y-63223700D01*
X70714285Y-63223700D02*
X70571428Y-63080842D01*
X70571428Y-63080842D02*
X70476190Y-63033223D01*
X70476190Y-63033223D02*
X70380952Y-63033223D01*
X70428571Y-63271319D02*
X70333333Y-63223700D01*
X70333333Y-63223700D02*
X70238095Y-63128461D01*
X70238095Y-63128461D02*
X70190476Y-62937985D01*
X70190476Y-62937985D02*
X70190476Y-62604652D01*
X70190476Y-62604652D02*
X70238095Y-62414176D01*
X70238095Y-62414176D02*
X70333333Y-62318938D01*
X70333333Y-62318938D02*
X70428571Y-62271319D01*
X70428571Y-62271319D02*
X70619047Y-62271319D01*
X70619047Y-62271319D02*
X70714285Y-62318938D01*
X70714285Y-62318938D02*
X70809523Y-62414176D01*
X70809523Y-62414176D02*
X70857142Y-62604652D01*
X70857142Y-62604652D02*
X70857142Y-62937985D01*
X70857142Y-62937985D02*
X70809523Y-63128461D01*
X70809523Y-63128461D02*
X70714285Y-63223700D01*
X70714285Y-63223700D02*
X70619047Y-63271319D01*
X70619047Y-63271319D02*
X70428571Y-63271319D01*
X71809523Y-63271319D02*
X71238095Y-63271319D01*
X71523809Y-63271319D02*
X71523809Y-62271319D01*
X71523809Y-62271319D02*
X71428571Y-62414176D01*
X71428571Y-62414176D02*
X71333333Y-62509414D01*
X71333333Y-62509414D02*
X71238095Y-62557033D01*
X64083333Y-60304819D02*
X63750000Y-59828628D01*
X63511905Y-60304819D02*
X63511905Y-59304819D01*
X63511905Y-59304819D02*
X63892857Y-59304819D01*
X63892857Y-59304819D02*
X63988095Y-59352438D01*
X63988095Y-59352438D02*
X64035714Y-59400057D01*
X64035714Y-59400057D02*
X64083333Y-59495295D01*
X64083333Y-59495295D02*
X64083333Y-59638152D01*
X64083333Y-59638152D02*
X64035714Y-59733390D01*
X64035714Y-59733390D02*
X63988095Y-59781009D01*
X63988095Y-59781009D02*
X63892857Y-59828628D01*
X63892857Y-59828628D02*
X63511905Y-59828628D01*
X64464286Y-59400057D02*
X64511905Y-59352438D01*
X64511905Y-59352438D02*
X64607143Y-59304819D01*
X64607143Y-59304819D02*
X64845238Y-59304819D01*
X64845238Y-59304819D02*
X64940476Y-59352438D01*
X64940476Y-59352438D02*
X64988095Y-59400057D01*
X64988095Y-59400057D02*
X65035714Y-59495295D01*
X65035714Y-59495295D02*
X65035714Y-59590533D01*
X65035714Y-59590533D02*
X64988095Y-59733390D01*
X64988095Y-59733390D02*
X64416667Y-60304819D01*
X64416667Y-60304819D02*
X65035714Y-60304819D01*
X65609580Y-85416666D02*
X65657200Y-85464285D01*
X65657200Y-85464285D02*
X65704819Y-85607142D01*
X65704819Y-85607142D02*
X65704819Y-85702380D01*
X65704819Y-85702380D02*
X65657200Y-85845237D01*
X65657200Y-85845237D02*
X65561961Y-85940475D01*
X65561961Y-85940475D02*
X65466723Y-85988094D01*
X65466723Y-85988094D02*
X65276247Y-86035713D01*
X65276247Y-86035713D02*
X65133390Y-86035713D01*
X65133390Y-86035713D02*
X64942914Y-85988094D01*
X64942914Y-85988094D02*
X64847676Y-85940475D01*
X64847676Y-85940475D02*
X64752438Y-85845237D01*
X64752438Y-85845237D02*
X64704819Y-85702380D01*
X64704819Y-85702380D02*
X64704819Y-85607142D01*
X64704819Y-85607142D02*
X64752438Y-85464285D01*
X64752438Y-85464285D02*
X64800057Y-85416666D01*
X64704819Y-84511904D02*
X64704819Y-84988094D01*
X64704819Y-84988094D02*
X65181009Y-85035713D01*
X65181009Y-85035713D02*
X65133390Y-84988094D01*
X65133390Y-84988094D02*
X65085771Y-84892856D01*
X65085771Y-84892856D02*
X65085771Y-84654761D01*
X65085771Y-84654761D02*
X65133390Y-84559523D01*
X65133390Y-84559523D02*
X65181009Y-84511904D01*
X65181009Y-84511904D02*
X65276247Y-84464285D01*
X65276247Y-84464285D02*
X65514342Y-84464285D01*
X65514342Y-84464285D02*
X65609580Y-84511904D01*
X65609580Y-84511904D02*
X65657200Y-84559523D01*
X65657200Y-84559523D02*
X65704819Y-84654761D01*
X65704819Y-84654761D02*
X65704819Y-84892856D01*
X65704819Y-84892856D02*
X65657200Y-84988094D01*
X65657200Y-84988094D02*
X65609580Y-85035713D01*
X63859580Y-86062857D02*
X63907200Y-86110476D01*
X63907200Y-86110476D02*
X63954819Y-86253333D01*
X63954819Y-86253333D02*
X63954819Y-86348571D01*
X63954819Y-86348571D02*
X63907200Y-86491428D01*
X63907200Y-86491428D02*
X63811961Y-86586666D01*
X63811961Y-86586666D02*
X63716723Y-86634285D01*
X63716723Y-86634285D02*
X63526247Y-86681904D01*
X63526247Y-86681904D02*
X63383390Y-86681904D01*
X63383390Y-86681904D02*
X63192914Y-86634285D01*
X63192914Y-86634285D02*
X63097676Y-86586666D01*
X63097676Y-86586666D02*
X63002438Y-86491428D01*
X63002438Y-86491428D02*
X62954819Y-86348571D01*
X62954819Y-86348571D02*
X62954819Y-86253333D01*
X62954819Y-86253333D02*
X63002438Y-86110476D01*
X63002438Y-86110476D02*
X63050057Y-86062857D01*
X63954819Y-85110476D02*
X63954819Y-85681904D01*
X63954819Y-85396190D02*
X62954819Y-85396190D01*
X62954819Y-85396190D02*
X63097676Y-85491428D01*
X63097676Y-85491428D02*
X63192914Y-85586666D01*
X63192914Y-85586666D02*
X63240533Y-85681904D01*
X63954819Y-84158095D02*
X63954819Y-84729523D01*
X63954819Y-84443809D02*
X62954819Y-84443809D01*
X62954819Y-84443809D02*
X63097676Y-84539047D01*
X63097676Y-84539047D02*
X63192914Y-84634285D01*
X63192914Y-84634285D02*
X63240533Y-84729523D01*
D12*
%TO.C,U3*%
X83870000Y-64400000D02*
X83870000Y-62450000D01*
X83870000Y-64400000D02*
X83870000Y-66350000D01*
X88990000Y-64400000D02*
X88990000Y-62450000D01*
X88990000Y-64400000D02*
X88990000Y-66350000D01*
X89225000Y-61940000D02*
X88895000Y-61700000D01*
X89225000Y-61460000D01*
X89225000Y-61940000D01*
G36*
X89225000Y-61940000D02*
G01*
X88895000Y-61700000D01*
X89225000Y-61460000D01*
X89225000Y-61940000D01*
G37*
%TO.C,D3*%
X83071500Y-54459000D02*
X83071500Y-55929000D01*
X83071500Y-55929000D02*
X85356500Y-55929000D01*
X85356500Y-54459000D02*
X83071500Y-54459000D01*
%TO.C,R5*%
X89536000Y-61642359D02*
X89536000Y-61949641D01*
X90296000Y-61642359D02*
X90296000Y-61949641D01*
%TO.C,C17*%
X82444000Y-67659836D02*
X82444000Y-67444164D01*
X83164000Y-67659836D02*
X83164000Y-67444164D01*
%TO.C,FB1*%
X67308000Y-95419721D02*
X67308000Y-95745279D01*
X68328000Y-95419721D02*
X68328000Y-95745279D01*
%TO.C,J2*%
X46168000Y-73406000D02*
X46168000Y-55566000D01*
X46168000Y-76006000D02*
X46168000Y-74676000D01*
X47498000Y-76006000D02*
X46168000Y-76006000D01*
X48828000Y-55566000D02*
X46168000Y-55566000D01*
X48828000Y-73406000D02*
X46168000Y-73406000D01*
X48828000Y-73406000D02*
X48828000Y-55566000D01*
%TO.C,Q3*%
X92562500Y-92690000D02*
X91912500Y-92690000D01*
X92562500Y-92690000D02*
X93212500Y-92690000D01*
X92562500Y-95810000D02*
X91912500Y-95810000D01*
X92562500Y-95810000D02*
X93212500Y-95810000D01*
X91400000Y-92740000D02*
X91160000Y-92410000D01*
X91640000Y-92410000D01*
X91400000Y-92740000D01*
G36*
X91400000Y-92740000D02*
G01*
X91160000Y-92410000D01*
X91640000Y-92410000D01*
X91400000Y-92740000D01*
G37*
%TO.C,J8*%
X87395000Y-77940000D02*
X87395000Y-75340000D01*
X87395000Y-80540000D02*
X87395000Y-79210000D01*
X88725000Y-80540000D02*
X87395000Y-80540000D01*
X90055000Y-75340000D02*
X87395000Y-75340000D01*
X90055000Y-77940000D02*
X87395000Y-77940000D01*
X90055000Y-77940000D02*
X90055000Y-75340000D01*
%TO.C,C2*%
X81428000Y-85622164D02*
X81428000Y-85837836D01*
X82148000Y-85622164D02*
X82148000Y-85837836D01*
%TO.C,C16*%
X82444000Y-65214164D02*
X82444000Y-65429836D01*
X83164000Y-65214164D02*
X83164000Y-65429836D01*
%TO.C,J6*%
X46170000Y-85480000D02*
X46170000Y-82880000D01*
X46170000Y-88080000D02*
X46170000Y-86750000D01*
X47500000Y-88080000D02*
X46170000Y-88080000D01*
X48830000Y-82880000D02*
X46170000Y-82880000D01*
X48830000Y-85480000D02*
X46170000Y-85480000D01*
X48830000Y-85480000D02*
X48830000Y-82880000D01*
%TO.C,Q5*%
X92562500Y-85290000D02*
X91912500Y-85290000D01*
X92562500Y-85290000D02*
X93212500Y-85290000D01*
X92562500Y-88410000D02*
X91912500Y-88410000D01*
X92562500Y-88410000D02*
X93212500Y-88410000D01*
X91400000Y-85340000D02*
X91160000Y-85010000D01*
X91640000Y-85010000D01*
X91400000Y-85340000D01*
G36*
X91400000Y-85340000D02*
G01*
X91160000Y-85010000D01*
X91640000Y-85010000D01*
X91400000Y-85340000D01*
G37*
%TO.C,R10*%
X93854000Y-57248359D02*
X93854000Y-57555641D01*
X94614000Y-57248359D02*
X94614000Y-57555641D01*
%TO.C,C1*%
X70532164Y-81532000D02*
X70747836Y-81532000D01*
X70532164Y-82252000D02*
X70747836Y-82252000D01*
%TO.C,J1*%
X73804000Y-80628000D02*
X73804000Y-79248000D01*
X75184000Y-80628000D02*
X73804000Y-80628000D01*
X76454000Y-77868000D02*
X84184000Y-77868000D01*
X76454000Y-80628000D02*
X76454000Y-77868000D01*
X76454000Y-80628000D02*
X84184000Y-80628000D01*
X84184000Y-80628000D02*
X84184000Y-77868000D01*
%TO.C,R11*%
X84120000Y-85913641D02*
X84120000Y-85606359D01*
X84880000Y-85913641D02*
X84880000Y-85606359D01*
%TO.C,R1*%
X70456359Y-78972000D02*
X70763641Y-78972000D01*
X70456359Y-79732000D02*
X70763641Y-79732000D01*
%TO.C,C8*%
X65893836Y-94740000D02*
X65678164Y-94740000D01*
X65893836Y-95460000D02*
X65678164Y-95460000D01*
%TO.C,J5*%
X96195000Y-95730000D02*
X96195000Y-98330000D01*
X96195000Y-95730000D02*
X98855000Y-95730000D01*
X96195000Y-98330000D02*
X98855000Y-98330000D01*
X97525000Y-93130000D02*
X98855000Y-93130000D01*
X98855000Y-93130000D02*
X98855000Y-94460000D01*
X98855000Y-95730000D02*
X98855000Y-98330000D01*
%TO.C,D7*%
X100100000Y-89460000D02*
X100100000Y-83950000D01*
X100100000Y-89460000D02*
X103400000Y-89460000D01*
X103400000Y-89460000D02*
X103400000Y-83950000D01*
%TO.C,R7*%
X78120000Y-61917641D02*
X78120000Y-61610359D01*
X78880000Y-61917641D02*
X78880000Y-61610359D01*
%TO.C,C15*%
X77390164Y-59600000D02*
X77605836Y-59600000D01*
X77390164Y-60320000D02*
X77605836Y-60320000D01*
%TO.C,C10*%
X79890000Y-95837836D02*
X79890000Y-95622164D01*
X80610000Y-95837836D02*
X80610000Y-95622164D01*
%TO.C,J4*%
X46170000Y-95730000D02*
X46170000Y-98330000D01*
X46170000Y-95730000D02*
X48830000Y-95730000D01*
X46170000Y-98330000D02*
X48830000Y-98330000D01*
X47500000Y-93130000D02*
X48830000Y-93130000D01*
X48830000Y-93130000D02*
X48830000Y-94460000D01*
X48830000Y-95730000D02*
X48830000Y-98330000D01*
%TO.C,U2*%
X54750000Y-58240000D02*
X53950000Y-58240000D01*
X54750000Y-58240000D02*
X55550000Y-58240000D01*
X54750000Y-61360000D02*
X53950000Y-61360000D01*
X54750000Y-61360000D02*
X55550000Y-61360000D01*
X56290000Y-61640000D02*
X55810000Y-61640000D01*
X56050000Y-61310000D01*
X56290000Y-61640000D01*
G36*
X56290000Y-61640000D02*
G01*
X55810000Y-61640000D01*
X56050000Y-61310000D01*
X56290000Y-61640000D01*
G37*
%TO.C,C4*%
X71255836Y-96772000D02*
X71040164Y-96772000D01*
X71255836Y-97492000D02*
X71040164Y-97492000D01*
%TO.C,D2*%
X87363500Y-55929000D02*
X89648500Y-55929000D01*
X89648500Y-54459000D02*
X87363500Y-54459000D01*
X89648500Y-55929000D02*
X89648500Y-54459000D01*
%TO.C,R3*%
X50166000Y-63748359D02*
X50166000Y-64055641D01*
X50926000Y-63748359D02*
X50926000Y-64055641D01*
%TO.C,R8*%
X88293641Y-57862000D02*
X87986359Y-57862000D01*
X88293641Y-58622000D02*
X87986359Y-58622000D01*
%TO.C,SW1*%
X82250000Y-90750000D02*
X82250000Y-95250000D01*
X84750000Y-96500000D02*
X86250000Y-96500000D01*
X86250000Y-89500000D02*
X84750000Y-89500000D01*
X88750000Y-95250000D02*
X88750000Y-90750000D01*
%TO.C,J3*%
X96206000Y-65786000D02*
X96206000Y-55566000D01*
X96206000Y-68386000D02*
X96206000Y-67056000D01*
X97536000Y-68386000D02*
X96206000Y-68386000D01*
X98866000Y-55566000D02*
X96206000Y-55566000D01*
X98866000Y-65786000D02*
X96206000Y-65786000D01*
X98866000Y-65786000D02*
X98866000Y-55566000D01*
%TO.C,R6*%
X79376000Y-65138359D02*
X79376000Y-65445641D01*
X80136000Y-65138359D02*
X80136000Y-65445641D01*
%TO.C,C7*%
X66188000Y-90409836D02*
X66188000Y-90194164D01*
X66908000Y-90409836D02*
X66908000Y-90194164D01*
%TO.C,Y1*%
X57394000Y-82530000D02*
X57394000Y-95130000D01*
X62494000Y-82530000D02*
X57394000Y-82530000D01*
X62494000Y-95130000D02*
X62494000Y-82530000D01*
%TO.C,C14*%
X57140000Y-62937836D02*
X57140000Y-62722164D01*
X57860000Y-62937836D02*
X57860000Y-62722164D01*
%TO.C,D4*%
X41600000Y-92740000D02*
X41600000Y-98250000D01*
X44900000Y-92740000D02*
X41600000Y-92740000D01*
X44900000Y-92740000D02*
X44900000Y-98250000D01*
%TO.C,Q6*%
X52437500Y-85290000D02*
X51787500Y-85290000D01*
X52437500Y-85290000D02*
X53087500Y-85290000D01*
X52437500Y-88410000D02*
X51787500Y-88410000D01*
X52437500Y-88410000D02*
X53087500Y-88410000D01*
X53840000Y-88690000D02*
X53360000Y-88690000D01*
X53600000Y-88360000D01*
X53840000Y-88690000D01*
G36*
X53840000Y-88690000D02*
G01*
X53360000Y-88690000D01*
X53600000Y-88360000D01*
X53840000Y-88690000D01*
G37*
%TO.C,C6*%
X67990000Y-82665580D02*
X67990000Y-82384420D01*
X69010000Y-82665580D02*
X69010000Y-82384420D01*
%TO.C,J7*%
X96195000Y-85480000D02*
X96195000Y-82880000D01*
X96195000Y-88080000D02*
X96195000Y-86750000D01*
X97525000Y-88080000D02*
X96195000Y-88080000D01*
X98855000Y-82880000D02*
X96195000Y-82880000D01*
X98855000Y-85480000D02*
X96195000Y-85480000D01*
X98855000Y-85480000D02*
X98855000Y-82880000D01*
%TO.C,C3*%
X77627836Y-96772000D02*
X77412164Y-96772000D01*
X77627836Y-97492000D02*
X77412164Y-97492000D01*
%TO.C,C9*%
X65865836Y-96010000D02*
X65650164Y-96010000D01*
X65865836Y-96730000D02*
X65650164Y-96730000D01*
%TO.C,D6*%
X41600000Y-89460000D02*
X41600000Y-83950000D01*
X41600000Y-89460000D02*
X44900000Y-89460000D01*
X44900000Y-89460000D02*
X44900000Y-83950000D01*
%TO.C,U1*%
X69136000Y-84420000D02*
X69136000Y-85370000D01*
X69136000Y-94640000D02*
X69136000Y-93690000D01*
X70086000Y-84420000D02*
X69136000Y-84420000D01*
X70086000Y-94640000D02*
X69136000Y-94640000D01*
X78406000Y-84420000D02*
X79356000Y-84420000D01*
X78406000Y-94640000D02*
X79356000Y-94640000D01*
X79356000Y-84420000D02*
X79356000Y-85370000D01*
X79356000Y-94640000D02*
X79356000Y-93690000D01*
X68521000Y-85370000D02*
X68181000Y-84900000D01*
X68861000Y-84900000D01*
X68521000Y-85370000D01*
G36*
X68521000Y-85370000D02*
G01*
X68181000Y-84900000D01*
X68861000Y-84900000D01*
X68521000Y-85370000D01*
G37*
%TO.C,D1*%
X63387500Y-55735000D02*
X65672500Y-55735000D01*
X65672500Y-54265000D02*
X63387500Y-54265000D01*
X65672500Y-55735000D02*
X65672500Y-54265000D01*
%TO.C,D5*%
X100100000Y-92640000D02*
X100100000Y-98150000D01*
X103400000Y-92640000D02*
X100100000Y-92640000D01*
X103400000Y-92640000D02*
X103400000Y-98150000D01*
%TO.C,R9*%
X84737641Y-57862000D02*
X84430359Y-57862000D01*
X84737641Y-58622000D02*
X84430359Y-58622000D01*
%TO.C,C13*%
X57140000Y-60687836D02*
X57140000Y-60472164D01*
X57860000Y-60687836D02*
X57860000Y-60472164D01*
%TO.C,U4*%
X81280000Y-60940000D02*
X80480000Y-60940000D01*
X81280000Y-60940000D02*
X82080000Y-60940000D01*
X81280000Y-64060000D02*
X80480000Y-64060000D01*
X81280000Y-64060000D02*
X82080000Y-64060000D01*
X79980000Y-60990000D02*
X79740000Y-60660000D01*
X80220000Y-60660000D01*
X79980000Y-60990000D01*
G36*
X79980000Y-60990000D02*
G01*
X79740000Y-60660000D01*
X80220000Y-60660000D01*
X79980000Y-60990000D01*
G37*
%TO.C,R4*%
X50166000Y-61515641D02*
X50166000Y-61208359D01*
X50926000Y-61515641D02*
X50926000Y-61208359D01*
%TO.C,SW2*%
X52844000Y-52767500D02*
X54044000Y-52767500D01*
X52844000Y-56967500D02*
X52844000Y-52767500D01*
X54044000Y-56967500D02*
X52844000Y-56967500D01*
X61694000Y-56967500D02*
X62044000Y-56967500D01*
X62044000Y-52767500D02*
X60844000Y-52767500D01*
X62044000Y-56967500D02*
X62044000Y-52767500D01*
X60944000Y-57447500D02*
X60944000Y-56967500D01*
X61424000Y-56967500D01*
X60944000Y-57447500D01*
G36*
X60944000Y-57447500D02*
G01*
X60944000Y-56967500D01*
X61424000Y-56967500D01*
X60944000Y-57447500D01*
G37*
%TO.C,C12*%
X63140000Y-90325836D02*
X63140000Y-90110164D01*
X63860000Y-90325836D02*
X63860000Y-90110164D01*
%TO.C,Q4*%
X52562500Y-92790000D02*
X51912500Y-92790000D01*
X52562500Y-92790000D02*
X53212500Y-92790000D01*
X52562500Y-95910000D02*
X51912500Y-95910000D01*
X52562500Y-95910000D02*
X53212500Y-95910000D01*
X53965000Y-96190000D02*
X53485000Y-96190000D01*
X53725000Y-95860000D01*
X53965000Y-96190000D01*
G36*
X53965000Y-96190000D02*
G01*
X53485000Y-96190000D01*
X53725000Y-95860000D01*
X53965000Y-96190000D01*
G37*
D11*
%TO.C,J9*%
X73405000Y-52700000D02*
X73405000Y-52850000D01*
X73405000Y-55250000D02*
X73405000Y-56650000D01*
X73705000Y-52250000D02*
X73705000Y-52700000D01*
X73705000Y-52700000D02*
X73405000Y-52700000D01*
X75755000Y-58400000D02*
X74755000Y-58400000D01*
X78630000Y-58825000D02*
X79355000Y-58825000D01*
X79355000Y-58400000D02*
X80355000Y-58400000D01*
X79355000Y-58825000D02*
X79355000Y-58400000D01*
X81405000Y-52700000D02*
X81405000Y-52250000D01*
X81705000Y-52700000D02*
X81405000Y-52700000D01*
X81705000Y-52850000D02*
X81705000Y-52700000D01*
X81705000Y-56650000D02*
X81705000Y-55250000D01*
D12*
%TO.C,D8*%
X87237500Y-86495000D02*
X89522500Y-86495000D01*
X89522500Y-85025000D02*
X87237500Y-85025000D01*
X89522500Y-86495000D02*
X89522500Y-85025000D01*
%TO.C,Q2*%
X72190000Y-66941500D02*
X72190000Y-66291500D01*
X72190000Y-66941500D02*
X72190000Y-67591500D01*
X75310000Y-66941500D02*
X75310000Y-66291500D01*
X75310000Y-66941500D02*
X75310000Y-67591500D01*
X72240000Y-68104000D02*
X71910000Y-68344000D01*
X71910000Y-67864000D01*
X72240000Y-68104000D01*
G36*
X72240000Y-68104000D02*
G01*
X71910000Y-68344000D01*
X71910000Y-67864000D01*
X72240000Y-68104000D01*
G37*
%TO.C,Q1*%
X72190000Y-62816500D02*
X72190000Y-62166500D01*
X72190000Y-62816500D02*
X72190000Y-63466500D01*
X75310000Y-62816500D02*
X75310000Y-62166500D01*
X75310000Y-62816500D02*
X75310000Y-63466500D01*
X75590000Y-61894000D02*
X75260000Y-61654000D01*
X75590000Y-61414000D01*
X75590000Y-61894000D01*
G36*
X75590000Y-61894000D02*
G01*
X75260000Y-61654000D01*
X75590000Y-61414000D01*
X75590000Y-61894000D01*
G37*
%TO.C,R2*%
X64403641Y-57970000D02*
X64096359Y-57970000D01*
X64403641Y-58730000D02*
X64096359Y-58730000D01*
%TO.C,C5*%
X66188000Y-85301836D02*
X66188000Y-85086164D01*
X66908000Y-85301836D02*
X66908000Y-85086164D01*
%TO.C,C11*%
X63140000Y-87852164D02*
X63140000Y-88067836D01*
X63860000Y-87852164D02*
X63860000Y-88067836D01*
%TD*%
M02*
