%TF.GenerationSoftware,KiCad,Pcbnew,9.0.4*%
%TF.CreationDate,2025-11-28T16:57:25+01:00*%
%TF.ProjectId,Drone_PCB,44726f6e-655f-4504-9342-2e6b69636164,rev?*%
%TF.SameCoordinates,Original*%
%TF.FileFunction,Soldermask,Bot*%
%TF.FilePolarity,Negative*%
%FSLAX46Y46*%
G04 Gerber Fmt 4.6, Leading zero omitted, Abs format (unit mm)*
G04 Created by KiCad (PCBNEW 9.0.4) date 2025-11-28 16:57:25*
%MOMM*%
%LPD*%
G01*
G04 APERTURE LIST*
G04 Aperture macros list*
%AMRoundRect*
0 Rectangle with rounded corners*
0 $1 Rounding radius*
0 $2 $3 $4 $5 $6 $7 $8 $9 X,Y pos of 4 corners*
0 Add a 4 corners polygon primitive as box body*
4,1,4,$2,$3,$4,$5,$6,$7,$8,$9,$2,$3,0*
0 Add four circle primitives for the rounded corners*
1,1,$1+$1,$2,$3*
1,1,$1+$1,$4,$5*
1,1,$1+$1,$6,$7*
1,1,$1+$1,$8,$9*
0 Add four rect primitives between the rounded corners*
20,1,$1+$1,$2,$3,$4,$5,0*
20,1,$1+$1,$4,$5,$6,$7,0*
20,1,$1+$1,$6,$7,$8,$9,0*
20,1,$1+$1,$8,$9,$2,$3,0*%
G04 Aperture macros list end*
%ADD10R,1.700000X1.700000*%
%ADD11C,1.700000*%
%ADD12C,2.200000*%
%ADD13C,2.000000*%
%ADD14RoundRect,0.250000X0.450000X0.450000X-0.450000X0.450000X-0.450000X-0.450000X0.450000X-0.450000X0*%
%ADD15C,1.400000*%
%ADD16O,0.800000X0.800000*%
%ADD17O,1.150000X1.800000*%
%ADD18O,1.450000X2.000000*%
G04 APERTURE END LIST*
D10*
%TO.C,J2*%
X47498000Y-74676000D03*
D11*
X47498000Y-72136000D03*
X47498000Y-69596000D03*
X47498000Y-67056000D03*
X47498000Y-64516000D03*
X47498000Y-61976000D03*
X47498000Y-59436000D03*
X47498000Y-56896000D03*
%TD*%
D10*
%TO.C,J8*%
X88725000Y-79210000D03*
D11*
X88725000Y-76670000D03*
%TD*%
D10*
%TO.C,J6*%
X47500000Y-86750000D03*
D11*
X47500000Y-84210000D03*
%TD*%
D10*
%TO.C,J1*%
X75184000Y-79248000D03*
D11*
X77724000Y-79248000D03*
X80264000Y-79248000D03*
X82804000Y-79248000D03*
%TD*%
D10*
%TO.C,J5*%
X97525000Y-94460000D03*
D11*
X97525000Y-97000000D03*
%TD*%
D10*
%TO.C,J4*%
X47500000Y-94460000D03*
D11*
X47500000Y-97000000D03*
%TD*%
D12*
%TO.C,H4*%
X107500000Y-100000000D03*
%TD*%
%TO.C,H1*%
X37500000Y-55000000D03*
%TD*%
D13*
%TO.C,SW1*%
X83250000Y-96250000D03*
X83250000Y-89750000D03*
X87750000Y-96250000D03*
X87750000Y-89750000D03*
%TD*%
D10*
%TO.C,J3*%
X97536000Y-67056000D03*
D11*
X97536000Y-64516000D03*
X97536000Y-61976000D03*
X97536000Y-59436000D03*
X97536000Y-56896000D03*
%TD*%
D10*
%TO.C,J7*%
X97525000Y-86750000D03*
D11*
X97525000Y-84210000D03*
%TD*%
D12*
%TO.C,H2*%
X107500000Y-55000000D03*
%TD*%
D14*
%TO.C,SW2*%
X59944000Y-56517500D03*
D15*
X57444000Y-56517500D03*
X54944000Y-56517500D03*
X54944000Y-53217500D03*
X57444000Y-53217500D03*
X59944000Y-53217500D03*
%TD*%
D16*
%TO.C,J9*%
X80055000Y-56800000D03*
X75055000Y-56800000D03*
D17*
X81430000Y-54050000D03*
D18*
X81280000Y-57850000D03*
X73830000Y-57850000D03*
D17*
X73680000Y-54050000D03*
%TD*%
D12*
%TO.C,H3*%
X37500000Y-100000000D03*
%TD*%
M02*
