%TF.GenerationSoftware,KiCad,Pcbnew,9.0.4*%
%TF.CreationDate,2025-12-11T09:15:43+01:00*%
%TF.ProjectId,Drone_PCB,44726f6e-655f-4504-9342-2e6b69636164,rev?*%
%TF.SameCoordinates,Original*%
%TF.FileFunction,Copper,L1,Top*%
%TF.FilePolarity,Positive*%
%FSLAX46Y46*%
G04 Gerber Fmt 4.6, Leading zero omitted, Abs format (unit mm)*
G04 Created by KiCad (PCBNEW 9.0.4) date 2025-12-11 09:15:43*
%MOMM*%
%LPD*%
G01*
G04 APERTURE LIST*
G04 Aperture macros list*
%AMRoundRect*
0 Rectangle with rounded corners*
0 $1 Rounding radius*
0 $2 $3 $4 $5 $6 $7 $8 $9 X,Y pos of 4 corners*
0 Add a 4 corners polygon primitive as box body*
4,1,4,$2,$3,$4,$5,$6,$7,$8,$9,$2,$3,0*
0 Add four circle primitives for the rounded corners*
1,1,$1+$1,$2,$3*
1,1,$1+$1,$4,$5*
1,1,$1+$1,$6,$7*
1,1,$1+$1,$8,$9*
0 Add four rect primitives between the rounded corners*
20,1,$1+$1,$2,$3,$4,$5,0*
20,1,$1+$1,$4,$5,$6,$7,0*
20,1,$1+$1,$6,$7,$8,$9,0*
20,1,$1+$1,$8,$9,$2,$3,0*%
G04 Aperture macros list end*
%TA.AperFunction,SMDPad,CuDef*%
%ADD10RoundRect,0.250000X-0.650000X1.000000X-0.650000X-1.000000X0.650000X-1.000000X0.650000X1.000000X0*%
%TD*%
%TA.AperFunction,SMDPad,CuDef*%
%ADD11RoundRect,0.140000X0.170000X-0.140000X0.170000X0.140000X-0.170000X0.140000X-0.170000X-0.140000X0*%
%TD*%
%TA.AperFunction,ComponentPad*%
%ADD12R,1.700000X1.700000*%
%TD*%
%TA.AperFunction,ComponentPad*%
%ADD13C,1.700000*%
%TD*%
%TA.AperFunction,SMDPad,CuDef*%
%ADD14RoundRect,0.140000X0.140000X0.170000X-0.140000X0.170000X-0.140000X-0.170000X0.140000X-0.170000X0*%
%TD*%
%TA.AperFunction,SMDPad,CuDef*%
%ADD15RoundRect,0.135000X0.135000X0.185000X-0.135000X0.185000X-0.135000X-0.185000X0.135000X-0.185000X0*%
%TD*%
%TA.AperFunction,SMDPad,CuDef*%
%ADD16RoundRect,0.135000X-0.185000X0.135000X-0.185000X-0.135000X0.185000X-0.135000X0.185000X0.135000X0*%
%TD*%
%TA.AperFunction,SMDPad,CuDef*%
%ADD17RoundRect,0.150000X-0.150000X0.587500X-0.150000X-0.587500X0.150000X-0.587500X0.150000X0.587500X0*%
%TD*%
%TA.AperFunction,SMDPad,CuDef*%
%ADD18RoundRect,0.225000X0.250000X-0.225000X0.250000X0.225000X-0.250000X0.225000X-0.250000X-0.225000X0*%
%TD*%
%TA.AperFunction,SMDPad,CuDef*%
%ADD19RoundRect,0.150000X0.587500X0.150000X-0.587500X0.150000X-0.587500X-0.150000X0.587500X-0.150000X0*%
%TD*%
%TA.AperFunction,SMDPad,CuDef*%
%ADD20RoundRect,0.150000X-0.825000X-0.150000X0.825000X-0.150000X0.825000X0.150000X-0.825000X0.150000X0*%
%TD*%
%TA.AperFunction,HeatsinkPad*%
%ADD21C,0.500000*%
%TD*%
%TA.AperFunction,HeatsinkPad*%
%ADD22R,2.410000X3.300000*%
%TD*%
%TA.AperFunction,SMDPad,CuDef*%
%ADD23RoundRect,0.150000X-0.512500X-0.150000X0.512500X-0.150000X0.512500X0.150000X-0.512500X0.150000X0*%
%TD*%
%TA.AperFunction,SMDPad,CuDef*%
%ADD24RoundRect,0.135000X0.185000X-0.135000X0.185000X0.135000X-0.185000X0.135000X-0.185000X-0.135000X0*%
%TD*%
%TA.AperFunction,SMDPad,CuDef*%
%ADD25RoundRect,0.218750X0.218750X0.256250X-0.218750X0.256250X-0.218750X-0.256250X0.218750X-0.256250X0*%
%TD*%
%TA.AperFunction,SMDPad,CuDef*%
%ADD26RoundRect,0.075000X-0.700000X-0.075000X0.700000X-0.075000X0.700000X0.075000X-0.700000X0.075000X0*%
%TD*%
%TA.AperFunction,SMDPad,CuDef*%
%ADD27RoundRect,0.075000X-0.075000X-0.700000X0.075000X-0.700000X0.075000X0.700000X-0.075000X0.700000X0*%
%TD*%
%TA.AperFunction,SMDPad,CuDef*%
%ADD28RoundRect,0.140000X-0.170000X0.140000X-0.170000X-0.140000X0.170000X-0.140000X0.170000X0.140000X0*%
%TD*%
%TA.AperFunction,SMDPad,CuDef*%
%ADD29RoundRect,0.150000X0.150000X-0.587500X0.150000X0.587500X-0.150000X0.587500X-0.150000X-0.587500X0*%
%TD*%
%TA.AperFunction,SMDPad,CuDef*%
%ADD30RoundRect,0.250000X0.650000X-1.000000X0.650000X1.000000X-0.650000X1.000000X-0.650000X-1.000000X0*%
%TD*%
%TA.AperFunction,SMDPad,CuDef*%
%ADD31RoundRect,0.150000X0.512500X0.150000X-0.512500X0.150000X-0.512500X-0.150000X0.512500X-0.150000X0*%
%TD*%
%TA.AperFunction,SMDPad,CuDef*%
%ADD32RoundRect,0.140000X-0.140000X-0.170000X0.140000X-0.170000X0.140000X0.170000X-0.140000X0.170000X0*%
%TD*%
%TA.AperFunction,ComponentPad*%
%ADD33C,2.000000*%
%TD*%
%TA.AperFunction,SMDPad,CuDef*%
%ADD34R,0.450000X1.300000*%
%TD*%
%TA.AperFunction,HeatsinkPad*%
%ADD35O,1.150000X1.800000*%
%TD*%
%TA.AperFunction,HeatsinkPad*%
%ADD36O,1.450000X2.000000*%
%TD*%
%TA.AperFunction,ComponentPad*%
%ADD37RoundRect,0.250000X0.450000X0.450000X-0.450000X0.450000X-0.450000X-0.450000X0.450000X-0.450000X0*%
%TD*%
%TA.AperFunction,ComponentPad*%
%ADD38C,1.400000*%
%TD*%
%TA.AperFunction,SMDPad,CuDef*%
%ADD39RoundRect,0.135000X-0.135000X-0.185000X0.135000X-0.185000X0.135000X0.185000X-0.135000X0.185000X0*%
%TD*%
%TA.AperFunction,SMDPad,CuDef*%
%ADD40RoundRect,0.250000X-0.350000X0.450000X-0.350000X-0.450000X0.350000X-0.450000X0.350000X0.450000X0*%
%TD*%
%TA.AperFunction,SMDPad,CuDef*%
%ADD41RoundRect,0.218750X-0.218750X-0.256250X0.218750X-0.256250X0.218750X0.256250X-0.218750X0.256250X0*%
%TD*%
%TA.AperFunction,SMDPad,CuDef*%
%ADD42RoundRect,0.150000X-0.587500X-0.150000X0.587500X-0.150000X0.587500X0.150000X-0.587500X0.150000X0*%
%TD*%
%TA.AperFunction,SMDPad,CuDef*%
%ADD43RoundRect,0.218750X-0.256250X0.218750X-0.256250X-0.218750X0.256250X-0.218750X0.256250X0.218750X0*%
%TD*%
%TA.AperFunction,ViaPad*%
%ADD44C,0.700000*%
%TD*%
%TA.AperFunction,Conductor*%
%ADD45C,0.300000*%
%TD*%
%TA.AperFunction,Conductor*%
%ADD46C,0.500000*%
%TD*%
G04 APERTURE END LIST*
D10*
%TO.P,D5,1,K*%
%TO.N,PWR*%
X101750000Y-94150000D03*
%TO.P,D5,2,A*%
%TO.N,/M_RB*%
X101750000Y-98150000D03*
%TD*%
D11*
%TO.P,C10,1*%
%TO.N,/NRST*%
X103900000Y-77380000D03*
%TO.P,C10,2*%
%TO.N,GND*%
X103900000Y-76420000D03*
%TD*%
D12*
%TO.P,J1,1,Pin_1*%
%TO.N,GND*%
X76555000Y-76675000D03*
D13*
%TO.P,J1,2,Pin_2*%
%TO.N,/SWCLK*%
X79095000Y-76675000D03*
%TO.P,J1,3,Pin_3*%
%TO.N,/SWDIO*%
X81635000Y-76675000D03*
%TO.P,J1,4,Pin_4*%
%TO.N,+3.3V*%
X84175000Y-76675000D03*
%TD*%
D12*
%TO.P,J4,1,Pin_1*%
%TO.N,PWR*%
X47500000Y-95435000D03*
D13*
%TO.P,J4,2,Pin_2*%
%TO.N,/M_LB*%
X47500000Y-97975000D03*
%TD*%
D14*
%TO.P,C4,1*%
%TO.N,+3.3V*%
X71730000Y-96975000D03*
%TO.P,C4,2*%
%TO.N,GND*%
X70770000Y-96975000D03*
%TD*%
D15*
%TO.P,R11,1*%
%TO.N,/LED_SIGNAL_VIN*%
X84247500Y-89775000D03*
%TO.P,R11,2*%
%TO.N,/LED_SIGNAL*%
X83227500Y-89775000D03*
%TD*%
D16*
%TO.P,R10,1*%
%TO.N,/RST*%
X100700000Y-56890000D03*
%TO.P,R10,2*%
%TO.N,+3.3V*%
X100700000Y-57910000D03*
%TD*%
D17*
%TO.P,Q1,1,G*%
%TO.N,/OD*%
X59950000Y-67375000D03*
%TO.P,Q1,2,S*%
%TO.N,GND*%
X58050000Y-67375000D03*
%TO.P,Q1,3,D*%
%TO.N,/Q12*%
X59000000Y-69250000D03*
%TD*%
D14*
%TO.P,C9,1*%
%TO.N,+3.3V*%
X66219000Y-97150000D03*
%TO.P,C9,2*%
%TO.N,GND*%
X65259000Y-97150000D03*
%TD*%
%TO.P,C3,1*%
%TO.N,+3.3V*%
X78225000Y-96975000D03*
%TO.P,C3,2*%
%TO.N,GND*%
X77265000Y-96975000D03*
%TD*%
D18*
%TO.P,C6,1*%
%TO.N,+3.3V*%
X68500000Y-83300000D03*
%TO.P,C6,2*%
%TO.N,GND*%
X68500000Y-81750000D03*
%TD*%
D11*
%TO.P,C11,1*%
%TO.N,/HSE_IN*%
X66525000Y-86885000D03*
%TO.P,C11,2*%
%TO.N,GND*%
X66525000Y-85925000D03*
%TD*%
D19*
%TO.P,Q6,1,G*%
%TO.N,/PWM_LF*%
X53375000Y-87800000D03*
%TO.P,Q6,2,S*%
%TO.N,GND*%
X53375000Y-85900000D03*
%TO.P,Q6,3,D*%
%TO.N,/M_LF*%
X51500000Y-86850000D03*
%TD*%
D12*
%TO.P,J7,1,Pin_1*%
%TO.N,PWR*%
X97525000Y-86750000D03*
D13*
%TO.P,J7,2,Pin_2*%
%TO.N,/M_RF*%
X97525000Y-84210000D03*
%TD*%
D10*
%TO.P,D4,1,K*%
%TO.N,PWR*%
X43250000Y-94250000D03*
%TO.P,D4,2,A*%
%TO.N,/M_LB*%
X43250000Y-98250000D03*
%TD*%
D20*
%TO.P,U3,1,TEMP*%
%TO.N,GND*%
X81550000Y-65010000D03*
%TO.P,U3,2,PROG*%
%TO.N,/PROG*%
X81550000Y-66280000D03*
%TO.P,U3,3,GND*%
%TO.N,GND*%
X81550000Y-67550000D03*
%TO.P,U3,4,V_{CC}*%
%TO.N,VBUS*%
X81550000Y-68820000D03*
%TO.P,U3,5,BAT*%
%TO.N,/B+*%
X86500000Y-68820000D03*
%TO.P,U3,6,~{STDBY}*%
%TO.N,/STDBY_LED*%
X86500000Y-67550000D03*
%TO.P,U3,7,~{CHRG}*%
%TO.N,/CHRG_LED*%
X86500000Y-66280000D03*
%TO.P,U3,8,CE*%
%TO.N,VBUS*%
X86500000Y-65010000D03*
D21*
%TO.P,U3,9,EPAD*%
%TO.N,GND*%
X83325000Y-65715000D03*
X83325000Y-66915000D03*
X83325000Y-68115000D03*
D22*
X84025000Y-66915000D03*
D21*
X84725000Y-65715000D03*
X84725000Y-66915000D03*
X84725000Y-68115000D03*
%TD*%
D16*
%TO.P,R4,1*%
%TO.N,+3.3V*%
X44625000Y-63490000D03*
%TO.P,R4,2*%
%TO.N,/SDA*%
X44625000Y-64510000D03*
%TD*%
%TO.P,R2,1*%
%TO.N,/PWR_LED_K*%
X64975000Y-56505000D03*
%TO.P,R2,2*%
%TO.N,GND*%
X64975000Y-57525000D03*
%TD*%
D23*
%TO.P,U4,1,OD*%
%TO.N,/OD*%
X66750000Y-65350000D03*
%TO.P,U4,2,CS*%
%TO.N,/CS*%
X66750000Y-66300000D03*
%TO.P,U4,3,OC*%
%TO.N,/OC*%
X66750000Y-67250000D03*
%TO.P,U4,4,TD*%
%TO.N,unconnected-(U4-TD-Pad4)*%
X69025000Y-67250000D03*
%TO.P,U4,5,VCC*%
%TO.N,/VIN*%
X69025000Y-66300000D03*
%TO.P,U4,6,GND*%
%TO.N,GND*%
X69025000Y-65350000D03*
%TD*%
D24*
%TO.P,R9,1*%
%TO.N,/STDBY_LED*%
X86700000Y-59200000D03*
%TO.P,R9,2*%
%TO.N,Net-(D3-K)*%
X86700000Y-58180000D03*
%TD*%
D25*
%TO.P,D1,1,K*%
%TO.N,/PWR_LED_K*%
X64975000Y-55000000D03*
%TO.P,D1,2,A*%
%TO.N,+3.3V*%
X63400000Y-55000000D03*
%TD*%
D26*
%TO.P,U1,1,VBAT*%
%TO.N,+3.3V*%
X68571000Y-85780000D03*
%TO.P,U1,2,PC13*%
%TO.N,unconnected-(U1-PC13-Pad2)*%
X68571000Y-86280000D03*
%TO.P,U1,3,PC14*%
%TO.N,unconnected-(U1-PC14-Pad3)*%
X68571000Y-86780000D03*
%TO.P,U1,4,PC15*%
%TO.N,unconnected-(U1-PC15-Pad4)*%
X68571000Y-87280000D03*
%TO.P,U1,5,PH0*%
%TO.N,/HSE_IN*%
X68571000Y-87780000D03*
%TO.P,U1,6,PH1*%
%TO.N,/HSE_OUT*%
X68571000Y-88280000D03*
%TO.P,U1,7,NRST*%
%TO.N,/NRST*%
X68571000Y-88780000D03*
%TO.P,U1,8,PC0*%
%TO.N,unconnected-(U1-PC0-Pad8)*%
X68571000Y-89280000D03*
%TO.P,U1,9,PC1*%
%TO.N,unconnected-(U1-PC1-Pad9)*%
X68571000Y-89780000D03*
%TO.P,U1,10,PC2*%
%TO.N,unconnected-(U1-PC2-Pad10)*%
X68571000Y-90280000D03*
%TO.P,U1,11,PC3*%
%TO.N,unconnected-(U1-PC3-Pad11)*%
X68571000Y-90780000D03*
%TO.P,U1,12,VSSA*%
%TO.N,GND*%
X68571000Y-91280000D03*
%TO.P,U1,13,VDDA*%
%TO.N,+3.3VA*%
X68571000Y-91780000D03*
%TO.P,U1,14,PA0*%
%TO.N,unconnected-(U1-PA0-Pad14)*%
X68571000Y-92280000D03*
%TO.P,U1,15,PA1*%
%TO.N,unconnected-(U1-PA1-Pad15)*%
X68571000Y-92780000D03*
%TO.P,U1,16,PA2*%
%TO.N,unconnected-(U1-PA2-Pad16)*%
X68571000Y-93280000D03*
D27*
%TO.P,U1,17,PA3*%
%TO.N,unconnected-(U1-PA3-Pad17)*%
X70496000Y-95205000D03*
%TO.P,U1,18,VSS*%
%TO.N,GND*%
X70996000Y-95205000D03*
%TO.P,U1,19,VDD*%
%TO.N,+3.3V*%
X71496000Y-95205000D03*
%TO.P,U1,20,PA4*%
%TO.N,unconnected-(U1-PA4-Pad20)*%
X71996000Y-95205000D03*
%TO.P,U1,21,PA5*%
%TO.N,unconnected-(U1-PA5-Pad21)*%
X72496000Y-95205000D03*
%TO.P,U1,22,PA6*%
%TO.N,unconnected-(U1-PA6-Pad22)*%
X72996000Y-95205000D03*
%TO.P,U1,23,PA7*%
%TO.N,unconnected-(U1-PA7-Pad23)*%
X73496000Y-95205000D03*
%TO.P,U1,24,PC4*%
%TO.N,unconnected-(U1-PC4-Pad24)*%
X73996000Y-95205000D03*
%TO.P,U1,25,PC5*%
%TO.N,unconnected-(U1-PC5-Pad25)*%
X74496000Y-95205000D03*
%TO.P,U1,26,PB0*%
%TO.N,unconnected-(U1-PB0-Pad26)*%
X74996000Y-95205000D03*
%TO.P,U1,27,PB1*%
%TO.N,unconnected-(U1-PB1-Pad27)*%
X75496000Y-95205000D03*
%TO.P,U1,28,PB2*%
%TO.N,unconnected-(U1-PB2-Pad28)*%
X75996000Y-95205000D03*
%TO.P,U1,29,PB10*%
%TO.N,unconnected-(U1-PB10-Pad29)*%
X76496000Y-95205000D03*
%TO.P,U1,30,VCAP1*%
%TO.N,unconnected-(U1-VCAP1-Pad30)*%
X76996000Y-95205000D03*
%TO.P,U1,31,VSS*%
%TO.N,GND*%
X77496000Y-95205000D03*
%TO.P,U1,32,VDD*%
%TO.N,+3.3V*%
X77996000Y-95205000D03*
D26*
%TO.P,U1,33,PB12*%
%TO.N,unconnected-(U1-PB12-Pad33)*%
X79921000Y-93280000D03*
%TO.P,U1,34,PB13*%
%TO.N,unconnected-(U1-PB13-Pad34)*%
X79921000Y-92780000D03*
%TO.P,U1,35,PB14*%
%TO.N,unconnected-(U1-PB14-Pad35)*%
X79921000Y-92280000D03*
%TO.P,U1,36,PB15*%
%TO.N,unconnected-(U1-PB15-Pad36)*%
X79921000Y-91780000D03*
%TO.P,U1,37,PC6*%
%TO.N,/RX*%
X79921000Y-91280000D03*
%TO.P,U1,38,PC7*%
%TO.N,/TX*%
X79921000Y-90780000D03*
%TO.P,U1,39,PC8*%
%TO.N,unconnected-(U1-PC8-Pad39)*%
X79921000Y-90280000D03*
%TO.P,U1,40,PC9*%
%TO.N,/LED_SIGNAL*%
X79921000Y-89780000D03*
%TO.P,U1,41,PA8*%
%TO.N,/PWM_LB*%
X79921000Y-89280000D03*
%TO.P,U1,42,PA9*%
%TO.N,/PWM_LF*%
X79921000Y-88780000D03*
%TO.P,U1,43,PA10*%
%TO.N,/PWM_RF*%
X79921000Y-88280000D03*
%TO.P,U1,44,PA11*%
%TO.N,/PWM_RB*%
X79921000Y-87780000D03*
%TO.P,U1,45,PA12*%
%TO.N,unconnected-(U1-PA12-Pad45)*%
X79921000Y-87280000D03*
%TO.P,U1,46,PA13*%
%TO.N,/SWDIO*%
X79921000Y-86780000D03*
%TO.P,U1,47,VSS*%
%TO.N,GND*%
X79921000Y-86280000D03*
%TO.P,U1,48,VDD*%
%TO.N,+3.3V*%
X79921000Y-85780000D03*
D27*
%TO.P,U1,49,PA14*%
%TO.N,/SWCLK*%
X77996000Y-83855000D03*
%TO.P,U1,50,PA15*%
%TO.N,unconnected-(U1-PA15-Pad50)*%
X77496000Y-83855000D03*
%TO.P,U1,51,PC10*%
%TO.N,unconnected-(U1-PC10-Pad51)*%
X76996000Y-83855000D03*
%TO.P,U1,52,PC11*%
%TO.N,unconnected-(U1-PC11-Pad52)*%
X76496000Y-83855000D03*
%TO.P,U1,53,PC12*%
%TO.N,unconnected-(U1-PC12-Pad53)*%
X75996000Y-83855000D03*
%TO.P,U1,54,PD2*%
%TO.N,unconnected-(U1-PD2-Pad54)*%
X75496000Y-83855000D03*
%TO.P,U1,55,PB3*%
%TO.N,unconnected-(U1-PB3-Pad55)*%
X74996000Y-83855000D03*
%TO.P,U1,56,PB4*%
%TO.N,unconnected-(U1-PB4-Pad56)*%
X74496000Y-83855000D03*
%TO.P,U1,57,PB5*%
%TO.N,unconnected-(U1-PB5-Pad57)*%
X73996000Y-83855000D03*
%TO.P,U1,58,PB6*%
%TO.N,/SCL*%
X73496000Y-83855000D03*
%TO.P,U1,59,PB7*%
%TO.N,/SDA*%
X72996000Y-83855000D03*
%TO.P,U1,60,BOOT0*%
%TO.N,/BOOT0*%
X72496000Y-83855000D03*
%TO.P,U1,61,PB8*%
%TO.N,unconnected-(U1-PB8-Pad61)*%
X71996000Y-83855000D03*
%TO.P,U1,62,PB9*%
%TO.N,unconnected-(U1-PB9-Pad62)*%
X71496000Y-83855000D03*
%TO.P,U1,63,VSS*%
%TO.N,GND*%
X70996000Y-83855000D03*
%TO.P,U1,64,VDD*%
%TO.N,+3.3V*%
X70496000Y-83855000D03*
%TD*%
D14*
%TO.P,C5,1*%
%TO.N,+3.3V*%
X65325000Y-83275000D03*
%TO.P,C5,2*%
%TO.N,GND*%
X64365000Y-83275000D03*
%TD*%
D28*
%TO.P,C12,1*%
%TO.N,/HSE_OUT*%
X66525000Y-88290000D03*
%TO.P,C12,2*%
%TO.N,GND*%
X66525000Y-89250000D03*
%TD*%
D19*
%TO.P,Q4,1,G*%
%TO.N,/PWM_LB*%
X53375000Y-96385000D03*
%TO.P,Q4,2,S*%
%TO.N,GND*%
X53375000Y-94485000D03*
%TO.P,Q4,3,D*%
%TO.N,/M_LB*%
X51500000Y-95435000D03*
%TD*%
D29*
%TO.P,Q2,1,G*%
%TO.N,/OC*%
X58050000Y-73375000D03*
%TO.P,Q2,2,S*%
%TO.N,GND*%
X59950000Y-73375000D03*
%TO.P,Q2,3,D*%
%TO.N,/Q12*%
X59000000Y-71500000D03*
%TD*%
D30*
%TO.P,D7,1,K*%
%TO.N,PWR*%
X101750000Y-87950000D03*
%TO.P,D7,2,A*%
%TO.N,/M_RF*%
X101750000Y-83950000D03*
%TD*%
D12*
%TO.P,J3,1,Pin_1*%
%TO.N,+3.3V*%
X97536000Y-67056000D03*
D13*
%TO.P,J3,2,Pin_2*%
%TO.N,/TX*%
X97536000Y-64516000D03*
%TO.P,J3,3,Pin_3*%
%TO.N,/RX*%
X97536000Y-61976000D03*
%TO.P,J3,4,Pin_4*%
%TO.N,GND*%
X97536000Y-59436000D03*
%TO.P,J3,5,Pin_5*%
%TO.N,/RST*%
X97536000Y-56896000D03*
%TD*%
D31*
%TO.P,U2,1,VIN*%
%TO.N,PWR*%
X55887500Y-60775000D03*
%TO.P,U2,2,GND*%
%TO.N,GND*%
X55887500Y-59825000D03*
%TO.P,U2,3,EN*%
%TO.N,PWR*%
X55887500Y-58875000D03*
%TO.P,U2,4,NC*%
%TO.N,unconnected-(U2-NC-Pad4)*%
X53612500Y-58875000D03*
%TO.P,U2,5,VOUT*%
%TO.N,+3.3V*%
X53612500Y-60775000D03*
%TD*%
D14*
%TO.P,C7,1*%
%TO.N,+3.3VA*%
X66955000Y-92225000D03*
%TO.P,C7,2*%
%TO.N,GND*%
X65995000Y-92225000D03*
%TD*%
D32*
%TO.P,C15,1*%
%TO.N,GND*%
X77915000Y-60425000D03*
%TO.P,C15,2*%
%TO.N,VBUS*%
X78875000Y-60425000D03*
%TD*%
D33*
%TO.P,SW1,1,1*%
%TO.N,/NRST*%
X97250000Y-80250000D03*
X97250000Y-73750000D03*
%TO.P,SW1,2,2*%
%TO.N,GND*%
X101750000Y-80250000D03*
X101750000Y-73750000D03*
%TD*%
D25*
%TO.P,D8,1,K*%
%TO.N,GND*%
X87237500Y-89775000D03*
%TO.P,D8,2,A*%
%TO.N,/LED_SIGNAL_VIN*%
X85662500Y-89775000D03*
%TD*%
D16*
%TO.P,R8,1*%
%TO.N,Net-(D2-K)*%
X83475000Y-58180000D03*
%TO.P,R8,2*%
%TO.N,/CHRG_LED*%
X83475000Y-59200000D03*
%TD*%
D34*
%TO.P,J9,1,VBUS*%
%TO.N,VBUS*%
X78855000Y-58100000D03*
%TO.P,J9,2,D-*%
%TO.N,unconnected-(J9-D--Pad2)*%
X78205000Y-58100000D03*
%TO.P,J9,3,D+*%
%TO.N,unconnected-(J9-D+-Pad3)*%
X77555000Y-58100000D03*
%TO.P,J9,4,ID*%
%TO.N,unconnected-(J9-ID-Pad4)*%
X76905000Y-58100000D03*
%TO.P,J9,5,GND*%
%TO.N,GND*%
X76255000Y-58100000D03*
D35*
%TO.P,J9,6,Shield*%
X81430000Y-54250000D03*
D36*
X81280000Y-58050000D03*
X73830000Y-58050000D03*
D35*
X73680000Y-54250000D03*
%TD*%
D24*
%TO.P,R6,1*%
%TO.N,/VIN*%
X71575000Y-66300000D03*
%TO.P,R6,2*%
%TO.N,/B+*%
X71575000Y-65280000D03*
%TD*%
D37*
%TO.P,SW2,1,A*%
%TO.N,/B+*%
X59944000Y-56517500D03*
D38*
%TO.P,SW2,2,B*%
%TO.N,PWR*%
X57444000Y-56517500D03*
%TO.P,SW2,3*%
%TO.N,N/C*%
X54944000Y-56517500D03*
%TO.P,SW2,4*%
X54944000Y-53217500D03*
%TO.P,SW2,5*%
X57444000Y-53217500D03*
%TO.P,SW2,6*%
X59944000Y-53217500D03*
%TD*%
D14*
%TO.P,C8,1*%
%TO.N,+3.3VA*%
X66230000Y-95880000D03*
%TO.P,C8,2*%
%TO.N,GND*%
X65270000Y-95880000D03*
%TD*%
D39*
%TO.P,R7,1*%
%TO.N,/CS*%
X67980000Y-63750000D03*
%TO.P,R7,2*%
%TO.N,GND*%
X69000000Y-63750000D03*
%TD*%
D40*
%TO.P,Y1,1,1*%
%TO.N,/HSE_IN*%
X63350000Y-86475000D03*
%TO.P,Y1,2,2*%
%TO.N,GND*%
X63350000Y-88675000D03*
%TO.P,Y1,3,3*%
%TO.N,/HSE_OUT*%
X65050000Y-88675000D03*
%TO.P,Y1,4,4*%
%TO.N,GND*%
X65050000Y-86475000D03*
%TD*%
D12*
%TO.P,J5,1,Pin_1*%
%TO.N,PWR*%
X97525000Y-95360000D03*
D13*
%TO.P,J5,2,Pin_2*%
%TO.N,/M_RB*%
X97525000Y-97900000D03*
%TD*%
D41*
%TO.P,D2,1,K*%
%TO.N,Net-(D2-K)*%
X83487500Y-55200000D03*
%TO.P,D2,2,A*%
%TO.N,VBUS*%
X85062500Y-55200000D03*
%TD*%
D28*
%TO.P,C2,1*%
%TO.N,+3.3V*%
X81825000Y-85540000D03*
%TO.P,C2,2*%
%TO.N,GND*%
X81825000Y-86500000D03*
%TD*%
D12*
%TO.P,J8,1,Pin_1*%
%TO.N,GND*%
X88000000Y-79210000D03*
D13*
%TO.P,J8,2,Pin_2*%
%TO.N,/B+*%
X88000000Y-76670000D03*
%TD*%
D39*
%TO.P,R1,1*%
%TO.N,GND*%
X69875000Y-78975000D03*
%TO.P,R1,2*%
%TO.N,/BOOT0*%
X70895000Y-78975000D03*
%TD*%
D42*
%TO.P,Q3,1,G*%
%TO.N,/PWM_RB*%
X91625000Y-94410000D03*
%TO.P,Q3,2,S*%
%TO.N,GND*%
X91625000Y-96310000D03*
%TO.P,Q3,3,D*%
%TO.N,/M_RB*%
X93500000Y-95360000D03*
%TD*%
D32*
%TO.P,C1,1*%
%TO.N,+3.3V*%
X70290000Y-81850000D03*
%TO.P,C1,2*%
%TO.N,GND*%
X71250000Y-81850000D03*
%TD*%
D42*
%TO.P,Q5,1,G*%
%TO.N,/PWM_RF*%
X91625000Y-85900000D03*
%TO.P,Q5,2,S*%
%TO.N,GND*%
X91625000Y-87800000D03*
%TO.P,Q5,3,D*%
%TO.N,/M_RF*%
X93500000Y-86850000D03*
%TD*%
D41*
%TO.P,D3,1,K*%
%TO.N,Net-(D3-K)*%
X86700000Y-55194000D03*
%TO.P,D3,2,A*%
%TO.N,VBUS*%
X88275000Y-55194000D03*
%TD*%
D12*
%TO.P,J2,1,Pin_1*%
%TO.N,/INT*%
X47498000Y-74676000D03*
D13*
%TO.P,J2,2,Pin_2*%
%TO.N,/ADO*%
X47498000Y-72136000D03*
%TO.P,J2,3,Pin_3*%
%TO.N,/XCL*%
X47498000Y-69596000D03*
%TO.P,J2,4,Pin_4*%
%TO.N,/XDA*%
X47498000Y-67056000D03*
%TO.P,J2,5,Pin_5*%
%TO.N,/SDA*%
X47498000Y-64516000D03*
%TO.P,J2,6,Pin_6*%
%TO.N,/SCL*%
X47498000Y-61976000D03*
%TO.P,J2,7,Pin_7*%
%TO.N,GND*%
X47498000Y-59436000D03*
%TO.P,J2,8,Pin_8*%
%TO.N,+3.3V*%
X47498000Y-56896000D03*
%TD*%
D43*
%TO.P,FB1,1*%
%TO.N,+3.3VA*%
X68150000Y-95762500D03*
%TO.P,FB1,2*%
%TO.N,+3.3V*%
X68150000Y-97337500D03*
%TD*%
D12*
%TO.P,J6,1,Pin_1*%
%TO.N,PWR*%
X47500000Y-86750000D03*
D13*
%TO.P,J6,2,Pin_2*%
%TO.N,/M_LF*%
X47500000Y-84210000D03*
%TD*%
D11*
%TO.P,C17,1*%
%TO.N,/B+*%
X74250000Y-62580000D03*
%TO.P,C17,2*%
%TO.N,GND*%
X74250000Y-61620000D03*
%TD*%
D28*
%TO.P,C14,1*%
%TO.N,+3.3V*%
X53575000Y-64470000D03*
%TO.P,C14,2*%
%TO.N,GND*%
X53575000Y-65430000D03*
%TD*%
D30*
%TO.P,D6,1,K*%
%TO.N,PWR*%
X43250000Y-87950000D03*
%TO.P,D6,2,A*%
%TO.N,/M_LF*%
X43250000Y-83950000D03*
%TD*%
D16*
%TO.P,R3,1*%
%TO.N,+3.3V*%
X50300000Y-60790000D03*
%TO.P,R3,2*%
%TO.N,/SCL*%
X50300000Y-61810000D03*
%TD*%
D28*
%TO.P,C16,1*%
%TO.N,/VIN*%
X73500000Y-66270000D03*
%TO.P,C16,2*%
%TO.N,GND*%
X73500000Y-67230000D03*
%TD*%
D16*
%TO.P,R5,1*%
%TO.N,/PROG*%
X79325000Y-66390000D03*
%TO.P,R5,2*%
%TO.N,GND*%
X79325000Y-67410000D03*
%TD*%
D11*
%TO.P,C13,1*%
%TO.N,PWR*%
X57525000Y-60780000D03*
%TO.P,C13,2*%
%TO.N,GND*%
X57525000Y-59820000D03*
%TD*%
D44*
%TO.N,+3.3V*%
X71500000Y-88080000D03*
X93201000Y-67125000D03*
X76576138Y-99075000D03*
X87200000Y-71500000D03*
X84175000Y-74225000D03*
X84200000Y-72625000D03*
X91300000Y-67150000D03*
X71496000Y-89480000D03*
X88800000Y-71475000D03*
X77225000Y-85852623D03*
X73367025Y-99067025D03*
X78741858Y-85801907D03*
%TO.N,GND*%
X64275000Y-95925000D03*
X70000000Y-63775000D03*
X64975000Y-92275000D03*
X103900000Y-75550000D03*
X58550000Y-59825000D03*
X53375000Y-95425000D03*
X58975000Y-73400000D03*
X67246000Y-89229539D03*
X70775000Y-97900000D03*
X53575000Y-66400000D03*
X75175000Y-61625000D03*
X88312500Y-89775000D03*
X77025000Y-60450000D03*
X82675000Y-86500000D03*
X59000000Y-67350000D03*
X91625000Y-95400000D03*
X63225000Y-83300000D03*
X53375000Y-86825000D03*
X77275000Y-97875000D03*
X65000000Y-58500000D03*
X70275000Y-65400000D03*
X74750000Y-67250000D03*
X68500000Y-80600000D03*
X91625000Y-86925000D03*
%TO.N,PWR*%
X94725000Y-79550000D03*
X59450000Y-65250000D03*
X64375000Y-65975000D03*
X87200000Y-73425000D03*
X64400000Y-67950000D03*
X59450000Y-63650000D03*
X94750000Y-80950000D03*
X93201000Y-73450000D03*
X88800000Y-73425000D03*
X91300000Y-73450000D03*
%TO.N,VBUS*%
X89351000Y-62225000D03*
X87450000Y-62250000D03*
%TO.N,/PWM_RB*%
X77813430Y-93375000D03*
X78750000Y-95026000D03*
%TO.N,/PWM_LB*%
X75875000Y-93375000D03*
X76000000Y-90375000D03*
X77400000Y-90325000D03*
X75876138Y-96528722D03*
%TO.N,/PWM_RF*%
X88375000Y-84650000D03*
X90777000Y-84650000D03*
%TO.N,/PWM_LF*%
X76000000Y-88850000D03*
X74491829Y-96530000D03*
X77400000Y-88800000D03*
X74500000Y-93375000D03*
%TD*%
D45*
%TO.N,+3.3V*%
X71500000Y-85821466D02*
X71541466Y-85780000D01*
D46*
X100700000Y-57910000D02*
X100700000Y-63892000D01*
D45*
X68566000Y-85775000D02*
X68571000Y-85780000D01*
X77225000Y-85852623D02*
X71614089Y-85852623D01*
X68500000Y-83300000D02*
X69675000Y-83300000D01*
D46*
X53597500Y-60790000D02*
X53612500Y-60775000D01*
X70475000Y-98825000D02*
X70982786Y-98825000D01*
D45*
X70496000Y-84734534D02*
X70496000Y-83855000D01*
D46*
X91300000Y-68975000D02*
X91300000Y-67150000D01*
X43300000Y-64100000D02*
X43300000Y-78325000D01*
D45*
X78225000Y-98025000D02*
X77200000Y-99050000D01*
D46*
X66406500Y-97337500D02*
X66219000Y-97150000D01*
D45*
X79921000Y-85780000D02*
X78763765Y-85780000D01*
X77200000Y-99050000D02*
X76601138Y-99050000D01*
X78225000Y-96475000D02*
X77996000Y-96246000D01*
D46*
X53612500Y-60775000D02*
X53612500Y-64432500D01*
D45*
X71730000Y-96975000D02*
X71730000Y-96580000D01*
X76601138Y-99050000D02*
X76576138Y-99075000D01*
X78763765Y-85780000D02*
X78741858Y-85801907D01*
X70290000Y-81850000D02*
X69875000Y-81850000D01*
X77996000Y-96246000D02*
X77996000Y-95205000D01*
X69941000Y-83300000D02*
X70496000Y-83855000D01*
X73125000Y-98825000D02*
X70982786Y-98825000D01*
D46*
X53612500Y-64432500D02*
X53575000Y-64470000D01*
X53595000Y-64450000D02*
X62150000Y-64450000D01*
D45*
X73367025Y-99067025D02*
X73125000Y-98825000D01*
D46*
X68150000Y-97337500D02*
X66406500Y-97337500D01*
D45*
X71500000Y-88080000D02*
X71500000Y-85821466D01*
D46*
X97467000Y-67125000D02*
X97536000Y-67056000D01*
D45*
X71496000Y-95205000D02*
X71496000Y-89480000D01*
D46*
X68150000Y-97337500D02*
X69287500Y-97337500D01*
X84725000Y-71625000D02*
X84850000Y-71500000D01*
D45*
X71614089Y-85852623D02*
X70496000Y-84734534D01*
D46*
X84200000Y-72150000D02*
X84725000Y-71625000D01*
X69775000Y-98125000D02*
X70475000Y-98825000D01*
X53575000Y-64470000D02*
X53595000Y-64450000D01*
D45*
X69875000Y-81850000D02*
X69675000Y-82050000D01*
D46*
X50300000Y-60790000D02*
X53597500Y-60790000D01*
X100700000Y-63892000D02*
X97536000Y-67056000D01*
D45*
X71496000Y-96346000D02*
X71496000Y-95205000D01*
D46*
X71730000Y-98077786D02*
X71730000Y-96975000D01*
X88800000Y-71475000D02*
X91300000Y-68975000D01*
D45*
X80161000Y-85540000D02*
X79921000Y-85780000D01*
D46*
X44625000Y-63490000D02*
X44625000Y-59769000D01*
X44625000Y-63490000D02*
X43910000Y-63490000D01*
X84200000Y-72625000D02*
X84200000Y-72150000D01*
D45*
X78225000Y-96975000D02*
X78225000Y-96475000D01*
X68571000Y-85780000D02*
X71541466Y-85780000D01*
D46*
X44575000Y-79600000D02*
X65025000Y-79600000D01*
X50300000Y-60790000D02*
X50300000Y-59698000D01*
X84175000Y-84375000D02*
X83010000Y-85540000D01*
X69287500Y-97337500D02*
X69775000Y-97825000D01*
X70982786Y-98825000D02*
X71730000Y-98077786D01*
D45*
X71730000Y-96580000D02*
X71496000Y-96346000D01*
D46*
X84850000Y-71500000D02*
X87200000Y-71500000D01*
X68475000Y-83275000D02*
X68500000Y-83300000D01*
X43300000Y-78325000D02*
X44575000Y-79600000D01*
X84175000Y-76675000D02*
X84175000Y-74225000D01*
X65325000Y-83275000D02*
X68475000Y-83275000D01*
X44625000Y-59769000D02*
X47498000Y-56896000D01*
D45*
X71541466Y-85780000D02*
X71614089Y-85852623D01*
D46*
X50300000Y-59698000D02*
X47498000Y-56896000D01*
D45*
X69675000Y-82050000D02*
X69675000Y-83300000D01*
X69675000Y-83300000D02*
X69941000Y-83300000D01*
D46*
X69775000Y-97825000D02*
X69775000Y-98125000D01*
X62150000Y-64450000D02*
X63400000Y-63200000D01*
X43910000Y-63490000D02*
X43300000Y-64100000D01*
X84175000Y-76675000D02*
X84175000Y-84375000D01*
X65325000Y-83275000D02*
X65325000Y-79900000D01*
X83010000Y-85540000D02*
X81825000Y-85540000D01*
X63400000Y-63200000D02*
X63400000Y-55000000D01*
D45*
X78225000Y-96975000D02*
X78225000Y-98025000D01*
D46*
X93201000Y-67125000D02*
X97467000Y-67125000D01*
D45*
X81825000Y-85540000D02*
X80161000Y-85540000D01*
D46*
X65325000Y-79900000D02*
X65025000Y-79600000D01*
D45*
%TO.N,GND*%
X70770000Y-97895000D02*
X70775000Y-97900000D01*
D46*
X69975000Y-63750000D02*
X70000000Y-63775000D01*
X55887500Y-59825000D02*
X57520000Y-59825000D01*
D45*
X81105000Y-86280000D02*
X79921000Y-86280000D01*
X63350000Y-90650000D02*
X64975000Y-92275000D01*
X70996000Y-96354000D02*
X70996000Y-95205000D01*
D46*
X73830000Y-58050000D02*
X76179000Y-58050000D01*
X79465000Y-67550000D02*
X79325000Y-67410000D01*
X63250000Y-83275000D02*
X63225000Y-83300000D01*
X68500000Y-81750000D02*
X68500000Y-80600000D01*
X64975000Y-57525000D02*
X64975000Y-58475000D01*
D45*
X65600000Y-85925000D02*
X66525000Y-85925000D01*
X71250000Y-80038520D02*
X71030740Y-79819260D01*
D46*
X87237500Y-89775000D02*
X88312500Y-89775000D01*
D45*
X65050000Y-86475000D02*
X65600000Y-85925000D01*
X71250000Y-81850000D02*
X71250000Y-82475000D01*
X69875000Y-79600000D02*
X69875000Y-78975000D01*
X70996000Y-82729000D02*
X70996000Y-83855000D01*
D46*
X53375000Y-94485000D02*
X53375000Y-95425000D01*
D45*
X77265000Y-97865000D02*
X77275000Y-97875000D01*
X70025000Y-79775000D02*
X70025000Y-79750000D01*
D46*
X74250000Y-61620000D02*
X75170000Y-61620000D01*
D45*
X67225539Y-89250000D02*
X67246000Y-89229539D01*
D46*
X65025000Y-92225000D02*
X64975000Y-92275000D01*
D45*
X65995000Y-91430000D02*
X65995000Y-92225000D01*
D46*
X53575000Y-65430000D02*
X53575000Y-66400000D01*
X53375000Y-85900000D02*
X53375000Y-86825000D01*
D45*
X70025000Y-79750000D02*
X69875000Y-79600000D01*
X63350000Y-88675000D02*
X63350000Y-90650000D01*
D46*
X76179000Y-58050000D02*
X76229000Y-58100000D01*
X59950000Y-73375000D02*
X59000000Y-73375000D01*
X64320000Y-95880000D02*
X64275000Y-95925000D01*
D45*
X77265000Y-96460000D02*
X77496000Y-96229000D01*
X70770000Y-96975000D02*
X70770000Y-96580000D01*
X65050000Y-86475000D02*
X63225000Y-84650000D01*
D46*
X58050000Y-67375000D02*
X58975000Y-67375000D01*
X91625000Y-87800000D02*
X91625000Y-86925000D01*
D45*
X68571000Y-91280000D02*
X66145000Y-91280000D01*
X70986480Y-79775000D02*
X70025000Y-79775000D01*
D46*
X70225000Y-65350000D02*
X70275000Y-65400000D01*
X58975000Y-67375000D02*
X59000000Y-67350000D01*
X65270000Y-95880000D02*
X65270000Y-97139000D01*
X74730000Y-67230000D02*
X74750000Y-67250000D01*
X69025000Y-65350000D02*
X70225000Y-65350000D01*
X57525000Y-59820000D02*
X58545000Y-59820000D01*
X103900000Y-76420000D02*
X103900000Y-75550000D01*
D45*
X81325000Y-86500000D02*
X81105000Y-86280000D01*
D46*
X77915000Y-60425000D02*
X77050000Y-60425000D01*
X77050000Y-60425000D02*
X77025000Y-60450000D01*
X59000000Y-73375000D02*
X58975000Y-73400000D01*
D45*
X69500000Y-79600000D02*
X68500000Y-80600000D01*
X81825000Y-86500000D02*
X82675000Y-86500000D01*
D46*
X64975000Y-58475000D02*
X65000000Y-58500000D01*
X81550000Y-67550000D02*
X79465000Y-67550000D01*
D45*
X77265000Y-96975000D02*
X77265000Y-96460000D01*
X77496000Y-96229000D02*
X77496000Y-95205000D01*
D46*
X65270000Y-97139000D02*
X65259000Y-97150000D01*
X64365000Y-83275000D02*
X63250000Y-83275000D01*
D45*
X77265000Y-96975000D02*
X77265000Y-97865000D01*
D46*
X73500000Y-67230000D02*
X74730000Y-67230000D01*
D45*
X70770000Y-96975000D02*
X70770000Y-97895000D01*
X81825000Y-86500000D02*
X81325000Y-86500000D01*
X63225000Y-84650000D02*
X63225000Y-83300000D01*
X70770000Y-96580000D02*
X70996000Y-96354000D01*
D46*
X75170000Y-61620000D02*
X75175000Y-61625000D01*
X57520000Y-59825000D02*
X57525000Y-59820000D01*
X69000000Y-63750000D02*
X69975000Y-63750000D01*
X65995000Y-92225000D02*
X65025000Y-92225000D01*
X58545000Y-59820000D02*
X58550000Y-59825000D01*
X91625000Y-96310000D02*
X91625000Y-95400000D01*
D45*
X66525000Y-89250000D02*
X67225539Y-89250000D01*
X71250000Y-82475000D02*
X70996000Y-82729000D01*
X71250000Y-81850000D02*
X71250000Y-80038520D01*
D46*
X65270000Y-95880000D02*
X64320000Y-95880000D01*
D45*
X66145000Y-91280000D02*
X65995000Y-91430000D01*
X69875000Y-79600000D02*
X69500000Y-79600000D01*
D46*
%TO.N,+3.3VA*%
X66230000Y-95880000D02*
X67000000Y-95880000D01*
X67000000Y-95880000D02*
X66955000Y-95835000D01*
X67000000Y-95880000D02*
X68032500Y-95880000D01*
X66955000Y-95835000D02*
X66955000Y-92225000D01*
D45*
X68571000Y-91780000D02*
X67400000Y-91780000D01*
X67400000Y-91780000D02*
X66955000Y-92225000D01*
D46*
X68032500Y-95880000D02*
X68150000Y-95762500D01*
D45*
%TO.N,/NRST*%
X78728946Y-94326000D02*
X86816043Y-94326000D01*
X93500000Y-80250000D02*
X97250000Y-80250000D01*
X86816043Y-94326000D02*
X90077000Y-91065041D01*
X73405000Y-88780000D02*
X73675000Y-89050000D01*
X92165041Y-82652000D02*
X93025000Y-81792041D01*
X78477946Y-94075000D02*
X74208636Y-94075000D01*
X73675000Y-93541364D02*
X73675000Y-89050000D01*
D46*
X97175000Y-80175000D02*
X97250000Y-80250000D01*
D45*
X68571000Y-88780000D02*
X73405000Y-88780000D01*
X90425000Y-82652000D02*
X92165041Y-82652000D01*
X93025000Y-80725000D02*
X93500000Y-80250000D01*
X74208636Y-94075000D02*
X73675000Y-93541364D01*
X90077000Y-91065041D02*
X90077000Y-83000000D01*
X90077000Y-83000000D02*
X90425000Y-82652000D01*
X97255000Y-77380000D02*
X103900000Y-77380000D01*
X78477946Y-94075000D02*
X78728946Y-94326000D01*
X93025000Y-81792041D02*
X93025000Y-80725000D01*
X97250000Y-73750000D02*
X97250000Y-80250000D01*
%TO.N,/HSE_IN*%
X68571000Y-87780000D02*
X67420000Y-87780000D01*
X67420000Y-87780000D02*
X66525000Y-86885000D01*
X64401000Y-87526000D02*
X63350000Y-86475000D01*
X65884000Y-87526000D02*
X64401000Y-87526000D01*
X66525000Y-86885000D02*
X65884000Y-87526000D01*
%TO.N,/HSE_OUT*%
X66535000Y-88280000D02*
X66525000Y-88290000D01*
X66525000Y-88290000D02*
X65435000Y-88290000D01*
X65435000Y-88290000D02*
X65050000Y-88675000D01*
X68571000Y-88280000D02*
X66535000Y-88280000D01*
%TO.N,/PWR_LED_K*%
X64975000Y-56505000D02*
X64975000Y-55000000D01*
%TO.N,Net-(D2-K)*%
X83475000Y-58180000D02*
X83475000Y-55212500D01*
X83475000Y-55212500D02*
X83487500Y-55200000D01*
%TO.N,Net-(D3-K)*%
X86700000Y-55194000D02*
X86700000Y-58180000D01*
D46*
%TO.N,/Q12*%
X59000000Y-69250000D02*
X59000000Y-71500000D01*
D45*
%TO.N,/BOOT0*%
X72025000Y-80105000D02*
X70895000Y-78975000D01*
X72496000Y-83855000D02*
X72496000Y-82871000D01*
X72025000Y-82400000D02*
X72025000Y-80105000D01*
X72496000Y-82871000D02*
X72025000Y-82400000D01*
%TO.N,/LED_SIGNAL*%
X79921000Y-89780000D02*
X80855000Y-89780000D01*
X80855000Y-89780000D02*
X80860000Y-89775000D01*
X80860000Y-89775000D02*
X83227500Y-89775000D01*
X83222500Y-89780000D02*
X83227500Y-89775000D01*
%TO.N,/SWCLK*%
X79095000Y-76675000D02*
X77996000Y-77774000D01*
X77996000Y-77774000D02*
X77996000Y-83855000D01*
%TO.N,/SWDIO*%
X77925000Y-85375000D02*
X78550000Y-84750000D01*
X78550000Y-84750000D02*
X78550000Y-78125000D01*
X77925000Y-85975000D02*
X77925000Y-85375000D01*
X78550000Y-78125000D02*
X81275000Y-78125000D01*
X81275000Y-78125000D02*
X81635000Y-77765000D01*
X78730000Y-86780000D02*
X77925000Y-85975000D01*
X79921000Y-86780000D02*
X78730000Y-86780000D01*
X81635000Y-77765000D02*
X81635000Y-76675000D01*
%TO.N,/STDBY_LED*%
X88651000Y-66373999D02*
X87474999Y-67550000D01*
X86700000Y-59200000D02*
X86700000Y-60975000D01*
X87474999Y-67550000D02*
X86500000Y-67550000D01*
X88175000Y-61025000D02*
X88651000Y-61501000D01*
X86700000Y-60975000D02*
X86750000Y-61025000D01*
X86750000Y-61025000D02*
X88175000Y-61025000D01*
X88651000Y-61501000D02*
X88651000Y-66373999D01*
%TO.N,/CHRG_LED*%
X88150000Y-61750000D02*
X88150000Y-65604999D01*
X83475000Y-59200000D02*
X83475000Y-60625000D01*
X88150000Y-65604999D02*
X87474999Y-66280000D01*
X87474999Y-66280000D02*
X86500000Y-66280000D01*
X83475000Y-60625000D02*
X84400000Y-61550000D01*
X84400000Y-61550000D02*
X87950000Y-61550000D01*
X87950000Y-61550000D02*
X88150000Y-61750000D01*
%TO.N,/SDA*%
X72996000Y-79771000D02*
X72996000Y-83855000D01*
X71175000Y-77950000D02*
X72996000Y-79771000D01*
X50750000Y-67025000D02*
X50750000Y-75775000D01*
X50750000Y-75775000D02*
X52925000Y-77950000D01*
X48482000Y-65500000D02*
X49225000Y-65500000D01*
X52925000Y-77950000D02*
X71175000Y-77950000D01*
X44625000Y-64510000D02*
X47492000Y-64510000D01*
X47498000Y-64516000D02*
X48482000Y-65500000D01*
X47492000Y-64510000D02*
X47498000Y-64516000D01*
X49225000Y-65500000D02*
X50750000Y-67025000D01*
%TO.N,/SCL*%
X51251000Y-75567480D02*
X53132520Y-77449000D01*
X47665000Y-61810000D02*
X50300000Y-61810000D01*
X50300000Y-65866480D02*
X51251000Y-66817479D01*
X51251000Y-66817479D02*
X51251000Y-75567480D01*
X47498000Y-61976000D02*
X47499000Y-61976000D01*
X71382521Y-77449000D02*
X73496000Y-79562479D01*
X47499000Y-61976000D02*
X47665000Y-61810000D01*
X53132520Y-77449000D02*
X71382521Y-77449000D01*
X73496000Y-79562479D02*
X73496000Y-83855000D01*
X50300000Y-61810000D02*
X50300000Y-65866480D01*
%TO.N,/RX*%
X89075000Y-82550000D02*
X89975000Y-81650000D01*
X87600000Y-92125000D02*
X89075000Y-90650000D01*
X92000000Y-81400000D02*
X92000000Y-64275000D01*
X79921000Y-91280000D02*
X81530000Y-91280000D01*
X89975000Y-81650000D02*
X91750000Y-81650000D01*
X92000000Y-64275000D02*
X94299000Y-61976000D01*
X82375000Y-92125000D02*
X87600000Y-92125000D01*
X94299000Y-61976000D02*
X97536000Y-61976000D01*
X91750000Y-81650000D02*
X92000000Y-81400000D01*
X81530000Y-91280000D02*
X82375000Y-92125000D01*
X89075000Y-90650000D02*
X89075000Y-82550000D01*
D46*
%TO.N,/RST*%
X97536000Y-56896000D02*
X100694000Y-56896000D01*
X100694000Y-56896000D02*
X100700000Y-56890000D01*
D45*
%TO.N,/TX*%
X89576000Y-82757520D02*
X89576000Y-90857520D01*
X91957520Y-82151000D02*
X90182520Y-82151000D01*
X97536000Y-64516000D02*
X93535000Y-64516000D01*
X90182520Y-82151000D02*
X89576000Y-82757520D01*
X78500000Y-93238534D02*
X78500000Y-91075000D01*
X92501000Y-65550000D02*
X92501000Y-81607521D01*
X93535000Y-64516000D02*
X92501000Y-65550000D01*
X86608521Y-93825000D02*
X79086466Y-93825000D01*
X92501000Y-81607521D02*
X91957520Y-82151000D01*
X79086466Y-93825000D02*
X78500000Y-93238534D01*
X89576000Y-90857520D02*
X86608521Y-93825000D01*
X78800000Y-90775000D02*
X78805000Y-90780000D01*
X78500000Y-91075000D02*
X78800000Y-90775000D01*
X78805000Y-90780000D02*
X79921000Y-90780000D01*
%TO.N,/OD*%
X60650000Y-66675000D02*
X65400000Y-66675000D01*
X66000000Y-65350000D02*
X66750000Y-65350000D01*
X65500000Y-65850000D02*
X66000000Y-65350000D01*
X65400000Y-66675000D02*
X65500000Y-66575000D01*
X65500000Y-66575000D02*
X65500000Y-65850000D01*
X59950000Y-67375000D02*
X60650000Y-66675000D01*
%TO.N,/OC*%
X58050000Y-73375000D02*
X58050000Y-75150000D01*
X62700000Y-75200000D02*
X62700000Y-67900000D01*
X63350000Y-67250000D02*
X66750000Y-67250000D01*
X62700000Y-67900000D02*
X63350000Y-67250000D01*
X58100000Y-75200000D02*
X62700000Y-75200000D01*
X58050000Y-75150000D02*
X58100000Y-75200000D01*
%TO.N,/CS*%
X66750000Y-66300000D02*
X67775000Y-66300000D01*
X67980000Y-66095000D02*
X67980000Y-63750000D01*
X67775000Y-66300000D02*
X67980000Y-66095000D01*
%TO.N,/PROG*%
X79445000Y-66280000D02*
X81550000Y-66280000D01*
X79325000Y-66390000D02*
X79335000Y-66390000D01*
X79335000Y-66390000D02*
X79445000Y-66280000D01*
D46*
%TO.N,/VIN*%
X71575000Y-66300000D02*
X73470000Y-66300000D01*
X73470000Y-66300000D02*
X73500000Y-66270000D01*
X69025000Y-66300000D02*
X71575000Y-66300000D01*
%TO.N,PWR*%
X57520000Y-60775000D02*
X57525000Y-60780000D01*
X43250000Y-91125000D02*
X43250000Y-87950000D01*
X54395900Y-59800000D02*
X55320900Y-58875000D01*
X43250000Y-91125000D02*
X38150000Y-91125000D01*
X59450000Y-65250000D02*
X60175000Y-65975000D01*
X55887500Y-58875000D02*
X56750000Y-58875000D01*
X101750000Y-90875000D02*
X101750000Y-94150000D01*
X51393364Y-59800000D02*
X54395900Y-59800000D01*
X38150000Y-91125000D02*
X38125000Y-91150000D01*
X105800000Y-90875000D02*
X101750000Y-90875000D01*
X42599000Y-60803636D02*
X45226318Y-58176318D01*
X94725000Y-74974000D02*
X94725000Y-79550000D01*
X101750000Y-87950000D02*
X98725000Y-87950000D01*
X106800000Y-89825000D02*
X106825000Y-89850000D01*
X50325000Y-54050000D02*
X50325000Y-58731636D01*
X55320900Y-58875000D02*
X55887500Y-58875000D01*
X60175000Y-65975000D02*
X64375000Y-65975000D01*
X98725000Y-87950000D02*
X97525000Y-86750000D01*
X106825000Y-89850000D02*
X105800000Y-90875000D01*
X59494000Y-58169000D02*
X57444000Y-58169000D01*
X55887500Y-60775000D02*
X57520000Y-60775000D01*
X45950000Y-53300000D02*
X49575000Y-53300000D01*
X94750000Y-80950000D02*
X96049000Y-82249000D01*
X50325000Y-58731636D02*
X51393364Y-59800000D01*
X103750000Y-81250000D02*
X105250000Y-81250000D01*
X37250000Y-90275000D02*
X37250000Y-82525000D01*
X93201000Y-73450000D02*
X94725000Y-74974000D01*
X106800000Y-82800000D02*
X106800000Y-89825000D01*
X91275000Y-73425000D02*
X91300000Y-73450000D01*
X59425000Y-63625000D02*
X59450000Y-63650000D01*
X43250000Y-94250000D02*
X43250000Y-91125000D01*
X88800000Y-73425000D02*
X91275000Y-73425000D01*
X96049000Y-82249000D02*
X102751000Y-82249000D01*
X59425000Y-60780000D02*
X59425000Y-63625000D01*
X101750000Y-94150000D02*
X98735000Y-94150000D01*
X57450000Y-58175000D02*
X57444000Y-58169000D01*
X49575000Y-53300000D02*
X50325000Y-54050000D01*
X105250000Y-81250000D02*
X106800000Y-82800000D01*
X59720000Y-60780000D02*
X59925000Y-60575000D01*
X59925000Y-60575000D02*
X59925000Y-58600000D01*
X102751000Y-82249000D02*
X103750000Y-81250000D01*
X59925000Y-58600000D02*
X59494000Y-58169000D01*
X42599000Y-77176000D02*
X42599000Y-60803636D01*
X45226318Y-58176318D02*
X45225000Y-58175000D01*
X45225000Y-54025000D02*
X45950000Y-53300000D01*
X46300000Y-87950000D02*
X47500000Y-86750000D01*
X57525000Y-60780000D02*
X59425000Y-60780000D01*
X46315000Y-94250000D02*
X47500000Y-95435000D01*
X37250000Y-82525000D02*
X42599000Y-77176000D01*
X43250000Y-87950000D02*
X46300000Y-87950000D01*
X57444000Y-58169000D02*
X57444000Y-56517500D01*
X64400000Y-67950000D02*
X69875000Y-73425000D01*
X56750000Y-58875000D02*
X57450000Y-58175000D01*
X43250000Y-94250000D02*
X46315000Y-94250000D01*
X98735000Y-94150000D02*
X97525000Y-95360000D01*
X59425000Y-60780000D02*
X59720000Y-60780000D01*
X45225000Y-58175000D02*
X45225000Y-54025000D01*
X101750000Y-87950000D02*
X101750000Y-90875000D01*
X69875000Y-73425000D02*
X87200000Y-73425000D01*
X38125000Y-91150000D02*
X37250000Y-90275000D01*
%TO.N,VBUS*%
X77450000Y-68225000D02*
X77450000Y-64150000D01*
D45*
X88275000Y-55194000D02*
X88275000Y-53175000D01*
X86500000Y-62150000D02*
X86500000Y-65010000D01*
X78875000Y-60425000D02*
X78875000Y-60700000D01*
X88275000Y-53175000D02*
X87925000Y-52825000D01*
X79225000Y-61050000D02*
X83075000Y-61050000D01*
D46*
X81550000Y-68820000D02*
X78045000Y-68820000D01*
X77450000Y-64150000D02*
X78875000Y-62725000D01*
D45*
X83075000Y-61050000D02*
X84175000Y-62150000D01*
X87350000Y-62150000D02*
X87450000Y-62250000D01*
X78875000Y-60425000D02*
X78875000Y-58120000D01*
X84175000Y-62150000D02*
X86500000Y-62150000D01*
X78855000Y-60405000D02*
X78875000Y-60425000D01*
X78875000Y-60700000D02*
X79225000Y-61050000D01*
D46*
X78045000Y-68820000D02*
X77450000Y-68225000D01*
X78875000Y-62725000D02*
X78875000Y-60425000D01*
D45*
X89351000Y-56270000D02*
X88275000Y-55194000D01*
X87925000Y-52825000D02*
X85450000Y-52825000D01*
X86500000Y-62150000D02*
X87350000Y-62150000D01*
X89351000Y-62225000D02*
X89351000Y-56270000D01*
X85062500Y-53212500D02*
X85062500Y-55200000D01*
X85450000Y-52825000D02*
X85062500Y-53212500D01*
X78875000Y-58120000D02*
X78855000Y-58100000D01*
D46*
%TO.N,/B+*%
X74250000Y-62580000D02*
X75005000Y-62580000D01*
X75975000Y-70050000D02*
X76245000Y-70320000D01*
X71575000Y-65280000D02*
X71575000Y-63625000D01*
X86500000Y-68820000D02*
X88000000Y-70320000D01*
X62750000Y-53225000D02*
X67300000Y-53225000D01*
X67300000Y-53225000D02*
X69325000Y-55250000D01*
X69325000Y-60900000D02*
X71575000Y-63150000D01*
X69325000Y-55250000D02*
X69325000Y-60900000D01*
X59944000Y-56031000D02*
X62750000Y-53225000D01*
X75975000Y-63550000D02*
X75975000Y-70050000D01*
X72620000Y-62580000D02*
X74250000Y-62580000D01*
X75005000Y-62580000D02*
X75975000Y-63550000D01*
X71575000Y-63625000D02*
X72620000Y-62580000D01*
X88000000Y-70320000D02*
X88000000Y-76670000D01*
X71575000Y-63150000D02*
X71575000Y-63625000D01*
X76245000Y-70320000D02*
X88000000Y-70320000D01*
X59944000Y-56517500D02*
X59944000Y-56031000D01*
%TO.N,/M_LB*%
X43250000Y-98250000D02*
X47225000Y-98250000D01*
X50040000Y-95435000D02*
X47500000Y-97975000D01*
X47225000Y-98250000D02*
X47500000Y-97975000D01*
X51500000Y-95435000D02*
X50040000Y-95435000D01*
%TO.N,/M_RB*%
X97775000Y-98150000D02*
X97525000Y-97900000D01*
X101750000Y-98150000D02*
X97775000Y-98150000D01*
X93500000Y-95360000D02*
X94985000Y-95360000D01*
X94985000Y-95360000D02*
X97525000Y-97900000D01*
X97150000Y-97900000D02*
X97525000Y-97900000D01*
%TO.N,/M_LF*%
X50140000Y-86850000D02*
X47500000Y-84210000D01*
X47240000Y-83950000D02*
X47500000Y-84210000D01*
X51500000Y-86850000D02*
X50140000Y-86850000D01*
X43250000Y-83950000D02*
X47240000Y-83950000D01*
%TO.N,/M_RF*%
X94885000Y-86850000D02*
X97525000Y-84210000D01*
X93500000Y-86850000D02*
X94885000Y-86850000D01*
X101750000Y-83950000D02*
X97785000Y-83950000D01*
X97785000Y-83950000D02*
X97525000Y-84210000D01*
D45*
%TO.N,/PWM_RB*%
X76700000Y-88050000D02*
X76970000Y-87780000D01*
X91625000Y-94410000D02*
X91009000Y-95026000D01*
X91009000Y-95026000D02*
X78750000Y-95026000D01*
X76970000Y-87780000D02*
X79921000Y-87780000D01*
X77813430Y-93375000D02*
X76700000Y-92261570D01*
X76700000Y-92261570D02*
X76700000Y-88050000D01*
%TO.N,/PWM_LB*%
X53375000Y-96385000D02*
X53375000Y-99900000D01*
X75875000Y-90500000D02*
X76000000Y-90375000D01*
X53675000Y-100450000D02*
X53950000Y-100725000D01*
X53375000Y-100150000D02*
X53675000Y-100450000D01*
X74900000Y-100725000D02*
X75625000Y-100000000D01*
X75625000Y-100000000D02*
X75876138Y-99748862D01*
X73625000Y-100725000D02*
X74900000Y-100725000D01*
X78445000Y-89280000D02*
X79921000Y-89280000D01*
X75876138Y-99748862D02*
X75876138Y-96528722D01*
X75875000Y-93375000D02*
X75875000Y-90500000D01*
X77400000Y-90325000D02*
X78445000Y-89280000D01*
X53375000Y-99900000D02*
X53375000Y-100150000D01*
X53950000Y-100725000D02*
X73625000Y-100725000D01*
%TO.N,/PWM_RF*%
X91625000Y-84850000D02*
X91425000Y-84650000D01*
X88400000Y-87450000D02*
X87570000Y-88280000D01*
X88375000Y-87425000D02*
X88400000Y-87450000D01*
X91425000Y-84650000D02*
X90777000Y-84650000D01*
X91625000Y-85900000D02*
X91625000Y-84850000D01*
X87570000Y-88280000D02*
X79921000Y-88280000D01*
X88375000Y-84650000D02*
X88375000Y-87425000D01*
%TO.N,/PWM_LF*%
X79921000Y-88780000D02*
X77420000Y-88780000D01*
X54300000Y-87800000D02*
X54825000Y-88325000D01*
X77420000Y-88780000D02*
X77400000Y-88800000D01*
X73200000Y-100224000D02*
X74491829Y-98932171D01*
X75275000Y-88850000D02*
X76000000Y-88850000D01*
X55050000Y-99525000D02*
X55050000Y-99725000D01*
X53375000Y-87800000D02*
X54300000Y-87800000D01*
X74491829Y-98932171D02*
X74491829Y-96530000D01*
X74500000Y-93375000D02*
X74500000Y-89625000D01*
X74500000Y-89625000D02*
X75275000Y-88850000D01*
X55050000Y-88550000D02*
X55050000Y-99525000D01*
X55549000Y-100224000D02*
X73200000Y-100224000D01*
X54825000Y-88325000D02*
X55050000Y-88550000D01*
X55050000Y-99725000D02*
X55549000Y-100224000D01*
%TO.N,/LED_SIGNAL_VIN*%
X84247500Y-89775000D02*
X85662500Y-89775000D01*
%TD*%
%TA.AperFunction,Conductor*%
%TO.N,GND*%
G36*
X85068039Y-64619685D02*
G01*
X85113794Y-64672489D01*
X85125000Y-64724000D01*
X85125000Y-68426000D01*
X85105315Y-68493039D01*
X85052511Y-68538794D01*
X85001000Y-68550000D01*
X83188431Y-68550000D01*
X83121392Y-68530315D01*
X83118305Y-68528266D01*
X82328874Y-67986942D01*
X82284717Y-67932795D01*
X82275000Y-67884676D01*
X82275000Y-67212150D01*
X82294685Y-67145111D01*
X82347489Y-67099356D01*
X82356991Y-67095483D01*
X82900000Y-66900000D01*
X82900000Y-66025000D01*
X82716791Y-65834464D01*
X82697150Y-65807850D01*
X82676662Y-65792729D01*
X82587607Y-65700112D01*
X82309617Y-65411001D01*
X82277340Y-65349034D01*
X82275000Y-65325056D01*
X82275000Y-64724000D01*
X82294685Y-64656961D01*
X82347489Y-64611206D01*
X82399000Y-64600000D01*
X85001000Y-64600000D01*
X85068039Y-64619685D01*
G37*
%TD.AperFunction*%
%TD*%
M02*
