M48
; DRILL file {KiCad 9.0.4} date 2025-11-28T16:57:34+0100
; FORMAT={-:-/ absolute / metric / decimal}
; #@! TF.CreationDate,2025-11-28T16:57:34+01:00
; #@! TF.GenerationSoftware,Kicad,Pcbnew,9.0.4
; #@! TF.FileFunction,Plated,1,2,PTH
FMAT,2
METRIC
; #@! TA.AperFunction,Plated,PTH,ViaDrill
T1C0.300
; #@! TA.AperFunction,Plated,PTH,ComponentDrill
T2C0.300
; #@! TA.AperFunction,Plated,PTH,ComponentDrill
T3C0.550
; #@! TA.AperFunction,Plated,PTH,ComponentDrill
T4C0.850
; #@! TA.AperFunction,Plated,PTH,ComponentDrill
T5C0.900
; #@! TA.AperFunction,Plated,PTH,ComponentDrill
T6C1.000
; #@! TA.AperFunction,Plated,PTH,ComponentDrill
T7C1.100
%
G90
G05
T1
X50.519Y-67.544
X53.292Y-86.911
X62.243Y-70.388
X66.299Y-88.629
X71.308Y-67.322
X71.334Y-87.723
X72.425Y-85.155
X73.978Y-69.656
X74.267Y-81.712
X76.702Y-61.958
X78.493Y-87.029
X78.54Y-88.005
X78.921Y-63.65
X84.855Y-59.116
X85.689Y-93.144
X85.695Y-68.408
X88.62Y-98.955
X91.551Y-90.3
X97.288Y-81.766
X98.251Y-90.3
T2
X85.23Y-63.7
X85.23Y-65.1
X86.43Y-63.7
X86.43Y-65.1
X87.63Y-63.7
X87.63Y-65.1
T5
X54.944Y-53.218
X54.944Y-56.517
X57.444Y-53.218
X57.444Y-56.517
X59.944Y-53.218
X59.944Y-56.517
T6
X47.498Y-56.896
X47.498Y-59.436
X47.498Y-61.976
X47.498Y-64.516
X47.498Y-67.056
X47.498Y-69.596
X47.498Y-72.136
X47.498Y-74.676
X47.5Y-84.21
X47.5Y-86.75
X47.5Y-94.46
X47.5Y-97.0
X75.184Y-79.248
X77.724Y-79.248
X80.264Y-79.248
X82.804Y-79.248
X88.725Y-76.67
X88.725Y-79.21
X97.525Y-84.21
X97.525Y-86.75
X97.525Y-94.46
X97.525Y-97.0
X97.536Y-56.896
X97.536Y-59.436
X97.536Y-61.976
X97.536Y-64.516
X97.536Y-67.056
T7
X83.25Y-89.75
X83.25Y-96.25
X87.75Y-89.75
X87.75Y-96.25
T3
G00X73.68Y-54.375
M15
G01X73.68Y-53.725
M16
G05
G00X81.43Y-54.375
M15
G01X81.43Y-53.725
M16
G05
T4
G00X73.83Y-58.125
M15
G01X73.83Y-57.575
M16
G05
G00X81.28Y-58.125
M15
G01X81.28Y-57.575
M16
G05
M30
