M48
; DRILL file {KiCad 9.0.4} date 2025-12-11T09:15:41+0100
; FORMAT={-:-/ absolute / metric / decimal}
; #@! TF.CreationDate,2025-12-11T09:15:41+01:00
; #@! TF.GenerationSoftware,Kicad,Pcbnew,9.0.4
; #@! TF.FileFunction,MixedPlating,1,2
FMAT,2
METRIC
; #@! TA.AperFunction,Plated,PTH,ViaDrill
T1C0.300
; #@! TA.AperFunction,Plated,PTH,ComponentDrill
T2C0.300
; #@! TA.AperFunction,Plated,PTH,ComponentDrill
T3C0.550
; #@! TA.AperFunction,Plated,PTH,ComponentDrill
T4C0.850
; #@! TA.AperFunction,Plated,PTH,ComponentDrill
T5C0.900
; #@! TA.AperFunction,Plated,PTH,ComponentDrill
T6C1.000
; #@! TA.AperFunction,Plated,PTH,ComponentDrill
T7C1.100
; #@! TA.AperFunction,NonPlated,NPTH,ComponentDrill
T8C0.800
; #@! TA.AperFunction,NonPlated,NPTH,ComponentDrill
T9C2.200
%
G90
G05
T1
X53.375Y-86.825
X53.375Y-95.425
X53.575Y-66.4
X58.55Y-59.825
X58.975Y-73.4
X59.0Y-67.35
X59.45Y-63.65
X59.45Y-65.25
X63.225Y-83.3
X64.275Y-95.925
X64.375Y-65.975
X64.4Y-67.95
X64.975Y-92.275
X65.0Y-58.5
X67.246Y-89.23
X68.5Y-80.6
X70.0Y-63.775
X70.275Y-65.4
X70.775Y-97.9
X71.496Y-89.48
X71.5Y-88.08
X73.367Y-99.067
X74.492Y-96.53
X74.5Y-93.375
X74.75Y-67.25
X75.175Y-61.625
X75.875Y-93.375
X75.876Y-96.529
X76.0Y-88.85
X76.0Y-90.375
X76.576Y-99.075
X77.025Y-60.45
X77.225Y-85.853
X77.275Y-97.875
X77.4Y-88.8
X77.4Y-90.325
X77.813Y-93.375
X78.742Y-85.802
X78.75Y-95.026
X82.675Y-86.5
X84.175Y-74.225
X84.2Y-72.625
X87.2Y-71.5
X87.2Y-73.425
X87.45Y-62.25
X88.312Y-89.775
X88.375Y-84.65
X88.8Y-71.475
X88.8Y-73.425
X89.351Y-62.225
X90.777Y-84.65
X91.3Y-67.15
X91.3Y-73.45
X91.625Y-86.925
X91.625Y-95.4
X93.201Y-67.125
X93.201Y-73.45
X94.725Y-79.55
X94.75Y-80.95
X103.9Y-75.55
T2
X83.325Y-65.715
X83.325Y-66.915
X83.325Y-68.115
X84.725Y-65.715
X84.725Y-66.915
X84.725Y-68.115
T5
X54.944Y-53.218
X54.944Y-56.517
X57.444Y-53.218
X57.444Y-56.517
X59.944Y-53.218
X59.944Y-56.517
T6
X47.498Y-56.896
X47.498Y-59.436
X47.498Y-61.976
X47.498Y-64.516
X47.498Y-67.056
X47.498Y-69.596
X47.498Y-72.136
X47.498Y-74.676
X47.5Y-84.21
X47.5Y-86.75
X47.5Y-95.435
X47.5Y-97.975
X76.555Y-76.675
X79.095Y-76.675
X81.635Y-76.675
X84.175Y-76.675
X88.0Y-76.67
X88.0Y-79.21
X97.525Y-84.21
X97.525Y-86.75
X97.525Y-95.36
X97.525Y-97.9
X97.536Y-56.896
X97.536Y-59.436
X97.536Y-61.976
X97.536Y-64.516
X97.536Y-67.056
T7
X97.25Y-73.75
X97.25Y-80.25
X101.75Y-73.75
X101.75Y-80.25
T8
X75.055Y-57.0
X80.055Y-57.0
T9
X37.5Y-55.0
X37.5Y-100.0
X107.5Y-55.0
X107.5Y-100.0
T3
G00X73.68Y-54.575
M15
G01X73.68Y-53.925
M16
G05
G00X81.43Y-54.575
M15
G01X81.43Y-53.925
M16
G05
T4
G00X73.83Y-58.325
M15
G01X73.83Y-57.775
M16
G05
G00X81.28Y-58.325
M15
G01X81.28Y-57.775
M16
G05
M30
