%TF.GenerationSoftware,KiCad,Pcbnew,9.0.4*%
%TF.CreationDate,2025-11-28T16:57:24+01:00*%
%TF.ProjectId,Drone_PCB,44726f6e-655f-4504-9342-2e6b69636164,rev?*%
%TF.SameCoordinates,Original*%
%TF.FileFunction,Copper,L2,Bot*%
%TF.FilePolarity,Positive*%
%FSLAX46Y46*%
G04 Gerber Fmt 4.6, Leading zero omitted, Abs format (unit mm)*
G04 Created by KiCad (PCBNEW 9.0.4) date 2025-11-28 16:57:24*
%MOMM*%
%LPD*%
G01*
G04 APERTURE LIST*
G04 Aperture macros list*
%AMRoundRect*
0 Rectangle with rounded corners*
0 $1 Rounding radius*
0 $2 $3 $4 $5 $6 $7 $8 $9 X,Y pos of 4 corners*
0 Add a 4 corners polygon primitive as box body*
4,1,4,$2,$3,$4,$5,$6,$7,$8,$9,$2,$3,0*
0 Add four circle primitives for the rounded corners*
1,1,$1+$1,$2,$3*
1,1,$1+$1,$4,$5*
1,1,$1+$1,$6,$7*
1,1,$1+$1,$8,$9*
0 Add four rect primitives between the rounded corners*
20,1,$1+$1,$2,$3,$4,$5,0*
20,1,$1+$1,$4,$5,$6,$7,0*
20,1,$1+$1,$6,$7,$8,$9,0*
20,1,$1+$1,$8,$9,$2,$3,0*%
G04 Aperture macros list end*
%TA.AperFunction,HeatsinkPad*%
%ADD10C,0.500000*%
%TD*%
%TA.AperFunction,HeatsinkPad*%
%ADD11R,2.900000X1.900000*%
%TD*%
%TA.AperFunction,ComponentPad*%
%ADD12R,1.700000X1.700000*%
%TD*%
%TA.AperFunction,ComponentPad*%
%ADD13C,1.700000*%
%TD*%
%TA.AperFunction,ComponentPad*%
%ADD14C,2.000000*%
%TD*%
%TA.AperFunction,ComponentPad*%
%ADD15RoundRect,0.250000X0.450000X0.450000X-0.450000X0.450000X-0.450000X-0.450000X0.450000X-0.450000X0*%
%TD*%
%TA.AperFunction,ComponentPad*%
%ADD16C,1.400000*%
%TD*%
%TA.AperFunction,HeatsinkPad*%
%ADD17O,1.150000X1.800000*%
%TD*%
%TA.AperFunction,HeatsinkPad*%
%ADD18O,1.450000X2.000000*%
%TD*%
%TA.AperFunction,ViaPad*%
%ADD19C,0.600000*%
%TD*%
%TA.AperFunction,Conductor*%
%ADD20C,0.200000*%
%TD*%
G04 APERTURE END LIST*
D10*
%TO.P,U3,9,EPAD*%
%TO.N,GND*%
X87630000Y-63700000D03*
X86430000Y-63700000D03*
X85230000Y-63700000D03*
D11*
X86430000Y-64400000D03*
D10*
X87630000Y-65100000D03*
X86430000Y-65100000D03*
X85230000Y-65100000D03*
%TD*%
D12*
%TO.P,J2,1,Pin_1*%
%TO.N,/INT*%
X47498000Y-74676000D03*
D13*
%TO.P,J2,2,Pin_2*%
%TO.N,/ADO*%
X47498000Y-72136000D03*
%TO.P,J2,3,Pin_3*%
%TO.N,/XCL*%
X47498000Y-69596000D03*
%TO.P,J2,4,Pin_4*%
%TO.N,/XDA*%
X47498000Y-67056000D03*
%TO.P,J2,5,Pin_5*%
%TO.N,/SDA*%
X47498000Y-64516000D03*
%TO.P,J2,6,Pin_6*%
%TO.N,/SCL*%
X47498000Y-61976000D03*
%TO.P,J2,7,Pin_7*%
%TO.N,GND*%
X47498000Y-59436000D03*
%TO.P,J2,8,Pin_8*%
%TO.N,+3.3V*%
X47498000Y-56896000D03*
%TD*%
D12*
%TO.P,J8,1,Pin_1*%
%TO.N,GND*%
X88725000Y-79210000D03*
D13*
%TO.P,J8,2,Pin_2*%
%TO.N,/B+*%
X88725000Y-76670000D03*
%TD*%
D12*
%TO.P,J6,1,Pin_1*%
%TO.N,+3.3V*%
X47500000Y-86750000D03*
D13*
%TO.P,J6,2,Pin_2*%
%TO.N,/M_LF*%
X47500000Y-84210000D03*
%TD*%
D12*
%TO.P,J1,1,Pin_1*%
%TO.N,GND*%
X75184000Y-79248000D03*
D13*
%TO.P,J1,2,Pin_2*%
%TO.N,/SWCLK*%
X77724000Y-79248000D03*
%TO.P,J1,3,Pin_3*%
%TO.N,/SWDIO*%
X80264000Y-79248000D03*
%TO.P,J1,4,Pin_4*%
%TO.N,+3.3V*%
X82804000Y-79248000D03*
%TD*%
D12*
%TO.P,J5,1,Pin_1*%
%TO.N,+3.3V*%
X97525000Y-94460000D03*
D13*
%TO.P,J5,2,Pin_2*%
%TO.N,/M_RB*%
X97525000Y-97000000D03*
%TD*%
D12*
%TO.P,J4,1,Pin_1*%
%TO.N,+3.3V*%
X47500000Y-94460000D03*
D13*
%TO.P,J4,2,Pin_2*%
%TO.N,/M_LB*%
X47500000Y-97000000D03*
%TD*%
D14*
%TO.P,SW1,1,1*%
%TO.N,/NRST*%
X83250000Y-96250000D03*
X83250000Y-89750000D03*
%TO.P,SW1,2,2*%
%TO.N,GND*%
X87750000Y-96250000D03*
X87750000Y-89750000D03*
%TD*%
D12*
%TO.P,J3,1,Pin_1*%
%TO.N,+3.3V*%
X97536000Y-67056000D03*
D13*
%TO.P,J3,2,Pin_2*%
%TO.N,/TX*%
X97536000Y-64516000D03*
%TO.P,J3,3,Pin_3*%
%TO.N,/RX*%
X97536000Y-61976000D03*
%TO.P,J3,4,Pin_4*%
%TO.N,GND*%
X97536000Y-59436000D03*
%TO.P,J3,5,Pin_5*%
%TO.N,/RST*%
X97536000Y-56896000D03*
%TD*%
D12*
%TO.P,J7,1,Pin_1*%
%TO.N,+3.3V*%
X97525000Y-86750000D03*
D13*
%TO.P,J7,2,Pin_2*%
%TO.N,/M_RF*%
X97525000Y-84210000D03*
%TD*%
D15*
%TO.P,SW2,1,A*%
%TO.N,/B+*%
X59944000Y-56517500D03*
D16*
%TO.P,SW2,2,B*%
%TO.N,/PWR*%
X57444000Y-56517500D03*
%TO.P,SW2,3*%
%TO.N,N/C*%
X54944000Y-56517500D03*
%TO.P,SW2,4*%
X54944000Y-53217500D03*
%TO.P,SW2,5*%
X57444000Y-53217500D03*
%TO.P,SW2,6*%
X59944000Y-53217500D03*
%TD*%
D17*
%TO.P,J9,6,Shield*%
%TO.N,GND*%
X81430000Y-54050000D03*
D18*
X81280000Y-57850000D03*
X73830000Y-57850000D03*
D17*
X73680000Y-54050000D03*
%TD*%
D19*
%TO.N,/PWM_LF*%
X53291700Y-86911300D03*
X71333600Y-87723200D03*
%TO.N,/PWM_RB*%
X78539800Y-88004700D03*
X85689000Y-93144200D03*
%TO.N,/B+*%
X62242600Y-70388200D03*
%TO.N,/OD*%
X76701600Y-61958500D03*
X78920700Y-63650300D03*
%TO.N,/TX*%
X91550600Y-90299700D03*
%TO.N,/RX*%
X98251300Y-90299700D03*
%TO.N,/SCL*%
X72425200Y-85155100D03*
X71307800Y-67322100D03*
%TO.N,/SDA*%
X74266700Y-81711800D03*
X73978200Y-69655700D03*
X50519400Y-67543700D03*
%TO.N,/STDBY_LED*%
X85694700Y-68408300D03*
X84854500Y-59116100D03*
%TO.N,/SWDIO*%
X78492800Y-87029400D03*
%TO.N,/NRST*%
X66299100Y-88628700D03*
%TO.N,GND*%
X88619800Y-98954600D03*
%TO.N,+3.3V*%
X97287700Y-81766200D03*
%TD*%
D20*
%TO.N,/PWM_LF*%
X70521700Y-86911300D02*
X71333600Y-87723200D01*
X53291700Y-86911300D02*
X70521700Y-86911300D01*
%TO.N,/PWM_RB*%
X85689000Y-90324100D02*
X85689000Y-93144200D01*
X83369600Y-88004700D02*
X85689000Y-90324100D01*
X78539800Y-88004700D02*
X83369600Y-88004700D01*
%TO.N,/B+*%
X59944000Y-68089600D02*
X62242600Y-70388200D01*
X59944000Y-56517500D02*
X59944000Y-68089600D01*
%TO.N,/OD*%
X77228900Y-61958500D02*
X78920700Y-63650300D01*
X76701600Y-61958500D02*
X77228900Y-61958500D01*
X78920700Y-63650300D02*
X78974700Y-63704300D01*
X78974700Y-63704300D02*
X78920700Y-63650300D01*
X76701600Y-61958500D02*
X77228900Y-61958500D01*
X77228900Y-61958500D02*
X76701600Y-61958500D01*
%TO.N,/TX*%
X91550600Y-70501400D02*
X97536000Y-64516000D01*
X91550600Y-90299700D02*
X91550600Y-70501400D01*
%TO.N,/RX*%
X98728500Y-63168500D02*
X97536000Y-61976000D01*
X98728500Y-89822500D02*
X98728500Y-63168500D01*
X98251300Y-90299700D02*
X98728500Y-89822500D01*
%TO.N,/SCL*%
X72425200Y-68439500D02*
X71307800Y-67322100D01*
X72425200Y-85155100D02*
X72425200Y-68439500D01*
%TO.N,/SDA*%
X73978200Y-81423300D02*
X73978200Y-69655700D01*
X74266700Y-81711800D02*
X73978200Y-81423300D01*
X47498000Y-64522300D02*
X47498000Y-64516000D01*
X50519400Y-67543700D02*
X47498000Y-64522300D01*
%TO.N,/STDBY_LED*%
X84678300Y-59292300D02*
X84854500Y-59116100D01*
X84678300Y-67391900D02*
X84678300Y-59292300D01*
X85694700Y-68408300D02*
X84678300Y-67391900D01*
%TO.N,/SWDIO*%
X80264000Y-85258200D02*
X80264000Y-79248000D01*
X78492800Y-87029400D02*
X80264000Y-85258200D01*
%TO.N,/NRST*%
X83250000Y-89750000D02*
X83250000Y-96250000D01*
X67420400Y-89750000D02*
X66299100Y-88628700D01*
X83250000Y-89750000D02*
X67420400Y-89750000D01*
%TO.N,GND*%
X81280000Y-55401700D02*
X81430000Y-55251700D01*
X81280000Y-57850000D02*
X81280000Y-55401700D01*
X86430000Y-63700000D02*
X86430000Y-64400000D01*
X87750000Y-96250000D02*
X87750000Y-89750000D01*
X73830000Y-55401700D02*
X73680000Y-55251700D01*
X73830000Y-57850000D02*
X73830000Y-55401700D01*
X73680000Y-54050000D02*
X73680000Y-55251700D01*
X88725000Y-79210000D02*
X88725000Y-80361700D01*
X87750000Y-81336700D02*
X87750000Y-89750000D01*
X88725000Y-80361700D02*
X87750000Y-81336700D01*
X86430000Y-78066700D02*
X86430000Y-65100000D01*
X88725000Y-80361700D02*
X86430000Y-78066700D01*
X81430000Y-54050000D02*
X81430000Y-54587900D01*
X81430000Y-54587900D02*
X81430000Y-55251700D01*
X85523000Y-63407000D02*
X85230000Y-63700000D01*
X85523000Y-58680900D02*
X85523000Y-63407000D01*
X81430000Y-54587900D02*
X85523000Y-58680900D01*
X91894000Y-59436000D02*
X87630000Y-63700000D01*
X97536000Y-59436000D02*
X91894000Y-59436000D01*
X87750000Y-98084800D02*
X87750000Y-96250000D01*
X88619800Y-98954600D02*
X87750000Y-98084800D01*
X86430000Y-64400000D02*
X86430000Y-65100000D01*
%TO.N,+3.3V*%
X97536000Y-67056000D02*
X97536000Y-68207700D01*
X97525000Y-86750000D02*
X97525000Y-85598300D01*
X97525000Y-94460000D02*
X97525000Y-86750000D01*
X47500000Y-94460000D02*
X47500000Y-86750000D01*
X47212100Y-85598300D02*
X47500000Y-85598300D01*
X46341700Y-84727900D02*
X47212100Y-85598300D01*
X46341700Y-58052300D02*
X46341700Y-84727900D01*
X47498000Y-56896000D02*
X46341700Y-58052300D01*
X47500000Y-86750000D02*
X47500000Y-85598300D01*
X96373300Y-82680600D02*
X97287700Y-81766200D01*
X96373300Y-84687000D02*
X96373300Y-82680600D01*
X97284600Y-85598300D02*
X96373300Y-84687000D01*
X97525000Y-85598300D02*
X97284600Y-85598300D01*
X97536000Y-81517900D02*
X97287700Y-81766200D01*
X97536000Y-68207700D02*
X97536000Y-81517900D01*
%TD*%
M02*
