%TF.GenerationSoftware,KiCad,Pcbnew,9.0.4*%
%TF.CreationDate,2025-11-28T16:57:25+01:00*%
%TF.ProjectId,Drone_PCB,44726f6e-655f-4504-9342-2e6b69636164,rev?*%
%TF.SameCoordinates,Original*%
%TF.FileFunction,Soldermask,Top*%
%TF.FilePolarity,Negative*%
%FSLAX46Y46*%
G04 Gerber Fmt 4.6, Leading zero omitted, Abs format (unit mm)*
G04 Created by KiCad (PCBNEW 9.0.4) date 2025-11-28 16:57:25*
%MOMM*%
%LPD*%
G01*
G04 APERTURE LIST*
G04 Aperture macros list*
%AMRoundRect*
0 Rectangle with rounded corners*
0 $1 Rounding radius*
0 $2 $3 $4 $5 $6 $7 $8 $9 X,Y pos of 4 corners*
0 Add a 4 corners polygon primitive as box body*
4,1,4,$2,$3,$4,$5,$6,$7,$8,$9,$2,$3,0*
0 Add four circle primitives for the rounded corners*
1,1,$1+$1,$2,$3*
1,1,$1+$1,$4,$5*
1,1,$1+$1,$6,$7*
1,1,$1+$1,$8,$9*
0 Add four rect primitives between the rounded corners*
20,1,$1+$1,$2,$3,$4,$5,0*
20,1,$1+$1,$4,$5,$6,$7,0*
20,1,$1+$1,$6,$7,$8,$9,0*
20,1,$1+$1,$8,$9,$2,$3,0*%
G04 Aperture macros list end*
%ADD10RoundRect,0.150000X-0.150000X0.825000X-0.150000X-0.825000X0.150000X-0.825000X0.150000X0.825000X0*%
%ADD11R,3.300000X2.410000*%
%ADD12RoundRect,0.218750X-0.218750X-0.256250X0.218750X-0.256250X0.218750X0.256250X-0.218750X0.256250X0*%
%ADD13RoundRect,0.135000X-0.185000X0.135000X-0.185000X-0.135000X0.185000X-0.135000X0.185000X0.135000X0*%
%ADD14RoundRect,0.140000X0.170000X-0.140000X0.170000X0.140000X-0.170000X0.140000X-0.170000X-0.140000X0*%
%ADD15RoundRect,0.218750X-0.256250X0.218750X-0.256250X-0.218750X0.256250X-0.218750X0.256250X0.218750X0*%
%ADD16R,1.700000X1.700000*%
%ADD17C,1.700000*%
%ADD18RoundRect,0.150000X-0.587500X-0.150000X0.587500X-0.150000X0.587500X0.150000X-0.587500X0.150000X0*%
%ADD19RoundRect,0.140000X-0.170000X0.140000X-0.170000X-0.140000X0.170000X-0.140000X0.170000X0.140000X0*%
%ADD20RoundRect,0.140000X-0.140000X-0.170000X0.140000X-0.170000X0.140000X0.170000X-0.140000X0.170000X0*%
%ADD21RoundRect,0.135000X0.185000X-0.135000X0.185000X0.135000X-0.185000X0.135000X-0.185000X-0.135000X0*%
%ADD22RoundRect,0.135000X-0.135000X-0.185000X0.135000X-0.185000X0.135000X0.185000X-0.135000X0.185000X0*%
%ADD23RoundRect,0.140000X0.140000X0.170000X-0.140000X0.170000X-0.140000X-0.170000X0.140000X-0.170000X0*%
%ADD24RoundRect,0.250000X0.650000X-1.000000X0.650000X1.000000X-0.650000X1.000000X-0.650000X-1.000000X0*%
%ADD25RoundRect,0.150000X0.512500X0.150000X-0.512500X0.150000X-0.512500X-0.150000X0.512500X-0.150000X0*%
%ADD26RoundRect,0.218750X0.218750X0.256250X-0.218750X0.256250X-0.218750X-0.256250X0.218750X-0.256250X0*%
%ADD27C,2.200000*%
%ADD28RoundRect,0.135000X0.135000X0.185000X-0.135000X0.185000X-0.135000X-0.185000X0.135000X-0.185000X0*%
%ADD29C,2.000000*%
%ADD30R,2.000000X4.500000*%
%ADD31RoundRect,0.250000X-0.650000X1.000000X-0.650000X-1.000000X0.650000X-1.000000X0.650000X1.000000X0*%
%ADD32RoundRect,0.150000X0.587500X0.150000X-0.587500X0.150000X-0.587500X-0.150000X0.587500X-0.150000X0*%
%ADD33RoundRect,0.225000X0.250000X-0.225000X0.250000X0.225000X-0.250000X0.225000X-0.250000X-0.225000X0*%
%ADD34RoundRect,0.075000X-0.700000X-0.075000X0.700000X-0.075000X0.700000X0.075000X-0.700000X0.075000X0*%
%ADD35RoundRect,0.075000X-0.075000X-0.700000X0.075000X-0.700000X0.075000X0.700000X-0.075000X0.700000X0*%
%ADD36RoundRect,0.150000X-0.512500X-0.150000X0.512500X-0.150000X0.512500X0.150000X-0.512500X0.150000X0*%
%ADD37RoundRect,0.250000X0.450000X0.450000X-0.450000X0.450000X-0.450000X-0.450000X0.450000X-0.450000X0*%
%ADD38C,1.400000*%
%ADD39O,0.800000X0.800000*%
%ADD40R,0.450000X1.300000*%
%ADD41O,1.150000X1.800000*%
%ADD42O,1.450000X2.000000*%
%ADD43RoundRect,0.150000X0.150000X-0.587500X0.150000X0.587500X-0.150000X0.587500X-0.150000X-0.587500X0*%
%ADD44RoundRect,0.150000X-0.150000X0.587500X-0.150000X-0.587500X0.150000X-0.587500X0.150000X0.587500X0*%
G04 APERTURE END LIST*
D10*
%TO.C,U3*%
X88335000Y-61925000D03*
X87065000Y-61925000D03*
X85795000Y-61925000D03*
X84525000Y-61925000D03*
X84525000Y-66875000D03*
X85795000Y-66875000D03*
X87065000Y-66875000D03*
X88335000Y-66875000D03*
D11*
X86430000Y-64400000D03*
%TD*%
D12*
%TO.C,D3*%
X83769000Y-55194000D03*
X85344000Y-55194000D03*
%TD*%
D13*
%TO.C,R5*%
X89916000Y-61286000D03*
X89916000Y-62306000D03*
%TD*%
D14*
%TO.C,C17*%
X82804000Y-68032000D03*
X82804000Y-67072000D03*
%TD*%
D15*
%TO.C,FB1*%
X67818000Y-94795000D03*
X67818000Y-96370000D03*
%TD*%
D16*
%TO.C,J2*%
X47498000Y-74676000D03*
D17*
X47498000Y-72136000D03*
X47498000Y-69596000D03*
X47498000Y-67056000D03*
X47498000Y-64516000D03*
X47498000Y-61976000D03*
X47498000Y-59436000D03*
X47498000Y-56896000D03*
%TD*%
D18*
%TO.C,Q3*%
X91625000Y-93300000D03*
X91625000Y-95200000D03*
X93500000Y-94250000D03*
%TD*%
D16*
%TO.C,J8*%
X88725000Y-79210000D03*
D17*
X88725000Y-76670000D03*
%TD*%
D19*
%TO.C,C2*%
X81788000Y-85250000D03*
X81788000Y-86210000D03*
%TD*%
%TO.C,C16*%
X82804000Y-64842000D03*
X82804000Y-65802000D03*
%TD*%
D16*
%TO.C,J6*%
X47500000Y-86750000D03*
D17*
X47500000Y-84210000D03*
%TD*%
D18*
%TO.C,Q5*%
X91625000Y-85900000D03*
X91625000Y-87800000D03*
X93500000Y-86850000D03*
%TD*%
D13*
%TO.C,R10*%
X94234000Y-56892000D03*
X94234000Y-57912000D03*
%TD*%
D20*
%TO.C,C1*%
X70160000Y-81892000D03*
X71120000Y-81892000D03*
%TD*%
D16*
%TO.C,J1*%
X75184000Y-79248000D03*
D17*
X77724000Y-79248000D03*
X80264000Y-79248000D03*
X82804000Y-79248000D03*
%TD*%
D21*
%TO.C,R11*%
X84500000Y-86270000D03*
X84500000Y-85250000D03*
%TD*%
D22*
%TO.C,R1*%
X70100000Y-79352000D03*
X71120000Y-79352000D03*
%TD*%
D23*
%TO.C,C8*%
X66266000Y-95100000D03*
X65306000Y-95100000D03*
%TD*%
D16*
%TO.C,J5*%
X97525000Y-94460000D03*
D17*
X97525000Y-97000000D03*
%TD*%
D24*
%TO.C,D7*%
X101750000Y-87950000D03*
X101750000Y-83950000D03*
%TD*%
D21*
%TO.C,R7*%
X78500000Y-62274000D03*
X78500000Y-61254000D03*
%TD*%
D20*
%TO.C,C15*%
X77018000Y-59960000D03*
X77978000Y-59960000D03*
%TD*%
D14*
%TO.C,C10*%
X80250000Y-96210000D03*
X80250000Y-95250000D03*
%TD*%
D16*
%TO.C,J4*%
X47500000Y-94460000D03*
D17*
X47500000Y-97000000D03*
%TD*%
D25*
%TO.C,U2*%
X55887500Y-60750000D03*
X55887500Y-59800000D03*
X55887500Y-58850000D03*
X53612500Y-58850000D03*
X53612500Y-60750000D03*
%TD*%
D23*
%TO.C,C4*%
X71628000Y-97132000D03*
X70668000Y-97132000D03*
%TD*%
D26*
%TO.C,D2*%
X88951000Y-55194000D03*
X87376000Y-55194000D03*
%TD*%
D27*
%TO.C,H4*%
X107500000Y-100000000D03*
%TD*%
D13*
%TO.C,R3*%
X50546000Y-63392000D03*
X50546000Y-64412000D03*
%TD*%
D28*
%TO.C,R8*%
X88650000Y-58242000D03*
X87630000Y-58242000D03*
%TD*%
D27*
%TO.C,H1*%
X37500000Y-55000000D03*
%TD*%
D29*
%TO.C,SW1*%
X83250000Y-96250000D03*
X83250000Y-89750000D03*
X87750000Y-96250000D03*
X87750000Y-89750000D03*
%TD*%
D16*
%TO.C,J3*%
X97536000Y-67056000D03*
D17*
X97536000Y-64516000D03*
X97536000Y-61976000D03*
X97536000Y-59436000D03*
X97536000Y-56896000D03*
%TD*%
D13*
%TO.C,R6*%
X79756000Y-64782000D03*
X79756000Y-65802000D03*
%TD*%
D14*
%TO.C,C7*%
X66548000Y-90782000D03*
X66548000Y-89822000D03*
%TD*%
D30*
%TO.C,Y1*%
X59944000Y-84980000D03*
X59944000Y-93480000D03*
%TD*%
D14*
%TO.C,C14*%
X57500000Y-63310000D03*
X57500000Y-62350000D03*
%TD*%
D31*
%TO.C,D4*%
X43250000Y-94250000D03*
X43250000Y-98250000D03*
%TD*%
D32*
%TO.C,Q6*%
X53375000Y-87800000D03*
X53375000Y-85900000D03*
X51500000Y-86850000D03*
%TD*%
D33*
%TO.C,C6*%
X68500000Y-83300000D03*
X68500000Y-81750000D03*
%TD*%
D16*
%TO.C,J7*%
X97525000Y-86750000D03*
D17*
X97525000Y-84210000D03*
%TD*%
D27*
%TO.C,H2*%
X107500000Y-55000000D03*
%TD*%
D23*
%TO.C,C3*%
X78000000Y-97132000D03*
X77040000Y-97132000D03*
%TD*%
%TO.C,C9*%
X66238000Y-96370000D03*
X65278000Y-96370000D03*
%TD*%
D24*
%TO.C,D6*%
X43250000Y-87950000D03*
X43250000Y-83950000D03*
%TD*%
D34*
%TO.C,U1*%
X68571000Y-85780000D03*
X68571000Y-86280000D03*
X68571000Y-86780000D03*
X68571000Y-87280000D03*
X68571000Y-87780000D03*
X68571000Y-88280000D03*
X68571000Y-88780000D03*
X68571000Y-89280000D03*
X68571000Y-89780000D03*
X68571000Y-90280000D03*
X68571000Y-90780000D03*
X68571000Y-91280000D03*
X68571000Y-91780000D03*
X68571000Y-92280000D03*
X68571000Y-92780000D03*
X68571000Y-93280000D03*
D35*
X70496000Y-95205000D03*
X70996000Y-95205000D03*
X71496000Y-95205000D03*
X71996000Y-95205000D03*
X72496000Y-95205000D03*
X72996000Y-95205000D03*
X73496000Y-95205000D03*
X73996000Y-95205000D03*
X74496000Y-95205000D03*
X74996000Y-95205000D03*
X75496000Y-95205000D03*
X75996000Y-95205000D03*
X76496000Y-95205000D03*
X76996000Y-95205000D03*
X77496000Y-95205000D03*
X77996000Y-95205000D03*
D34*
X79921000Y-93280000D03*
X79921000Y-92780000D03*
X79921000Y-92280000D03*
X79921000Y-91780000D03*
X79921000Y-91280000D03*
X79921000Y-90780000D03*
X79921000Y-90280000D03*
X79921000Y-89780000D03*
X79921000Y-89280000D03*
X79921000Y-88780000D03*
X79921000Y-88280000D03*
X79921000Y-87780000D03*
X79921000Y-87280000D03*
X79921000Y-86780000D03*
X79921000Y-86280000D03*
X79921000Y-85780000D03*
D35*
X77996000Y-83855000D03*
X77496000Y-83855000D03*
X76996000Y-83855000D03*
X76496000Y-83855000D03*
X75996000Y-83855000D03*
X75496000Y-83855000D03*
X74996000Y-83855000D03*
X74496000Y-83855000D03*
X73996000Y-83855000D03*
X73496000Y-83855000D03*
X72996000Y-83855000D03*
X72496000Y-83855000D03*
X71996000Y-83855000D03*
X71496000Y-83855000D03*
X70996000Y-83855000D03*
X70496000Y-83855000D03*
%TD*%
D26*
%TO.C,D1*%
X64975000Y-55000000D03*
X63400000Y-55000000D03*
%TD*%
D31*
%TO.C,D5*%
X101750000Y-94150000D03*
X101750000Y-98150000D03*
%TD*%
D28*
%TO.C,R9*%
X85094000Y-58242000D03*
X84074000Y-58242000D03*
%TD*%
D14*
%TO.C,C13*%
X57500000Y-61060000D03*
X57500000Y-60100000D03*
%TD*%
D36*
%TO.C,U4*%
X80142500Y-61550000D03*
X80142500Y-62500000D03*
X80142500Y-63450000D03*
X82417500Y-63450000D03*
X82417500Y-62500000D03*
X82417500Y-61550000D03*
%TD*%
D21*
%TO.C,R4*%
X50546000Y-61872000D03*
X50546000Y-60852000D03*
%TD*%
D37*
%TO.C,SW2*%
X59944000Y-56517500D03*
D38*
X57444000Y-56517500D03*
X54944000Y-56517500D03*
X54944000Y-53217500D03*
X57444000Y-53217500D03*
X59944000Y-53217500D03*
%TD*%
D14*
%TO.C,C12*%
X63500000Y-90698000D03*
X63500000Y-89738000D03*
%TD*%
D32*
%TO.C,Q4*%
X53500000Y-95300000D03*
X53500000Y-93400000D03*
X51625000Y-94350000D03*
%TD*%
D39*
%TO.C,J9*%
X80055000Y-56800000D03*
X75055000Y-56800000D03*
D40*
X78855000Y-57900000D03*
X78205000Y-57900000D03*
X77555000Y-57900000D03*
X76905000Y-57900000D03*
X76255000Y-57900000D03*
D41*
X81430000Y-54050000D03*
D42*
X81280000Y-57850000D03*
X73830000Y-57850000D03*
D41*
X73680000Y-54050000D03*
%TD*%
D27*
%TO.C,H3*%
X37500000Y-100000000D03*
%TD*%
D26*
%TO.C,D8*%
X88825000Y-85760000D03*
X87250000Y-85760000D03*
%TD*%
D43*
%TO.C,Q2*%
X72800000Y-67879000D03*
X74700000Y-67879000D03*
X73750000Y-66004000D03*
%TD*%
D44*
%TO.C,Q1*%
X74700000Y-61879000D03*
X72800000Y-61879000D03*
X73750000Y-63754000D03*
%TD*%
D28*
%TO.C,R2*%
X64760000Y-58350000D03*
X63740000Y-58350000D03*
%TD*%
D14*
%TO.C,C5*%
X66548000Y-85674000D03*
X66548000Y-84714000D03*
%TD*%
D19*
%TO.C,C11*%
X63500000Y-87480000D03*
X63500000Y-88440000D03*
%TD*%
M02*
