%TF.GenerationSoftware,KiCad,Pcbnew,9.0.4*%
%TF.CreationDate,2025-12-11T09:15:43+01:00*%
%TF.ProjectId,Drone_PCB,44726f6e-655f-4504-9342-2e6b69636164,rev?*%
%TF.SameCoordinates,Original*%
%TF.FileFunction,Copper,L2,Bot*%
%TF.FilePolarity,Positive*%
%FSLAX46Y46*%
G04 Gerber Fmt 4.6, Leading zero omitted, Abs format (unit mm)*
G04 Created by KiCad (PCBNEW 9.0.4) date 2025-12-11 09:15:43*
%MOMM*%
%LPD*%
G01*
G04 APERTURE LIST*
G04 Aperture macros list*
%AMRoundRect*
0 Rectangle with rounded corners*
0 $1 Rounding radius*
0 $2 $3 $4 $5 $6 $7 $8 $9 X,Y pos of 4 corners*
0 Add a 4 corners polygon primitive as box body*
4,1,4,$2,$3,$4,$5,$6,$7,$8,$9,$2,$3,0*
0 Add four circle primitives for the rounded corners*
1,1,$1+$1,$2,$3*
1,1,$1+$1,$4,$5*
1,1,$1+$1,$6,$7*
1,1,$1+$1,$8,$9*
0 Add four rect primitives between the rounded corners*
20,1,$1+$1,$2,$3,$4,$5,0*
20,1,$1+$1,$4,$5,$6,$7,0*
20,1,$1+$1,$6,$7,$8,$9,0*
20,1,$1+$1,$8,$9,$2,$3,0*%
G04 Aperture macros list end*
%TA.AperFunction,ComponentPad*%
%ADD10R,1.700000X1.700000*%
%TD*%
%TA.AperFunction,ComponentPad*%
%ADD11C,1.700000*%
%TD*%
%TA.AperFunction,HeatsinkPad*%
%ADD12C,0.500000*%
%TD*%
%TA.AperFunction,HeatsinkPad*%
%ADD13R,1.900000X2.900000*%
%TD*%
%TA.AperFunction,ComponentPad*%
%ADD14C,2.000000*%
%TD*%
%TA.AperFunction,HeatsinkPad*%
%ADD15O,1.150000X1.800000*%
%TD*%
%TA.AperFunction,HeatsinkPad*%
%ADD16O,1.450000X2.000000*%
%TD*%
%TA.AperFunction,ComponentPad*%
%ADD17RoundRect,0.250000X0.450000X0.450000X-0.450000X0.450000X-0.450000X-0.450000X0.450000X-0.450000X0*%
%TD*%
%TA.AperFunction,ComponentPad*%
%ADD18C,1.400000*%
%TD*%
%TA.AperFunction,ViaPad*%
%ADD19C,0.700000*%
%TD*%
%TA.AperFunction,Conductor*%
%ADD20C,0.500000*%
%TD*%
%TA.AperFunction,Conductor*%
%ADD21C,0.300000*%
%TD*%
G04 APERTURE END LIST*
D10*
%TO.P,J1,1,Pin_1*%
%TO.N,GND*%
X76555000Y-76675000D03*
D11*
%TO.P,J1,2,Pin_2*%
%TO.N,/SWCLK*%
X79095000Y-76675000D03*
%TO.P,J1,3,Pin_3*%
%TO.N,/SWDIO*%
X81635000Y-76675000D03*
%TO.P,J1,4,Pin_4*%
%TO.N,+3.3V*%
X84175000Y-76675000D03*
%TD*%
D10*
%TO.P,J4,1,Pin_1*%
%TO.N,PWR*%
X47500000Y-95435000D03*
D11*
%TO.P,J4,2,Pin_2*%
%TO.N,/M_LB*%
X47500000Y-97975000D03*
%TD*%
D10*
%TO.P,J7,1,Pin_1*%
%TO.N,PWR*%
X97525000Y-86750000D03*
D11*
%TO.P,J7,2,Pin_2*%
%TO.N,/M_RF*%
X97525000Y-84210000D03*
%TD*%
D12*
%TO.P,U3,9,EPAD*%
%TO.N,GND*%
X83325000Y-65715000D03*
X83325000Y-66915000D03*
X83325000Y-68115000D03*
D13*
X84025000Y-66915000D03*
D12*
X84725000Y-65715000D03*
X84725000Y-66915000D03*
X84725000Y-68115000D03*
%TD*%
D10*
%TO.P,J3,1,Pin_1*%
%TO.N,+3.3V*%
X97536000Y-67056000D03*
D11*
%TO.P,J3,2,Pin_2*%
%TO.N,/TX*%
X97536000Y-64516000D03*
%TO.P,J3,3,Pin_3*%
%TO.N,/RX*%
X97536000Y-61976000D03*
%TO.P,J3,4,Pin_4*%
%TO.N,GND*%
X97536000Y-59436000D03*
%TO.P,J3,5,Pin_5*%
%TO.N,/RST*%
X97536000Y-56896000D03*
%TD*%
D14*
%TO.P,SW1,1,1*%
%TO.N,/NRST*%
X97250000Y-80250000D03*
X97250000Y-73750000D03*
%TO.P,SW1,2,2*%
%TO.N,GND*%
X101750000Y-80250000D03*
X101750000Y-73750000D03*
%TD*%
D15*
%TO.P,J9,6,Shield*%
%TO.N,GND*%
X81430000Y-54250000D03*
D16*
X81280000Y-58050000D03*
X73830000Y-58050000D03*
D15*
X73680000Y-54250000D03*
%TD*%
D17*
%TO.P,SW2,1,A*%
%TO.N,/B+*%
X59944000Y-56517500D03*
D18*
%TO.P,SW2,2,B*%
%TO.N,PWR*%
X57444000Y-56517500D03*
%TO.P,SW2,3*%
%TO.N,N/C*%
X54944000Y-56517500D03*
%TO.P,SW2,4*%
X54944000Y-53217500D03*
%TO.P,SW2,5*%
X57444000Y-53217500D03*
%TO.P,SW2,6*%
X59944000Y-53217500D03*
%TD*%
D10*
%TO.P,J5,1,Pin_1*%
%TO.N,PWR*%
X97525000Y-95360000D03*
D11*
%TO.P,J5,2,Pin_2*%
%TO.N,/M_RB*%
X97525000Y-97900000D03*
%TD*%
D10*
%TO.P,J8,1,Pin_1*%
%TO.N,GND*%
X88000000Y-79210000D03*
D11*
%TO.P,J8,2,Pin_2*%
%TO.N,/B+*%
X88000000Y-76670000D03*
%TD*%
D10*
%TO.P,J2,1,Pin_1*%
%TO.N,/INT*%
X47498000Y-74676000D03*
D11*
%TO.P,J2,2,Pin_2*%
%TO.N,/ADO*%
X47498000Y-72136000D03*
%TO.P,J2,3,Pin_3*%
%TO.N,/XCL*%
X47498000Y-69596000D03*
%TO.P,J2,4,Pin_4*%
%TO.N,/XDA*%
X47498000Y-67056000D03*
%TO.P,J2,5,Pin_5*%
%TO.N,/SDA*%
X47498000Y-64516000D03*
%TO.P,J2,6,Pin_6*%
%TO.N,/SCL*%
X47498000Y-61976000D03*
%TO.P,J2,7,Pin_7*%
%TO.N,GND*%
X47498000Y-59436000D03*
%TO.P,J2,8,Pin_8*%
%TO.N,+3.3V*%
X47498000Y-56896000D03*
%TD*%
D10*
%TO.P,J6,1,Pin_1*%
%TO.N,PWR*%
X47500000Y-86750000D03*
D11*
%TO.P,J6,2,Pin_2*%
%TO.N,/M_LF*%
X47500000Y-84210000D03*
%TD*%
D19*
%TO.N,+3.3V*%
X71500000Y-88080000D03*
X93201000Y-67125000D03*
X76576138Y-99075000D03*
X87200000Y-71500000D03*
X84175000Y-74225000D03*
X84200000Y-72625000D03*
X91300000Y-67150000D03*
X71496000Y-89480000D03*
X88800000Y-71475000D03*
X77225000Y-85852623D03*
X73367025Y-99067025D03*
X78741858Y-85801907D03*
%TO.N,GND*%
X64275000Y-95925000D03*
X70000000Y-63775000D03*
X64975000Y-92275000D03*
X103900000Y-75550000D03*
X58550000Y-59825000D03*
X53375000Y-95425000D03*
X58975000Y-73400000D03*
X67246000Y-89229539D03*
X70775000Y-97900000D03*
X53575000Y-66400000D03*
X75175000Y-61625000D03*
X88312500Y-89775000D03*
X77025000Y-60450000D03*
X82675000Y-86500000D03*
X59000000Y-67350000D03*
X91625000Y-95400000D03*
X63225000Y-83300000D03*
X53375000Y-86825000D03*
X77275000Y-97875000D03*
X65000000Y-58500000D03*
X70275000Y-65400000D03*
X74750000Y-67250000D03*
X68500000Y-80600000D03*
X91625000Y-86925000D03*
%TO.N,PWR*%
X94725000Y-79550000D03*
X59450000Y-65250000D03*
X64375000Y-65975000D03*
X87200000Y-73425000D03*
X64400000Y-67950000D03*
X59450000Y-63650000D03*
X94750000Y-80950000D03*
X93201000Y-73450000D03*
X88800000Y-73425000D03*
X91300000Y-73450000D03*
%TO.N,VBUS*%
X89351000Y-62225000D03*
X87450000Y-62250000D03*
%TO.N,/PWM_RB*%
X77813430Y-93375000D03*
X78750000Y-95026000D03*
%TO.N,/PWM_LB*%
X75875000Y-93375000D03*
X76000000Y-90375000D03*
X77400000Y-90325000D03*
X75876138Y-96528722D03*
%TO.N,/PWM_RF*%
X88375000Y-84650000D03*
X90777000Y-84650000D03*
%TO.N,/PWM_LF*%
X76000000Y-88850000D03*
X74491829Y-96530000D03*
X77400000Y-88800000D03*
X74500000Y-93375000D03*
%TD*%
D20*
%TO.N,+3.3V*%
X84175000Y-74225000D02*
X84175000Y-72650000D01*
D21*
X71496000Y-88084000D02*
X71500000Y-88080000D01*
X76576138Y-99075000D02*
X73375000Y-99075000D01*
X77275716Y-85801907D02*
X77225000Y-85852623D01*
D20*
X84175000Y-72650000D02*
X84200000Y-72625000D01*
X88775000Y-71500000D02*
X88800000Y-71475000D01*
X93176000Y-67150000D02*
X93201000Y-67125000D01*
D21*
X73375000Y-99075000D02*
X73367025Y-99067025D01*
X71496000Y-89480000D02*
X71496000Y-88084000D01*
D20*
X87200000Y-71500000D02*
X88775000Y-71500000D01*
D21*
X78741858Y-85801907D02*
X77275716Y-85801907D01*
D20*
X91300000Y-67150000D02*
X93176000Y-67150000D01*
%TO.N,PWR*%
X87200000Y-73425000D02*
X88800000Y-73425000D01*
X64375000Y-65975000D02*
X64375000Y-67925000D01*
X64375000Y-67925000D02*
X64400000Y-67950000D01*
X94725000Y-80925000D02*
X94750000Y-80950000D01*
X91300000Y-73450000D02*
X93201000Y-73450000D01*
X59450000Y-63650000D02*
X59450000Y-65250000D01*
X94725000Y-79550000D02*
X94725000Y-80925000D01*
D21*
%TO.N,VBUS*%
X89326000Y-62250000D02*
X89351000Y-62225000D01*
X87450000Y-62250000D02*
X89326000Y-62250000D01*
%TO.N,/PWM_RB*%
X78750000Y-95026000D02*
X78750000Y-94311570D01*
X78750000Y-94311570D02*
X77813430Y-93375000D01*
%TO.N,/PWM_LB*%
X75876138Y-96528722D02*
X75876138Y-93376138D01*
X76000000Y-90375000D02*
X77350000Y-90375000D01*
X77350000Y-90375000D02*
X77400000Y-90325000D01*
X75876138Y-93376138D02*
X75875000Y-93375000D01*
%TO.N,/PWM_RF*%
X90777000Y-84650000D02*
X88375000Y-84650000D01*
%TO.N,/PWM_LF*%
X76000000Y-88850000D02*
X77350000Y-88850000D01*
X77350000Y-88850000D02*
X77400000Y-88800000D01*
X74491829Y-96530000D02*
X74491829Y-93383171D01*
X74491829Y-93383171D02*
X74500000Y-93375000D01*
%TD*%
%TA.AperFunction,Conductor*%
%TO.N,GND*%
G36*
X54213755Y-52320185D02*
G01*
X54259510Y-52372989D01*
X54269454Y-52442147D01*
X54240429Y-52505703D01*
X54234397Y-52512181D01*
X54166863Y-52579714D01*
X54166860Y-52579718D01*
X54057371Y-52743579D01*
X54057364Y-52743592D01*
X53981950Y-52925660D01*
X53981947Y-52925670D01*
X53943500Y-53118956D01*
X53943500Y-53118959D01*
X53943500Y-53316041D01*
X53943500Y-53316043D01*
X53943499Y-53316043D01*
X53981947Y-53509329D01*
X53981950Y-53509339D01*
X54057364Y-53691407D01*
X54057371Y-53691420D01*
X54166860Y-53855281D01*
X54166863Y-53855285D01*
X54306214Y-53994636D01*
X54306218Y-53994639D01*
X54470079Y-54104128D01*
X54470092Y-54104135D01*
X54652160Y-54179549D01*
X54652165Y-54179551D01*
X54652169Y-54179551D01*
X54652170Y-54179552D01*
X54845456Y-54218000D01*
X54845459Y-54218000D01*
X55042543Y-54218000D01*
X55172582Y-54192132D01*
X55235835Y-54179551D01*
X55417914Y-54104132D01*
X55581782Y-53994639D01*
X55721139Y-53855282D01*
X55830632Y-53691414D01*
X55834220Y-53682753D01*
X55906049Y-53509339D01*
X55906051Y-53509335D01*
X55918632Y-53446082D01*
X55944500Y-53316043D01*
X55944500Y-53118956D01*
X55906052Y-52925670D01*
X55906051Y-52925669D01*
X55906051Y-52925665D01*
X55885560Y-52876194D01*
X55830635Y-52743592D01*
X55830628Y-52743579D01*
X55721139Y-52579718D01*
X55721136Y-52579714D01*
X55653603Y-52512181D01*
X55620118Y-52450858D01*
X55625102Y-52381166D01*
X55666974Y-52325233D01*
X55732438Y-52300816D01*
X55741284Y-52300500D01*
X56646716Y-52300500D01*
X56713755Y-52320185D01*
X56759510Y-52372989D01*
X56769454Y-52442147D01*
X56740429Y-52505703D01*
X56734397Y-52512181D01*
X56666863Y-52579714D01*
X56666860Y-52579718D01*
X56557371Y-52743579D01*
X56557364Y-52743592D01*
X56481950Y-52925660D01*
X56481947Y-52925670D01*
X56443500Y-53118956D01*
X56443500Y-53118959D01*
X56443500Y-53316041D01*
X56443500Y-53316043D01*
X56443499Y-53316043D01*
X56481947Y-53509329D01*
X56481950Y-53509339D01*
X56557364Y-53691407D01*
X56557371Y-53691420D01*
X56666860Y-53855281D01*
X56666863Y-53855285D01*
X56806214Y-53994636D01*
X56806218Y-53994639D01*
X56970079Y-54104128D01*
X56970092Y-54104135D01*
X57152160Y-54179549D01*
X57152165Y-54179551D01*
X57152169Y-54179551D01*
X57152170Y-54179552D01*
X57345456Y-54218000D01*
X57345459Y-54218000D01*
X57542543Y-54218000D01*
X57672582Y-54192132D01*
X57735835Y-54179551D01*
X57917914Y-54104132D01*
X58081782Y-53994639D01*
X58221139Y-53855282D01*
X58330632Y-53691414D01*
X58334220Y-53682753D01*
X58406049Y-53509339D01*
X58406051Y-53509335D01*
X58418632Y-53446082D01*
X58444500Y-53316043D01*
X58444500Y-53118956D01*
X58406052Y-52925670D01*
X58406051Y-52925669D01*
X58406051Y-52925665D01*
X58385560Y-52876194D01*
X58330635Y-52743592D01*
X58330628Y-52743579D01*
X58221139Y-52579718D01*
X58221136Y-52579714D01*
X58153603Y-52512181D01*
X58120118Y-52450858D01*
X58125102Y-52381166D01*
X58166974Y-52325233D01*
X58232438Y-52300816D01*
X58241284Y-52300500D01*
X59146716Y-52300500D01*
X59213755Y-52320185D01*
X59259510Y-52372989D01*
X59269454Y-52442147D01*
X59240429Y-52505703D01*
X59234397Y-52512181D01*
X59166863Y-52579714D01*
X59166860Y-52579718D01*
X59057371Y-52743579D01*
X59057364Y-52743592D01*
X58981950Y-52925660D01*
X58981947Y-52925670D01*
X58943500Y-53118956D01*
X58943500Y-53118959D01*
X58943500Y-53316041D01*
X58943500Y-53316043D01*
X58943499Y-53316043D01*
X58981947Y-53509329D01*
X58981950Y-53509339D01*
X59057364Y-53691407D01*
X59057371Y-53691420D01*
X59166860Y-53855281D01*
X59166863Y-53855285D01*
X59306214Y-53994636D01*
X59306218Y-53994639D01*
X59470079Y-54104128D01*
X59470092Y-54104135D01*
X59652160Y-54179549D01*
X59652165Y-54179551D01*
X59652169Y-54179551D01*
X59652170Y-54179552D01*
X59845456Y-54218000D01*
X59845459Y-54218000D01*
X60042543Y-54218000D01*
X60172582Y-54192132D01*
X60235835Y-54179551D01*
X60417914Y-54104132D01*
X60581782Y-53994639D01*
X60721139Y-53855282D01*
X60731089Y-53840390D01*
X72605000Y-53840390D01*
X72605000Y-54000000D01*
X73405000Y-54000000D01*
X73405000Y-54500000D01*
X72605000Y-54500000D01*
X72605000Y-54659609D01*
X72631469Y-54826726D01*
X72683760Y-54987659D01*
X72760578Y-55138423D01*
X72860038Y-55275316D01*
X72860038Y-55275317D01*
X72979682Y-55394961D01*
X73116576Y-55494421D01*
X73267340Y-55571239D01*
X73428273Y-55623530D01*
X73430000Y-55623804D01*
X73430000Y-54690056D01*
X73446866Y-54730775D01*
X73524225Y-54808134D01*
X73625299Y-54850000D01*
X73734701Y-54850000D01*
X73835775Y-54808134D01*
X73913134Y-54730775D01*
X73930000Y-54690056D01*
X73930000Y-55623803D01*
X73931726Y-55623530D01*
X74092659Y-55571239D01*
X74243423Y-55494421D01*
X74380316Y-55394961D01*
X74380317Y-55394961D01*
X74499961Y-55275317D01*
X74499961Y-55275316D01*
X74599421Y-55138423D01*
X74676239Y-54987659D01*
X74728530Y-54826726D01*
X74755000Y-54659609D01*
X74755000Y-54500000D01*
X73955000Y-54500000D01*
X73955000Y-54000000D01*
X74755000Y-54000000D01*
X74755000Y-53840390D01*
X80355000Y-53840390D01*
X80355000Y-54000000D01*
X81155000Y-54000000D01*
X81155000Y-54500000D01*
X80355000Y-54500000D01*
X80355000Y-54659609D01*
X80381469Y-54826726D01*
X80433760Y-54987659D01*
X80510578Y-55138423D01*
X80610038Y-55275316D01*
X80610038Y-55275317D01*
X80729682Y-55394961D01*
X80866576Y-55494421D01*
X81017340Y-55571239D01*
X81178273Y-55623530D01*
X81180000Y-55623804D01*
X81180000Y-54690056D01*
X81196866Y-54730775D01*
X81274225Y-54808134D01*
X81375299Y-54850000D01*
X81484701Y-54850000D01*
X81585775Y-54808134D01*
X81663134Y-54730775D01*
X81680000Y-54690056D01*
X81680000Y-55623804D01*
X81681726Y-55623530D01*
X81842659Y-55571239D01*
X81993423Y-55494421D01*
X82130316Y-55394961D01*
X82130317Y-55394961D01*
X82249961Y-55275317D01*
X82249961Y-55275316D01*
X82349421Y-55138423D01*
X82426239Y-54987661D01*
X82456765Y-54893713D01*
X106149500Y-54893713D01*
X106149500Y-55106286D01*
X106176271Y-55275316D01*
X106182754Y-55316243D01*
X106247984Y-55517000D01*
X106248444Y-55518414D01*
X106344951Y-55707820D01*
X106469890Y-55879786D01*
X106620213Y-56030109D01*
X106792179Y-56155048D01*
X106792181Y-56155049D01*
X106792184Y-56155051D01*
X106981588Y-56251557D01*
X107183757Y-56317246D01*
X107393713Y-56350500D01*
X107393714Y-56350500D01*
X107606286Y-56350500D01*
X107606287Y-56350500D01*
X107816243Y-56317246D01*
X108018412Y-56251557D01*
X108207816Y-56155051D01*
X108229789Y-56139086D01*
X108379786Y-56030109D01*
X108379788Y-56030106D01*
X108379792Y-56030104D01*
X108530104Y-55879792D01*
X108530106Y-55879788D01*
X108530109Y-55879786D01*
X108655048Y-55707820D01*
X108655047Y-55707820D01*
X108655051Y-55707816D01*
X108751557Y-55518412D01*
X108817246Y-55316243D01*
X108850500Y-55106287D01*
X108850500Y-54893713D01*
X108817246Y-54683757D01*
X108751557Y-54481588D01*
X108655051Y-54292184D01*
X108655049Y-54292181D01*
X108655048Y-54292179D01*
X108530109Y-54120213D01*
X108379786Y-53969890D01*
X108207820Y-53844951D01*
X108018414Y-53748444D01*
X108018413Y-53748443D01*
X108018412Y-53748443D01*
X107816243Y-53682754D01*
X107816241Y-53682753D01*
X107816240Y-53682753D01*
X107654957Y-53657208D01*
X107606287Y-53649500D01*
X107393713Y-53649500D01*
X107345042Y-53657208D01*
X107183760Y-53682753D01*
X106981585Y-53748444D01*
X106792179Y-53844951D01*
X106620213Y-53969890D01*
X106469890Y-54120213D01*
X106344951Y-54292179D01*
X106248444Y-54481585D01*
X106182753Y-54683760D01*
X106149500Y-54893713D01*
X82456765Y-54893713D01*
X82470799Y-54850522D01*
X82470800Y-54850520D01*
X82478529Y-54826731D01*
X82478530Y-54826726D01*
X82505000Y-54659609D01*
X82505000Y-54500000D01*
X81705000Y-54500000D01*
X81705000Y-54000000D01*
X82505000Y-54000000D01*
X82505000Y-53840390D01*
X82478530Y-53673273D01*
X82426239Y-53512340D01*
X82349421Y-53361576D01*
X82249961Y-53224683D01*
X82249961Y-53224682D01*
X82130317Y-53105038D01*
X81993423Y-53005578D01*
X81842661Y-52928760D01*
X81681726Y-52876469D01*
X81680000Y-52876194D01*
X81680000Y-53809943D01*
X81663134Y-53769225D01*
X81585775Y-53691866D01*
X81484701Y-53650000D01*
X81375299Y-53650000D01*
X81274225Y-53691866D01*
X81196866Y-53769225D01*
X81180000Y-53809943D01*
X81180000Y-52876195D01*
X81179999Y-52876194D01*
X81178273Y-52876469D01*
X81017338Y-52928760D01*
X80866576Y-53005578D01*
X80729683Y-53105038D01*
X80729682Y-53105038D01*
X80610038Y-53224682D01*
X80610038Y-53224683D01*
X80510578Y-53361576D01*
X80433760Y-53512340D01*
X80381469Y-53673273D01*
X80355000Y-53840390D01*
X74755000Y-53840390D01*
X74728530Y-53673273D01*
X74676239Y-53512340D01*
X74599421Y-53361576D01*
X74499961Y-53224683D01*
X74499961Y-53224682D01*
X74380317Y-53105038D01*
X74243423Y-53005578D01*
X74092661Y-52928760D01*
X73931726Y-52876469D01*
X73930000Y-52876194D01*
X73930000Y-53809943D01*
X73913134Y-53769225D01*
X73835775Y-53691866D01*
X73734701Y-53650000D01*
X73625299Y-53650000D01*
X73524225Y-53691866D01*
X73446866Y-53769225D01*
X73430000Y-53809943D01*
X73430000Y-52876195D01*
X73429999Y-52876194D01*
X73428273Y-52876469D01*
X73267338Y-52928760D01*
X73116576Y-53005578D01*
X72979683Y-53105038D01*
X72979682Y-53105038D01*
X72860038Y-53224682D01*
X72860038Y-53224683D01*
X72760578Y-53361576D01*
X72683760Y-53512340D01*
X72631469Y-53673273D01*
X72605000Y-53840390D01*
X60731089Y-53840390D01*
X60750400Y-53811489D01*
X60780373Y-53766633D01*
X60830628Y-53691420D01*
X60830628Y-53691419D01*
X60830632Y-53691414D01*
X60834220Y-53682753D01*
X60906049Y-53509339D01*
X60906051Y-53509335D01*
X60918632Y-53446082D01*
X60944500Y-53316043D01*
X60944500Y-53118956D01*
X60906052Y-52925670D01*
X60906051Y-52925669D01*
X60906051Y-52925665D01*
X60885560Y-52876194D01*
X60830635Y-52743592D01*
X60830628Y-52743579D01*
X60721139Y-52579718D01*
X60721136Y-52579714D01*
X60653603Y-52512181D01*
X60620118Y-52450858D01*
X60625102Y-52381166D01*
X60666974Y-52325233D01*
X60732438Y-52300816D01*
X60741284Y-52300500D01*
X107452405Y-52300500D01*
X107496519Y-52300500D01*
X107503472Y-52300695D01*
X107795306Y-52317084D01*
X107809103Y-52318638D01*
X108093827Y-52367015D01*
X108107382Y-52370108D01*
X108246141Y-52410084D01*
X108384899Y-52450060D01*
X108398025Y-52454653D01*
X108664841Y-52565172D01*
X108677355Y-52571198D01*
X108843444Y-52662992D01*
X108930125Y-52710899D01*
X108941899Y-52718297D01*
X109164435Y-52876195D01*
X109177430Y-52885415D01*
X109188302Y-52894085D01*
X109403642Y-53086524D01*
X109413475Y-53096357D01*
X109605914Y-53311697D01*
X109614584Y-53322569D01*
X109781702Y-53558100D01*
X109789100Y-53569874D01*
X109928797Y-53822637D01*
X109934830Y-53835165D01*
X110045346Y-54101975D01*
X110049939Y-54115100D01*
X110129890Y-54392615D01*
X110132984Y-54406172D01*
X110181359Y-54690885D01*
X110182916Y-54704703D01*
X110199305Y-54996527D01*
X110199500Y-55003480D01*
X110199500Y-99996519D01*
X110199305Y-100003472D01*
X110182916Y-100295296D01*
X110181359Y-100309114D01*
X110132984Y-100593827D01*
X110129890Y-100607384D01*
X110049939Y-100884899D01*
X110045346Y-100898024D01*
X109934830Y-101164834D01*
X109928797Y-101177362D01*
X109789100Y-101430125D01*
X109781702Y-101441899D01*
X109614584Y-101677430D01*
X109605914Y-101688302D01*
X109413475Y-101903642D01*
X109403642Y-101913475D01*
X109188302Y-102105914D01*
X109177430Y-102114584D01*
X108941899Y-102281702D01*
X108930125Y-102289100D01*
X108677362Y-102428797D01*
X108664834Y-102434830D01*
X108398024Y-102545346D01*
X108384899Y-102549939D01*
X108107384Y-102629890D01*
X108093827Y-102632984D01*
X107809114Y-102681359D01*
X107795296Y-102682916D01*
X107503472Y-102699305D01*
X107496519Y-102699500D01*
X37503481Y-102699500D01*
X37496528Y-102699305D01*
X37204703Y-102682916D01*
X37190885Y-102681359D01*
X36906172Y-102632984D01*
X36892615Y-102629890D01*
X36615100Y-102549939D01*
X36601975Y-102545346D01*
X36335165Y-102434830D01*
X36322637Y-102428797D01*
X36069874Y-102289100D01*
X36058100Y-102281702D01*
X35822569Y-102114584D01*
X35811697Y-102105914D01*
X35596357Y-101913475D01*
X35586524Y-101903642D01*
X35394085Y-101688302D01*
X35385415Y-101677430D01*
X35218297Y-101441899D01*
X35210899Y-101430125D01*
X35071202Y-101177362D01*
X35065172Y-101164841D01*
X34954653Y-100898024D01*
X34950060Y-100884899D01*
X34870109Y-100607384D01*
X34867015Y-100593827D01*
X34854202Y-100518414D01*
X34818638Y-100309103D01*
X34817084Y-100295306D01*
X34800695Y-100003472D01*
X34800500Y-99996519D01*
X34800500Y-99893713D01*
X36149500Y-99893713D01*
X36149500Y-100106286D01*
X36182753Y-100316239D01*
X36248444Y-100518414D01*
X36344951Y-100707820D01*
X36469890Y-100879786D01*
X36620213Y-101030109D01*
X36792179Y-101155048D01*
X36792181Y-101155049D01*
X36792184Y-101155051D01*
X36981588Y-101251557D01*
X37183757Y-101317246D01*
X37393713Y-101350500D01*
X37393714Y-101350500D01*
X37606286Y-101350500D01*
X37606287Y-101350500D01*
X37816243Y-101317246D01*
X38018412Y-101251557D01*
X38207816Y-101155051D01*
X38229789Y-101139086D01*
X38379786Y-101030109D01*
X38379788Y-101030106D01*
X38379792Y-101030104D01*
X38530104Y-100879792D01*
X38530106Y-100879788D01*
X38530109Y-100879786D01*
X38655048Y-100707820D01*
X38655047Y-100707820D01*
X38655051Y-100707816D01*
X38751557Y-100518412D01*
X38817246Y-100316243D01*
X38850500Y-100106287D01*
X38850500Y-99893713D01*
X106149500Y-99893713D01*
X106149500Y-100106286D01*
X106182753Y-100316239D01*
X106248444Y-100518414D01*
X106344951Y-100707820D01*
X106469890Y-100879786D01*
X106620213Y-101030109D01*
X106792179Y-101155048D01*
X106792181Y-101155049D01*
X106792184Y-101155051D01*
X106981588Y-101251557D01*
X107183757Y-101317246D01*
X107393713Y-101350500D01*
X107393714Y-101350500D01*
X107606286Y-101350500D01*
X107606287Y-101350500D01*
X107816243Y-101317246D01*
X108018412Y-101251557D01*
X108207816Y-101155051D01*
X108229789Y-101139086D01*
X108379786Y-101030109D01*
X108379788Y-101030106D01*
X108379792Y-101030104D01*
X108530104Y-100879792D01*
X108530106Y-100879788D01*
X108530109Y-100879786D01*
X108655048Y-100707820D01*
X108655047Y-100707820D01*
X108655051Y-100707816D01*
X108751557Y-100518412D01*
X108817246Y-100316243D01*
X108850500Y-100106287D01*
X108850500Y-99893713D01*
X108817246Y-99683757D01*
X108751557Y-99481588D01*
X108655051Y-99292184D01*
X108655049Y-99292181D01*
X108655048Y-99292179D01*
X108530109Y-99120213D01*
X108379786Y-98969890D01*
X108207820Y-98844951D01*
X108018414Y-98748444D01*
X108018413Y-98748443D01*
X108018412Y-98748443D01*
X107816243Y-98682754D01*
X107816241Y-98682753D01*
X107816240Y-98682753D01*
X107654957Y-98657208D01*
X107606287Y-98649500D01*
X107393713Y-98649500D01*
X107345042Y-98657208D01*
X107183760Y-98682753D01*
X106981585Y-98748444D01*
X106792179Y-98844951D01*
X106620213Y-98969890D01*
X106469890Y-99120213D01*
X106344951Y-99292179D01*
X106248444Y-99481585D01*
X106182753Y-99683760D01*
X106149500Y-99893713D01*
X38850500Y-99893713D01*
X38817246Y-99683757D01*
X38751557Y-99481588D01*
X38655051Y-99292184D01*
X38655049Y-99292181D01*
X38655048Y-99292179D01*
X38538016Y-99131096D01*
X72716524Y-99131096D01*
X72741522Y-99256763D01*
X72741524Y-99256769D01*
X72790558Y-99375149D01*
X72790563Y-99375158D01*
X72861748Y-99481693D01*
X72861751Y-99481697D01*
X72952352Y-99572298D01*
X72952356Y-99572301D01*
X73058891Y-99643486D01*
X73058897Y-99643489D01*
X73058898Y-99643490D01*
X73177281Y-99692526D01*
X73177285Y-99692526D01*
X73177286Y-99692527D01*
X73302953Y-99717525D01*
X73302956Y-99717525D01*
X73431096Y-99717525D01*
X73516682Y-99700500D01*
X73556769Y-99692526D01*
X73675152Y-99643490D01*
X73781694Y-99572301D01*
X73781697Y-99572298D01*
X73792177Y-99561819D01*
X73853500Y-99528334D01*
X73879858Y-99525500D01*
X76055330Y-99525500D01*
X76122369Y-99545185D01*
X76143011Y-99561819D01*
X76161465Y-99580273D01*
X76161469Y-99580276D01*
X76268004Y-99651461D01*
X76268010Y-99651464D01*
X76268011Y-99651465D01*
X76386394Y-99700501D01*
X76386398Y-99700501D01*
X76386399Y-99700502D01*
X76512066Y-99725500D01*
X76512069Y-99725500D01*
X76640209Y-99725500D01*
X76724753Y-99708682D01*
X76765882Y-99700501D01*
X76884265Y-99651465D01*
X76990807Y-99580276D01*
X77081414Y-99489669D01*
X77152603Y-99383127D01*
X77201639Y-99264744D01*
X77226638Y-99139069D01*
X77226638Y-99010931D01*
X77226638Y-99010928D01*
X77201640Y-98885261D01*
X77201639Y-98885260D01*
X77201639Y-98885256D01*
X77152603Y-98766873D01*
X77152602Y-98766872D01*
X77152599Y-98766866D01*
X77081414Y-98660331D01*
X77081411Y-98660327D01*
X76990810Y-98569726D01*
X76990806Y-98569723D01*
X76884271Y-98498538D01*
X76884262Y-98498533D01*
X76765882Y-98449499D01*
X76765876Y-98449497D01*
X76640209Y-98424500D01*
X76640207Y-98424500D01*
X76512069Y-98424500D01*
X76512067Y-98424500D01*
X76386399Y-98449497D01*
X76386393Y-98449499D01*
X76268013Y-98498533D01*
X76268004Y-98498538D01*
X76161469Y-98569723D01*
X76161465Y-98569726D01*
X76143011Y-98588181D01*
X76081688Y-98621666D01*
X76055330Y-98624500D01*
X73895808Y-98624500D01*
X73828769Y-98604815D01*
X73808127Y-98588181D01*
X73781697Y-98561751D01*
X73781693Y-98561748D01*
X73675158Y-98490563D01*
X73675149Y-98490558D01*
X73556769Y-98441524D01*
X73556763Y-98441522D01*
X73431096Y-98416525D01*
X73431094Y-98416525D01*
X73302956Y-98416525D01*
X73302954Y-98416525D01*
X73177286Y-98441522D01*
X73177280Y-98441524D01*
X73058900Y-98490558D01*
X73058891Y-98490563D01*
X72952356Y-98561748D01*
X72952352Y-98561751D01*
X72861751Y-98652352D01*
X72861748Y-98652356D01*
X72790563Y-98758891D01*
X72790558Y-98758900D01*
X72741524Y-98877280D01*
X72741522Y-98877286D01*
X72716525Y-99002953D01*
X72716525Y-99002956D01*
X72716525Y-99131094D01*
X72716525Y-99131096D01*
X72716524Y-99131096D01*
X38538016Y-99131096D01*
X38530109Y-99120213D01*
X38379786Y-98969890D01*
X38207820Y-98844951D01*
X38018414Y-98748444D01*
X38018413Y-98748443D01*
X38018412Y-98748443D01*
X37816243Y-98682754D01*
X37816241Y-98682753D01*
X37816240Y-98682753D01*
X37654957Y-98657208D01*
X37606287Y-98649500D01*
X37393713Y-98649500D01*
X37345042Y-98657208D01*
X37183760Y-98682753D01*
X36981585Y-98748444D01*
X36792179Y-98844951D01*
X36620213Y-98969890D01*
X36469890Y-99120213D01*
X36344951Y-99292179D01*
X36248444Y-99481585D01*
X36182753Y-99683760D01*
X36149500Y-99893713D01*
X34800500Y-99893713D01*
X34800500Y-94540137D01*
X46349500Y-94540137D01*
X46349500Y-96329856D01*
X46349502Y-96329882D01*
X46352413Y-96354987D01*
X46352415Y-96354991D01*
X46397793Y-96457764D01*
X46397794Y-96457765D01*
X46477235Y-96537206D01*
X46580009Y-96582585D01*
X46605135Y-96585500D01*
X47342873Y-96585499D01*
X47409910Y-96605183D01*
X47455665Y-96657987D01*
X47465609Y-96727146D01*
X47436584Y-96790702D01*
X47377806Y-96828476D01*
X47362270Y-96831972D01*
X47230589Y-96852829D01*
X47058363Y-96908787D01*
X47058360Y-96908788D01*
X46897002Y-96991006D01*
X46750505Y-97097441D01*
X46750500Y-97097445D01*
X46622445Y-97225500D01*
X46622441Y-97225505D01*
X46516006Y-97372002D01*
X46433788Y-97533360D01*
X46433787Y-97533363D01*
X46377829Y-97705589D01*
X46349500Y-97884448D01*
X46349500Y-98065551D01*
X46377829Y-98244410D01*
X46433787Y-98416636D01*
X46433788Y-98416639D01*
X46471453Y-98490558D01*
X46511791Y-98569726D01*
X46516006Y-98577997D01*
X46622441Y-98724494D01*
X46622445Y-98724499D01*
X46750500Y-98852554D01*
X46750505Y-98852558D01*
X46811050Y-98896546D01*
X46897006Y-98958996D01*
X46983276Y-99002953D01*
X47058360Y-99041211D01*
X47058363Y-99041212D01*
X47144476Y-99069191D01*
X47230591Y-99097171D01*
X47313429Y-99110291D01*
X47409449Y-99125500D01*
X47409454Y-99125500D01*
X47590551Y-99125500D01*
X47677259Y-99111765D01*
X47769409Y-99097171D01*
X47941639Y-99041211D01*
X48102994Y-98958996D01*
X48140026Y-98932090D01*
X48188951Y-98896546D01*
X48249494Y-98852558D01*
X48249492Y-98852558D01*
X48249501Y-98852553D01*
X48377553Y-98724501D01*
X48483996Y-98577994D01*
X48566211Y-98416639D01*
X48622171Y-98244409D01*
X48636765Y-98152259D01*
X48650500Y-98065551D01*
X48650500Y-97884448D01*
X48634019Y-97780397D01*
X48622171Y-97705591D01*
X48566211Y-97533361D01*
X48566211Y-97533360D01*
X48527996Y-97458360D01*
X48483996Y-97372006D01*
X48429503Y-97297002D01*
X48377558Y-97225505D01*
X48377554Y-97225500D01*
X48249499Y-97097445D01*
X48249494Y-97097441D01*
X48102997Y-96991006D01*
X48102996Y-96991005D01*
X48102994Y-96991004D01*
X48051300Y-96964664D01*
X47941639Y-96908788D01*
X47941636Y-96908787D01*
X47769410Y-96852829D01*
X47637728Y-96831972D01*
X47574594Y-96802042D01*
X47537663Y-96742731D01*
X47538661Y-96672868D01*
X47577271Y-96614636D01*
X47624060Y-96594071D01*
X73841328Y-96594071D01*
X73866326Y-96719738D01*
X73866328Y-96719744D01*
X73915362Y-96838124D01*
X73915367Y-96838133D01*
X73986552Y-96944668D01*
X73986555Y-96944672D01*
X74077156Y-97035273D01*
X74077160Y-97035276D01*
X74183695Y-97106461D01*
X74183701Y-97106464D01*
X74183702Y-97106465D01*
X74302085Y-97155501D01*
X74302089Y-97155501D01*
X74302090Y-97155502D01*
X74427757Y-97180500D01*
X74427760Y-97180500D01*
X74555900Y-97180500D01*
X74640444Y-97163682D01*
X74681573Y-97155501D01*
X74799956Y-97106465D01*
X74906498Y-97035276D01*
X74997105Y-96944669D01*
X75068294Y-96838127D01*
X75069685Y-96834768D01*
X75070884Y-96833280D01*
X75071164Y-96832757D01*
X75071263Y-96832810D01*
X75113522Y-96780364D01*
X75179815Y-96758295D01*
X75247515Y-96775571D01*
X75295129Y-96826705D01*
X75298810Y-96834766D01*
X75299671Y-96836845D01*
X75299676Y-96836855D01*
X75370861Y-96943390D01*
X75370864Y-96943394D01*
X75461465Y-97033995D01*
X75461469Y-97033998D01*
X75568004Y-97105183D01*
X75568013Y-97105188D01*
X75594830Y-97116296D01*
X75686394Y-97154223D01*
X75686398Y-97154223D01*
X75686399Y-97154224D01*
X75812066Y-97179222D01*
X75812069Y-97179222D01*
X75940209Y-97179222D01*
X76024753Y-97162404D01*
X76065882Y-97154223D01*
X76184265Y-97105187D01*
X76290807Y-97033998D01*
X76381414Y-96943391D01*
X76452603Y-96836849D01*
X76501639Y-96718466D01*
X76525628Y-96597868D01*
X76526638Y-96592793D01*
X76526638Y-96464650D01*
X76501640Y-96338983D01*
X76501639Y-96338982D01*
X76501639Y-96338978D01*
X76453133Y-96221875D01*
X76452604Y-96220597D01*
X76452599Y-96220588D01*
X76381414Y-96114053D01*
X76381411Y-96114049D01*
X76362957Y-96095595D01*
X76329472Y-96034272D01*
X76326638Y-96007914D01*
X76326638Y-93894669D01*
X76346323Y-93827630D01*
X76362959Y-93806986D01*
X76380274Y-93789671D01*
X76380276Y-93789669D01*
X76451465Y-93683127D01*
X76500501Y-93564744D01*
X76525500Y-93439071D01*
X77162929Y-93439071D01*
X77187927Y-93564738D01*
X77187929Y-93564744D01*
X77236963Y-93683124D01*
X77236968Y-93683133D01*
X77308153Y-93789668D01*
X77308156Y-93789672D01*
X77398757Y-93880273D01*
X77398761Y-93880276D01*
X77505296Y-93951461D01*
X77505302Y-93951464D01*
X77505303Y-93951465D01*
X77623686Y-94000501D01*
X77623690Y-94000501D01*
X77623691Y-94000502D01*
X77749358Y-94025500D01*
X77749361Y-94025500D01*
X77775465Y-94025500D01*
X77842504Y-94045185D01*
X77863146Y-94061819D01*
X78241009Y-94439682D01*
X78274494Y-94501005D01*
X78269510Y-94570697D01*
X78247184Y-94605468D01*
X78248589Y-94606621D01*
X78244723Y-94611331D01*
X78173538Y-94717866D01*
X78173533Y-94717875D01*
X78124499Y-94836255D01*
X78124497Y-94836261D01*
X78099500Y-94961928D01*
X78099500Y-94961931D01*
X78099500Y-95090069D01*
X78099500Y-95090071D01*
X78099499Y-95090071D01*
X78124497Y-95215738D01*
X78124499Y-95215744D01*
X78173533Y-95334124D01*
X78173538Y-95334133D01*
X78244723Y-95440668D01*
X78244726Y-95440672D01*
X78335327Y-95531273D01*
X78335331Y-95531276D01*
X78441866Y-95602461D01*
X78441872Y-95602464D01*
X78441873Y-95602465D01*
X78560256Y-95651501D01*
X78560260Y-95651501D01*
X78560261Y-95651502D01*
X78685928Y-95676500D01*
X78685931Y-95676500D01*
X78814071Y-95676500D01*
X78898615Y-95659682D01*
X78939744Y-95651501D01*
X79058127Y-95602465D01*
X79164669Y-95531276D01*
X79255276Y-95440669D01*
X79326465Y-95334127D01*
X79375501Y-95215744D01*
X79400500Y-95090069D01*
X79400500Y-94961931D01*
X79400500Y-94961928D01*
X79375502Y-94836261D01*
X79375501Y-94836260D01*
X79375501Y-94836256D01*
X79326465Y-94717873D01*
X79326464Y-94717872D01*
X79326461Y-94717866D01*
X79255276Y-94611331D01*
X79255273Y-94611327D01*
X79236819Y-94592873D01*
X79222115Y-94565945D01*
X79205523Y-94540127D01*
X79204631Y-94533926D01*
X79203334Y-94531550D01*
X79200500Y-94505192D01*
X79200500Y-94465131D01*
X96374500Y-94465131D01*
X96374500Y-96254856D01*
X96374502Y-96254882D01*
X96377413Y-96279987D01*
X96377415Y-96279991D01*
X96422793Y-96382764D01*
X96422794Y-96382765D01*
X96502235Y-96462206D01*
X96605009Y-96507585D01*
X96630135Y-96510500D01*
X97367873Y-96510499D01*
X97434910Y-96530183D01*
X97480665Y-96582987D01*
X97490609Y-96652146D01*
X97461584Y-96715702D01*
X97402806Y-96753476D01*
X97387270Y-96756972D01*
X97255589Y-96777829D01*
X97083363Y-96833787D01*
X97083360Y-96833788D01*
X96922002Y-96916006D01*
X96775505Y-97022441D01*
X96775500Y-97022445D01*
X96647445Y-97150500D01*
X96647441Y-97150505D01*
X96541006Y-97297002D01*
X96458788Y-97458360D01*
X96458787Y-97458363D01*
X96402829Y-97630589D01*
X96374500Y-97809448D01*
X96374500Y-97990551D01*
X96402829Y-98169410D01*
X96458787Y-98341636D01*
X96458788Y-98341639D01*
X96541006Y-98502997D01*
X96647441Y-98649494D01*
X96647445Y-98649499D01*
X96775500Y-98777554D01*
X96775505Y-98777558D01*
X96878735Y-98852558D01*
X96922006Y-98883996D01*
X97027484Y-98937740D01*
X97083360Y-98966211D01*
X97083363Y-98966212D01*
X97094702Y-98969896D01*
X97255591Y-99022171D01*
X97338429Y-99035291D01*
X97434449Y-99050500D01*
X97434454Y-99050500D01*
X97615551Y-99050500D01*
X97702259Y-99036765D01*
X97794409Y-99022171D01*
X97966639Y-98966211D01*
X98127994Y-98883996D01*
X98274501Y-98777553D01*
X98402553Y-98649501D01*
X98508996Y-98502994D01*
X98591211Y-98341639D01*
X98647171Y-98169409D01*
X98661765Y-98077259D01*
X98675500Y-97990551D01*
X98675500Y-97809448D01*
X98659019Y-97705397D01*
X98647171Y-97630591D01*
X98591211Y-97458361D01*
X98591211Y-97458360D01*
X98562740Y-97402484D01*
X98508996Y-97297006D01*
X98457044Y-97225500D01*
X98402558Y-97150505D01*
X98402554Y-97150500D01*
X98274499Y-97022445D01*
X98274494Y-97022441D01*
X98127997Y-96916006D01*
X98127996Y-96916005D01*
X98127994Y-96916004D01*
X98076300Y-96889664D01*
X97966639Y-96833788D01*
X97966636Y-96833787D01*
X97794410Y-96777829D01*
X97662728Y-96756972D01*
X97599594Y-96727042D01*
X97562663Y-96667731D01*
X97563661Y-96597868D01*
X97602271Y-96539636D01*
X97666235Y-96511522D01*
X97682120Y-96510499D01*
X98419864Y-96510499D01*
X98419879Y-96510497D01*
X98419882Y-96510497D01*
X98444987Y-96507586D01*
X98444988Y-96507585D01*
X98444991Y-96507585D01*
X98547765Y-96462206D01*
X98627206Y-96382765D01*
X98672585Y-96279991D01*
X98675500Y-96254865D01*
X98675499Y-94465136D01*
X98675497Y-94465117D01*
X98672586Y-94440012D01*
X98672585Y-94440010D01*
X98672585Y-94440009D01*
X98627206Y-94337235D01*
X98547765Y-94257794D01*
X98547763Y-94257793D01*
X98444992Y-94212415D01*
X98419865Y-94209500D01*
X96630143Y-94209500D01*
X96630117Y-94209502D01*
X96605012Y-94212413D01*
X96605008Y-94212415D01*
X96502235Y-94257793D01*
X96422794Y-94337234D01*
X96377415Y-94440006D01*
X96377415Y-94440008D01*
X96374500Y-94465131D01*
X79200500Y-94465131D01*
X79200500Y-94252263D01*
X79200500Y-94252261D01*
X79169799Y-94137684D01*
X79169799Y-94137683D01*
X79110489Y-94034956D01*
X78500249Y-93424716D01*
X78466764Y-93363393D01*
X78463930Y-93337035D01*
X78463930Y-93310928D01*
X78438932Y-93185261D01*
X78438931Y-93185260D01*
X78438931Y-93185256D01*
X78389895Y-93066873D01*
X78389893Y-93066870D01*
X78389891Y-93066866D01*
X78318706Y-92960331D01*
X78318703Y-92960327D01*
X78228102Y-92869726D01*
X78228098Y-92869723D01*
X78121563Y-92798538D01*
X78121554Y-92798533D01*
X78003174Y-92749499D01*
X78003168Y-92749497D01*
X77877501Y-92724500D01*
X77877499Y-92724500D01*
X77749361Y-92724500D01*
X77749359Y-92724500D01*
X77623691Y-92749497D01*
X77623685Y-92749499D01*
X77505305Y-92798533D01*
X77505296Y-92798538D01*
X77398761Y-92869723D01*
X77398757Y-92869726D01*
X77308156Y-92960327D01*
X77308153Y-92960331D01*
X77236968Y-93066866D01*
X77236963Y-93066875D01*
X77187929Y-93185255D01*
X77187927Y-93185261D01*
X77162930Y-93310928D01*
X77162930Y-93310931D01*
X77162930Y-93439069D01*
X77162930Y-93439071D01*
X77162929Y-93439071D01*
X76525500Y-93439071D01*
X76525500Y-93439069D01*
X76525500Y-93310931D01*
X76525500Y-93310928D01*
X76500502Y-93185261D01*
X76500501Y-93185260D01*
X76500501Y-93185256D01*
X76451465Y-93066873D01*
X76451463Y-93066870D01*
X76451461Y-93066866D01*
X76380276Y-92960331D01*
X76380273Y-92960327D01*
X76289672Y-92869726D01*
X76289668Y-92869723D01*
X76183133Y-92798538D01*
X76183124Y-92798533D01*
X76064744Y-92749499D01*
X76064738Y-92749497D01*
X75939071Y-92724500D01*
X75939069Y-92724500D01*
X75810931Y-92724500D01*
X75810929Y-92724500D01*
X75685261Y-92749497D01*
X75685255Y-92749499D01*
X75566875Y-92798533D01*
X75566866Y-92798538D01*
X75460331Y-92869723D01*
X75460327Y-92869726D01*
X75369726Y-92960327D01*
X75369723Y-92960331D01*
X75298535Y-93066870D01*
X75296859Y-93070008D01*
X75295547Y-93071343D01*
X75295150Y-93071938D01*
X75295037Y-93071862D01*
X75247897Y-93119853D01*
X75179760Y-93135314D01*
X75114080Y-93111483D01*
X75078141Y-93070008D01*
X75076464Y-93066870D01*
X75005276Y-92960331D01*
X75005273Y-92960327D01*
X74914672Y-92869726D01*
X74914668Y-92869723D01*
X74808133Y-92798538D01*
X74808124Y-92798533D01*
X74689744Y-92749499D01*
X74689738Y-92749497D01*
X74564071Y-92724500D01*
X74564069Y-92724500D01*
X74435931Y-92724500D01*
X74435929Y-92724500D01*
X74310261Y-92749497D01*
X74310255Y-92749499D01*
X74191875Y-92798533D01*
X74191866Y-92798538D01*
X74085331Y-92869723D01*
X74085327Y-92869726D01*
X73994726Y-92960327D01*
X73994723Y-92960331D01*
X73923538Y-93066866D01*
X73923533Y-93066875D01*
X73874499Y-93185255D01*
X73874497Y-93185261D01*
X73849500Y-93310928D01*
X73849500Y-93310931D01*
X73849500Y-93439069D01*
X73849500Y-93439071D01*
X73849499Y-93439071D01*
X73874497Y-93564738D01*
X73874499Y-93564744D01*
X73923533Y-93683124D01*
X73923538Y-93683133D01*
X73994723Y-93789668D01*
X73994725Y-93789671D01*
X74005007Y-93799952D01*
X74038494Y-93861274D01*
X74041329Y-93887636D01*
X74041329Y-96009192D01*
X74021644Y-96076231D01*
X74005010Y-96096873D01*
X73986555Y-96115327D01*
X73986552Y-96115331D01*
X73915367Y-96221866D01*
X73915362Y-96221875D01*
X73866328Y-96340255D01*
X73866326Y-96340261D01*
X73841329Y-96465928D01*
X73841329Y-96465931D01*
X73841329Y-96594069D01*
X73841329Y-96594071D01*
X73841328Y-96594071D01*
X47624060Y-96594071D01*
X47641235Y-96586522D01*
X47657120Y-96585499D01*
X48394864Y-96585499D01*
X48394879Y-96585497D01*
X48394882Y-96585497D01*
X48419987Y-96582586D01*
X48419988Y-96582585D01*
X48419991Y-96582585D01*
X48522765Y-96537206D01*
X48602206Y-96457765D01*
X48647585Y-96354991D01*
X48650500Y-96329865D01*
X48650499Y-94540136D01*
X48649779Y-94533926D01*
X48647586Y-94515012D01*
X48647585Y-94515010D01*
X48647585Y-94515009D01*
X48602206Y-94412235D01*
X48522765Y-94332794D01*
X48522763Y-94332793D01*
X48419992Y-94287415D01*
X48394865Y-94284500D01*
X46605143Y-94284500D01*
X46605117Y-94284502D01*
X46580012Y-94287413D01*
X46580008Y-94287415D01*
X46477235Y-94332793D01*
X46397794Y-94412234D01*
X46352415Y-94515006D01*
X46352415Y-94515008D01*
X46349501Y-94540127D01*
X46349500Y-94540137D01*
X34800500Y-94540137D01*
X34800500Y-89544071D01*
X70845499Y-89544071D01*
X70870497Y-89669738D01*
X70870499Y-89669744D01*
X70919533Y-89788124D01*
X70919538Y-89788133D01*
X70990723Y-89894668D01*
X70990726Y-89894672D01*
X71081327Y-89985273D01*
X71081331Y-89985276D01*
X71187866Y-90056461D01*
X71187872Y-90056464D01*
X71187873Y-90056465D01*
X71306256Y-90105501D01*
X71306260Y-90105501D01*
X71306261Y-90105502D01*
X71431928Y-90130500D01*
X71431931Y-90130500D01*
X71560071Y-90130500D01*
X71644615Y-90113682D01*
X71685744Y-90105501D01*
X71804127Y-90056465D01*
X71910669Y-89985276D01*
X72001276Y-89894669D01*
X72072465Y-89788127D01*
X72121501Y-89669744D01*
X72134628Y-89603754D01*
X72146500Y-89544071D01*
X72146500Y-89415928D01*
X72121502Y-89290261D01*
X72121501Y-89290260D01*
X72121501Y-89290256D01*
X72072465Y-89171873D01*
X72072464Y-89171872D01*
X72072461Y-89171866D01*
X72001276Y-89065331D01*
X72001273Y-89065327D01*
X71982819Y-89046873D01*
X71968115Y-89019945D01*
X71951523Y-88994127D01*
X71950631Y-88987926D01*
X71949334Y-88985550D01*
X71946500Y-88959192D01*
X71946500Y-88914071D01*
X75349499Y-88914071D01*
X75374497Y-89039738D01*
X75374499Y-89039744D01*
X75423533Y-89158124D01*
X75423538Y-89158133D01*
X75494723Y-89264668D01*
X75494726Y-89264672D01*
X75585327Y-89355273D01*
X75585331Y-89355276D01*
X75691866Y-89426461D01*
X75691872Y-89426464D01*
X75691873Y-89426465D01*
X75810256Y-89475501D01*
X75810260Y-89475501D01*
X75810261Y-89475502D01*
X75887582Y-89490883D01*
X75949493Y-89523268D01*
X75984067Y-89583984D01*
X75980326Y-89653754D01*
X75939460Y-89710425D01*
X75887582Y-89734117D01*
X75810261Y-89749497D01*
X75810255Y-89749499D01*
X75691875Y-89798533D01*
X75691866Y-89798538D01*
X75585331Y-89869723D01*
X75585327Y-89869726D01*
X75494726Y-89960327D01*
X75494723Y-89960331D01*
X75423538Y-90066866D01*
X75423533Y-90066875D01*
X75374499Y-90185255D01*
X75374497Y-90185261D01*
X75349500Y-90310928D01*
X75349500Y-90310931D01*
X75349500Y-90439069D01*
X75349500Y-90439071D01*
X75349499Y-90439071D01*
X75374497Y-90564738D01*
X75374499Y-90564744D01*
X75423533Y-90683124D01*
X75423538Y-90683133D01*
X75494723Y-90789668D01*
X75494726Y-90789672D01*
X75585327Y-90880273D01*
X75585331Y-90880276D01*
X75691866Y-90951461D01*
X75691872Y-90951464D01*
X75691873Y-90951465D01*
X75810256Y-91000501D01*
X75810260Y-91000501D01*
X75810261Y-91000502D01*
X75935928Y-91025500D01*
X75935931Y-91025500D01*
X76064071Y-91025500D01*
X76148615Y-91008682D01*
X76189744Y-91000501D01*
X76308127Y-90951465D01*
X76414669Y-90880276D01*
X76414672Y-90880273D01*
X76433127Y-90861819D01*
X76494450Y-90828334D01*
X76520808Y-90825500D01*
X76940568Y-90825500D01*
X77007607Y-90845185D01*
X77009459Y-90846398D01*
X77091866Y-90901461D01*
X77091872Y-90901464D01*
X77091873Y-90901465D01*
X77210256Y-90950501D01*
X77210260Y-90950501D01*
X77210261Y-90950502D01*
X77335928Y-90975500D01*
X77335931Y-90975500D01*
X77464071Y-90975500D01*
X77548615Y-90958682D01*
X77589744Y-90950501D01*
X77708127Y-90901465D01*
X77814669Y-90830276D01*
X77905276Y-90739669D01*
X77976465Y-90633127D01*
X78025501Y-90514744D01*
X78050500Y-90389069D01*
X78050500Y-90260931D01*
X78050500Y-90260928D01*
X78025502Y-90135261D01*
X78025501Y-90135260D01*
X78025501Y-90135256D01*
X77976465Y-90016873D01*
X77976464Y-90016872D01*
X77976461Y-90016866D01*
X77905276Y-89910331D01*
X77905273Y-89910327D01*
X77814672Y-89819726D01*
X77814668Y-89819723D01*
X77708133Y-89748538D01*
X77708124Y-89748533D01*
X77589744Y-89699499D01*
X77589738Y-89699497D01*
X77512417Y-89684117D01*
X77450506Y-89651732D01*
X77415932Y-89591016D01*
X77419672Y-89521247D01*
X77460539Y-89464575D01*
X77512417Y-89440883D01*
X77558133Y-89431788D01*
X77589744Y-89425501D01*
X77708127Y-89376465D01*
X77814669Y-89305276D01*
X77905276Y-89214669D01*
X77976465Y-89108127D01*
X78025501Y-88989744D01*
X78050500Y-88864069D01*
X78050500Y-88735931D01*
X78050500Y-88735928D01*
X78025502Y-88610261D01*
X78025501Y-88610260D01*
X78025501Y-88610256D01*
X77976465Y-88491873D01*
X77976464Y-88491872D01*
X77976461Y-88491866D01*
X77905276Y-88385331D01*
X77905273Y-88385327D01*
X77814672Y-88294726D01*
X77814668Y-88294723D01*
X77708133Y-88223538D01*
X77708124Y-88223533D01*
X77589744Y-88174499D01*
X77589738Y-88174497D01*
X77464071Y-88149500D01*
X77464069Y-88149500D01*
X77335931Y-88149500D01*
X77335929Y-88149500D01*
X77210261Y-88174497D01*
X77210255Y-88174499D01*
X77091875Y-88223533D01*
X77091866Y-88223538D01*
X76985332Y-88294722D01*
X76951103Y-88328951D01*
X76916872Y-88363182D01*
X76855552Y-88396666D01*
X76829193Y-88399500D01*
X76520808Y-88399500D01*
X76453769Y-88379815D01*
X76433127Y-88363181D01*
X76414672Y-88344726D01*
X76414668Y-88344723D01*
X76308133Y-88273538D01*
X76308124Y-88273533D01*
X76189744Y-88224499D01*
X76189738Y-88224497D01*
X76064071Y-88199500D01*
X76064069Y-88199500D01*
X75935931Y-88199500D01*
X75935929Y-88199500D01*
X75810261Y-88224497D01*
X75810255Y-88224499D01*
X75691875Y-88273533D01*
X75691866Y-88273538D01*
X75585331Y-88344723D01*
X75585327Y-88344726D01*
X75494726Y-88435327D01*
X75494723Y-88435331D01*
X75423538Y-88541866D01*
X75423533Y-88541875D01*
X75374499Y-88660255D01*
X75374497Y-88660261D01*
X75349500Y-88785928D01*
X75349500Y-88785931D01*
X75349500Y-88914069D01*
X75349500Y-88914071D01*
X75349499Y-88914071D01*
X71946500Y-88914071D01*
X71946500Y-88604807D01*
X71966185Y-88537768D01*
X71982815Y-88517129D01*
X72005276Y-88494669D01*
X72076465Y-88388127D01*
X72125501Y-88269744D01*
X72144447Y-88174499D01*
X72150500Y-88144071D01*
X72150500Y-88015928D01*
X72125502Y-87890261D01*
X72125501Y-87890260D01*
X72125501Y-87890256D01*
X72087574Y-87798692D01*
X72076466Y-87771875D01*
X72076461Y-87771866D01*
X72005276Y-87665331D01*
X72005273Y-87665327D01*
X71914672Y-87574726D01*
X71914668Y-87574723D01*
X71808133Y-87503538D01*
X71808124Y-87503533D01*
X71689744Y-87454499D01*
X71689738Y-87454497D01*
X71564071Y-87429500D01*
X71564069Y-87429500D01*
X71435931Y-87429500D01*
X71435929Y-87429500D01*
X71310261Y-87454497D01*
X71310255Y-87454499D01*
X71191875Y-87503533D01*
X71191866Y-87503538D01*
X71085331Y-87574723D01*
X71085327Y-87574726D01*
X70994726Y-87665327D01*
X70994723Y-87665331D01*
X70923538Y-87771866D01*
X70923533Y-87771875D01*
X70874499Y-87890255D01*
X70874497Y-87890261D01*
X70849500Y-88015928D01*
X70849500Y-88015931D01*
X70849500Y-88144069D01*
X70849500Y-88144071D01*
X70849499Y-88144071D01*
X70874497Y-88269738D01*
X70874499Y-88269744D01*
X70923533Y-88388124D01*
X70923538Y-88388133D01*
X70994722Y-88494667D01*
X70994723Y-88494668D01*
X70994724Y-88494669D01*
X71009180Y-88509125D01*
X71042666Y-88570446D01*
X71045500Y-88596807D01*
X71045500Y-88959192D01*
X71025815Y-89026231D01*
X71009181Y-89046873D01*
X70990726Y-89065327D01*
X70990723Y-89065331D01*
X70919538Y-89171866D01*
X70919533Y-89171875D01*
X70870499Y-89290255D01*
X70870497Y-89290261D01*
X70845500Y-89415928D01*
X70845500Y-89415931D01*
X70845500Y-89544069D01*
X70845500Y-89544071D01*
X70845499Y-89544071D01*
X34800500Y-89544071D01*
X34800500Y-84119448D01*
X46349500Y-84119448D01*
X46349500Y-84300551D01*
X46377829Y-84479410D01*
X46433787Y-84651636D01*
X46433788Y-84651639D01*
X46516006Y-84812997D01*
X46622441Y-84959494D01*
X46622445Y-84959499D01*
X46750500Y-85087554D01*
X46750505Y-85087558D01*
X46795413Y-85120185D01*
X46897006Y-85193996D01*
X47002484Y-85247740D01*
X47058360Y-85276211D01*
X47058363Y-85276212D01*
X47121205Y-85296630D01*
X47230591Y-85332171D01*
X47326403Y-85347346D01*
X47362270Y-85353027D01*
X47425405Y-85382956D01*
X47462336Y-85442268D01*
X47461338Y-85512130D01*
X47422728Y-85570363D01*
X47358765Y-85598477D01*
X47342872Y-85599500D01*
X46605143Y-85599500D01*
X46605117Y-85599502D01*
X46580012Y-85602413D01*
X46580008Y-85602415D01*
X46477235Y-85647793D01*
X46397794Y-85727234D01*
X46352415Y-85830006D01*
X46352415Y-85830008D01*
X46349500Y-85855131D01*
X46349500Y-87644856D01*
X46349502Y-87644882D01*
X46352413Y-87669987D01*
X46352415Y-87669991D01*
X46397793Y-87772764D01*
X46397794Y-87772765D01*
X46477235Y-87852206D01*
X46580009Y-87897585D01*
X46605135Y-87900500D01*
X48394864Y-87900499D01*
X48394879Y-87900497D01*
X48394882Y-87900497D01*
X48419987Y-87897586D01*
X48419988Y-87897585D01*
X48419991Y-87897585D01*
X48522765Y-87852206D01*
X48602206Y-87772765D01*
X48647585Y-87669991D01*
X48650500Y-87644865D01*
X48650499Y-85916694D01*
X76574499Y-85916694D01*
X76599497Y-86042361D01*
X76599499Y-86042367D01*
X76648533Y-86160747D01*
X76648538Y-86160756D01*
X76719723Y-86267291D01*
X76719726Y-86267295D01*
X76810327Y-86357896D01*
X76810331Y-86357899D01*
X76916866Y-86429084D01*
X76916872Y-86429087D01*
X76916873Y-86429088D01*
X77035256Y-86478124D01*
X77035260Y-86478124D01*
X77035261Y-86478125D01*
X77160928Y-86503123D01*
X77160931Y-86503123D01*
X77289071Y-86503123D01*
X77373615Y-86486305D01*
X77414744Y-86478124D01*
X77533127Y-86429088D01*
X77639669Y-86357899D01*
X77639672Y-86357896D01*
X77708843Y-86288726D01*
X77770166Y-86255241D01*
X77796524Y-86252407D01*
X78221050Y-86252407D01*
X78288089Y-86272092D01*
X78308731Y-86288726D01*
X78327185Y-86307180D01*
X78327189Y-86307183D01*
X78433724Y-86378368D01*
X78433730Y-86378371D01*
X78433731Y-86378372D01*
X78552114Y-86427408D01*
X78552118Y-86427408D01*
X78552119Y-86427409D01*
X78677786Y-86452407D01*
X78677789Y-86452407D01*
X78805929Y-86452407D01*
X78923176Y-86429084D01*
X78931602Y-86427408D01*
X79049985Y-86378372D01*
X79156527Y-86307183D01*
X79247134Y-86216576D01*
X79318323Y-86110034D01*
X79367359Y-85991651D01*
X79392358Y-85865976D01*
X79392358Y-85737838D01*
X79392358Y-85737835D01*
X79367360Y-85612168D01*
X79367359Y-85612167D01*
X79367359Y-85612163D01*
X79318323Y-85493780D01*
X79318322Y-85493779D01*
X79318319Y-85493773D01*
X79247134Y-85387238D01*
X79247131Y-85387234D01*
X79156530Y-85296633D01*
X79156526Y-85296630D01*
X79049991Y-85225445D01*
X79049982Y-85225440D01*
X78931602Y-85176406D01*
X78931596Y-85176404D01*
X78805929Y-85151407D01*
X78805927Y-85151407D01*
X78677789Y-85151407D01*
X78677787Y-85151407D01*
X78552119Y-85176404D01*
X78552113Y-85176406D01*
X78433733Y-85225440D01*
X78433724Y-85225445D01*
X78327189Y-85296630D01*
X78327185Y-85296633D01*
X78308731Y-85315088D01*
X78247408Y-85348573D01*
X78221050Y-85351407D01*
X77683361Y-85351407D01*
X77616322Y-85331722D01*
X77614470Y-85330509D01*
X77533133Y-85276161D01*
X77533124Y-85276156D01*
X77414744Y-85227122D01*
X77414738Y-85227120D01*
X77289071Y-85202123D01*
X77289069Y-85202123D01*
X77160931Y-85202123D01*
X77160929Y-85202123D01*
X77035261Y-85227120D01*
X77035255Y-85227122D01*
X76916875Y-85276156D01*
X76916866Y-85276161D01*
X76810331Y-85347346D01*
X76810327Y-85347349D01*
X76719726Y-85437950D01*
X76719723Y-85437954D01*
X76648538Y-85544489D01*
X76648533Y-85544498D01*
X76599499Y-85662878D01*
X76599497Y-85662884D01*
X76574500Y-85788551D01*
X76574500Y-85788554D01*
X76574500Y-85916692D01*
X76574500Y-85916694D01*
X76574499Y-85916694D01*
X48650499Y-85916694D01*
X48650499Y-85855136D01*
X48647585Y-85830009D01*
X48602206Y-85727235D01*
X48522765Y-85647794D01*
X48442080Y-85612168D01*
X48419992Y-85602415D01*
X48394868Y-85599500D01*
X47657128Y-85599500D01*
X47590089Y-85579815D01*
X47544334Y-85527011D01*
X47534390Y-85457853D01*
X47563415Y-85394297D01*
X47622193Y-85356523D01*
X47637730Y-85353027D01*
X47673578Y-85347349D01*
X47769409Y-85332171D01*
X47941639Y-85276211D01*
X48102994Y-85193996D01*
X48249501Y-85087553D01*
X48377553Y-84959501D01*
X48483996Y-84812994D01*
X48534400Y-84714071D01*
X87724499Y-84714071D01*
X87749497Y-84839738D01*
X87749499Y-84839744D01*
X87798533Y-84958124D01*
X87798538Y-84958133D01*
X87869723Y-85064668D01*
X87869726Y-85064672D01*
X87960327Y-85155273D01*
X87960331Y-85155276D01*
X88066866Y-85226461D01*
X88066872Y-85226464D01*
X88066873Y-85226465D01*
X88185256Y-85275501D01*
X88185260Y-85275501D01*
X88185261Y-85275502D01*
X88310928Y-85300500D01*
X88310931Y-85300500D01*
X88439071Y-85300500D01*
X88523615Y-85283682D01*
X88564744Y-85275501D01*
X88683127Y-85226465D01*
X88789669Y-85155276D01*
X88793538Y-85151407D01*
X88808127Y-85136819D01*
X88869450Y-85103334D01*
X88895808Y-85100500D01*
X90256192Y-85100500D01*
X90323231Y-85120185D01*
X90343873Y-85136819D01*
X90362327Y-85155273D01*
X90362331Y-85155276D01*
X90468866Y-85226461D01*
X90468872Y-85226464D01*
X90468873Y-85226465D01*
X90587256Y-85275501D01*
X90587260Y-85275501D01*
X90587261Y-85275502D01*
X90712928Y-85300500D01*
X90712931Y-85300500D01*
X90841071Y-85300500D01*
X90925615Y-85283682D01*
X90966744Y-85275501D01*
X91085127Y-85226465D01*
X91191669Y-85155276D01*
X91282276Y-85064669D01*
X91353465Y-84958127D01*
X91402501Y-84839744D01*
X91427500Y-84714069D01*
X91427500Y-84585931D01*
X91427500Y-84585928D01*
X91402502Y-84460261D01*
X91402501Y-84460260D01*
X91402501Y-84460256D01*
X91353465Y-84341873D01*
X91353464Y-84341872D01*
X91353461Y-84341866D01*
X91282276Y-84235331D01*
X91282273Y-84235327D01*
X91191672Y-84144726D01*
X91191668Y-84144723D01*
X91153842Y-84119448D01*
X96374500Y-84119448D01*
X96374500Y-84300551D01*
X96402829Y-84479410D01*
X96458787Y-84651636D01*
X96458788Y-84651639D01*
X96541006Y-84812997D01*
X96647441Y-84959494D01*
X96647445Y-84959499D01*
X96775500Y-85087554D01*
X96775505Y-85087558D01*
X96820413Y-85120185D01*
X96922006Y-85193996D01*
X97027484Y-85247740D01*
X97083360Y-85276211D01*
X97083363Y-85276212D01*
X97146205Y-85296630D01*
X97255591Y-85332171D01*
X97351403Y-85347346D01*
X97387270Y-85353027D01*
X97450405Y-85382956D01*
X97487336Y-85442268D01*
X97486338Y-85512130D01*
X97447728Y-85570363D01*
X97383765Y-85598477D01*
X97367872Y-85599500D01*
X96630143Y-85599500D01*
X96630117Y-85599502D01*
X96605012Y-85602413D01*
X96605008Y-85602415D01*
X96502235Y-85647793D01*
X96422794Y-85727234D01*
X96377415Y-85830006D01*
X96377415Y-85830008D01*
X96374500Y-85855131D01*
X96374500Y-87644856D01*
X96374502Y-87644882D01*
X96377413Y-87669987D01*
X96377415Y-87669991D01*
X96422793Y-87772764D01*
X96422794Y-87772765D01*
X96502235Y-87852206D01*
X96605009Y-87897585D01*
X96630135Y-87900500D01*
X98419864Y-87900499D01*
X98419879Y-87900497D01*
X98419882Y-87900497D01*
X98444987Y-87897586D01*
X98444988Y-87897585D01*
X98444991Y-87897585D01*
X98547765Y-87852206D01*
X98627206Y-87772765D01*
X98672585Y-87669991D01*
X98675500Y-87644865D01*
X98675499Y-85855136D01*
X98672586Y-85830014D01*
X98672586Y-85830012D01*
X98672585Y-85830010D01*
X98672585Y-85830009D01*
X98627206Y-85727235D01*
X98547765Y-85647794D01*
X98467080Y-85612168D01*
X98444992Y-85602415D01*
X98419868Y-85599500D01*
X97682128Y-85599500D01*
X97615089Y-85579815D01*
X97569334Y-85527011D01*
X97559390Y-85457853D01*
X97588415Y-85394297D01*
X97647193Y-85356523D01*
X97662730Y-85353027D01*
X97698578Y-85347349D01*
X97794409Y-85332171D01*
X97966639Y-85276211D01*
X98127994Y-85193996D01*
X98274501Y-85087553D01*
X98402553Y-84959501D01*
X98508996Y-84812994D01*
X98591211Y-84651639D01*
X98647171Y-84479409D01*
X98661765Y-84387259D01*
X98675500Y-84300551D01*
X98675500Y-84119448D01*
X98656501Y-83999500D01*
X98647171Y-83940591D01*
X98591211Y-83768361D01*
X98591211Y-83768360D01*
X98562740Y-83712484D01*
X98508996Y-83607006D01*
X98495396Y-83588287D01*
X98402558Y-83460505D01*
X98402554Y-83460500D01*
X98274499Y-83332445D01*
X98274494Y-83332441D01*
X98127997Y-83226006D01*
X98127996Y-83226005D01*
X98127994Y-83226004D01*
X98076300Y-83199664D01*
X97966639Y-83143788D01*
X97966636Y-83143787D01*
X97794410Y-83087829D01*
X97615551Y-83059500D01*
X97615546Y-83059500D01*
X97434454Y-83059500D01*
X97434449Y-83059500D01*
X97255589Y-83087829D01*
X97083363Y-83143787D01*
X97083360Y-83143788D01*
X96922002Y-83226006D01*
X96775505Y-83332441D01*
X96775500Y-83332445D01*
X96647445Y-83460500D01*
X96647441Y-83460505D01*
X96541006Y-83607002D01*
X96458788Y-83768360D01*
X96458787Y-83768363D01*
X96402829Y-83940589D01*
X96374500Y-84119448D01*
X91153842Y-84119448D01*
X91085133Y-84073538D01*
X91085124Y-84073533D01*
X90966744Y-84024499D01*
X90966738Y-84024497D01*
X90841071Y-83999500D01*
X90841069Y-83999500D01*
X90712931Y-83999500D01*
X90712929Y-83999500D01*
X90587261Y-84024497D01*
X90587255Y-84024499D01*
X90468875Y-84073533D01*
X90468866Y-84073538D01*
X90362331Y-84144723D01*
X90362327Y-84144726D01*
X90343873Y-84163181D01*
X90282550Y-84196666D01*
X90256192Y-84199500D01*
X88895808Y-84199500D01*
X88828769Y-84179815D01*
X88808127Y-84163181D01*
X88789672Y-84144726D01*
X88789668Y-84144723D01*
X88683133Y-84073538D01*
X88683124Y-84073533D01*
X88564744Y-84024499D01*
X88564738Y-84024497D01*
X88439071Y-83999500D01*
X88439069Y-83999500D01*
X88310931Y-83999500D01*
X88310929Y-83999500D01*
X88185261Y-84024497D01*
X88185255Y-84024499D01*
X88066875Y-84073533D01*
X88066866Y-84073538D01*
X87960331Y-84144723D01*
X87960327Y-84144726D01*
X87869726Y-84235327D01*
X87869723Y-84235331D01*
X87798538Y-84341866D01*
X87798533Y-84341875D01*
X87749499Y-84460255D01*
X87749497Y-84460261D01*
X87724500Y-84585928D01*
X87724500Y-84585931D01*
X87724500Y-84714069D01*
X87724500Y-84714071D01*
X87724499Y-84714071D01*
X48534400Y-84714071D01*
X48566211Y-84651639D01*
X48566213Y-84651633D01*
X48601990Y-84541522D01*
X48601990Y-84541521D01*
X48622171Y-84479410D01*
X48650500Y-84300551D01*
X48650500Y-84119448D01*
X48631501Y-83999500D01*
X48622171Y-83940591D01*
X48566211Y-83768361D01*
X48566211Y-83768360D01*
X48537740Y-83712484D01*
X48483996Y-83607006D01*
X48470396Y-83588287D01*
X48377558Y-83460505D01*
X48377554Y-83460500D01*
X48249499Y-83332445D01*
X48249494Y-83332441D01*
X48102997Y-83226006D01*
X48102996Y-83226005D01*
X48102994Y-83226004D01*
X48051300Y-83199664D01*
X47941639Y-83143788D01*
X47941636Y-83143787D01*
X47769410Y-83087829D01*
X47590551Y-83059500D01*
X47590546Y-83059500D01*
X47409454Y-83059500D01*
X47409449Y-83059500D01*
X47230589Y-83087829D01*
X47058363Y-83143787D01*
X47058360Y-83143788D01*
X46897002Y-83226006D01*
X46750505Y-83332441D01*
X46750500Y-83332445D01*
X46622445Y-83460500D01*
X46622441Y-83460505D01*
X46516006Y-83607002D01*
X46433788Y-83768360D01*
X46433787Y-83768363D01*
X46377829Y-83940589D01*
X46349500Y-84119448D01*
X34800500Y-84119448D01*
X34800500Y-78312155D01*
X86650000Y-78312155D01*
X86650000Y-78960000D01*
X87566988Y-78960000D01*
X87534075Y-79017007D01*
X87500000Y-79144174D01*
X87500000Y-79275826D01*
X87534075Y-79402993D01*
X87566988Y-79460000D01*
X86650000Y-79460000D01*
X86650000Y-80107844D01*
X86656401Y-80167372D01*
X86656403Y-80167379D01*
X86706645Y-80302086D01*
X86706649Y-80302093D01*
X86792809Y-80417187D01*
X86792812Y-80417190D01*
X86907906Y-80503350D01*
X86907913Y-80503354D01*
X87042620Y-80553596D01*
X87042627Y-80553598D01*
X87102155Y-80559999D01*
X87102172Y-80560000D01*
X87750000Y-80560000D01*
X87750000Y-79643012D01*
X87807007Y-79675925D01*
X87934174Y-79710000D01*
X88065826Y-79710000D01*
X88192993Y-79675925D01*
X88250000Y-79643012D01*
X88250000Y-80560000D01*
X88897828Y-80560000D01*
X88897844Y-80559999D01*
X88957372Y-80553598D01*
X88957379Y-80553596D01*
X89092086Y-80503354D01*
X89092093Y-80503350D01*
X89207187Y-80417190D01*
X89207190Y-80417187D01*
X89293350Y-80302093D01*
X89293354Y-80302086D01*
X89343596Y-80167379D01*
X89343598Y-80167372D01*
X89349999Y-80107844D01*
X89350000Y-80107827D01*
X89350000Y-79614071D01*
X94074499Y-79614071D01*
X94099497Y-79739738D01*
X94099499Y-79739744D01*
X94148533Y-79858124D01*
X94148534Y-79858126D01*
X94148535Y-79858127D01*
X94153600Y-79865708D01*
X94174480Y-79932383D01*
X94174500Y-79934600D01*
X94174500Y-80614877D01*
X94165061Y-80662329D01*
X94124500Y-80760251D01*
X94124497Y-80760261D01*
X94099500Y-80885928D01*
X94099500Y-80885931D01*
X94099500Y-81014069D01*
X94099500Y-81014071D01*
X94099499Y-81014071D01*
X94124497Y-81139738D01*
X94124499Y-81139744D01*
X94173533Y-81258124D01*
X94173538Y-81258133D01*
X94244723Y-81364668D01*
X94244726Y-81364672D01*
X94335327Y-81455273D01*
X94335331Y-81455276D01*
X94441866Y-81526461D01*
X94441872Y-81526464D01*
X94441873Y-81526465D01*
X94560256Y-81575501D01*
X94560260Y-81575501D01*
X94560261Y-81575502D01*
X94685928Y-81600500D01*
X94685931Y-81600500D01*
X94814071Y-81600500D01*
X94898615Y-81583682D01*
X94939744Y-81575501D01*
X95058127Y-81526465D01*
X95164669Y-81455276D01*
X95255276Y-81364669D01*
X95326465Y-81258127D01*
X95375501Y-81139744D01*
X95400500Y-81014069D01*
X95400500Y-80885931D01*
X95400500Y-80885928D01*
X95375502Y-80760261D01*
X95375501Y-80760260D01*
X95375501Y-80760256D01*
X95326465Y-80641873D01*
X95296396Y-80596872D01*
X95275520Y-80530196D01*
X95275500Y-80527983D01*
X95275500Y-80147648D01*
X95949500Y-80147648D01*
X95949500Y-80352351D01*
X95981522Y-80554534D01*
X96044781Y-80749223D01*
X96137715Y-80931613D01*
X96258028Y-81097213D01*
X96402786Y-81241971D01*
X96517184Y-81325084D01*
X96568390Y-81362287D01*
X96684607Y-81421503D01*
X96750776Y-81455218D01*
X96750778Y-81455218D01*
X96750781Y-81455220D01*
X96804450Y-81472658D01*
X96945465Y-81518477D01*
X97036616Y-81532914D01*
X97147648Y-81550500D01*
X97147649Y-81550500D01*
X97352351Y-81550500D01*
X97352352Y-81550500D01*
X97554534Y-81518477D01*
X97749219Y-81455220D01*
X97931610Y-81362287D01*
X98097219Y-81241966D01*
X98241966Y-81097219D01*
X98241968Y-81097215D01*
X98241971Y-81097213D01*
X98302376Y-81014071D01*
X98362287Y-80931610D01*
X98455220Y-80749219D01*
X98518477Y-80554534D01*
X98550500Y-80352352D01*
X98550500Y-80147648D01*
X98548013Y-80131947D01*
X100250000Y-80131947D01*
X100250000Y-80368052D01*
X100286934Y-80601247D01*
X100359897Y-80825802D01*
X100467087Y-81036174D01*
X100527338Y-81119104D01*
X100527340Y-81119105D01*
X101226212Y-80420233D01*
X101237482Y-80462292D01*
X101309890Y-80587708D01*
X101412292Y-80690110D01*
X101537708Y-80762518D01*
X101579765Y-80773787D01*
X100880893Y-81472658D01*
X100963828Y-81532914D01*
X101174197Y-81640102D01*
X101398752Y-81713065D01*
X101398751Y-81713065D01*
X101631948Y-81750000D01*
X101868052Y-81750000D01*
X102101247Y-81713065D01*
X102325802Y-81640102D01*
X102536163Y-81532918D01*
X102536169Y-81532914D01*
X102619104Y-81472658D01*
X102619105Y-81472658D01*
X101920233Y-80773787D01*
X101962292Y-80762518D01*
X102087708Y-80690110D01*
X102190110Y-80587708D01*
X102262518Y-80462292D01*
X102273787Y-80420234D01*
X102972658Y-81119105D01*
X102972658Y-81119104D01*
X103032914Y-81036169D01*
X103032918Y-81036163D01*
X103140102Y-80825802D01*
X103213065Y-80601247D01*
X103250000Y-80368052D01*
X103250000Y-80131947D01*
X103213065Y-79898752D01*
X103140102Y-79674197D01*
X103032914Y-79463828D01*
X102972658Y-79380894D01*
X102972658Y-79380893D01*
X102273787Y-80079765D01*
X102262518Y-80037708D01*
X102190110Y-79912292D01*
X102087708Y-79809890D01*
X101962292Y-79737482D01*
X101920234Y-79726212D01*
X102619105Y-79027340D01*
X102619104Y-79027338D01*
X102536174Y-78967087D01*
X102325802Y-78859897D01*
X102101247Y-78786934D01*
X102101248Y-78786934D01*
X101868052Y-78750000D01*
X101631948Y-78750000D01*
X101398752Y-78786934D01*
X101174197Y-78859897D01*
X100963830Y-78967084D01*
X100880894Y-79027340D01*
X101579766Y-79726212D01*
X101537708Y-79737482D01*
X101412292Y-79809890D01*
X101309890Y-79912292D01*
X101237482Y-80037708D01*
X101226212Y-80079766D01*
X100527340Y-79380894D01*
X100467084Y-79463830D01*
X100359897Y-79674197D01*
X100286934Y-79898752D01*
X100250000Y-80131947D01*
X98548013Y-80131947D01*
X98518477Y-79945466D01*
X98514946Y-79934600D01*
X98455218Y-79750776D01*
X98416198Y-79674197D01*
X98362287Y-79568390D01*
X98354556Y-79557749D01*
X98241971Y-79402786D01*
X98097219Y-79258034D01*
X98074965Y-79241866D01*
X97982817Y-79174917D01*
X97982816Y-79174915D01*
X97931613Y-79137715D01*
X97931612Y-79137714D01*
X97931610Y-79137713D01*
X97874653Y-79108691D01*
X97749223Y-79044781D01*
X97554534Y-78981522D01*
X97379995Y-78953878D01*
X97352352Y-78949500D01*
X97147648Y-78949500D01*
X97123329Y-78953351D01*
X96945465Y-78981522D01*
X96750776Y-79044781D01*
X96568386Y-79137715D01*
X96402786Y-79258028D01*
X96258028Y-79402786D01*
X96137715Y-79568386D01*
X96044781Y-79750776D01*
X95981522Y-79945465D01*
X95949500Y-80147648D01*
X95275500Y-80147648D01*
X95275500Y-79934600D01*
X95295185Y-79867561D01*
X95296359Y-79865768D01*
X95301465Y-79858127D01*
X95350501Y-79739744D01*
X95363196Y-79675925D01*
X95375500Y-79614071D01*
X95375500Y-79485928D01*
X95350502Y-79360261D01*
X95350501Y-79360260D01*
X95350501Y-79360256D01*
X95301465Y-79241873D01*
X95301464Y-79241872D01*
X95301461Y-79241866D01*
X95230276Y-79135331D01*
X95230273Y-79135327D01*
X95139672Y-79044726D01*
X95139668Y-79044723D01*
X95033133Y-78973538D01*
X95033124Y-78973533D01*
X94914744Y-78924499D01*
X94914738Y-78924497D01*
X94789071Y-78899500D01*
X94789069Y-78899500D01*
X94660931Y-78899500D01*
X94660929Y-78899500D01*
X94535261Y-78924497D01*
X94535255Y-78924499D01*
X94416875Y-78973533D01*
X94416866Y-78973538D01*
X94310331Y-79044723D01*
X94310327Y-79044726D01*
X94219726Y-79135327D01*
X94219723Y-79135331D01*
X94148538Y-79241866D01*
X94148533Y-79241875D01*
X94099499Y-79360255D01*
X94099497Y-79360261D01*
X94074500Y-79485928D01*
X94074500Y-79485931D01*
X94074500Y-79614069D01*
X94074500Y-79614071D01*
X94074499Y-79614071D01*
X89350000Y-79614071D01*
X89350000Y-79460000D01*
X88433012Y-79460000D01*
X88465925Y-79402993D01*
X88500000Y-79275826D01*
X88500000Y-79144174D01*
X88465925Y-79017007D01*
X88433012Y-78960000D01*
X89350000Y-78960000D01*
X89350000Y-78312172D01*
X89349999Y-78312155D01*
X89343598Y-78252627D01*
X89343596Y-78252620D01*
X89293354Y-78117913D01*
X89293350Y-78117906D01*
X89207190Y-78002812D01*
X89207187Y-78002809D01*
X89092093Y-77916649D01*
X89092086Y-77916645D01*
X88957379Y-77866403D01*
X88957372Y-77866401D01*
X88897844Y-77860000D01*
X88701087Y-77860000D01*
X88634048Y-77840315D01*
X88588293Y-77787511D01*
X88578349Y-77718353D01*
X88607374Y-77654797D01*
X88628202Y-77635682D01*
X88749495Y-77547558D01*
X88749497Y-77547555D01*
X88749501Y-77547553D01*
X88877553Y-77419501D01*
X88983996Y-77272994D01*
X89066211Y-77111639D01*
X89122171Y-76939409D01*
X89136765Y-76847259D01*
X89150500Y-76760551D01*
X89150500Y-76579448D01*
X89126037Y-76425000D01*
X89122171Y-76400591D01*
X89081333Y-76274901D01*
X89066212Y-76228363D01*
X89066211Y-76228360D01*
X89037740Y-76172484D01*
X88983996Y-76067006D01*
X88916360Y-75973912D01*
X88877558Y-75920505D01*
X88877554Y-75920500D01*
X88749499Y-75792445D01*
X88749494Y-75792441D01*
X88602997Y-75686006D01*
X88602996Y-75686005D01*
X88602994Y-75686004D01*
X88551300Y-75659664D01*
X88441639Y-75603788D01*
X88441636Y-75603787D01*
X88269410Y-75547829D01*
X88090551Y-75519500D01*
X88090546Y-75519500D01*
X87909454Y-75519500D01*
X87909449Y-75519500D01*
X87730589Y-75547829D01*
X87558363Y-75603787D01*
X87558360Y-75603788D01*
X87397002Y-75686006D01*
X87250505Y-75792441D01*
X87250500Y-75792445D01*
X87122445Y-75920500D01*
X87122441Y-75920505D01*
X87016006Y-76067002D01*
X86933788Y-76228360D01*
X86933787Y-76228363D01*
X86877829Y-76400589D01*
X86849500Y-76579448D01*
X86849500Y-76760551D01*
X86877829Y-76939410D01*
X86933787Y-77111636D01*
X86933788Y-77111639D01*
X86966073Y-77175000D01*
X87005994Y-77253349D01*
X87016006Y-77272997D01*
X87122441Y-77419494D01*
X87122445Y-77419499D01*
X87250504Y-77547558D01*
X87371798Y-77635682D01*
X87414464Y-77691011D01*
X87420443Y-77760625D01*
X87387838Y-77822420D01*
X87326999Y-77856777D01*
X87298913Y-77860000D01*
X87102155Y-77860000D01*
X87042627Y-77866401D01*
X87042620Y-77866403D01*
X86907913Y-77916645D01*
X86907906Y-77916649D01*
X86792812Y-78002809D01*
X86792809Y-78002812D01*
X86706649Y-78117906D01*
X86706645Y-78117913D01*
X86656403Y-78252620D01*
X86656401Y-78252627D01*
X86650000Y-78312155D01*
X34800500Y-78312155D01*
X34800500Y-59329753D01*
X46148000Y-59329753D01*
X46148000Y-59542246D01*
X46181242Y-59752127D01*
X46181242Y-59752130D01*
X46246904Y-59954217D01*
X46343375Y-60143550D01*
X46382728Y-60197716D01*
X47015037Y-59565408D01*
X47032075Y-59628993D01*
X47097901Y-59743007D01*
X47190993Y-59836099D01*
X47305007Y-59901925D01*
X47368590Y-59918962D01*
X46736282Y-60551269D01*
X46736282Y-60551270D01*
X46790449Y-60590624D01*
X46979780Y-60687094D01*
X47008705Y-60696492D01*
X47066381Y-60735929D01*
X47093580Y-60800287D01*
X47081667Y-60869134D01*
X47034424Y-60920610D01*
X47026685Y-60924908D01*
X46895004Y-60992004D01*
X46748505Y-61098441D01*
X46748500Y-61098445D01*
X46620445Y-61226500D01*
X46620441Y-61226505D01*
X46514006Y-61373002D01*
X46431788Y-61534360D01*
X46431787Y-61534363D01*
X46375829Y-61706589D01*
X46347500Y-61885448D01*
X46347500Y-62066551D01*
X46375829Y-62245410D01*
X46431787Y-62417636D01*
X46431788Y-62417639D01*
X46487664Y-62527300D01*
X46490633Y-62533127D01*
X46514006Y-62578997D01*
X46620441Y-62725494D01*
X46620445Y-62725499D01*
X46748500Y-62853554D01*
X46748505Y-62853558D01*
X46778709Y-62875502D01*
X46895006Y-62959996D01*
X47000484Y-63013740D01*
X47056360Y-63042211D01*
X47056363Y-63042212D01*
X47142476Y-63070191D01*
X47228591Y-63098171D01*
X47301639Y-63109740D01*
X47388678Y-63123527D01*
X47451813Y-63153456D01*
X47488744Y-63212768D01*
X47487746Y-63282631D01*
X47449136Y-63340863D01*
X47388678Y-63368473D01*
X47228589Y-63393829D01*
X47056363Y-63449787D01*
X47056360Y-63449788D01*
X46895002Y-63532006D01*
X46748505Y-63638441D01*
X46748500Y-63638445D01*
X46620445Y-63766500D01*
X46620441Y-63766505D01*
X46514006Y-63913002D01*
X46431788Y-64074360D01*
X46431787Y-64074363D01*
X46375829Y-64246589D01*
X46347500Y-64425448D01*
X46347500Y-64606551D01*
X46375829Y-64785410D01*
X46431787Y-64957636D01*
X46431788Y-64957639D01*
X46514006Y-65118997D01*
X46620441Y-65265494D01*
X46620445Y-65265499D01*
X46748500Y-65393554D01*
X46748505Y-65393558D01*
X46853340Y-65469724D01*
X46895006Y-65499996D01*
X47000484Y-65553740D01*
X47056360Y-65582211D01*
X47056363Y-65582212D01*
X47142476Y-65610191D01*
X47228591Y-65638171D01*
X47301639Y-65649740D01*
X47388678Y-65663527D01*
X47451813Y-65693456D01*
X47488744Y-65752768D01*
X47487746Y-65822631D01*
X47449136Y-65880863D01*
X47388678Y-65908473D01*
X47228589Y-65933829D01*
X47056363Y-65989787D01*
X47056360Y-65989788D01*
X46895002Y-66072006D01*
X46748505Y-66178441D01*
X46748500Y-66178445D01*
X46620445Y-66306500D01*
X46620441Y-66306505D01*
X46514006Y-66453002D01*
X46431788Y-66614360D01*
X46431787Y-66614363D01*
X46375829Y-66786589D01*
X46347500Y-66965448D01*
X46347500Y-67146551D01*
X46375829Y-67325410D01*
X46431787Y-67497636D01*
X46431788Y-67497639D01*
X46487664Y-67607300D01*
X46505280Y-67641873D01*
X46514006Y-67658997D01*
X46620441Y-67805494D01*
X46620445Y-67805499D01*
X46748500Y-67933554D01*
X46748505Y-67933558D01*
X46859320Y-68014069D01*
X46895006Y-68039996D01*
X46971094Y-68078765D01*
X47056360Y-68122211D01*
X47056363Y-68122212D01*
X47110304Y-68139738D01*
X47228591Y-68178171D01*
X47296161Y-68188873D01*
X47388678Y-68203527D01*
X47451813Y-68233456D01*
X47488744Y-68292768D01*
X47487746Y-68362631D01*
X47449136Y-68420863D01*
X47388678Y-68448473D01*
X47228589Y-68473829D01*
X47056363Y-68529787D01*
X47056360Y-68529788D01*
X46895002Y-68612006D01*
X46748505Y-68718441D01*
X46748500Y-68718445D01*
X46620445Y-68846500D01*
X46620441Y-68846505D01*
X46514006Y-68993002D01*
X46431788Y-69154360D01*
X46431787Y-69154363D01*
X46375829Y-69326589D01*
X46347500Y-69505448D01*
X46347500Y-69686551D01*
X46375829Y-69865410D01*
X46431787Y-70037636D01*
X46431788Y-70037639D01*
X46514006Y-70198997D01*
X46620441Y-70345494D01*
X46620445Y-70345499D01*
X46748500Y-70473554D01*
X46748505Y-70473558D01*
X46876287Y-70566396D01*
X46895006Y-70579996D01*
X47000484Y-70633740D01*
X47056360Y-70662211D01*
X47056363Y-70662212D01*
X47142476Y-70690191D01*
X47228591Y-70718171D01*
X47301639Y-70729740D01*
X47388678Y-70743527D01*
X47451813Y-70773456D01*
X47488744Y-70832768D01*
X47487746Y-70902631D01*
X47449136Y-70960863D01*
X47388678Y-70988473D01*
X47228589Y-71013829D01*
X47056363Y-71069787D01*
X47056360Y-71069788D01*
X46895002Y-71152006D01*
X46748505Y-71258441D01*
X46748500Y-71258445D01*
X46620445Y-71386500D01*
X46620441Y-71386505D01*
X46514006Y-71533002D01*
X46431788Y-71694360D01*
X46431787Y-71694363D01*
X46375829Y-71866589D01*
X46347500Y-72045448D01*
X46347500Y-72226551D01*
X46375829Y-72405410D01*
X46431787Y-72577636D01*
X46431788Y-72577639D01*
X46514006Y-72738997D01*
X46620441Y-72885494D01*
X46620445Y-72885499D01*
X46748500Y-73013554D01*
X46748505Y-73013558D01*
X46823976Y-73068390D01*
X46895006Y-73119996D01*
X47000484Y-73173740D01*
X47056360Y-73202211D01*
X47056363Y-73202212D01*
X47142476Y-73230191D01*
X47228591Y-73258171D01*
X47332716Y-73274662D01*
X47360270Y-73279027D01*
X47423405Y-73308956D01*
X47460336Y-73368268D01*
X47459338Y-73438130D01*
X47420728Y-73496363D01*
X47356765Y-73524477D01*
X47340872Y-73525500D01*
X46603143Y-73525500D01*
X46603117Y-73525502D01*
X46578012Y-73528413D01*
X46578008Y-73528415D01*
X46475235Y-73573793D01*
X46395794Y-73653234D01*
X46350415Y-73756006D01*
X46350415Y-73756008D01*
X46347500Y-73781131D01*
X46347500Y-75570856D01*
X46347502Y-75570882D01*
X46350413Y-75595987D01*
X46350415Y-75595991D01*
X46395793Y-75698764D01*
X46395794Y-75698765D01*
X46475235Y-75778206D01*
X46578009Y-75823585D01*
X46603135Y-75826500D01*
X48392864Y-75826499D01*
X48392879Y-75826497D01*
X48392882Y-75826497D01*
X48417987Y-75823586D01*
X48417988Y-75823585D01*
X48417991Y-75823585D01*
X48520765Y-75778206D01*
X48521816Y-75777155D01*
X75205000Y-75777155D01*
X75205000Y-76425000D01*
X76121988Y-76425000D01*
X76089075Y-76482007D01*
X76055000Y-76609174D01*
X76055000Y-76740826D01*
X76089075Y-76867993D01*
X76121988Y-76925000D01*
X75205000Y-76925000D01*
X75205000Y-77572844D01*
X75211401Y-77632372D01*
X75211403Y-77632379D01*
X75261645Y-77767086D01*
X75261649Y-77767093D01*
X75347809Y-77882187D01*
X75347812Y-77882190D01*
X75462906Y-77968350D01*
X75462913Y-77968354D01*
X75597620Y-78018596D01*
X75597627Y-78018598D01*
X75657155Y-78024999D01*
X75657172Y-78025000D01*
X76305000Y-78025000D01*
X76305000Y-77108012D01*
X76362007Y-77140925D01*
X76489174Y-77175000D01*
X76620826Y-77175000D01*
X76747993Y-77140925D01*
X76805000Y-77108012D01*
X76805000Y-78025000D01*
X77452828Y-78025000D01*
X77452844Y-78024999D01*
X77512372Y-78018598D01*
X77512379Y-78018596D01*
X77647086Y-77968354D01*
X77647093Y-77968350D01*
X77762187Y-77882190D01*
X77762190Y-77882187D01*
X77848350Y-77767093D01*
X77848354Y-77767086D01*
X77898596Y-77632379D01*
X77898598Y-77632372D01*
X77904999Y-77572844D01*
X77905000Y-77572827D01*
X77905000Y-77376087D01*
X77924685Y-77309048D01*
X77977489Y-77263293D01*
X78046647Y-77253349D01*
X78110203Y-77282374D01*
X78129318Y-77303202D01*
X78217441Y-77424495D01*
X78345500Y-77552554D01*
X78345505Y-77552558D01*
X78373427Y-77572844D01*
X78492006Y-77658996D01*
X78554839Y-77691011D01*
X78653360Y-77741211D01*
X78653363Y-77741212D01*
X78713112Y-77760625D01*
X78825591Y-77797171D01*
X78908429Y-77810291D01*
X79004449Y-77825500D01*
X79004454Y-77825500D01*
X79185551Y-77825500D01*
X79272259Y-77811765D01*
X79364409Y-77797171D01*
X79536639Y-77741211D01*
X79697994Y-77658996D01*
X79844501Y-77552553D01*
X79972553Y-77424501D01*
X80078996Y-77277994D01*
X80161211Y-77116639D01*
X80217171Y-76944409D01*
X80231422Y-76854425D01*
X80242527Y-76784321D01*
X80272456Y-76721186D01*
X80331768Y-76684255D01*
X80401630Y-76685253D01*
X80459863Y-76723863D01*
X80487473Y-76784321D01*
X80512829Y-76944410D01*
X80568787Y-77116636D01*
X80568788Y-77116639D01*
X80624664Y-77226300D01*
X80648456Y-77272994D01*
X80651006Y-77277997D01*
X80757441Y-77424494D01*
X80757445Y-77424499D01*
X80885500Y-77552554D01*
X80885505Y-77552558D01*
X80913427Y-77572844D01*
X81032006Y-77658996D01*
X81094839Y-77691011D01*
X81193360Y-77741211D01*
X81193363Y-77741212D01*
X81253112Y-77760625D01*
X81365591Y-77797171D01*
X81448429Y-77810291D01*
X81544449Y-77825500D01*
X81544454Y-77825500D01*
X81725551Y-77825500D01*
X81812259Y-77811765D01*
X81904409Y-77797171D01*
X82076639Y-77741211D01*
X82237994Y-77658996D01*
X82384501Y-77552553D01*
X82512553Y-77424501D01*
X82618996Y-77277994D01*
X82701211Y-77116639D01*
X82757171Y-76944409D01*
X82771422Y-76854425D01*
X82782527Y-76784321D01*
X82812456Y-76721186D01*
X82871768Y-76684255D01*
X82941630Y-76685253D01*
X82999863Y-76723863D01*
X83027473Y-76784321D01*
X83052829Y-76944410D01*
X83108787Y-77116636D01*
X83108788Y-77116639D01*
X83164664Y-77226300D01*
X83188456Y-77272994D01*
X83191006Y-77277997D01*
X83297441Y-77424494D01*
X83297445Y-77424499D01*
X83425500Y-77552554D01*
X83425505Y-77552558D01*
X83453427Y-77572844D01*
X83572006Y-77658996D01*
X83634839Y-77691011D01*
X83733360Y-77741211D01*
X83733363Y-77741212D01*
X83793112Y-77760625D01*
X83905591Y-77797171D01*
X83988429Y-77810291D01*
X84084449Y-77825500D01*
X84084454Y-77825500D01*
X84265551Y-77825500D01*
X84352259Y-77811765D01*
X84444409Y-77797171D01*
X84616639Y-77741211D01*
X84777994Y-77658996D01*
X84924501Y-77552553D01*
X85052553Y-77424501D01*
X85158996Y-77277994D01*
X85241211Y-77116639D01*
X85297171Y-76944409D01*
X85311765Y-76852259D01*
X85325500Y-76765551D01*
X85325500Y-76584448D01*
X85300245Y-76425000D01*
X85297171Y-76405591D01*
X85241211Y-76233361D01*
X85241211Y-76233360D01*
X85170937Y-76095442D01*
X85158996Y-76072006D01*
X85140681Y-76046797D01*
X85052558Y-75925505D01*
X85052554Y-75925500D01*
X84924499Y-75797445D01*
X84924494Y-75797441D01*
X84777997Y-75691006D01*
X84777996Y-75691005D01*
X84777994Y-75691004D01*
X84726300Y-75664664D01*
X84616639Y-75608788D01*
X84616636Y-75608787D01*
X84444410Y-75552829D01*
X84265551Y-75524500D01*
X84265546Y-75524500D01*
X84084454Y-75524500D01*
X84084449Y-75524500D01*
X83905589Y-75552829D01*
X83733363Y-75608787D01*
X83733360Y-75608788D01*
X83572002Y-75691006D01*
X83425505Y-75797441D01*
X83425500Y-75797445D01*
X83297445Y-75925500D01*
X83297441Y-75925505D01*
X83191006Y-76072002D01*
X83108788Y-76233360D01*
X83108787Y-76233363D01*
X83052829Y-76405589D01*
X83027473Y-76565678D01*
X82997544Y-76628813D01*
X82938232Y-76665744D01*
X82868369Y-76664746D01*
X82810137Y-76626136D01*
X82782527Y-76565678D01*
X82760245Y-76425000D01*
X82757171Y-76405591D01*
X82701211Y-76233361D01*
X82701211Y-76233360D01*
X82630937Y-76095442D01*
X82618996Y-76072006D01*
X82600681Y-76046797D01*
X82512558Y-75925505D01*
X82512554Y-75925500D01*
X82384499Y-75797445D01*
X82384494Y-75797441D01*
X82237997Y-75691006D01*
X82237996Y-75691005D01*
X82237994Y-75691004D01*
X82186300Y-75664664D01*
X82076639Y-75608788D01*
X82076636Y-75608787D01*
X81904410Y-75552829D01*
X81725551Y-75524500D01*
X81725546Y-75524500D01*
X81544454Y-75524500D01*
X81544449Y-75524500D01*
X81365589Y-75552829D01*
X81193363Y-75608787D01*
X81193360Y-75608788D01*
X81032002Y-75691006D01*
X80885505Y-75797441D01*
X80885500Y-75797445D01*
X80757445Y-75925500D01*
X80757441Y-75925505D01*
X80651006Y-76072002D01*
X80568788Y-76233360D01*
X80568787Y-76233363D01*
X80512829Y-76405589D01*
X80487473Y-76565678D01*
X80457544Y-76628813D01*
X80398232Y-76665744D01*
X80328369Y-76664746D01*
X80270137Y-76626136D01*
X80242527Y-76565678D01*
X80220245Y-76425000D01*
X80217171Y-76405591D01*
X80161211Y-76233361D01*
X80161211Y-76233360D01*
X80090937Y-76095442D01*
X80078996Y-76072006D01*
X80060681Y-76046797D01*
X79972558Y-75925505D01*
X79972554Y-75925500D01*
X79844499Y-75797445D01*
X79844494Y-75797441D01*
X79697997Y-75691006D01*
X79697996Y-75691005D01*
X79697994Y-75691004D01*
X79646300Y-75664664D01*
X79536639Y-75608788D01*
X79536636Y-75608787D01*
X79364410Y-75552829D01*
X79185551Y-75524500D01*
X79185546Y-75524500D01*
X79004454Y-75524500D01*
X79004449Y-75524500D01*
X78825589Y-75552829D01*
X78653363Y-75608787D01*
X78653360Y-75608788D01*
X78492002Y-75691006D01*
X78345505Y-75797441D01*
X78345500Y-75797445D01*
X78217445Y-75925500D01*
X78217441Y-75925505D01*
X78129318Y-76046797D01*
X78073988Y-76089463D01*
X78004375Y-76095442D01*
X77942580Y-76062836D01*
X77908223Y-76001998D01*
X77905000Y-75973912D01*
X77905000Y-75777172D01*
X77904999Y-75777155D01*
X77898598Y-75717627D01*
X77898596Y-75717620D01*
X77848354Y-75582913D01*
X77848350Y-75582906D01*
X77762190Y-75467812D01*
X77762187Y-75467809D01*
X77647093Y-75381649D01*
X77647086Y-75381645D01*
X77512379Y-75331403D01*
X77512372Y-75331401D01*
X77452844Y-75325000D01*
X76805000Y-75325000D01*
X76805000Y-76241988D01*
X76747993Y-76209075D01*
X76620826Y-76175000D01*
X76489174Y-76175000D01*
X76362007Y-76209075D01*
X76305000Y-76241988D01*
X76305000Y-75325000D01*
X75657155Y-75325000D01*
X75597627Y-75331401D01*
X75597620Y-75331403D01*
X75462913Y-75381645D01*
X75462906Y-75381649D01*
X75347812Y-75467809D01*
X75347809Y-75467812D01*
X75261649Y-75582906D01*
X75261645Y-75582913D01*
X75211403Y-75717620D01*
X75211401Y-75717627D01*
X75205000Y-75777155D01*
X48521816Y-75777155D01*
X48600206Y-75698765D01*
X48645585Y-75595991D01*
X48648500Y-75570865D01*
X48648499Y-74289071D01*
X83524499Y-74289071D01*
X83549497Y-74414738D01*
X83549499Y-74414744D01*
X83598533Y-74533124D01*
X83598538Y-74533133D01*
X83669723Y-74639668D01*
X83669726Y-74639672D01*
X83760327Y-74730273D01*
X83760331Y-74730276D01*
X83866866Y-74801461D01*
X83866872Y-74801464D01*
X83866873Y-74801465D01*
X83985256Y-74850501D01*
X83985260Y-74850501D01*
X83985261Y-74850502D01*
X84110928Y-74875500D01*
X84110931Y-74875500D01*
X84239071Y-74875500D01*
X84323615Y-74858682D01*
X84364744Y-74850501D01*
X84483127Y-74801465D01*
X84589669Y-74730276D01*
X84680276Y-74639669D01*
X84751465Y-74533127D01*
X84800501Y-74414744D01*
X84825500Y-74289069D01*
X84825500Y-74160931D01*
X84825500Y-74160928D01*
X84800502Y-74035261D01*
X84800501Y-74035260D01*
X84800501Y-74035256D01*
X84757017Y-73930276D01*
X84751465Y-73916872D01*
X84746396Y-73909286D01*
X84725520Y-73842608D01*
X84725500Y-73840398D01*
X84725500Y-73489071D01*
X86549499Y-73489071D01*
X86574497Y-73614738D01*
X86574499Y-73614744D01*
X86623533Y-73733124D01*
X86623538Y-73733133D01*
X86694723Y-73839668D01*
X86694726Y-73839672D01*
X86785327Y-73930273D01*
X86785331Y-73930276D01*
X86891866Y-74001461D01*
X86891872Y-74001464D01*
X86891873Y-74001465D01*
X87010256Y-74050501D01*
X87010260Y-74050501D01*
X87010261Y-74050502D01*
X87135928Y-74075500D01*
X87135931Y-74075500D01*
X87264071Y-74075500D01*
X87369469Y-74054534D01*
X87389744Y-74050501D01*
X87508127Y-74001465D01*
X87515712Y-73996396D01*
X87582389Y-73975520D01*
X87584601Y-73975500D01*
X88415399Y-73975500D01*
X88482438Y-73995185D01*
X88484252Y-73996373D01*
X88491873Y-74001465D01*
X88610256Y-74050501D01*
X88610260Y-74050501D01*
X88610261Y-74050502D01*
X88735928Y-74075500D01*
X88735931Y-74075500D01*
X88864071Y-74075500D01*
X88969469Y-74054534D01*
X88989744Y-74050501D01*
X89108127Y-74001465D01*
X89214669Y-73930276D01*
X89305276Y-73839669D01*
X89376465Y-73733127D01*
X89425501Y-73614744D01*
X89440825Y-73537708D01*
X89445527Y-73514071D01*
X90649499Y-73514071D01*
X90674497Y-73639738D01*
X90674499Y-73639744D01*
X90723533Y-73758124D01*
X90723538Y-73758133D01*
X90794723Y-73864668D01*
X90794726Y-73864672D01*
X90885327Y-73955273D01*
X90885331Y-73955276D01*
X90991866Y-74026461D01*
X90991872Y-74026464D01*
X90991873Y-74026465D01*
X91110256Y-74075501D01*
X91110260Y-74075501D01*
X91110261Y-74075502D01*
X91235928Y-74100500D01*
X91235931Y-74100500D01*
X91364071Y-74100500D01*
X91448615Y-74083682D01*
X91489744Y-74075501D01*
X91608127Y-74026465D01*
X91615712Y-74021396D01*
X91682389Y-74000520D01*
X91684601Y-74000500D01*
X92816399Y-74000500D01*
X92883438Y-74020185D01*
X92885252Y-74021373D01*
X92892873Y-74026465D01*
X93011256Y-74075501D01*
X93011260Y-74075501D01*
X93011261Y-74075502D01*
X93136928Y-74100500D01*
X93136931Y-74100500D01*
X93265071Y-74100500D01*
X93349615Y-74083682D01*
X93390744Y-74075501D01*
X93509127Y-74026465D01*
X93615669Y-73955276D01*
X93706276Y-73864669D01*
X93777465Y-73758127D01*
X93823227Y-73647648D01*
X95949500Y-73647648D01*
X95949500Y-73852351D01*
X95981522Y-74054534D01*
X96044781Y-74249223D01*
X96070654Y-74300000D01*
X96129119Y-74414744D01*
X96137715Y-74431613D01*
X96258028Y-74597213D01*
X96402786Y-74741971D01*
X96517184Y-74825084D01*
X96568390Y-74862287D01*
X96684607Y-74921503D01*
X96750776Y-74955218D01*
X96750778Y-74955218D01*
X96750781Y-74955220D01*
X96804450Y-74972658D01*
X96945465Y-75018477D01*
X97036616Y-75032914D01*
X97147648Y-75050500D01*
X97147649Y-75050500D01*
X97352351Y-75050500D01*
X97352352Y-75050500D01*
X97554534Y-75018477D01*
X97749219Y-74955220D01*
X97931610Y-74862287D01*
X98097219Y-74741966D01*
X98241966Y-74597219D01*
X98241968Y-74597215D01*
X98241971Y-74597213D01*
X98294732Y-74524590D01*
X98362287Y-74431610D01*
X98455220Y-74249219D01*
X98518477Y-74054534D01*
X98550500Y-73852352D01*
X98550500Y-73647648D01*
X98548013Y-73631947D01*
X100250000Y-73631947D01*
X100250000Y-73868052D01*
X100286934Y-74101247D01*
X100359897Y-74325802D01*
X100467087Y-74536174D01*
X100527338Y-74619104D01*
X100527340Y-74619105D01*
X101226212Y-73920233D01*
X101237482Y-73962292D01*
X101309890Y-74087708D01*
X101412292Y-74190110D01*
X101537708Y-74262518D01*
X101579765Y-74273787D01*
X100880893Y-74972658D01*
X100963828Y-75032914D01*
X101174197Y-75140102D01*
X101398752Y-75213065D01*
X101398751Y-75213065D01*
X101631948Y-75250000D01*
X101868052Y-75250000D01*
X102101247Y-75213065D01*
X102325802Y-75140102D01*
X102536163Y-75032918D01*
X102536169Y-75032914D01*
X102619104Y-74972658D01*
X102619105Y-74972658D01*
X101920233Y-74273787D01*
X101962292Y-74262518D01*
X102087708Y-74190110D01*
X102190110Y-74087708D01*
X102262518Y-73962292D01*
X102273787Y-73920234D01*
X102972658Y-74619105D01*
X102972658Y-74619104D01*
X103032914Y-74536169D01*
X103032918Y-74536163D01*
X103140102Y-74325802D01*
X103213065Y-74101247D01*
X103250000Y-73868052D01*
X103250000Y-73631947D01*
X103213065Y-73398752D01*
X103140102Y-73174197D01*
X103032914Y-72963828D01*
X102972658Y-72880894D01*
X102972658Y-72880893D01*
X102273787Y-73579765D01*
X102262518Y-73537708D01*
X102190110Y-73412292D01*
X102087708Y-73309890D01*
X101962292Y-73237482D01*
X101920234Y-73226212D01*
X102619105Y-72527340D01*
X102619104Y-72527338D01*
X102536174Y-72467087D01*
X102325802Y-72359897D01*
X102101247Y-72286934D01*
X102101248Y-72286934D01*
X101868052Y-72250000D01*
X101631948Y-72250000D01*
X101398752Y-72286934D01*
X101174197Y-72359897D01*
X100963830Y-72467084D01*
X100880894Y-72527340D01*
X101579766Y-73226212D01*
X101537708Y-73237482D01*
X101412292Y-73309890D01*
X101309890Y-73412292D01*
X101237482Y-73537708D01*
X101226212Y-73579766D01*
X100527340Y-72880894D01*
X100467084Y-72963830D01*
X100359897Y-73174197D01*
X100286934Y-73398752D01*
X100250000Y-73631947D01*
X98548013Y-73631947D01*
X98545897Y-73618584D01*
X98518477Y-73445465D01*
X98466826Y-73286500D01*
X98455220Y-73250781D01*
X98455218Y-73250778D01*
X98455218Y-73250776D01*
X98416198Y-73174197D01*
X98362287Y-73068390D01*
X98346757Y-73047015D01*
X98241971Y-72902786D01*
X98097219Y-72758034D01*
X98097211Y-72758028D01*
X97982817Y-72674917D01*
X97982816Y-72674915D01*
X97931613Y-72637715D01*
X97931612Y-72637714D01*
X97931610Y-72637713D01*
X97874653Y-72608691D01*
X97749223Y-72544781D01*
X97554534Y-72481522D01*
X97379995Y-72453878D01*
X97352352Y-72449500D01*
X97147648Y-72449500D01*
X97123329Y-72453351D01*
X96945465Y-72481522D01*
X96750776Y-72544781D01*
X96568386Y-72637715D01*
X96402786Y-72758028D01*
X96258028Y-72902786D01*
X96137715Y-73068386D01*
X96044781Y-73250776D01*
X95981522Y-73445465D01*
X95949500Y-73647648D01*
X93823227Y-73647648D01*
X93826501Y-73639744D01*
X93846798Y-73537708D01*
X93851500Y-73514071D01*
X93851500Y-73385928D01*
X93826502Y-73260261D01*
X93826501Y-73260260D01*
X93826501Y-73260256D01*
X93777465Y-73141873D01*
X93777464Y-73141872D01*
X93777461Y-73141866D01*
X93706276Y-73035331D01*
X93706273Y-73035327D01*
X93615672Y-72944726D01*
X93615668Y-72944723D01*
X93509133Y-72873538D01*
X93509124Y-72873533D01*
X93390744Y-72824499D01*
X93390738Y-72824497D01*
X93265071Y-72799500D01*
X93265069Y-72799500D01*
X93136931Y-72799500D01*
X93136929Y-72799500D01*
X93011261Y-72824497D01*
X93011255Y-72824499D01*
X92892876Y-72873533D01*
X92892873Y-72873534D01*
X92892873Y-72873535D01*
X92885287Y-72878603D01*
X92818611Y-72899480D01*
X92816399Y-72899500D01*
X91684601Y-72899500D01*
X91617562Y-72879815D01*
X91615747Y-72878626D01*
X91608127Y-72873535D01*
X91608124Y-72873533D01*
X91608123Y-72873533D01*
X91489744Y-72824499D01*
X91489738Y-72824497D01*
X91364071Y-72799500D01*
X91364069Y-72799500D01*
X91235931Y-72799500D01*
X91235929Y-72799500D01*
X91110261Y-72824497D01*
X91110255Y-72824499D01*
X90991875Y-72873533D01*
X90991866Y-72873538D01*
X90885331Y-72944723D01*
X90885327Y-72944726D01*
X90794726Y-73035327D01*
X90794723Y-73035331D01*
X90723538Y-73141866D01*
X90723533Y-73141875D01*
X90674499Y-73260255D01*
X90674497Y-73260261D01*
X90649500Y-73385928D01*
X90649500Y-73385931D01*
X90649500Y-73514069D01*
X90649500Y-73514071D01*
X90649499Y-73514071D01*
X89445527Y-73514071D01*
X89450500Y-73489071D01*
X89450500Y-73360928D01*
X89425502Y-73235261D01*
X89425501Y-73235260D01*
X89425501Y-73235256D01*
X89377759Y-73119996D01*
X89376466Y-73116875D01*
X89376461Y-73116866D01*
X89305276Y-73010331D01*
X89305273Y-73010327D01*
X89214672Y-72919726D01*
X89214668Y-72919723D01*
X89108133Y-72848538D01*
X89108124Y-72848533D01*
X88989744Y-72799499D01*
X88989738Y-72799497D01*
X88864071Y-72774500D01*
X88864069Y-72774500D01*
X88735931Y-72774500D01*
X88735929Y-72774500D01*
X88610261Y-72799497D01*
X88610255Y-72799499D01*
X88491876Y-72848533D01*
X88491873Y-72848534D01*
X88491873Y-72848535D01*
X88484287Y-72853603D01*
X88417611Y-72874480D01*
X88415399Y-72874500D01*
X87584601Y-72874500D01*
X87517562Y-72854815D01*
X87515747Y-72853626D01*
X87508127Y-72848535D01*
X87508124Y-72848533D01*
X87508123Y-72848533D01*
X87389744Y-72799499D01*
X87389738Y-72799497D01*
X87264071Y-72774500D01*
X87264069Y-72774500D01*
X87135931Y-72774500D01*
X87135929Y-72774500D01*
X87010261Y-72799497D01*
X87010255Y-72799499D01*
X86891875Y-72848533D01*
X86891866Y-72848538D01*
X86785331Y-72919723D01*
X86785327Y-72919726D01*
X86694726Y-73010327D01*
X86694723Y-73010331D01*
X86623538Y-73116866D01*
X86623533Y-73116875D01*
X86574499Y-73235255D01*
X86574497Y-73235261D01*
X86549500Y-73360928D01*
X86549500Y-73360931D01*
X86549500Y-73489069D01*
X86549500Y-73489071D01*
X86549499Y-73489071D01*
X84725500Y-73489071D01*
X84725500Y-73047015D01*
X84745185Y-72979976D01*
X84746328Y-72978228D01*
X84776465Y-72933127D01*
X84825501Y-72814744D01*
X84836783Y-72758028D01*
X84850500Y-72689071D01*
X84850500Y-72560928D01*
X84825502Y-72435261D01*
X84825501Y-72435260D01*
X84825501Y-72435256D01*
X84776465Y-72316873D01*
X84776464Y-72316872D01*
X84776461Y-72316866D01*
X84705276Y-72210331D01*
X84705273Y-72210327D01*
X84614672Y-72119726D01*
X84614668Y-72119723D01*
X84508133Y-72048538D01*
X84508124Y-72048533D01*
X84389744Y-71999499D01*
X84389738Y-71999497D01*
X84264071Y-71974500D01*
X84264069Y-71974500D01*
X84135931Y-71974500D01*
X84135929Y-71974500D01*
X84010261Y-71999497D01*
X84010255Y-71999499D01*
X83891875Y-72048533D01*
X83891866Y-72048538D01*
X83785331Y-72119723D01*
X83785327Y-72119726D01*
X83694726Y-72210327D01*
X83694723Y-72210331D01*
X83623538Y-72316866D01*
X83623533Y-72316875D01*
X83574499Y-72435255D01*
X83574497Y-72435261D01*
X83549500Y-72560928D01*
X83549500Y-72560931D01*
X83549500Y-72689069D01*
X83549500Y-72689071D01*
X83549499Y-72689071D01*
X83574497Y-72814738D01*
X83574499Y-72814744D01*
X83610967Y-72902786D01*
X83615061Y-72912668D01*
X83624500Y-72960121D01*
X83624500Y-73840398D01*
X83604815Y-73907437D01*
X83603604Y-73909286D01*
X83598534Y-73916872D01*
X83549499Y-74035255D01*
X83549497Y-74035261D01*
X83524500Y-74160928D01*
X83524500Y-74160931D01*
X83524500Y-74289069D01*
X83524500Y-74289071D01*
X83524499Y-74289071D01*
X48648499Y-74289071D01*
X48648499Y-73781136D01*
X48648497Y-73781117D01*
X48645586Y-73756012D01*
X48645585Y-73756010D01*
X48645585Y-73756009D01*
X48600206Y-73653235D01*
X48520765Y-73573794D01*
X48520763Y-73573793D01*
X48417992Y-73528415D01*
X48392868Y-73525500D01*
X47655128Y-73525500D01*
X47588089Y-73505815D01*
X47542334Y-73453011D01*
X47532390Y-73383853D01*
X47561415Y-73320297D01*
X47620193Y-73282523D01*
X47635730Y-73279027D01*
X47659014Y-73275338D01*
X47767409Y-73258171D01*
X47939639Y-73202211D01*
X48100994Y-73119996D01*
X48247501Y-73013553D01*
X48375553Y-72885501D01*
X48481996Y-72738994D01*
X48564211Y-72577639D01*
X48620171Y-72405409D01*
X48638936Y-72286934D01*
X48648500Y-72226551D01*
X48648500Y-72045448D01*
X48627786Y-71914669D01*
X48620171Y-71866591D01*
X48564211Y-71694361D01*
X48564211Y-71694360D01*
X48521505Y-71610546D01*
X48497825Y-71564071D01*
X86549499Y-71564071D01*
X86574497Y-71689738D01*
X86574499Y-71689744D01*
X86623533Y-71808124D01*
X86623538Y-71808133D01*
X86694723Y-71914668D01*
X86694726Y-71914672D01*
X86785327Y-72005273D01*
X86785331Y-72005276D01*
X86891866Y-72076461D01*
X86891872Y-72076464D01*
X86891873Y-72076465D01*
X87010256Y-72125501D01*
X87010260Y-72125501D01*
X87010261Y-72125502D01*
X87135928Y-72150500D01*
X87135931Y-72150500D01*
X87264071Y-72150500D01*
X87348615Y-72133682D01*
X87389744Y-72125501D01*
X87508127Y-72076465D01*
X87515712Y-72071396D01*
X87582389Y-72050520D01*
X87584601Y-72050500D01*
X88464878Y-72050500D01*
X88512330Y-72059938D01*
X88610256Y-72100501D01*
X88610260Y-72100501D01*
X88610261Y-72100502D01*
X88735928Y-72125500D01*
X88735931Y-72125500D01*
X88864071Y-72125500D01*
X88948615Y-72108682D01*
X88989744Y-72100501D01*
X89108127Y-72051465D01*
X89214669Y-71980276D01*
X89305276Y-71889669D01*
X89376465Y-71783127D01*
X89425501Y-71664744D01*
X89450500Y-71539069D01*
X89450500Y-71410931D01*
X89450500Y-71410928D01*
X89425502Y-71285261D01*
X89425501Y-71285260D01*
X89425501Y-71285256D01*
X89376465Y-71166873D01*
X89376464Y-71166872D01*
X89376461Y-71166866D01*
X89305276Y-71060331D01*
X89305273Y-71060327D01*
X89214672Y-70969726D01*
X89214668Y-70969723D01*
X89108133Y-70898538D01*
X89108124Y-70898533D01*
X88989744Y-70849499D01*
X88989738Y-70849497D01*
X88864071Y-70824500D01*
X88864069Y-70824500D01*
X88735931Y-70824500D01*
X88735929Y-70824500D01*
X88610261Y-70849497D01*
X88610255Y-70849499D01*
X88491873Y-70898534D01*
X88461667Y-70918717D01*
X88446873Y-70928602D01*
X88380198Y-70949480D01*
X88377984Y-70949500D01*
X87584601Y-70949500D01*
X87517562Y-70929815D01*
X87515747Y-70928626D01*
X87508127Y-70923535D01*
X87508124Y-70923533D01*
X87508123Y-70923533D01*
X87389744Y-70874499D01*
X87389738Y-70874497D01*
X87264071Y-70849500D01*
X87264069Y-70849500D01*
X87135931Y-70849500D01*
X87135929Y-70849500D01*
X87010261Y-70874497D01*
X87010255Y-70874499D01*
X86891875Y-70923533D01*
X86891866Y-70923538D01*
X86785331Y-70994723D01*
X86785327Y-70994726D01*
X86694726Y-71085327D01*
X86694723Y-71085331D01*
X86623538Y-71191866D01*
X86623533Y-71191875D01*
X86574499Y-71310255D01*
X86574497Y-71310261D01*
X86549500Y-71435928D01*
X86549500Y-71435931D01*
X86549500Y-71564069D01*
X86549500Y-71564071D01*
X86549499Y-71564071D01*
X48497825Y-71564071D01*
X48481996Y-71533006D01*
X48481993Y-71533002D01*
X48459995Y-71502723D01*
X48459994Y-71502722D01*
X48375558Y-71386505D01*
X48375554Y-71386500D01*
X48247499Y-71258445D01*
X48247494Y-71258441D01*
X48100997Y-71152006D01*
X48100996Y-71152005D01*
X48100994Y-71152004D01*
X48049300Y-71125664D01*
X47939639Y-71069788D01*
X47939636Y-71069787D01*
X47767410Y-71013829D01*
X47607321Y-70988473D01*
X47544186Y-70958544D01*
X47507255Y-70899232D01*
X47508253Y-70829370D01*
X47546863Y-70771137D01*
X47607321Y-70743527D01*
X47677425Y-70732422D01*
X47767409Y-70718171D01*
X47939639Y-70662211D01*
X48100994Y-70579996D01*
X48247501Y-70473553D01*
X48375553Y-70345501D01*
X48481996Y-70198994D01*
X48564211Y-70037639D01*
X48620171Y-69865409D01*
X48634765Y-69773259D01*
X48648500Y-69686551D01*
X48648500Y-69505448D01*
X48632019Y-69401397D01*
X48620171Y-69326591D01*
X48564211Y-69154361D01*
X48564211Y-69154360D01*
X48535740Y-69098484D01*
X48481996Y-68993006D01*
X48388995Y-68865000D01*
X48375558Y-68846505D01*
X48375554Y-68846500D01*
X48321631Y-68792577D01*
X83000975Y-68792577D01*
X83106236Y-68836178D01*
X83106240Y-68836179D01*
X83251126Y-68864999D01*
X83251129Y-68865000D01*
X83398871Y-68865000D01*
X83398873Y-68864999D01*
X83543760Y-68836179D01*
X83543775Y-68836175D01*
X83649024Y-68792578D01*
X83649024Y-68792577D01*
X84400975Y-68792577D01*
X84506236Y-68836178D01*
X84506240Y-68836179D01*
X84651126Y-68864999D01*
X84651129Y-68865000D01*
X84798871Y-68865000D01*
X84798873Y-68864999D01*
X84943760Y-68836179D01*
X84943775Y-68836175D01*
X85049024Y-68792578D01*
X85049024Y-68792577D01*
X84725001Y-68468554D01*
X84725000Y-68468554D01*
X84400975Y-68792577D01*
X83649024Y-68792577D01*
X83325001Y-68468554D01*
X83325000Y-68468554D01*
X83000975Y-68792577D01*
X48321631Y-68792577D01*
X48247499Y-68718445D01*
X48247494Y-68718441D01*
X48100997Y-68612006D01*
X48100996Y-68612005D01*
X48100994Y-68612004D01*
X48049300Y-68585664D01*
X47939639Y-68529788D01*
X47939636Y-68529787D01*
X47767410Y-68473829D01*
X47607321Y-68448473D01*
X47544186Y-68418544D01*
X47507255Y-68359232D01*
X47508253Y-68289370D01*
X47546863Y-68231137D01*
X47607321Y-68203527D01*
X47677425Y-68192422D01*
X47767409Y-68178171D01*
X47939639Y-68122211D01*
X48100994Y-68039996D01*
X48247501Y-67933553D01*
X48375553Y-67805501D01*
X48481996Y-67658994D01*
X48564211Y-67497639D01*
X48620171Y-67325409D01*
X48637805Y-67214071D01*
X48648500Y-67146551D01*
X48648500Y-66965448D01*
X48628927Y-66841873D01*
X48620171Y-66786591D01*
X48574077Y-66644726D01*
X48564212Y-66614363D01*
X48564211Y-66614360D01*
X48530670Y-66548533D01*
X48481996Y-66453006D01*
X48414133Y-66359600D01*
X48375558Y-66306505D01*
X48375554Y-66306500D01*
X48247499Y-66178445D01*
X48247494Y-66178441D01*
X48100997Y-66072006D01*
X48100996Y-66072005D01*
X48100994Y-66072004D01*
X48049300Y-66045664D01*
X48036361Y-66039071D01*
X63724499Y-66039071D01*
X63749497Y-66164738D01*
X63749499Y-66164744D01*
X63798533Y-66283124D01*
X63798534Y-66283126D01*
X63798535Y-66283127D01*
X63803600Y-66290708D01*
X63824480Y-66357383D01*
X63824500Y-66359600D01*
X63824500Y-67614877D01*
X63815061Y-67662329D01*
X63774500Y-67760251D01*
X63774497Y-67760261D01*
X63749500Y-67885928D01*
X63749500Y-67885931D01*
X63749500Y-68014069D01*
X63749500Y-68014071D01*
X63749499Y-68014071D01*
X63774497Y-68139738D01*
X63774499Y-68139744D01*
X63823533Y-68258124D01*
X63823538Y-68258133D01*
X63894723Y-68364668D01*
X63894726Y-68364672D01*
X63985327Y-68455273D01*
X63985331Y-68455276D01*
X64091866Y-68526461D01*
X64091872Y-68526464D01*
X64091873Y-68526465D01*
X64210256Y-68575501D01*
X64210260Y-68575501D01*
X64210261Y-68575502D01*
X64335928Y-68600500D01*
X64335931Y-68600500D01*
X64464071Y-68600500D01*
X64548615Y-68583682D01*
X64589744Y-68575501D01*
X64708127Y-68526465D01*
X64814669Y-68455276D01*
X64905276Y-68364669D01*
X64976465Y-68258127D01*
X65025501Y-68139744D01*
X65045118Y-68041126D01*
X82575000Y-68041126D01*
X82575000Y-68188873D01*
X82603820Y-68333759D01*
X82603822Y-68333767D01*
X82647421Y-68439024D01*
X82971446Y-68115000D01*
X82971446Y-68114999D01*
X82941610Y-68085163D01*
X83175000Y-68085163D01*
X83175000Y-68144837D01*
X83197836Y-68199968D01*
X83240032Y-68242164D01*
X83295163Y-68265000D01*
X83354837Y-68265000D01*
X83409968Y-68242164D01*
X83452164Y-68199968D01*
X83475000Y-68144837D01*
X83475000Y-68114999D01*
X83678554Y-68114999D01*
X83678554Y-68115001D01*
X84002929Y-68439376D01*
X84047069Y-68439376D01*
X84371446Y-68115000D01*
X84341609Y-68085163D01*
X84575000Y-68085163D01*
X84575000Y-68144837D01*
X84597836Y-68199968D01*
X84640032Y-68242164D01*
X84695163Y-68265000D01*
X84754837Y-68265000D01*
X84809968Y-68242164D01*
X84852164Y-68199968D01*
X84875000Y-68144837D01*
X84875000Y-68114999D01*
X85078554Y-68114999D01*
X85078554Y-68115001D01*
X85402577Y-68439024D01*
X85402578Y-68439024D01*
X85446175Y-68333775D01*
X85446179Y-68333760D01*
X85474999Y-68188873D01*
X85475000Y-68188871D01*
X85475000Y-68041128D01*
X85474999Y-68041126D01*
X85446179Y-67896240D01*
X85446178Y-67896236D01*
X85402577Y-67790975D01*
X85078554Y-68114999D01*
X84875000Y-68114999D01*
X84875000Y-68085163D01*
X84852164Y-68030032D01*
X84809968Y-67987836D01*
X84754837Y-67965000D01*
X84695163Y-67965000D01*
X84640032Y-67987836D01*
X84597836Y-68030032D01*
X84575000Y-68085163D01*
X84341609Y-68085163D01*
X84047068Y-67790622D01*
X84002930Y-67790622D01*
X83678554Y-68114999D01*
X83475000Y-68114999D01*
X83475000Y-68085163D01*
X83452164Y-68030032D01*
X83409968Y-67987836D01*
X83354837Y-67965000D01*
X83295163Y-67965000D01*
X83240032Y-67987836D01*
X83197836Y-68030032D01*
X83175000Y-68085163D01*
X82941610Y-68085163D01*
X82647421Y-67790974D01*
X82647420Y-67790974D01*
X82603823Y-67896228D01*
X82603820Y-67896240D01*
X82575000Y-68041126D01*
X65045118Y-68041126D01*
X65050500Y-68014069D01*
X65050500Y-67885931D01*
X65050500Y-67885928D01*
X65025502Y-67760261D01*
X65025501Y-67760260D01*
X65025501Y-67760256D01*
X64976465Y-67641873D01*
X64946396Y-67596872D01*
X64940746Y-67578826D01*
X64930523Y-67562918D01*
X64926071Y-67531957D01*
X64925520Y-67530196D01*
X64925500Y-67527983D01*
X64925500Y-67515000D01*
X83078554Y-67515000D01*
X83325000Y-67761446D01*
X83571446Y-67515000D01*
X84478554Y-67515000D01*
X84725000Y-67761446D01*
X84971446Y-67515000D01*
X84725000Y-67268554D01*
X84478554Y-67515000D01*
X83571446Y-67515000D01*
X83325000Y-67268554D01*
X83078554Y-67515000D01*
X64925500Y-67515000D01*
X64925500Y-66841126D01*
X82575000Y-66841126D01*
X82575000Y-66988873D01*
X82603820Y-67133759D01*
X82603822Y-67133767D01*
X82647421Y-67239024D01*
X82971446Y-66915000D01*
X82971446Y-66914999D01*
X82941610Y-66885163D01*
X83175000Y-66885163D01*
X83175000Y-66944837D01*
X83197836Y-66999968D01*
X83240032Y-67042164D01*
X83295163Y-67065000D01*
X83354837Y-67065000D01*
X83409968Y-67042164D01*
X83452164Y-66999968D01*
X83475000Y-66944837D01*
X83475000Y-66914999D01*
X83678554Y-66914999D01*
X83678554Y-66915001D01*
X84002929Y-67239376D01*
X84047069Y-67239376D01*
X84371446Y-66915000D01*
X84341609Y-66885163D01*
X84575000Y-66885163D01*
X84575000Y-66944837D01*
X84597836Y-66999968D01*
X84640032Y-67042164D01*
X84695163Y-67065000D01*
X84754837Y-67065000D01*
X84809968Y-67042164D01*
X84852164Y-66999968D01*
X84875000Y-66944837D01*
X84875000Y-66914999D01*
X85078554Y-66914999D01*
X85078554Y-66915001D01*
X85402577Y-67239024D01*
X85402578Y-67239024D01*
X85412914Y-67214071D01*
X90649499Y-67214071D01*
X90674497Y-67339738D01*
X90674499Y-67339744D01*
X90723533Y-67458124D01*
X90723538Y-67458133D01*
X90794723Y-67564668D01*
X90794726Y-67564672D01*
X90885327Y-67655273D01*
X90885331Y-67655276D01*
X90991866Y-67726461D01*
X90991872Y-67726464D01*
X90991873Y-67726465D01*
X91110256Y-67775501D01*
X91110260Y-67775501D01*
X91110261Y-67775502D01*
X91235928Y-67800500D01*
X91235931Y-67800500D01*
X91364071Y-67800500D01*
X91448615Y-67783682D01*
X91489744Y-67775501D01*
X91608127Y-67726465D01*
X91615712Y-67721396D01*
X91682389Y-67700520D01*
X91684601Y-67700500D01*
X92865878Y-67700500D01*
X92913330Y-67709938D01*
X93011256Y-67750501D01*
X93011260Y-67750501D01*
X93011261Y-67750502D01*
X93136928Y-67775500D01*
X93136931Y-67775500D01*
X93265071Y-67775500D01*
X93349615Y-67758682D01*
X93390744Y-67750501D01*
X93509127Y-67701465D01*
X93615669Y-67630276D01*
X93706276Y-67539669D01*
X93777465Y-67433127D01*
X93826501Y-67314744D01*
X93851500Y-67189069D01*
X93851500Y-67060931D01*
X93851500Y-67060928D01*
X93826502Y-66935261D01*
X93826501Y-66935260D01*
X93826501Y-66935256D01*
X93777465Y-66816873D01*
X93777464Y-66816872D01*
X93777461Y-66816866D01*
X93706276Y-66710331D01*
X93706273Y-66710327D01*
X93615672Y-66619726D01*
X93615668Y-66619723D01*
X93509133Y-66548538D01*
X93509124Y-66548533D01*
X93390744Y-66499499D01*
X93390738Y-66499497D01*
X93265071Y-66474500D01*
X93265069Y-66474500D01*
X93136931Y-66474500D01*
X93136929Y-66474500D01*
X93011261Y-66499497D01*
X93011255Y-66499499D01*
X92892873Y-66548534D01*
X92873550Y-66561446D01*
X92847873Y-66578602D01*
X92781198Y-66599480D01*
X92778984Y-66599500D01*
X91684601Y-66599500D01*
X91617562Y-66579815D01*
X91615747Y-66578626D01*
X91608127Y-66573535D01*
X91608124Y-66573533D01*
X91608123Y-66573533D01*
X91489744Y-66524499D01*
X91489738Y-66524497D01*
X91364071Y-66499500D01*
X91364069Y-66499500D01*
X91235931Y-66499500D01*
X91235929Y-66499500D01*
X91110261Y-66524497D01*
X91110255Y-66524499D01*
X90991875Y-66573533D01*
X90991866Y-66573538D01*
X90885331Y-66644723D01*
X90885327Y-66644726D01*
X90794726Y-66735327D01*
X90794723Y-66735331D01*
X90723538Y-66841866D01*
X90723533Y-66841875D01*
X90674499Y-66960255D01*
X90674497Y-66960261D01*
X90649500Y-67085928D01*
X90649500Y-67085931D01*
X90649500Y-67214069D01*
X90649500Y-67214071D01*
X90649499Y-67214071D01*
X85412914Y-67214071D01*
X85446175Y-67133775D01*
X85446179Y-67133760D01*
X85461717Y-67055648D01*
X85461717Y-67055647D01*
X85475000Y-66988871D01*
X85475000Y-66841128D01*
X85474999Y-66841126D01*
X85446179Y-66696240D01*
X85446178Y-66696236D01*
X85402577Y-66590975D01*
X85078554Y-66914999D01*
X84875000Y-66914999D01*
X84875000Y-66885163D01*
X84852164Y-66830032D01*
X84809968Y-66787836D01*
X84754837Y-66765000D01*
X84695163Y-66765000D01*
X84640032Y-66787836D01*
X84597836Y-66830032D01*
X84575000Y-66885163D01*
X84341609Y-66885163D01*
X84047068Y-66590622D01*
X84002930Y-66590622D01*
X83678554Y-66914999D01*
X83475000Y-66914999D01*
X83475000Y-66885163D01*
X83452164Y-66830032D01*
X83409968Y-66787836D01*
X83354837Y-66765000D01*
X83295163Y-66765000D01*
X83240032Y-66787836D01*
X83197836Y-66830032D01*
X83175000Y-66885163D01*
X82941610Y-66885163D01*
X82647421Y-66590974D01*
X82647420Y-66590974D01*
X82603823Y-66696228D01*
X82603820Y-66696240D01*
X82575000Y-66841126D01*
X64925500Y-66841126D01*
X64925500Y-66359600D01*
X64935289Y-66315000D01*
X83078554Y-66315000D01*
X83325000Y-66561446D01*
X83571446Y-66315000D01*
X84478554Y-66315000D01*
X84725000Y-66561446D01*
X84971446Y-66315000D01*
X84725000Y-66068554D01*
X84478554Y-66315000D01*
X83571446Y-66315000D01*
X83325000Y-66068554D01*
X83078554Y-66315000D01*
X64935289Y-66315000D01*
X64936897Y-66307672D01*
X64940979Y-66298820D01*
X64951465Y-66283127D01*
X65000501Y-66164744D01*
X65025500Y-66039069D01*
X65025500Y-65910931D01*
X65025500Y-65910928D01*
X65000502Y-65785261D01*
X65000501Y-65785260D01*
X65000501Y-65785256D01*
X64987044Y-65752768D01*
X64957951Y-65682531D01*
X64957935Y-65682493D01*
X64951465Y-65666873D01*
X64951463Y-65666870D01*
X64951461Y-65666866D01*
X64934262Y-65641126D01*
X82575000Y-65641126D01*
X82575000Y-65788873D01*
X82603820Y-65933759D01*
X82603822Y-65933767D01*
X82647421Y-66039024D01*
X82971446Y-65715000D01*
X82971446Y-65714999D01*
X82941610Y-65685163D01*
X83175000Y-65685163D01*
X83175000Y-65744837D01*
X83197836Y-65799968D01*
X83240032Y-65842164D01*
X83295163Y-65865000D01*
X83354837Y-65865000D01*
X83409968Y-65842164D01*
X83452164Y-65799968D01*
X83475000Y-65744837D01*
X83475000Y-65714999D01*
X83678554Y-65714999D01*
X83678554Y-65715001D01*
X84002929Y-66039376D01*
X84047069Y-66039376D01*
X84371446Y-65715000D01*
X84341609Y-65685163D01*
X84575000Y-65685163D01*
X84575000Y-65744837D01*
X84597836Y-65799968D01*
X84640032Y-65842164D01*
X84695163Y-65865000D01*
X84754837Y-65865000D01*
X84809968Y-65842164D01*
X84852164Y-65799968D01*
X84875000Y-65744837D01*
X84875000Y-65714999D01*
X85078554Y-65714999D01*
X85078554Y-65715001D01*
X85402577Y-66039024D01*
X85402578Y-66039024D01*
X85446175Y-65933775D01*
X85446179Y-65933760D01*
X85474999Y-65788873D01*
X85475000Y-65788871D01*
X85475000Y-65641128D01*
X85474999Y-65641126D01*
X85446179Y-65496240D01*
X85446178Y-65496236D01*
X85402577Y-65390975D01*
X85078554Y-65714999D01*
X84875000Y-65714999D01*
X84875000Y-65685163D01*
X84852164Y-65630032D01*
X84809968Y-65587836D01*
X84754837Y-65565000D01*
X84695163Y-65565000D01*
X84640032Y-65587836D01*
X84597836Y-65630032D01*
X84575000Y-65685163D01*
X84341609Y-65685163D01*
X84047068Y-65390622D01*
X84002930Y-65390622D01*
X83678554Y-65714999D01*
X83475000Y-65714999D01*
X83475000Y-65685163D01*
X83452164Y-65630032D01*
X83409968Y-65587836D01*
X83354837Y-65565000D01*
X83295163Y-65565000D01*
X83240032Y-65587836D01*
X83197836Y-65630032D01*
X83175000Y-65685163D01*
X82941610Y-65685163D01*
X82647421Y-65390974D01*
X82647420Y-65390974D01*
X82603823Y-65496228D01*
X82603820Y-65496240D01*
X82575000Y-65641126D01*
X64934262Y-65641126D01*
X64880276Y-65560331D01*
X64880273Y-65560327D01*
X64789672Y-65469726D01*
X64789668Y-65469723D01*
X64683133Y-65398538D01*
X64683124Y-65398533D01*
X64564744Y-65349499D01*
X64564738Y-65349497D01*
X64439071Y-65324500D01*
X64439069Y-65324500D01*
X64310931Y-65324500D01*
X64310929Y-65324500D01*
X64185261Y-65349497D01*
X64185255Y-65349499D01*
X64066875Y-65398533D01*
X64066866Y-65398538D01*
X63960331Y-65469723D01*
X63960327Y-65469726D01*
X63869726Y-65560327D01*
X63869723Y-65560331D01*
X63798538Y-65666866D01*
X63798533Y-65666875D01*
X63749499Y-65785255D01*
X63749497Y-65785261D01*
X63724500Y-65910928D01*
X63724500Y-65910931D01*
X63724500Y-66039069D01*
X63724500Y-66039071D01*
X63724499Y-66039071D01*
X48036361Y-66039071D01*
X47939639Y-65989788D01*
X47939636Y-65989787D01*
X47767410Y-65933829D01*
X47607321Y-65908473D01*
X47544186Y-65878544D01*
X47507255Y-65819232D01*
X47508253Y-65749370D01*
X47546863Y-65691137D01*
X47607321Y-65663527D01*
X47677425Y-65652422D01*
X47767409Y-65638171D01*
X47939639Y-65582211D01*
X48100994Y-65499996D01*
X48247501Y-65393553D01*
X48375553Y-65265501D01*
X48481996Y-65118994D01*
X48564211Y-64957639D01*
X48620171Y-64785409D01*
X48634765Y-64693259D01*
X48648500Y-64606551D01*
X48648500Y-64425448D01*
X48632019Y-64321397D01*
X48620171Y-64246591D01*
X48564211Y-64074361D01*
X48564211Y-64074360D01*
X48504986Y-63958127D01*
X48481996Y-63913006D01*
X48468396Y-63894287D01*
X48375558Y-63766505D01*
X48375554Y-63766500D01*
X48323125Y-63714071D01*
X58799499Y-63714071D01*
X58824497Y-63839738D01*
X58824499Y-63839744D01*
X58873533Y-63958124D01*
X58873534Y-63958126D01*
X58873535Y-63958127D01*
X58878600Y-63965708D01*
X58899480Y-64032383D01*
X58899500Y-64034600D01*
X58899500Y-64865398D01*
X58879815Y-64932437D01*
X58878604Y-64934286D01*
X58873534Y-64941872D01*
X58824499Y-65060255D01*
X58824497Y-65060261D01*
X58799500Y-65185928D01*
X58799500Y-65185931D01*
X58799500Y-65314069D01*
X58799500Y-65314071D01*
X58799499Y-65314071D01*
X58824497Y-65439738D01*
X58824499Y-65439744D01*
X58873533Y-65558124D01*
X58873538Y-65558133D01*
X58944723Y-65664668D01*
X58944726Y-65664672D01*
X59035327Y-65755273D01*
X59035331Y-65755276D01*
X59141866Y-65826461D01*
X59141872Y-65826464D01*
X59141873Y-65826465D01*
X59260256Y-65875501D01*
X59260260Y-65875501D01*
X59260261Y-65875502D01*
X59385928Y-65900500D01*
X59385931Y-65900500D01*
X59514071Y-65900500D01*
X59624446Y-65878544D01*
X59639744Y-65875501D01*
X59758127Y-65826465D01*
X59768952Y-65819232D01*
X59795136Y-65801737D01*
X59827814Y-65779901D01*
X59864669Y-65755276D01*
X59955276Y-65664669D01*
X60026465Y-65558127D01*
X60075501Y-65439744D01*
X60091076Y-65361446D01*
X60100500Y-65314071D01*
X60100500Y-65185928D01*
X60092752Y-65146981D01*
X60075501Y-65060256D01*
X60066042Y-65037420D01*
X83000974Y-65037420D01*
X83000974Y-65037421D01*
X83325000Y-65361446D01*
X83325001Y-65361446D01*
X83649024Y-65037421D01*
X83649022Y-65037420D01*
X84400974Y-65037420D01*
X84400974Y-65037421D01*
X84725000Y-65361446D01*
X84725001Y-65361446D01*
X85049024Y-65037421D01*
X84943767Y-64993822D01*
X84943759Y-64993820D01*
X84798872Y-64965000D01*
X84651128Y-64965000D01*
X84506240Y-64993820D01*
X84506228Y-64993823D01*
X84400974Y-65037420D01*
X83649022Y-65037420D01*
X83543767Y-64993822D01*
X83543759Y-64993820D01*
X83398872Y-64965000D01*
X83251128Y-64965000D01*
X83106240Y-64993820D01*
X83106228Y-64993823D01*
X83000974Y-65037420D01*
X60066042Y-65037420D01*
X60026465Y-64941873D01*
X60013601Y-64922621D01*
X60008610Y-64909506D01*
X60006935Y-64888098D01*
X60000520Y-64867608D01*
X60000500Y-64865398D01*
X60000500Y-64034600D01*
X60020185Y-63967561D01*
X60021359Y-63965768D01*
X60026465Y-63958127D01*
X60075501Y-63839744D01*
X60100500Y-63714069D01*
X60100500Y-63585931D01*
X60100500Y-63585928D01*
X60075502Y-63460261D01*
X60075501Y-63460260D01*
X60075501Y-63460256D01*
X60026465Y-63341873D01*
X60026464Y-63341872D01*
X60026461Y-63341866D01*
X59955276Y-63235331D01*
X59955273Y-63235327D01*
X59864672Y-63144726D01*
X59864668Y-63144723D01*
X59758133Y-63073538D01*
X59758124Y-63073533D01*
X59639744Y-63024499D01*
X59639738Y-63024497D01*
X59514071Y-62999500D01*
X59514069Y-62999500D01*
X59385931Y-62999500D01*
X59385929Y-62999500D01*
X59260261Y-63024497D01*
X59260255Y-63024499D01*
X59141875Y-63073533D01*
X59141866Y-63073538D01*
X59035331Y-63144723D01*
X59035327Y-63144726D01*
X58944726Y-63235327D01*
X58944723Y-63235331D01*
X58873538Y-63341866D01*
X58873533Y-63341875D01*
X58824499Y-63460255D01*
X58824497Y-63460261D01*
X58799500Y-63585928D01*
X58799500Y-63585931D01*
X58799500Y-63714069D01*
X58799500Y-63714071D01*
X58799499Y-63714071D01*
X48323125Y-63714071D01*
X48247499Y-63638445D01*
X48247494Y-63638441D01*
X48100997Y-63532006D01*
X48100996Y-63532005D01*
X48100994Y-63532004D01*
X48049300Y-63505664D01*
X47939639Y-63449788D01*
X47939636Y-63449787D01*
X47767410Y-63393829D01*
X47607321Y-63368473D01*
X47544186Y-63338544D01*
X47507255Y-63279232D01*
X47508253Y-63209370D01*
X47546863Y-63151137D01*
X47607321Y-63123527D01*
X47677425Y-63112422D01*
X47767409Y-63098171D01*
X47939639Y-63042211D01*
X48100994Y-62959996D01*
X48247501Y-62853553D01*
X48375553Y-62725501D01*
X48481996Y-62578994D01*
X48564211Y-62417639D01*
X48597862Y-62314071D01*
X86799499Y-62314071D01*
X86824497Y-62439738D01*
X86824499Y-62439744D01*
X86873533Y-62558124D01*
X86873538Y-62558133D01*
X86944723Y-62664668D01*
X86944726Y-62664672D01*
X87035327Y-62755273D01*
X87035331Y-62755276D01*
X87141866Y-62826461D01*
X87141872Y-62826464D01*
X87141873Y-62826465D01*
X87260256Y-62875501D01*
X87260260Y-62875501D01*
X87260261Y-62875502D01*
X87385928Y-62900500D01*
X87385931Y-62900500D01*
X87514071Y-62900500D01*
X87598615Y-62883682D01*
X87639744Y-62875501D01*
X87758127Y-62826465D01*
X87864669Y-62755276D01*
X87864672Y-62755273D01*
X87883127Y-62736819D01*
X87944450Y-62703334D01*
X87970808Y-62700500D01*
X88855680Y-62700500D01*
X88922719Y-62720185D01*
X88934341Y-62728644D01*
X88936326Y-62730273D01*
X89042866Y-62801461D01*
X89042872Y-62801464D01*
X89042873Y-62801465D01*
X89161256Y-62850501D01*
X89161260Y-62850501D01*
X89161261Y-62850502D01*
X89286928Y-62875500D01*
X89286931Y-62875500D01*
X89415071Y-62875500D01*
X89499615Y-62858682D01*
X89540744Y-62850501D01*
X89659127Y-62801465D01*
X89765669Y-62730276D01*
X89856276Y-62639669D01*
X89927465Y-62533127D01*
X89976501Y-62414744D01*
X90001500Y-62289069D01*
X90001500Y-62160931D01*
X90001500Y-62160928D01*
X89976502Y-62035261D01*
X89976501Y-62035260D01*
X89976501Y-62035256D01*
X89976499Y-62035251D01*
X89932089Y-61928034D01*
X89927467Y-61916878D01*
X89927461Y-61916866D01*
X89856276Y-61810331D01*
X89856273Y-61810327D01*
X89765672Y-61719726D01*
X89765668Y-61719723D01*
X89659133Y-61648538D01*
X89659124Y-61648533D01*
X89540744Y-61599499D01*
X89540738Y-61599497D01*
X89415071Y-61574500D01*
X89415069Y-61574500D01*
X89286931Y-61574500D01*
X89286929Y-61574500D01*
X89161261Y-61599497D01*
X89161255Y-61599499D01*
X89042875Y-61648533D01*
X89042866Y-61648538D01*
X88936331Y-61719723D01*
X88936327Y-61719726D01*
X88892875Y-61763180D01*
X88831552Y-61796666D01*
X88805193Y-61799500D01*
X87970808Y-61799500D01*
X87903769Y-61779815D01*
X87883127Y-61763181D01*
X87864672Y-61744726D01*
X87864668Y-61744723D01*
X87758133Y-61673538D01*
X87758124Y-61673533D01*
X87639744Y-61624499D01*
X87639738Y-61624497D01*
X87514071Y-61599500D01*
X87514069Y-61599500D01*
X87385931Y-61599500D01*
X87385929Y-61599500D01*
X87260261Y-61624497D01*
X87260255Y-61624499D01*
X87141875Y-61673533D01*
X87141866Y-61673538D01*
X87035331Y-61744723D01*
X87035327Y-61744726D01*
X86944726Y-61835327D01*
X86944723Y-61835331D01*
X86873538Y-61941866D01*
X86873533Y-61941875D01*
X86824499Y-62060255D01*
X86824497Y-62060261D01*
X86799500Y-62185928D01*
X86799500Y-62185931D01*
X86799500Y-62314069D01*
X86799500Y-62314071D01*
X86799499Y-62314071D01*
X48597862Y-62314071D01*
X48620171Y-62245409D01*
X48633551Y-62160931D01*
X48633629Y-62160441D01*
X48648500Y-62066551D01*
X48648500Y-61885448D01*
X48626211Y-61744726D01*
X48620171Y-61706591D01*
X48564211Y-61534361D01*
X48564211Y-61534360D01*
X48535740Y-61478484D01*
X48481996Y-61373006D01*
X48468396Y-61354287D01*
X48375558Y-61226505D01*
X48375554Y-61226500D01*
X48247499Y-61098445D01*
X48247494Y-61098441D01*
X48100995Y-60992004D01*
X47969314Y-60924908D01*
X47918519Y-60876934D01*
X47901724Y-60809113D01*
X47924262Y-60742978D01*
X47978977Y-60699527D01*
X47987295Y-60696492D01*
X48016217Y-60687095D01*
X48205554Y-60590622D01*
X48259716Y-60551270D01*
X48259717Y-60551270D01*
X47627408Y-59918962D01*
X47690993Y-59901925D01*
X47805007Y-59836099D01*
X47898099Y-59743007D01*
X47963925Y-59628993D01*
X47980962Y-59565408D01*
X48613270Y-60197717D01*
X48613270Y-60197716D01*
X48652622Y-60143554D01*
X48749095Y-59954217D01*
X48814757Y-59752130D01*
X48814757Y-59752127D01*
X48848000Y-59542246D01*
X48848000Y-59329753D01*
X48814757Y-59119872D01*
X48814757Y-59119869D01*
X48749095Y-58917782D01*
X48652624Y-58728449D01*
X48613270Y-58674282D01*
X48613269Y-58674282D01*
X47980962Y-59306590D01*
X47963925Y-59243007D01*
X47898099Y-59128993D01*
X47805007Y-59035901D01*
X47690993Y-58970075D01*
X47627409Y-58953037D01*
X48259716Y-58320728D01*
X48205550Y-58281375D01*
X48016217Y-58184904D01*
X47987292Y-58175506D01*
X47929616Y-58136068D01*
X47902418Y-58071710D01*
X47914333Y-58002863D01*
X47961577Y-57951388D01*
X47969315Y-57947090D01*
X48100994Y-57879996D01*
X48247501Y-57773553D01*
X48342464Y-57678590D01*
X72605000Y-57678590D01*
X72605000Y-57800000D01*
X73405000Y-57800000D01*
X73405000Y-58300000D01*
X72605000Y-58300000D01*
X72605000Y-58421409D01*
X72635164Y-58611856D01*
X72694746Y-58795234D01*
X72694747Y-58795237D01*
X72782288Y-58967043D01*
X72895616Y-59123027D01*
X72895620Y-59123032D01*
X73031967Y-59259379D01*
X73031972Y-59259383D01*
X73187956Y-59372711D01*
X73359762Y-59460252D01*
X73359765Y-59460253D01*
X73543142Y-59519835D01*
X73580000Y-59525673D01*
X73580000Y-58671409D01*
X73665956Y-58721037D01*
X73774048Y-58750000D01*
X73885952Y-58750000D01*
X73994044Y-58721037D01*
X74080000Y-58671409D01*
X74080000Y-59525672D01*
X74116855Y-59519835D01*
X74116858Y-59519835D01*
X74300234Y-59460253D01*
X74300237Y-59460252D01*
X74472043Y-59372711D01*
X74628027Y-59259383D01*
X74628032Y-59259379D01*
X74764379Y-59123032D01*
X74764383Y-59123027D01*
X74877711Y-58967043D01*
X74965252Y-58795237D01*
X74965253Y-58795234D01*
X75024835Y-58611856D01*
X75055000Y-58421409D01*
X75055000Y-58300000D01*
X74255000Y-58300000D01*
X74255000Y-57800000D01*
X75055000Y-57800000D01*
X75061645Y-57793354D01*
X75074685Y-57748948D01*
X75127489Y-57703193D01*
X75154798Y-57694372D01*
X75259328Y-57673580D01*
X75386811Y-57620775D01*
X75501542Y-57544114D01*
X75599114Y-57446542D01*
X75675775Y-57331811D01*
X75728580Y-57204328D01*
X75742777Y-57132956D01*
X75755500Y-57068995D01*
X79354499Y-57068995D01*
X79381418Y-57204322D01*
X79381421Y-57204332D01*
X79434221Y-57331804D01*
X79434228Y-57331817D01*
X79510885Y-57446541D01*
X79510888Y-57446545D01*
X79608454Y-57544111D01*
X79608458Y-57544114D01*
X79723182Y-57620771D01*
X79723195Y-57620778D01*
X79782866Y-57645494D01*
X79850672Y-57673580D01*
X79955194Y-57694371D01*
X80017102Y-57726754D01*
X80051676Y-57787470D01*
X80052890Y-57797890D01*
X80055000Y-57800000D01*
X80855000Y-57800000D01*
X80855000Y-58300000D01*
X80055000Y-58300000D01*
X80055000Y-58421409D01*
X80085164Y-58611856D01*
X80144746Y-58795234D01*
X80144747Y-58795237D01*
X80232288Y-58967043D01*
X80345616Y-59123027D01*
X80345620Y-59123032D01*
X80481967Y-59259379D01*
X80481972Y-59259383D01*
X80637956Y-59372711D01*
X80809762Y-59460252D01*
X80809765Y-59460253D01*
X80993142Y-59519835D01*
X81030000Y-59525673D01*
X81030000Y-58671409D01*
X81115956Y-58721037D01*
X81224048Y-58750000D01*
X81335952Y-58750000D01*
X81444044Y-58721037D01*
X81530000Y-58671409D01*
X81530000Y-59525672D01*
X81566855Y-59519835D01*
X81566858Y-59519835D01*
X81750234Y-59460253D01*
X81750237Y-59460252D01*
X81922043Y-59372711D01*
X81981170Y-59329753D01*
X96186000Y-59329753D01*
X96186000Y-59542246D01*
X96219242Y-59752127D01*
X96219242Y-59752130D01*
X96284904Y-59954217D01*
X96381375Y-60143550D01*
X96420728Y-60197716D01*
X97053037Y-59565408D01*
X97070075Y-59628993D01*
X97135901Y-59743007D01*
X97228993Y-59836099D01*
X97343007Y-59901925D01*
X97406590Y-59918962D01*
X96774282Y-60551269D01*
X96774282Y-60551270D01*
X96828449Y-60590624D01*
X97017780Y-60687094D01*
X97046705Y-60696492D01*
X97104381Y-60735929D01*
X97131580Y-60800287D01*
X97119667Y-60869134D01*
X97072424Y-60920610D01*
X97064685Y-60924908D01*
X96933004Y-60992004D01*
X96786505Y-61098441D01*
X96786500Y-61098445D01*
X96658445Y-61226500D01*
X96658441Y-61226505D01*
X96552006Y-61373002D01*
X96469788Y-61534360D01*
X96469787Y-61534363D01*
X96413829Y-61706589D01*
X96385500Y-61885448D01*
X96385500Y-62066551D01*
X96413829Y-62245410D01*
X96469787Y-62417636D01*
X96469788Y-62417639D01*
X96525664Y-62527300D01*
X96528633Y-62533127D01*
X96552006Y-62578997D01*
X96658441Y-62725494D01*
X96658445Y-62725499D01*
X96786500Y-62853554D01*
X96786505Y-62853558D01*
X96816709Y-62875502D01*
X96933006Y-62959996D01*
X97038484Y-63013740D01*
X97094360Y-63042211D01*
X97094363Y-63042212D01*
X97180476Y-63070191D01*
X97266591Y-63098171D01*
X97339639Y-63109740D01*
X97426678Y-63123527D01*
X97489813Y-63153456D01*
X97526744Y-63212768D01*
X97525746Y-63282631D01*
X97487136Y-63340863D01*
X97426678Y-63368473D01*
X97266589Y-63393829D01*
X97094363Y-63449787D01*
X97094360Y-63449788D01*
X96933002Y-63532006D01*
X96786505Y-63638441D01*
X96786500Y-63638445D01*
X96658445Y-63766500D01*
X96658441Y-63766505D01*
X96552006Y-63913002D01*
X96469788Y-64074360D01*
X96469787Y-64074363D01*
X96413829Y-64246589D01*
X96385500Y-64425448D01*
X96385500Y-64606551D01*
X96413829Y-64785410D01*
X96469787Y-64957636D01*
X96469788Y-64957639D01*
X96552006Y-65118997D01*
X96658441Y-65265494D01*
X96658445Y-65265499D01*
X96786500Y-65393554D01*
X96786505Y-65393558D01*
X96891340Y-65469724D01*
X96933006Y-65499996D01*
X97038484Y-65553740D01*
X97094360Y-65582211D01*
X97094363Y-65582212D01*
X97180476Y-65610191D01*
X97266591Y-65638171D01*
X97370716Y-65654662D01*
X97398270Y-65659027D01*
X97461405Y-65688956D01*
X97498336Y-65748268D01*
X97497338Y-65818130D01*
X97458728Y-65876363D01*
X97394765Y-65904477D01*
X97378872Y-65905500D01*
X96641143Y-65905500D01*
X96641117Y-65905502D01*
X96616012Y-65908413D01*
X96616008Y-65908415D01*
X96513235Y-65953793D01*
X96433794Y-66033234D01*
X96388415Y-66136006D01*
X96388415Y-66136008D01*
X96385500Y-66161131D01*
X96385500Y-67950856D01*
X96385502Y-67950882D01*
X96388413Y-67975987D01*
X96388415Y-67975991D01*
X96433793Y-68078764D01*
X96433794Y-68078765D01*
X96513235Y-68158206D01*
X96616009Y-68203585D01*
X96641135Y-68206500D01*
X98430864Y-68206499D01*
X98430879Y-68206497D01*
X98430882Y-68206497D01*
X98455987Y-68203586D01*
X98455988Y-68203585D01*
X98455991Y-68203585D01*
X98558765Y-68158206D01*
X98638206Y-68078765D01*
X98683585Y-67975991D01*
X98686500Y-67950865D01*
X98686499Y-66161136D01*
X98686497Y-66161117D01*
X98683586Y-66136012D01*
X98683585Y-66136010D01*
X98683585Y-66136009D01*
X98638206Y-66033235D01*
X98558765Y-65953794D01*
X98558763Y-65953793D01*
X98455992Y-65908415D01*
X98430868Y-65905500D01*
X97693128Y-65905500D01*
X97626089Y-65885815D01*
X97580334Y-65833011D01*
X97570390Y-65763853D01*
X97599415Y-65700297D01*
X97658193Y-65662523D01*
X97673730Y-65659027D01*
X97697014Y-65655338D01*
X97805409Y-65638171D01*
X97977639Y-65582211D01*
X98138994Y-65499996D01*
X98285501Y-65393553D01*
X98413553Y-65265501D01*
X98519996Y-65118994D01*
X98602211Y-64957639D01*
X98658171Y-64785409D01*
X98672765Y-64693259D01*
X98686500Y-64606551D01*
X98686500Y-64425448D01*
X98670019Y-64321397D01*
X98658171Y-64246591D01*
X98602211Y-64074361D01*
X98602211Y-64074360D01*
X98542986Y-63958127D01*
X98519996Y-63913006D01*
X98506396Y-63894287D01*
X98413558Y-63766505D01*
X98413554Y-63766500D01*
X98285499Y-63638445D01*
X98285494Y-63638441D01*
X98138997Y-63532006D01*
X98138996Y-63532005D01*
X98138994Y-63532004D01*
X98087300Y-63505664D01*
X97977639Y-63449788D01*
X97977636Y-63449787D01*
X97805410Y-63393829D01*
X97645321Y-63368473D01*
X97582186Y-63338544D01*
X97545255Y-63279232D01*
X97546253Y-63209370D01*
X97584863Y-63151137D01*
X97645321Y-63123527D01*
X97715425Y-63112422D01*
X97805409Y-63098171D01*
X97977639Y-63042211D01*
X98138994Y-62959996D01*
X98285501Y-62853553D01*
X98413553Y-62725501D01*
X98519996Y-62578994D01*
X98602211Y-62417639D01*
X98658171Y-62245409D01*
X98672765Y-62153259D01*
X98686500Y-62066551D01*
X98686500Y-61885448D01*
X98664211Y-61744726D01*
X98658171Y-61706591D01*
X98602211Y-61534361D01*
X98602211Y-61534360D01*
X98573740Y-61478484D01*
X98519996Y-61373006D01*
X98506396Y-61354287D01*
X98413558Y-61226505D01*
X98413554Y-61226500D01*
X98285499Y-61098445D01*
X98285494Y-61098441D01*
X98138995Y-60992004D01*
X98007314Y-60924908D01*
X97956519Y-60876934D01*
X97939724Y-60809113D01*
X97962262Y-60742978D01*
X98016977Y-60699527D01*
X98025295Y-60696492D01*
X98054217Y-60687095D01*
X98243554Y-60590622D01*
X98297716Y-60551270D01*
X98297717Y-60551270D01*
X97665408Y-59918962D01*
X97728993Y-59901925D01*
X97843007Y-59836099D01*
X97936099Y-59743007D01*
X98001925Y-59628993D01*
X98018962Y-59565408D01*
X98651270Y-60197717D01*
X98651270Y-60197716D01*
X98690622Y-60143554D01*
X98787095Y-59954217D01*
X98852757Y-59752130D01*
X98852757Y-59752127D01*
X98886000Y-59542246D01*
X98886000Y-59329753D01*
X98852757Y-59119872D01*
X98852757Y-59119869D01*
X98787095Y-58917782D01*
X98690624Y-58728449D01*
X98651270Y-58674282D01*
X98651269Y-58674282D01*
X98018962Y-59306590D01*
X98001925Y-59243007D01*
X97936099Y-59128993D01*
X97843007Y-59035901D01*
X97728993Y-58970075D01*
X97665409Y-58953037D01*
X98297716Y-58320728D01*
X98243550Y-58281375D01*
X98054217Y-58184904D01*
X98025292Y-58175506D01*
X97967616Y-58136068D01*
X97940418Y-58071710D01*
X97952333Y-58002863D01*
X97999577Y-57951388D01*
X98007315Y-57947090D01*
X98138994Y-57879996D01*
X98285501Y-57773553D01*
X98413553Y-57645501D01*
X98519996Y-57498994D01*
X98602211Y-57337639D01*
X98658171Y-57165409D01*
X98682691Y-57010596D01*
X98686500Y-56986551D01*
X98686500Y-56805448D01*
X98663430Y-56659795D01*
X98658171Y-56626591D01*
X98602707Y-56455888D01*
X98602212Y-56454363D01*
X98602211Y-56454360D01*
X98573740Y-56398484D01*
X98519996Y-56293006D01*
X98471067Y-56225660D01*
X98413558Y-56146505D01*
X98413554Y-56146500D01*
X98285499Y-56018445D01*
X98285494Y-56018441D01*
X98138997Y-55912006D01*
X98138996Y-55912005D01*
X98138994Y-55912004D01*
X98075622Y-55879714D01*
X97977639Y-55829788D01*
X97977636Y-55829787D01*
X97805410Y-55773829D01*
X97626551Y-55745500D01*
X97626546Y-55745500D01*
X97445454Y-55745500D01*
X97445449Y-55745500D01*
X97266589Y-55773829D01*
X97094363Y-55829787D01*
X97094360Y-55829788D01*
X96933002Y-55912006D01*
X96786505Y-56018441D01*
X96786500Y-56018445D01*
X96658445Y-56146500D01*
X96658441Y-56146505D01*
X96552006Y-56293002D01*
X96469788Y-56454360D01*
X96469787Y-56454363D01*
X96413829Y-56626589D01*
X96385500Y-56805448D01*
X96385500Y-56986551D01*
X96413829Y-57165410D01*
X96469787Y-57337636D01*
X96469788Y-57337639D01*
X96519354Y-57434916D01*
X96542097Y-57479551D01*
X96552006Y-57498997D01*
X96658441Y-57645494D01*
X96658445Y-57645499D01*
X96786500Y-57773554D01*
X96786505Y-57773558D01*
X96819996Y-57797890D01*
X96933006Y-57879996D01*
X97034780Y-57931853D01*
X97064684Y-57947090D01*
X97115480Y-57995065D01*
X97132275Y-58062886D01*
X97109737Y-58129021D01*
X97055022Y-58172472D01*
X97046708Y-58175506D01*
X97017781Y-58184905D01*
X96828439Y-58281380D01*
X96774282Y-58320727D01*
X96774282Y-58320728D01*
X97406591Y-58953037D01*
X97343007Y-58970075D01*
X97228993Y-59035901D01*
X97135901Y-59128993D01*
X97070075Y-59243007D01*
X97053037Y-59306591D01*
X96420728Y-58674282D01*
X96420727Y-58674282D01*
X96381380Y-58728439D01*
X96284904Y-58917782D01*
X96219242Y-59119869D01*
X96219242Y-59119872D01*
X96186000Y-59329753D01*
X81981170Y-59329753D01*
X82078027Y-59259383D01*
X82078032Y-59259379D01*
X82100212Y-59237200D01*
X82214379Y-59123032D01*
X82214383Y-59123027D01*
X82327711Y-58967043D01*
X82415252Y-58795237D01*
X82415253Y-58795234D01*
X82474835Y-58611856D01*
X82505000Y-58421409D01*
X82505000Y-58300000D01*
X81705000Y-58300000D01*
X81705000Y-57800000D01*
X82505000Y-57800000D01*
X82505000Y-57678590D01*
X82474835Y-57488143D01*
X82415253Y-57304765D01*
X82415252Y-57304762D01*
X82327711Y-57132956D01*
X82214383Y-56976972D01*
X82214379Y-56976967D01*
X82078032Y-56840620D01*
X82078027Y-56840616D01*
X81922043Y-56727288D01*
X81750237Y-56639747D01*
X81750231Y-56639745D01*
X81566858Y-56580165D01*
X81566848Y-56580162D01*
X81530000Y-56574325D01*
X81530000Y-57428590D01*
X81444044Y-57378963D01*
X81335952Y-57350000D01*
X81224048Y-57350000D01*
X81115956Y-57378963D01*
X81030000Y-57428590D01*
X81030000Y-56574325D01*
X80993151Y-56580162D01*
X80993141Y-56580165D01*
X80809768Y-56639745D01*
X80809761Y-56639748D01*
X80793806Y-56647878D01*
X80725137Y-56660773D01*
X80660397Y-56634496D01*
X80634411Y-56606283D01*
X80599114Y-56553458D01*
X80599111Y-56553454D01*
X80501545Y-56455888D01*
X80501541Y-56455885D01*
X80386817Y-56379228D01*
X80386804Y-56379221D01*
X80259332Y-56326421D01*
X80259322Y-56326418D01*
X80123995Y-56299500D01*
X80123993Y-56299500D01*
X79986007Y-56299500D01*
X79986005Y-56299500D01*
X79850677Y-56326418D01*
X79850667Y-56326421D01*
X79723195Y-56379221D01*
X79723182Y-56379228D01*
X79608458Y-56455885D01*
X79608454Y-56455888D01*
X79510888Y-56553454D01*
X79510885Y-56553458D01*
X79434228Y-56668182D01*
X79434221Y-56668195D01*
X79381421Y-56795667D01*
X79381418Y-56795677D01*
X79354500Y-56931004D01*
X79354500Y-56931007D01*
X79354500Y-57068993D01*
X79354500Y-57068995D01*
X79354499Y-57068995D01*
X75755500Y-57068995D01*
X75755500Y-56931004D01*
X75728581Y-56795677D01*
X75728580Y-56795676D01*
X75728580Y-56795672D01*
X75700255Y-56727288D01*
X75675778Y-56668195D01*
X75675771Y-56668182D01*
X75599114Y-56553458D01*
X75599111Y-56553454D01*
X75501545Y-56455888D01*
X75501541Y-56455885D01*
X75386817Y-56379228D01*
X75386804Y-56379221D01*
X75259332Y-56326421D01*
X75259322Y-56326418D01*
X75123995Y-56299500D01*
X75123993Y-56299500D01*
X74986007Y-56299500D01*
X74986005Y-56299500D01*
X74850677Y-56326418D01*
X74850667Y-56326421D01*
X74723195Y-56379221D01*
X74723182Y-56379228D01*
X74608458Y-56455885D01*
X74608454Y-56455888D01*
X74510888Y-56553454D01*
X74510885Y-56553458D01*
X74475589Y-56606283D01*
X74421977Y-56651088D01*
X74352652Y-56659795D01*
X74316194Y-56647878D01*
X74300238Y-56639748D01*
X74300231Y-56639745D01*
X74116858Y-56580165D01*
X74116848Y-56580162D01*
X74080000Y-56574325D01*
X74080000Y-57428590D01*
X73994044Y-57378963D01*
X73885952Y-57350000D01*
X73774048Y-57350000D01*
X73665956Y-57378963D01*
X73580000Y-57428590D01*
X73580000Y-56574325D01*
X73543151Y-56580162D01*
X73543141Y-56580165D01*
X73359768Y-56639745D01*
X73359762Y-56639747D01*
X73187956Y-56727288D01*
X73031972Y-56840616D01*
X73031967Y-56840620D01*
X72895620Y-56976967D01*
X72895616Y-56976972D01*
X72782288Y-57132956D01*
X72694747Y-57304762D01*
X72694746Y-57304765D01*
X72635164Y-57488143D01*
X72605000Y-57678590D01*
X48342464Y-57678590D01*
X48375553Y-57645501D01*
X48378191Y-57641869D01*
X48408007Y-57600833D01*
X48468187Y-57518000D01*
X48481996Y-57498994D01*
X48564211Y-57337639D01*
X48620171Y-57165409D01*
X48644691Y-57010596D01*
X48648500Y-56986551D01*
X48648500Y-56805448D01*
X48625430Y-56659795D01*
X48620171Y-56626591D01*
X48616744Y-56616043D01*
X53943499Y-56616043D01*
X53981947Y-56809329D01*
X53981950Y-56809339D01*
X54057364Y-56991407D01*
X54057370Y-56991418D01*
X54166860Y-57155281D01*
X54166863Y-57155285D01*
X54306214Y-57294636D01*
X54306218Y-57294639D01*
X54470079Y-57404128D01*
X54470092Y-57404135D01*
X54652160Y-57479549D01*
X54652165Y-57479551D01*
X54652169Y-57479551D01*
X54652170Y-57479552D01*
X54845456Y-57518000D01*
X54845459Y-57518000D01*
X55042543Y-57518000D01*
X55172582Y-57492132D01*
X55235835Y-57479551D01*
X55417914Y-57404132D01*
X55581782Y-57294639D01*
X55721139Y-57155282D01*
X55778795Y-57068993D01*
X55830630Y-56991418D01*
X55830635Y-56991407D01*
X55906049Y-56809339D01*
X55906051Y-56809335D01*
X55934127Y-56668189D01*
X55944500Y-56616043D01*
X56443499Y-56616043D01*
X56481947Y-56809329D01*
X56481950Y-56809339D01*
X56557364Y-56991407D01*
X56557370Y-56991418D01*
X56666860Y-57155281D01*
X56666863Y-57155285D01*
X56806214Y-57294636D01*
X56806218Y-57294639D01*
X56970079Y-57404128D01*
X56970092Y-57404135D01*
X57152160Y-57479549D01*
X57152165Y-57479551D01*
X57152169Y-57479551D01*
X57152170Y-57479552D01*
X57345456Y-57518000D01*
X57345459Y-57518000D01*
X57542543Y-57518000D01*
X57672582Y-57492132D01*
X57735835Y-57479551D01*
X57917914Y-57404132D01*
X58081782Y-57294639D01*
X58221139Y-57155282D01*
X58278795Y-57068993D01*
X58330630Y-56991418D01*
X58330635Y-56991407D01*
X58406049Y-56809339D01*
X58406051Y-56809335D01*
X58434127Y-56668189D01*
X58444500Y-56616043D01*
X58444500Y-56418956D01*
X58406052Y-56225670D01*
X58406051Y-56225669D01*
X58406051Y-56225665D01*
X58376801Y-56155048D01*
X58340805Y-56068144D01*
X58330633Y-56043589D01*
X58330632Y-56043586D01*
X58330630Y-56043583D01*
X58330628Y-56043579D01*
X58317812Y-56024398D01*
X58943500Y-56024398D01*
X58943500Y-57010602D01*
X58949126Y-57057454D01*
X58954122Y-57099061D01*
X59009639Y-57239843D01*
X59101077Y-57360422D01*
X59221656Y-57451860D01*
X59221657Y-57451860D01*
X59221658Y-57451861D01*
X59362436Y-57507377D01*
X59450898Y-57518000D01*
X59450903Y-57518000D01*
X60437097Y-57518000D01*
X60437102Y-57518000D01*
X60525564Y-57507377D01*
X60666342Y-57451861D01*
X60786922Y-57360422D01*
X60878361Y-57239842D01*
X60933877Y-57099064D01*
X60944500Y-57010602D01*
X60944500Y-56024398D01*
X60933877Y-55935936D01*
X60878361Y-55795158D01*
X60878360Y-55795157D01*
X60878360Y-55795156D01*
X60786922Y-55674577D01*
X60666343Y-55583139D01*
X60525561Y-55527622D01*
X60479926Y-55522142D01*
X60437102Y-55517000D01*
X59450898Y-55517000D01*
X59411853Y-55521688D01*
X59362438Y-55527622D01*
X59221656Y-55583139D01*
X59101077Y-55674577D01*
X59009639Y-55795156D01*
X58954122Y-55935938D01*
X58948188Y-55985353D01*
X58943500Y-56024398D01*
X58317812Y-56024398D01*
X58221139Y-55879718D01*
X58221136Y-55879714D01*
X58081785Y-55740363D01*
X58081781Y-55740360D01*
X57917920Y-55630871D01*
X57917907Y-55630864D01*
X57735839Y-55555450D01*
X57735829Y-55555447D01*
X57542543Y-55517000D01*
X57542541Y-55517000D01*
X57345459Y-55517000D01*
X57345457Y-55517000D01*
X57152170Y-55555447D01*
X57152160Y-55555450D01*
X56970092Y-55630864D01*
X56970079Y-55630871D01*
X56806218Y-55740360D01*
X56806214Y-55740363D01*
X56666863Y-55879714D01*
X56666860Y-55879718D01*
X56557371Y-56043579D01*
X56557364Y-56043592D01*
X56481950Y-56225660D01*
X56481947Y-56225670D01*
X56443500Y-56418956D01*
X56443500Y-56418959D01*
X56443500Y-56616041D01*
X56443500Y-56616043D01*
X56443499Y-56616043D01*
X55944500Y-56616043D01*
X55944500Y-56418956D01*
X55906052Y-56225670D01*
X55906051Y-56225669D01*
X55906051Y-56225665D01*
X55873260Y-56146499D01*
X55830635Y-56043592D01*
X55830628Y-56043579D01*
X55721139Y-55879718D01*
X55721136Y-55879714D01*
X55581785Y-55740363D01*
X55581781Y-55740360D01*
X55417920Y-55630871D01*
X55417907Y-55630864D01*
X55235839Y-55555450D01*
X55235829Y-55555447D01*
X55042543Y-55517000D01*
X55042541Y-55517000D01*
X54845459Y-55517000D01*
X54845457Y-55517000D01*
X54652170Y-55555447D01*
X54652160Y-55555450D01*
X54470092Y-55630864D01*
X54470079Y-55630871D01*
X54306218Y-55740360D01*
X54306214Y-55740363D01*
X54166863Y-55879714D01*
X54166860Y-55879718D01*
X54057371Y-56043579D01*
X54057364Y-56043592D01*
X53981950Y-56225660D01*
X53981947Y-56225670D01*
X53943500Y-56418956D01*
X53943500Y-56418959D01*
X53943500Y-56616041D01*
X53943500Y-56616043D01*
X53943499Y-56616043D01*
X48616744Y-56616043D01*
X48564211Y-56454361D01*
X48481996Y-56293006D01*
X48433067Y-56225660D01*
X48375558Y-56146505D01*
X48375554Y-56146500D01*
X48247499Y-56018445D01*
X48247494Y-56018441D01*
X48100997Y-55912006D01*
X48100996Y-55912005D01*
X48100994Y-55912004D01*
X48037622Y-55879714D01*
X47939639Y-55829788D01*
X47939636Y-55829787D01*
X47767410Y-55773829D01*
X47588551Y-55745500D01*
X47588546Y-55745500D01*
X47407454Y-55745500D01*
X47407449Y-55745500D01*
X47228589Y-55773829D01*
X47056363Y-55829787D01*
X47056360Y-55829788D01*
X46895002Y-55912006D01*
X46748505Y-56018441D01*
X46748500Y-56018445D01*
X46620445Y-56146500D01*
X46620441Y-56146505D01*
X46514006Y-56293002D01*
X46431788Y-56454360D01*
X46431787Y-56454363D01*
X46375829Y-56626589D01*
X46347500Y-56805448D01*
X46347500Y-56986551D01*
X46375829Y-57165410D01*
X46431787Y-57337636D01*
X46431788Y-57337639D01*
X46481354Y-57434916D01*
X46504097Y-57479551D01*
X46514006Y-57498997D01*
X46620441Y-57645494D01*
X46620445Y-57645499D01*
X46748500Y-57773554D01*
X46748505Y-57773558D01*
X46781996Y-57797890D01*
X46895006Y-57879996D01*
X46996780Y-57931853D01*
X47026684Y-57947090D01*
X47077480Y-57995065D01*
X47094275Y-58062886D01*
X47071737Y-58129021D01*
X47017022Y-58172472D01*
X47008708Y-58175506D01*
X46979781Y-58184905D01*
X46790439Y-58281380D01*
X46736282Y-58320727D01*
X46736282Y-58320728D01*
X47368591Y-58953037D01*
X47305007Y-58970075D01*
X47190993Y-59035901D01*
X47097901Y-59128993D01*
X47032075Y-59243007D01*
X47015037Y-59306591D01*
X46382728Y-58674282D01*
X46382727Y-58674282D01*
X46343380Y-58728439D01*
X46246904Y-58917782D01*
X46181242Y-59119869D01*
X46181242Y-59119872D01*
X46148000Y-59329753D01*
X34800500Y-59329753D01*
X34800500Y-55003480D01*
X34800695Y-54996527D01*
X34806469Y-54893713D01*
X36149500Y-54893713D01*
X36149500Y-55106286D01*
X36176271Y-55275316D01*
X36182754Y-55316243D01*
X36247984Y-55517000D01*
X36248444Y-55518414D01*
X36344951Y-55707820D01*
X36469890Y-55879786D01*
X36620213Y-56030109D01*
X36792179Y-56155048D01*
X36792181Y-56155049D01*
X36792184Y-56155051D01*
X36981588Y-56251557D01*
X37183757Y-56317246D01*
X37393713Y-56350500D01*
X37393714Y-56350500D01*
X37606286Y-56350500D01*
X37606287Y-56350500D01*
X37816243Y-56317246D01*
X38018412Y-56251557D01*
X38207816Y-56155051D01*
X38229789Y-56139086D01*
X38379786Y-56030109D01*
X38379788Y-56030106D01*
X38379792Y-56030104D01*
X38530104Y-55879792D01*
X38530106Y-55879788D01*
X38530109Y-55879786D01*
X38655048Y-55707820D01*
X38655047Y-55707820D01*
X38655051Y-55707816D01*
X38751557Y-55518412D01*
X38817246Y-55316243D01*
X38850500Y-55106287D01*
X38850500Y-54893713D01*
X38817246Y-54683757D01*
X38751557Y-54481588D01*
X38751557Y-54481587D01*
X38655048Y-54292179D01*
X38530109Y-54120213D01*
X38379786Y-53969890D01*
X38207820Y-53844951D01*
X38018414Y-53748444D01*
X38018413Y-53748443D01*
X38018412Y-53748443D01*
X37816243Y-53682754D01*
X37816241Y-53682753D01*
X37816240Y-53682753D01*
X37654957Y-53657208D01*
X37606287Y-53649500D01*
X37393713Y-53649500D01*
X37345042Y-53657208D01*
X37183760Y-53682753D01*
X36981585Y-53748444D01*
X36792179Y-53844951D01*
X36620213Y-53969890D01*
X36469890Y-54120213D01*
X36344951Y-54292179D01*
X36248444Y-54481585D01*
X36182753Y-54683760D01*
X36149500Y-54893713D01*
X34806469Y-54893713D01*
X34807133Y-54881888D01*
X34807133Y-54881887D01*
X34817084Y-54704693D01*
X34818638Y-54690898D01*
X34867015Y-54406167D01*
X34870109Y-54392615D01*
X34899045Y-54292179D01*
X34950061Y-54115096D01*
X34954653Y-54101975D01*
X35065175Y-53835151D01*
X35071195Y-53822651D01*
X35210902Y-53569868D01*
X35218297Y-53558100D01*
X35385422Y-53322559D01*
X35394077Y-53311705D01*
X35586534Y-53096346D01*
X35596346Y-53086534D01*
X35811705Y-52894077D01*
X35822559Y-52885422D01*
X36058105Y-52718293D01*
X36069868Y-52710902D01*
X36322651Y-52571195D01*
X36335151Y-52565175D01*
X36601979Y-52454651D01*
X36615096Y-52450061D01*
X36892621Y-52370107D01*
X36906167Y-52367015D01*
X37190898Y-52318638D01*
X37204691Y-52317084D01*
X37496528Y-52300695D01*
X37503481Y-52300500D01*
X37547595Y-52300500D01*
X54146716Y-52300500D01*
X54213755Y-52320185D01*
G37*
%TD.AperFunction*%
%TD*%
M02*
